<?xml version="1.0" encoding="UTF-8" standalone="no"?>
<!-- Created with Inkscape (http://www.inkscape.org/) -->

<svg
   xmlns:dc="http://purl.org/dc/elements/1.1/"
   xmlns:cc="http://creativecommons.org/ns#"
   xmlns:rdf="http://www.w3.org/1999/02/22-rdf-syntax-ns#"
   xmlns:svg="http://www.w3.org/2000/svg"
   xmlns="http://www.w3.org/2000/svg"
   xmlns:sodipodi="http://sodipodi.sourceforge.net/DTD/sodipodi-0.dtd"
   xmlns:inkscape="http://www.inkscape.org/namespaces/inkscape"
   width="20mm"
   height="21.428572mm"
   viewBox="0 0 20 21.428572"
   version="1.1"
   id="svg8"
   inkscape:version="0.92.4 (5da689c313, 2019-01-14)"
   sodipodi:docname="copybutton.svg">
  <defs
     id="defs2" />
  <sodipodi:namedview
     id="base"
     pagecolor="#ffffff"
     bordercolor="#666666"
     borderopacity="1.0"
     inkscape:pageopacity="0.0"
     inkscape:pageshadow="2"
     inkscape:zoom="3.959798"
     inkscape:cx="105.35506"
     inkscape:cy="-57.26005"
     inkscape:document-units="mm"
     inkscape:current-layer="svg8"
     showgrid="false"
     inkscape:window-width="3440"
     inkscape:window-height="1377"
     inkscape:window-x="-8"
     inkscape:window-y="32"
     inkscape:window-maximized="1"
     fit-margin-top="0"
     fit-margin-left="0"
     fit-margin-right="0"
     fit-margin-bottom="0" />
  <metadata
     id="metadata5">
    <rdf:RDF>
      <cc:Work
         rdf:about="">
        <dc:format>image/svg+xml</dc:format>
        <dc:type
           rdf:resource="http://purl.org/dc/dcmitype/StillImage" />
        <dc:title></dc:title>
      </cc:Work>
    </rdf:RDF>
  </metadata>
  <g
     inkscape:label="Layer 1"
     inkscape:groupmode="layer"
     id="layer1"
     transform="translate(0,5.4285717)" />
  <path
     d="m 2.8571428,17.142856 h 5.7142857 v 1.428572 H 2.8571428 Z M 10,8.5714277 H 2.8571428 v 1.428572 H 10 Z m 2.857143,4.2857163 V 9.9999997 l -4.2857145,4.2857163 4.2857145,4.285712 v -2.85714 H 20 V 12.857144 Z M 6.4285715,11.428572 H 2.8571428 v 1.428572 H 6.4285715 Z M 2.8571428,15.714288 H 6.4285715 V 14.285716 H 2.8571428 Z m 12.8571432,1.428568 h 1.428571 V 20 c -0.02856,0.4 -0.157145,0.742856 -0.428571,1 -0.271428,0.25716 -0.600001,0.4 -1,0.428572 H 1.4285715 C 0.64285715,21.428572 0,20.785716 0,20 V 4.2857157 c 0,-0.785716 0.64285715,-1.428572 1.4285715,-1.428572 h 4.285714 C 5.7142855,1.271429 6.9857145,0 8.5714285,0 10.157143,0 11.428572,1.271429 11.428572,2.8571437 h 4.285714 c 0.785714,0 1.428571,0.642856 1.428571,1.428572 V 11.428572 H 15.714286 V 7.1428557 H 1.4285715 V 20 H 15.714286 Z M 2.8571428,5.7142877 H 14.285715 c 0,-0.785716 -0.642858,-1.428572 -1.428572,-1.428572 H 11.428572 C 10.642857,4.2857157 10,3.6428557 10,2.8571437 10,2.071428 9.3571428,1.428572 8.5714285,1.428572 c -0.785714,0 -1.4285712,0.642856 -1.4285712,1.4285717 0,0.785712 -0.6428573,1.428572 -1.4285718,1.428572 h -1.428571 c -0.7857145,0 -1.4285717,0.642856 -1.4285717,1.428572 z"
     id="path6"
     inkscape:connector-curvature="0"
     style="fill:#cccccc;fill-rule:evenodd;stroke-width:1.42857146" />
</svg>
