<?xml version="1.0" encoding="UTF-8" standalone="no"?>
<svg
   xmlns:dc="http://purl.org/dc/elements/1.1/"
   xmlns:cc="http://creativecommons.org/ns#"
   xmlns:rdf="http://www.w3.org/1999/02/22-rdf-syntax-ns#"
   xmlns:svg="http://www.w3.org/2000/svg"
   xmlns="http://www.w3.org/2000/svg"
   xmlns:sodipodi="http://sodipodi.sourceforge.net/DTD/sodipodi-0.dtd"
   xmlns:inkscape="http://www.inkscape.org/namespaces/inkscape"
   version="1.1"
   id="Layer_1"
   x="0px"
   y="0px"
   viewBox="0 0 17.000002 15.63667"
   xml:space="preserve"
   sodipodi:docname="arrow-up.svg"
   width="17.000002"
   height="15.63667"
   inkscape:version="1.0.1 (3bc2e813f5, 2020-09-07)"><metadata
   id="metadata43"><rdf:RDF><cc:Work
       rdf:about=""><dc:format>image/svg+xml</dc:format><dc:type
         rdf:resource="http://purl.org/dc/dcmitype/StillImage" /><dc:title></dc:title></cc:Work></rdf:RDF></metadata><defs
   id="defs41" /><sodipodi:namedview
   pagecolor="#ffffff"
   bordercolor="#666666"
   borderopacity="1"
   objecttolerance="10"
   gridtolerance="10"
   guidetolerance="10"
   inkscape:pageopacity="0"
   inkscape:pageshadow="2"
   inkscape:window-width="1920"
   inkscape:window-height="1121"
   id="namedview39"
   showgrid="false"
   inkscape:zoom="10.922788"
   inkscape:cx="-10.335067"
   inkscape:cy="25.216855"
   inkscape:window-x="-9"
   inkscape:window-y="41"
   inkscape:window-maximized="1"
   inkscape:current-layer="Layer_1"
   inkscape:document-rotation="0"
   fit-margin-left="2"
   fit-margin-right="2"
   fit-margin-top="0"
   fit-margin-bottom="0" />
<g
   id="g6"
   transform="matrix(0.03178185,0,0,0.03178185,0.68165708,0)">
	<g
   id="g4">
		<path
   d="M 442.627,185.388 265.083,7.844 C 260.019,2.78 253.263,0 245.915,0 238.711,0 231.959,2.78 226.895,7.844 L 49.347,185.388 c -10.488,10.492 -10.488,27.568 0,38.052 l 16.12,16.128 c 5.064,5.06 11.82,7.844 19.028,7.844 7.204,0 14.192,-2.784 19.252,-7.844 L 207.555,135.984 v 329.084 c 0,14.832 11.616,26.932 26.448,26.932 h 22.8 c 14.832,0 27.624,-12.1 27.624,-26.932 V 134.816 l 104.396,104.752 c 5.06,5.06 11.636,7.844 18.844,7.844 7.208,0 13.864,-2.784 18.932,-7.844 l 16.072,-16.128 c 10.492,-10.488 10.452,-27.56 -0.044,-38.052 z"
   id="path2" />
	</g>
</g>
<g
   id="g8"
   transform="translate(-39.481)">
</g>
<g
   id="g10"
   transform="translate(-39.481)">
</g>
<g
   id="g12"
   transform="translate(-39.481)">
</g>
<g
   id="g14"
   transform="translate(-39.481)">
</g>
<g
   id="g16"
   transform="translate(-39.481)">
</g>
<g
   id="g18"
   transform="translate(-39.481)">
</g>
<g
   id="g20"
   transform="translate(-39.481)">
</g>
<g
   id="g22"
   transform="translate(-39.481)">
</g>
<g
   id="g24"
   transform="translate(-39.481)">
</g>
<g
   id="g26"
   transform="translate(-39.481)">
</g>
<g
   id="g28"
   transform="translate(-39.481)">
</g>
<g
   id="g30"
   transform="translate(-39.481)">
</g>
<g
   id="g32"
   transform="translate(-39.481)">
</g>
<g
   id="g34"
   transform="translate(-39.481)">
</g>
<g
   id="g36"
   transform="translate(-39.481)">
</g>
</svg>
