<svg id="Capa_1" enable-background="new 0 0 511.882 511.882" height="512" viewBox="0 0 511.882 511.882" width="512" xmlns="http://www.w3.org/2000/svg"><g><g><path d="m333.484 301.024 92.199-39.615c10.037-3.882 21.388.411 26.343 9.964 5.982 11.532.222 25.679-12.114 29.753l-48.734 16.803-74.891 23.626v-33.845z" fill="#f6a96c"/></g><g><path d="m454.408 281.071c0 8.757-5.497 17.087-14.492 20.059l-48.736 16.799-74.888 23.627v-18.508l67.93-21.421 48.736-16.809c8.777-2.902 14.214-10.884 14.473-19.403 1.829 1.65 3.399 3.648 4.592 5.954 1.62 3.122 2.385 6.442 2.385 9.702z" fill="#ea9b58"/></g><g><g><path d="m411.077 112.466c-14.866-11.345-33.27-17.541-51.966-17.541-27.214 0-55.648 15.712-67.161 57.102h-.001c-11.513-41.39-39.947-57.102-67.161-57.102-18.696 0-37.1 6.196-51.966 17.541-22.515 17.183-35.985 42.34-36.426 70.771-.958 61.636 41.52 118.021 92.323 148.721 14.68 8.872 41.304 20.227 54.842 25.803 5.335 2.198 11.316 2.219 16.667.061 18.955-7.646 37.266-15.174 54.955-25.864 50.803-30.7 93.28-87.085 92.323-148.721-.444-28.43-13.914-53.588-36.429-70.771z" fill="#ee6161"/></g></g><g><g><path d="m355.177 331.959c-17.683 10.685-35.993 18.22-54.948 25.864-5.358 2.157-11.332 2.137-16.669-.06-.686-.288-1.412-.586-2.167-.895 18.111-7.326 35.625-14.671 52.582-24.91 50.803-30.705 93.277-87.084 92.323-148.722-.437-28.428-13.906-53.586-36.43-70.773-11.898-9.075-26.063-14.86-40.834-16.799 3.36-.497 6.729-.736 10.079-.736 18.697 0 37.096 6.193 51.966 17.534 22.514 17.186 35.983 42.344 36.42 70.773.965 61.64-41.519 118.019-92.322 148.724z" fill="#e94444"/></g></g><g><g><path d="m64.098 416.958h-41.19c-8.509 0-15.408-6.898-15.408-15.408v-120.372c0-8.509 6.898-15.408 15.408-15.408h41.19c8.509 0 15.408 6.898 15.408 15.408v120.372c-.001 8.509-6.899 15.408-15.408 15.408z" fill="#57be92"/></g><g><path d="m79.501 281.181v120.373c0 8.509-6.898 15.407-15.407 15.407h-19.88c8.509 0 15.407-6.898 15.407-15.407v-120.373c0-8.509-6.898-15.407-15.407-15.407h19.88c8.509 0 15.407 6.898 15.407 15.407z" fill="#09a76d"/></g><g><path d="m499.564 305.754c-7.995-12.379-23.77-17.161-37.293-11.305l-138.271 45.666-.252-.02c8.341-2.833 14.797-10.178 16.041-19.501 1.747-13.1-7.457-25.135-20.556-26.882-25.29-4.976-50.58-9.952-75.869-14.928-10.116-1.99-44.957-9.531-51.894-9.087-14.141.906-26.797 11.296-37.708 19.038-24.518 17.399-49.143 12.202-74.256 3.701v92.507l60.504-3.532c12.81-1.094 25.705.642 37.77 5.086 0 0 57.855 21.309 57.888 21.321 39.589 14.581 74.427-2.447 111.188-14.832 46.576-15.693 94.277-27.806 140.737-43.86 16.148-7.974 21.743-28.241 11.971-43.372z" fill="#fed2a4"/></g><g><path d="m487.588 349.13c-46.46 16.053-94.161 28.16-140.73 43.855-36.768 12.385-71.608 29.412-111.189 14.83-.04-.01-57.89-21.321-57.89-21.321-12.067-4.443-24.959-6.173-37.772-5.079l-60.505 3.529v-19.791l60.505-3.539c12.813-1.093 27.564-1.213 39.631 3.23 0 0 57.851 21.311 57.891 21.321 39.581 14.582 72.562-.586 109.33-12.972 46.569-15.695 94.271-27.812 140.73-43.865 7.445-3.678 12.644-9.96 15.129-17.146 4.899 13.997-1.185 30.05-15.13 36.948z" fill="#ffbd86"/></g><path d="m505.865 301.686c-9.629-14.909-28.075-20.975-44.544-14.928 1.287-6.347.398-12.987-2.637-18.838-4.19-8.079-11.73-13.355-20.111-14.929 4.037-8.193 7.399-16.557 9.964-25 1.12-3.686-.516-7.775-4.042-9.325-4.208-1.848-8.941.429-10.227 4.69-11.241 37.275-39.102 73.1-75.331 97.323l-12.295 4.061c.336-1.419.577-2.871.719-4.351.649-6.734-.905-13.561-4.451-19.322-5.02-8.154-13.137-13.442-22.442-14.755-27.725-3.912-55.497-10.735-82.9-16.357-25.242-5.176-40.967-8.092-46.577-7.742-7.034.451-13.512 2.739-19.55 5.854-.685-.992-1.369-1.985-2.028-2.988-17.121-26.051-25.945-54.311-25.52-81.726.399-25.697 12.288-48.755 33.477-64.925 13.523-10.32 30.363-16.003 47.417-16.003 28.966 0 50.812 18.812 59.937 51.612.992 3.566 4.463 5.925 8.237 5.423 3.007-.4 5.451-2.698 6.27-5.619 9.156-32.679 30.973-51.416 59.881-51.416 17.055 0 33.894 5.684 47.417 16.003 21.188 16.17 33.077 39.228 33.478 64.924.037 2.424.004 4.877-.1 7.293-.163 3.795 2.369 7.308 6.107 7.984 4.557.824 8.663-2.557 8.865-7.037.127-2.804.169-5.653.126-8.471-.473-30.39-14.457-57.6-39.376-76.616-16.122-12.304-36.193-19.08-56.517-19.08-29.435 0-53.515 15.928-67.162 43.514-13.646-27.586-37.726-43.514-67.161-43.514-20.323 0-40.395 6.776-56.517 19.079-24.92 19.017-38.903 46.227-39.375 76.617-.473 30.434 9.203 61.624 27.982 90.197.586.892 1.195 1.777 1.802 2.661-1.858 1.303-3.678 2.617-5.454 3.904-9.206 6.665-21.395 12.387-32.986 12.837-3.512.136-33.235-2.171-33.235-5.72v-5.822c0-12.652-10.256-22.908-22.908-22.908h-41.19c-12.652 0-22.908 10.256-22.908 22.907v11.488c0 4.107 3.165 7.688 7.27 7.811 4.248.127 7.73-3.278 7.73-7.497v-11.801c0-4.367 3.54-7.908 7.908-7.908h41.19c4.367 0 7.907 3.54 7.907 7.907v120.373c0 4.367-3.54 7.908-7.908 7.908h-41.19c-4.367 0-7.907-3.54-7.907-7.907v-73.055c0-4.107-3.165-7.688-7.27-7.811-4.248-.128-7.73 3.277-7.73 7.496v73.369c0 12.652 10.256 22.908 22.908 22.908h41.19c12.651 0 22.907-10.256 22.907-22.907v-9.531l53.441-3.119c.066-.004.134-.009.201-.015 11.64-.993 23.58.615 34.539 4.65 56.722 20.893 57.873 21.316 57.888 21.321 11.733 4.322 23.064 6.063 34.094 6.063 23.45-.001 45.521-7.877 67.09-15.575 4.908-1.752 9.984-3.563 14.99-5.25 22.039-7.426 44.771-14.176 66.755-20.703 24.353-7.231 74.626-23.401 74.908-23.54 12.03-5.91 16.764-13.396 19.616-23.731 2.854-10.335 1.155-21.429-4.662-30.435zm-75.47-33.872c5.925-1.303 12.102 1.475 14.975 7.013 1.838 3.543 2.028 7.695.523 11.391-1.505 3.697-4.542 6.535-8.424 7.818l-38.581 13.302c12.24-12.06 22.882-25.423 31.507-39.524zm65.673 60.315c-.314 1.139-.716 2.244-1.197 3.306-2.561 5.656-7.534 9.864-13.411 11.866-23.042 7.848-46.756 14.889-69.727 21.71-22.112 6.566-44.978 13.355-67.274 20.868-5.134 1.729-10.273 3.564-15.244 5.338-30.536 10.899-59.379 21.194-90.961 9.562-.329-.121-57.884-21.319-57.884-21.319-10.509-3.871-21.779-5.86-33.005-5.86-2.637 0-5.272.11-7.894.331l-52.467 3.063v-74.288c21.994 6.497 46.586 9.542 71.096-7.852 10.053-7.134 20.966-16.845 33.848-17.67 4.722-.302 32.224 5.337 42.591 7.464 27.694 5.68 55.496 10.965 83.244 16.426.176.035.354.063.532.084 20.853 2.448 16.847 35.393-4.417 32.561-.066-.009-.133-.017-.2-.024l-66.266-7.029c-4.425-.477-8.385 3.033-8.29 7.646.079 3.814 3.173 6.896 6.966 7.298l65.912 6.991c4.501.586 8.981.204 13.201-1.082.377-.063 139.848-46.117 140.071-46.203 10.191-4.39 21.949-.816 27.97 8.51 3.501 5.415 4.523 12.087 2.806 18.303z"/></g></g></svg>