<?xml version="1.0" encoding="UTF-8" standalone="no"?>
<svg
   xmlns:dc="http://purl.org/dc/elements/1.1/"
   xmlns:cc="http://creativecommons.org/ns#"
   xmlns:rdf="http://www.w3.org/1999/02/22-rdf-syntax-ns#"
   xmlns:svg="http://www.w3.org/2000/svg"
   xmlns="http://www.w3.org/2000/svg"
   xmlns:sodipodi="http://sodipodi.sourceforge.net/DTD/sodipodi-0.dtd"
   xmlns:inkscape="http://www.inkscape.org/namespaces/inkscape"
   version="1.1"
   id="Layer_1"
   x="0px"
   y="0px"
   viewBox="0 0 20.045796 20"
   xml:space="preserve"
   sodipodi:docname="expand.svg"
   width="20.045795"
   height="20"
   inkscape:version="1.0.1 (3bc2e813f5, 2020-09-07)"><metadata
   id="metadata67"><rdf:RDF><cc:Work
       rdf:about=""><dc:format>image/svg+xml</dc:format><dc:type
         rdf:resource="http://purl.org/dc/dcmitype/StillImage" /><dc:title></dc:title></cc:Work></rdf:RDF></metadata><defs
   id="defs65" /><sodipodi:namedview
   pagecolor="#ffffff"
   bordercolor="#666666"
   borderopacity="1"
   objecttolerance="10"
   gridtolerance="10"
   guidetolerance="10"
   inkscape:pageopacity="0"
   inkscape:pageshadow="2"
   inkscape:window-width="1920"
   inkscape:window-height="1121"
   id="namedview63"
   showgrid="false"
   inkscape:zoom="0.33246543"
   inkscape:cx="138.97483"
   inkscape:cy="125.35223"
   inkscape:window-x="-9"
   inkscape:window-y="41"
   inkscape:window-maximized="1"
   inkscape:current-layer="Layer_1" />
<g
   id="g6"
   transform="matrix(0.05612239,0,0,0.05612239,0,-0.02289794)">
	<g
   id="g4">
		<path
   d="m 123.292,96.7 c -0.128,-0.196 -0.112,-0.408 -0.284,-0.58 L 65.456,38.564 96.724,38.612 c 7.396,0 13.82,-6.42 13.816,-13.812 l 0.004,-10.524 c 0,-7.648 -6.22,-13.868 -13.864,-13.868 H 15.04 C 11.264,0.408 7.7,2 5.072,4.68 2.464,7.276 0.908,10.768 0.908,14.54 V 97.9 c -0.004,7.64 6.216,13.86 13.86,13.86 l 10.528,0.008 c 7.636,0 13.848,-6.212 13.852,-13.852 L 39.128,66.596 89,116.472 c 0.028,0.024 0.052,0.048 0.072,0.072 l 6.428,6.42 c 5.404,5.408 14.104,5.284 19.512,-0.124 l 7.44,-7.436 c 5.124,-5.132 5.432,-13.26 0.84,-18.704 z"
   id="path2" />
	</g>
</g>
<g
   id="g12"
   transform="matrix(0.05612239,0,0,0.05612239,0,-0.02289794)">
	<g
   id="g10">
		<path
   d="m 357.132,260.884 c 0,-7.648 -6.212,-13.876 -13.856,-13.876 L 332.756,247 c -7.384,-0.008 -13.836,6.444 -13.836,13.836 l 0.048,31.272 -57.328,-57.328 c -0.18,-0.18 -0.5,-0.268 -0.696,-0.4 -5.444,-4.6 -13.688,-4.396 -18.812,0.728 l -7.444,7.444 c -5.4,5.4 -5.316,14.32 0.1,19.736 l 6.42,6.42 c 0.024,0.024 0.048,0.048 0.072,0.072 l 49.656,49.656 -31.312,-0.016 c -7.384,0 -13.852,6.46 -13.852,13.852 l 0.024,10.544 c -0.008,7.64 6.228,13.876 13.868,13.868 l 83.38,0.032 c 3.688,-0.008 7.196,-1.4 9.824,-4.032 l 0.376,-0.376 c 2.532,-2.54 3.936,-6.048 3.936,-9.728 z"
   id="path8" />
	</g>
</g>
<g
   id="g18"
   transform="matrix(0.05612239,0,0,0.05612239,0,-0.02289794)">
	<g
   id="g16">
		<path
   d="m 122.308,242.804 -7.448,-7.452 c -5.12,-5.116 -13.412,-5.24 -18.852,-0.648 -0.196,0.132 -0.56,0.296 -0.736,0.468 l -57.084,57.084 0.036,-31.288 c 0.004,-3.684 -1.42,-7.14 -4.04,-9.764 -2.624,-2.62 -6.104,-4.072 -9.792,-4.064 l -10.524,-0.008 c -3.824,0 -7.288,1.556 -9.8,4.072 C 1.552,253.712 0,257.18 0,261 v 81.64 c 0,3.78 1.52,7.32 4.272,9.968 2.544,2.648 6.084,4.164 9.86,4.164 h 83.36 c 7.644,0.008 13.864,-6.212 13.864,-13.852 v -10.532 c 0,-3.688 -1.436,-7.156 -4.064,-9.78 -2.62,-2.628 -6.084,-4.056 -9.772,-4.056 l -31.296,0.024 49.412,-49.404 c 0.024,-0.024 0.044,-0.04 0.064,-0.064 l 5.584,-5.584 0.84,-0.844 c 5.408,-5.408 5.584,-14.476 0.184,-19.876 z"
   id="path14" />
	</g>
</g>
<g
   id="g24"
   transform="matrix(0.05612239,0,0,0.05612239,0,-0.02289794)">
	<g
   id="g22">
		<path
   d="m 356.348,14.576 c 0,-3.772 -1.516,-7.312 -4.264,-9.964 -2.556,-2.648 -6.096,-4.172 -9.868,-4.172 h -81.64 c -3.82,0 -7.288,1.556 -9.796,4.064 -2.516,2.516 -4.072,5.976 -4.072,9.796 v 10.524 c 0,3.696 1.44,7.164 4.064,9.788 2.616,2.62 6.084,4.056 9.772,4.056 l 31.288,-0.04 -57.4,57.4 c -0.172,0.18 -0.312,0.516 -0.444,0.712 -4.592,5.444 -4.436,13.704 0.68,18.82 l 7.452,7.452 c 5.4,5.4 14.412,5.276 19.82,-0.132 l 6.42,-6.42 c 0.032,-0.024 0.048,-0.048 0.072,-0.072 L 318.16,66.664 318.128,97.96 c 0,3.692 1.416,7.14 4.04,9.756 2.624,2.636 6.108,4.08 9.788,4.072 l 10.532,0.008 c 7.648,0 13.864,-6.22 13.864,-13.868 z"
   id="path20" />
	</g>
</g>
<g
   id="g30"
   transform="matrix(0.05612239,0,0,0.05612239,0,-0.02289794)">
	<g
   id="g28">
		<path
   d="m 205.732,151.704 c -15.004,-14.992 -39.396,-14.992 -54.392,0 -14.996,14.992 -14.996,39.392 0.004,54.392 14.992,14.992 39.392,14.992 54.388,0 14.992,-14.992 14.992,-39.4 0,-54.392 z"
   id="path26" />
	</g>
</g>
<g
   id="g32"
   transform="translate(0,-0.408)">
</g>
<g
   id="g34"
   transform="translate(0,-0.408)">
</g>
<g
   id="g36"
   transform="translate(0,-0.408)">
</g>
<g
   id="g38"
   transform="translate(0,-0.408)">
</g>
<g
   id="g40"
   transform="translate(0,-0.408)">
</g>
<g
   id="g42"
   transform="translate(0,-0.408)">
</g>
<g
   id="g44"
   transform="translate(0,-0.408)">
</g>
<g
   id="g46"
   transform="translate(0,-0.408)">
</g>
<g
   id="g48"
   transform="translate(0,-0.408)">
</g>
<g
   id="g50"
   transform="translate(0,-0.408)">
</g>
<g
   id="g52"
   transform="translate(0,-0.408)">
</g>
<g
   id="g54"
   transform="translate(0,-0.408)">
</g>
<g
   id="g56"
   transform="translate(0,-0.408)">
</g>
<g
   id="g58"
   transform="translate(0,-0.408)">
</g>
<g
   id="g60"
   transform="translate(0,-0.408)">
</g>
</svg>
