<?xml version="1.0" encoding="UTF-8" standalone="no"?>
<!-- Generator: Adobe Illustrator 19.0.0, SVG Export Plug-In . SVG Version: 6.00 Build 0)  -->

<svg
   xmlns:dc="http://purl.org/dc/elements/1.1/"
   xmlns:cc="http://creativecommons.org/ns#"
   xmlns:rdf="http://www.w3.org/1999/02/22-rdf-syntax-ns#"
   xmlns:svg="http://www.w3.org/2000/svg"
   xmlns="http://www.w3.org/2000/svg"
   xmlns:sodipodi="http://sodipodi.sourceforge.net/DTD/sodipodi-0.dtd"
   xmlns:inkscape="http://www.inkscape.org/namespaces/inkscape"
   version="1.1"
   id="Layer_1"
   x="0px"
   y="0px"
   viewBox="0 0 30.526343 20"
   xml:space="preserve"
   sodipodi:docname="germany.svg"
   width="30.526342"
   height="20"
   inkscape:version="0.92.4 (5da689c313, 2019-01-14)"><metadata
   id="metadata43"><rdf:RDF><cc:Work
       rdf:about=""><dc:format>image/svg+xml</dc:format><dc:type
         rdf:resource="http://purl.org/dc/dcmitype/StillImage" /><dc:title></dc:title></cc:Work></rdf:RDF></metadata><defs
   id="defs41" /><sodipodi:namedview
   pagecolor="#ffffff"
   bordercolor="#666666"
   borderopacity="1"
   objecttolerance="10"
   gridtolerance="10"
   guidetolerance="10"
   inkscape:pageopacity="0"
   inkscape:pageshadow="2"
   inkscape:window-width="789"
   inkscape:window-height="480"
   id="namedview39"
   showgrid="false"
   fit-margin-top="0"
   fit-margin-left="0"
   fit-margin-right="0"
   fit-margin-bottom="0"
   inkscape:zoom="1.3037281"
   inkscape:cx="2.897588"
   inkscape:cy="40.871938"
   inkscape:window-x="0"
   inkscape:window-y="0"
   inkscape:window-maximized="0"
   inkscape:current-layer="Layer_1" />
<path
   style="fill:#464655;stroke-width:0.05962176"
   d="M 28.240145,0 H 2.2861964 C 1.0235267,0 0,1.023527 0,2.286193 V 6.666667 H 30.526341 V 2.286193 C 30.526341,1.023527 29.502814,0 28.240145,0 Z"
   id="path2"
   inkscape:connector-curvature="0" />
<path
   style="fill:#ffe15a;stroke-width:0.05962176"
   d="M 0,17.713807 C 0,18.976413 1.0235267,20 2.2861964,20 H 28.240145 c 1.26261,0 2.286196,-1.023527 2.286196,-2.286193 V 13.333333 H 0 Z"
   id="path4"
   inkscape:connector-curvature="0" />
<rect
   y="6.666544"
   style="fill:#ff4b55;stroke-width:0.05962176"
   width="30.526342"
   height="6.6663089"
   id="rect6"
   x="0" />
<g
   id="g8"
   transform="matrix(0.08943264,0,0,0.08943264,0,-17.89476)">
</g>
<g
   id="g10"
   transform="matrix(0.08943264,0,0,0.08943264,0,-17.89476)">
</g>
<g
   id="g12"
   transform="matrix(0.08943264,0,0,0.08943264,0,-17.89476)">
</g>
<g
   id="g14"
   transform="matrix(0.08943264,0,0,0.08943264,0,-17.89476)">
</g>
<g
   id="g16"
   transform="matrix(0.08943264,0,0,0.08943264,0,-17.89476)">
</g>
<g
   id="g18"
   transform="matrix(0.08943264,0,0,0.08943264,0,-17.89476)">
</g>
<g
   id="g20"
   transform="matrix(0.08943264,0,0,0.08943264,0,-17.89476)">
</g>
<g
   id="g22"
   transform="matrix(0.08943264,0,0,0.08943264,0,-17.89476)">
</g>
<g
   id="g24"
   transform="matrix(0.08943264,0,0,0.08943264,0,-17.89476)">
</g>
<g
   id="g26"
   transform="matrix(0.08943264,0,0,0.08943264,0,-17.89476)">
</g>
<g
   id="g28"
   transform="matrix(0.08943264,0,0,0.08943264,0,-17.89476)">
</g>
<g
   id="g30"
   transform="matrix(0.08943264,0,0,0.08943264,0,-17.89476)">
</g>
<g
   id="g32"
   transform="matrix(0.08943264,0,0,0.08943264,0,-17.89476)">
</g>
<g
   id="g34"
   transform="matrix(0.08943264,0,0,0.08943264,0,-17.89476)">
</g>
<g
   id="g36"
   transform="matrix(0.08943264,0,0,0.08943264,0,-17.89476)">
</g>
</svg>