<svg height="512pt" viewBox="0 -74 512 512" width="512pt" xmlns="http://www.w3.org/2000/svg"><path d="m214.664062 270.097656 4.253907-59.894531c-25.359375 11.378906-43.03125 36.828125-43.03125 66.425781 0 12.613282 10.226562 22.84375 22.84375 22.84375h25.371093c-6.554687-7.90625-10.226562-18.25-9.4375-29.375zm0 0" fill="#ffccbc"/><path d="m297.335938 270.097656-4.253907-59.894531c25.359375 11.378906 43.03125 36.828125 43.03125 66.425781 0 12.613282-10.226562 22.84375-22.84375 22.84375h-25.371093c6.554687-7.90625 10.226562-18.25 9.4375-29.375zm0 0" fill="#ff8a65"/><path d="m288.691406 150.703125c-.671875-1.378906-1.320312-2.765625-1.929687-4.175781-5.292969-12.308594-17.359375-20.328125-30.761719-20.328125s-25.46875 8.019531-30.761719 20.328125c-.609375 1.410156-1.257812 2.796875-1.929687 4.175781-.546875 3.179687.09375-2.835937-8.644532 119.394531-1.699218 23.980469 17.296876 44.371094 41.335938 44.371094s43.035156-20.390625 41.335938-44.371094c-8.734376-122.175781-8.097657-116.21875-8.644532-119.394531zm0 0" fill="#ffccbc"/><path d="m297.335938 270.097656c-8.734376-122.175781-8.097657-116.214844-8.644532-119.394531-.671875-1.378906-1.320312-2.765625-1.929687-4.175781-5.210938-12.121094-16.992188-20.058594-30.144531-20.304688.046874.105469.101562.203125.144531.304688.609375 1.410156 1.257812 2.796875 1.929687 4.175781.546875 3.179687-.089844-2.78125 8.644532 119.394531 1.699218 23.980469-17.296876 44.371094-41.335938 44.371094-1.933594 0-3.832031-.144531-5.695312-.402344 7.183593 12.160156 20.417968 20.402344 35.695312 20.402344 24.039062 0 43.035156-20.390625 41.335938-44.371094zm0 0" fill="#ff8a65"/><path d="m367.699219 280.886719h-31.988281c-1.996094 10.578125-11.28125 18.585937-22.4375 18.585937h-25.375c0-.003906.003906-.003906.003906-.007812-6.0625 7.316406-14.605469 12.523437-24.386719 14.316406 12.234375 25.265625 38.117187 42.691406 68.070313 42.691406h111.699218c0-41.746094-33.839844-75.585937-75.585937-75.585937zm0 0" fill="#757575"/><path d="m224.101562 299.46875h-25.371093c-11.160157 0-20.445313-8.003906-22.441407-18.582031h-31.988281c-41.746093 0-75.585937 33.839843-75.585937 75.585937h111.699218c29.957032 0 55.839844-17.429687 68.070313-42.695312-9.777344-1.789063-18.316406-6.996094-24.382813-14.308594zm0 0" fill="#757575"/><path d="m379.957031 281.890625c8.34375 7.988281 14.859375 17.863281 18.863281 28.945313 4.503907 12.480468-4.871093 25.636718-18.140624 25.636718h-89.09375c-4.179688 0-8.277344-.351562-12.269532-1.003906 13.574219 13.003906 31.984375 21.003906 52.269532 21.003906h111.699218c0-37.570312-27.414062-68.722656-63.328125-74.582031zm0 0" fill="#424242"/><path d="m224.101562 299.46875h-18.695312c-13.179688 22.152344-37.34375 37.003906-64.992188 37.003906h-69.003906c-1.746094 6.371094-2.695312 13.074219-2.695312 20h111.699218c29.957032 0 55.839844-17.429687 68.070313-42.695312-9.777344-1.789063-18.316406-6.996094-24.382813-14.308594zm0 0" fill="#424242"/><path d="m476.195312 88.136719c-8.882812-45.941407-49.308593-80.636719-97.84375-80.636719-48.535156 0-88.960937 34.695312-97.84375 80.636719-15.945312-5.082031-33.070312-5.082031-49.011718 0-8.886719-45.941407-49.3125-80.636719-97.847656-80.636719-48.535157 0-88.960938 34.695312-97.84375 80.636719h-28.304688v38.0625h28.304688c8.882812 45.941406 49.308593 80.636719 97.84375 80.636719 41.066406 0 76.328124-24.839844 91.589843-60.308594 5.292969-12.3125 17.359375-20.328125 30.761719-20.328125s25.46875 8.015625 30.761719 20.328125c15.261719 35.46875 50.523437 60.308594 91.589843 60.308594 48.535157 0 88.960938-34.695313 97.84375-80.636719h28.304688v-38.0625zm-342.546874 87.8125c-37.925782 0-68.777344-30.855469-68.777344-68.78125s30.851562-68.777344 68.777344-68.777344c37.925781 0 68.78125 30.851563 68.78125 68.777344s-30.855469 68.78125-68.78125 68.78125zm244.703124-.074219c-37.882812 0-68.707031-30.820312-68.707031-68.707031s30.820313-68.707031 68.707031-68.707031c37.882813 0 68.707032 30.820312 68.707032 68.707031s-30.824219 68.707031-68.707032 68.707031zm0 0" fill="#ef5350"/><path d="m476.195312 88.136719c-7.40625-38.304688-36.75-68.773438-74.433593-77.851563 17.480469 14.4375 29.960937 34.714844 34.433593 57.851563h-1.347656c7.6875 11.09375 12.207032 24.542969 12.207032 39.03125 0 35.859375-27.613282 65.367187-62.691407 68.425781-13.761719 7.179688-29.414062 11.242188-46.011719 11.242188-8.058593 0-15.890624-.96875-23.394531-2.773438 17.226563 14.222656 39.308594 22.773438 63.394531 22.773438 48.535157 0 88.960938-34.695313 97.84375-80.636719h28.304688v-38.0625zm0 0" fill="#d32f2f"/><path d="m504.5 80.636719h-22.300781c-11.976563-47.082031-54.691407-80.636719-103.847657-80.636719-48.542968 0-90.804687 32.722656-103.386718 78.882812-12.527344-2.773437-25.402344-2.773437-37.925782 0-3.300781-12.132812-8.6875-23.492187-16.074218-33.855468-2.402344-3.371094-7.085938-4.15625-10.460938-1.753906-3.371094 2.40625-4.15625 7.089843-1.753906 10.460937 7.699219 10.800781 12.871094 22.855469 15.382812 35.828125.851563 4.402344 5.363282 7.085938 9.640626 5.71875 14.542968-4.632812 29.914062-4.632812 44.457031 0 4.277343 1.367188 8.789062-1.316406 9.640625-5.71875 8.355468-43.203125 46.40625-74.5625 90.480468-74.5625 44.074219 0 82.128907 31.359375 90.480469 74.5625.683594 3.527344 3.773438 6.074219 7.363281 6.074219h20.804688v23.0625h-20.804688c-3.59375 0-6.679687 2.546875-7.363281 6.078125-8.355469 43.203125-46.40625 74.558594-90.480469 74.558594-36.875 0-70.121093-21.894532-84.699218-55.773438-14.222656-33.0625-61.058594-33.109375-75.304688 0-14.578125 33.878906-47.824218 55.773438-84.699218 55.773438-44.074219 0-82.125-31.355469-90.480469-74.558594-.683594-3.53125-3.769531-6.078125-7.363281-6.078125h-20.804688v-23.0625h20.804688c3.59375 0 6.679687-2.546875 7.363281-6.074219 12.597656-65.148438 88.300781-95.769531 142.636719-58.394531 3.414062 2.351562 8.082031 1.484375 10.429687-1.929688 2.351563-3.410156 1.484375-8.082031-1.925781-10.429687-17.894532-12.304688-38.867188-18.808594-60.660156-18.808594-49.15625 0-91.871094 33.554688-103.847657 80.636719h-22.300781c-4.140625 0-7.5 3.355469-7.5 7.5v38.0625c0 4.140625 3.359375 7.5 7.5 7.5h22.300781c21.054688 82.777343 126.746094 108.839843 183.839844 44.820312-.488281 6.945313-1.105469 15.714844-1.886719 26.816407-25.535156 13.242187-42.136718 39.273437-43.300781 68.050781h-24.152344c-45.816406 0-83.085937 37.269531-83.085937 83.085937 0 4.140625 3.355468 7.5 7.5 7.5h65.199218c4.140626 0 7.5-3.359375 7.5-7.5 0-4.144531-3.359374-7.5-7.5-7.5h-57.289062c3.746094-34.027344 32.667969-60.585937 67.675781-60.585937h26.457031c4.601563 10.90625 15.40625 18.582031 27.972657 18.582031h22.011719c4.71875 4.898438 10.390624 8.722656 16.585937 11.28125-12.480469 18.902344-33.964844 30.722656-56.914063 30.722656h-11.5c-4.140624 0-7.5 3.355469-7.5 7.5 0 4.140625 3.359376 7.5 7.5 7.5h11.5c29.832032 0 57.636719-16.367187 72.289063-42.117187 2.125.144531 4.316406.15625 6.59375 0 14.648437 25.75 42.457031 42.117187 72.289063 42.117187h111.699218c4.144532 0 7.5-3.359375 7.5-7.5 0-45.816406-37.269531-83.085937-83.085937-83.085937h-24.152344c-1.164063-28.777344-17.765625-54.808594-43.300781-68.050781-.78125-11.101563-1.398438-19.871094-1.886719-26.816407 19.984375 22.410157 48.875 35.816407 79.992187 35.816407 49.15625 0 91.871094-33.554688 103.847657-80.636719h22.300781c4.140625 0 7.5-3.355469 7.5-7.5v-38.0625c0-4.140625-3.359375-7.5-7.5-7.5zm-321.113281 195.992187c0-21.171875 10.300781-40.785156 27.0625-52.914062-3.414063 48.121094-5.371094 54.390625.441406 68.257812h-12.160156c-8.949219-.003906-15.34375-7.453125-15.34375-15.34375zm251.988281 72.34375h-103.789062c-22.949219 0-44.433594-11.820312-56.914063-30.722656 6.195313-2.558594 11.867187-6.382812 16.582031-11.28125h22.015625c12.566407 0 23.371094-7.675781 27.972657-18.582031h26.457031c35.007812 0 63.929687 26.558593 67.675781 60.585937zm-106.761719-72.34375c0 7.925782-6.433593 15.34375-15.34375 15.34375h-12.160156c5.71875-13.644531 3.914063-19.269531.441406-68.257812 16.761719 12.128906 27.0625 31.742187 27.0625 52.914062zm-38.761719-6c1.390626 19.5625-14.070312 36.339844-33.851562 36.339844-20.191406 0-35.210938-17.226562-33.851562-36.335938 7.207031-100.875 8.0625-114.828124 8.390624-117.628906.550782-1.160156 1.078126-2.328125 1.585938-3.511718 9.035156-20.996094 38.699219-21.027344 47.746094 0 .511718 1.183593 1.039062 2.351562 1.585937 3.511718.332031 2.808594 1.195313 16.875 8.394531 117.625zm0 0"/><path d="m133.648438 30.890625c-42.058594 0-76.277344 34.21875-76.277344 76.277344 0 42.058593 34.21875 76.277343 76.277344 76.277343 42.0625 0 76.28125-34.21875 76.28125-76.277343 0-42.058594-34.21875-76.277344-76.28125-76.277344zm0 137.558594c-33.789063 0-61.277344-27.492188-61.277344-61.28125 0-33.789063 27.488281-61.277344 61.277344-61.277344 33.789062 0 61.28125 27.488281 61.28125 61.277344 0 33.789062-27.492188 61.28125-61.28125 61.28125zm0 0"/><path d="m433.90625 148.234375c3.574219 2.09375 8.171875.894531 10.261719-2.683594 6.796875-11.613281 10.386719-24.886719 10.386719-38.382812 0-42.019531-34.183594-76.207031-76.203126-76.207031-42.023437 0-76.207031 34.1875-76.207031 76.207031s34.183594 76.207031 76.207031 76.207031c13.53125 0 26.835938-3.613281 38.472657-10.441406 3.574219-2.097656 4.769531-6.695313 2.671875-10.265625-2.097656-3.574219-6.691406-4.769531-10.265625-2.671875-9.335938 5.480468-20.015625 8.378906-30.878907 8.378906-33.75 0-61.207031-27.457031-61.207031-61.207031s27.457031-61.207031 61.207031-61.207031c33.746094 0 61.203126 27.457031 61.203126 61.207031 0 10.835937-2.878907 21.488281-8.332032 30.808593-2.09375 3.574219-.890625 8.167969 2.683594 10.257813zm0 0"/></svg>