<?xml version="1.0" encoding="UTF-8" standalone="no"?>
<svg
   xmlns:dc="http://purl.org/dc/elements/1.1/"
   xmlns:cc="http://creativecommons.org/ns#"
   xmlns:rdf="http://www.w3.org/1999/02/22-rdf-syntax-ns#"
   xmlns:svg="http://www.w3.org/2000/svg"
   xmlns="http://www.w3.org/2000/svg"
   xmlns:sodipodi="http://sodipodi.sourceforge.net/DTD/sodipodi-0.dtd"
   xmlns:inkscape="http://www.inkscape.org/namespaces/inkscape"
   version="1.1"
   id="Layer_1"
   x="0px"
   y="0px"
   viewBox="0 0 20.006668 20"
   xml:space="preserve"
   sodipodi:docname="upload.svg"
   width="20.006668"
   height="20"
   inkscape:version="1.0.1 (3bc2e813f5, 2020-09-07)"><metadata
   id="metadata49"><rdf:RDF><cc:Work
       rdf:about=""><dc:format>image/svg+xml</dc:format><dc:type
         rdf:resource="http://purl.org/dc/dcmitype/StillImage" /><dc:title></dc:title></cc:Work></rdf:RDF></metadata><defs
   id="defs47" /><sodipodi:namedview
   pagecolor="#ffffff"
   bordercolor="#666666"
   borderopacity="1"
   objecttolerance="10"
   gridtolerance="10"
   guidetolerance="10"
   inkscape:pageopacity="0"
   inkscape:pageshadow="2"
   inkscape:window-width="1920"
   inkscape:window-height="1121"
   id="namedview45"
   showgrid="false"
   inkscape:zoom="0.34133712"
   inkscape:cx="355.03022"
   inkscape:cy="741.94054"
   inkscape:window-x="-9"
   inkscape:window-y="41"
   inkscape:window-maximized="1"
   inkscape:current-layer="Layer_1" />
<g
   id="g6"
   transform="matrix(0.04066396,0,0,0.04066396,0,-0.00333444)">
	<g
   id="g4">
		<path
   d="M 359.088,102.29 264.74,7.93 c -5.068,-5.056 -11.824,-7.848 -19.152,-7.848 -7.212,0 -13.968,2.792 -19.032,7.848 l -94.32,94.32 c -5.064,5.064 -7.852,11.82 -7.852,19.028 0,7.204 2.788,13.956 7.852,19.024 l 16.116,16.12 c 5.072,5.064 11.82,7.852 19.028,7.852 7.208,0 13.78,-2.788 18.844,-7.852 l 21.34,-21.52 v 191.736 c 0,14.832 12.068,26.904 26.904,26.904 h 23.16 c 14.836,0 26.808,-12.076 26.808,-26.908 V 136.07 l 20.432,20.392 c 5.068,5.06 11.848,7.852 19.056,7.852 7.2,0 13.972,-2.792 19.036,-7.852 l 16.12,-16.124 c 5.068,-5.068 7.86,-11.82 7.86,-19.024 -0.004,-7.204 -2.784,-13.96 -7.852,-19.024 z"
   id="path2" />
	</g>
</g>
<g
   id="g12"
   transform="matrix(0.04066396,0,0,0.04066396,0,-0.00333444)">
	<g
   id="g10">
		<path
   d="m 453.564,149.826 h -34.62 c -14.724,0 -26.88,12.436 -26.88,27.164 v 22.796 c 0,13.556 11.532,24.804 23.064,26.644 V 415.042 H 76.876 V 226.458 c 7.688,-0.776 11.06,-3.428 15.292,-7.664 5.088,-5.092 7.768,-11.844 7.768,-19.004 v -22.8 c 0,-14.728 -12.172,-27.164 -26.9,-27.164 H 38.444 C 17.248,149.826 0,167.07 0,188.262 v 265.096 c 0,21.196 17.248,38.56 38.444,38.56 h 414.904 c 21.196,0 38.652,-17.364 38.652,-38.56 V 188.262 c 0,-21.196 -17.248,-38.436 -38.436,-38.436 z"
   id="path8" />
	</g>
</g>
<g
   id="g14"
   transform="translate(0,-0.082)">
</g>
<g
   id="g16"
   transform="translate(0,-0.082)">
</g>
<g
   id="g18"
   transform="translate(0,-0.082)">
</g>
<g
   id="g20"
   transform="translate(0,-0.082)">
</g>
<g
   id="g22"
   transform="translate(0,-0.082)">
</g>
<g
   id="g24"
   transform="translate(0,-0.082)">
</g>
<g
   id="g26"
   transform="translate(0,-0.082)">
</g>
<g
   id="g28"
   transform="translate(0,-0.082)">
</g>
<g
   id="g30"
   transform="translate(0,-0.082)">
</g>
<g
   id="g32"
   transform="translate(0,-0.082)">
</g>
<g
   id="g34"
   transform="translate(0,-0.082)">
</g>
<g
   id="g36"
   transform="translate(0,-0.082)">
</g>
<g
   id="g38"
   transform="translate(0,-0.082)">
</g>
<g
   id="g40"
   transform="translate(0,-0.082)">
</g>
<g
   id="g42"
   transform="translate(0,-0.082)">
</g>
</svg>
