<?xml version="1.0" encoding="UTF-8" standalone="no"?>
<!-- Generator: Adobe Illustrator 19.0.0, SVG Export Plug-In . SVG Version: 6.00 Build 0)  -->

<svg
   xmlns:dc="http://purl.org/dc/elements/1.1/"
   xmlns:cc="http://creativecommons.org/ns#"
   xmlns:rdf="http://www.w3.org/1999/02/22-rdf-syntax-ns#"
   xmlns:svg="http://www.w3.org/2000/svg"
   xmlns="http://www.w3.org/2000/svg"
   xmlns:sodipodi="http://sodipodi.sourceforge.net/DTD/sodipodi-0.dtd"
   xmlns:inkscape="http://www.inkscape.org/namespaces/inkscape"
   version="1.1"
   id="Capa_1"
   x="0px"
   y="0px"
   viewBox="0 0 21.333336 20.000002"
   xml:space="preserve"
   sodipodi:docname="windows.svg"
   width="21.333336"
   height="20.000002"
   inkscape:version="0.92.4 (5da689c313, 2019-01-14)"><metadata
   id="metadata61"><rdf:RDF><cc:Work
       rdf:about=""><dc:format>image/svg+xml</dc:format><dc:type
         rdf:resource="http://purl.org/dc/dcmitype/StillImage" /><dc:title></dc:title></cc:Work></rdf:RDF></metadata><defs
   id="defs59" /><sodipodi:namedview
   pagecolor="#ffffff"
   bordercolor="#666666"
   borderopacity="1"
   objecttolerance="10"
   gridtolerance="10"
   guidetolerance="10"
   inkscape:pageopacity="0"
   inkscape:pageshadow="2"
   inkscape:window-width="789"
   inkscape:window-height="480"
   id="namedview57"
   showgrid="false"
   fit-margin-top="0"
   fit-margin-left="0"
   fit-margin-right="0"
   fit-margin-bottom="0"
   inkscape:zoom="10.429825"
   inkscape:cx="6.3167512"
   inkscape:cy="9.1371713"
   inkscape:window-x="1474"
   inkscape:window-y="621"
   inkscape:window-maximized="0"
   inkscape:current-layer="Capa_1" />
<g
   id="g6"
   transform="matrix(0.04166667,0,0,0.04166667,0,-0.66666672)">
	<g
   id="g4">
		<polygon
   points="224,52 0,80 0,240 224,240 "
   id="polygon2" />
	</g>
</g>
<g
   id="g12"
   transform="matrix(0.04166667,0,0,0.04166667,0,-0.66666672)">
	<g
   id="g10">
		<polygon
   points="512,16 256,48 256,240 512,240 "
   id="polygon8" />
	</g>
</g>
<g
   id="g18"
   transform="matrix(0.04166667,0,0,0.04166667,0,-0.66666672)">
	<g
   id="g16">
		<polygon
   points="512,272 256,272 256,464 512,496 "
   id="polygon14" />
	</g>
</g>
<g
   id="g24"
   transform="matrix(0.04166667,0,0,0.04166667,0,-0.66666672)">
	<g
   id="g22">
		<polygon
   points="224,272 0,272 0,432 224,460 "
   id="polygon20" />
	</g>
</g>
<g
   id="g26"
   transform="matrix(0.04166667,0,0,0.04166667,0,-0.66666672)">
</g>
<g
   id="g28"
   transform="matrix(0.04166667,0,0,0.04166667,0,-0.66666672)">
</g>
<g
   id="g30"
   transform="matrix(0.04166667,0,0,0.04166667,0,-0.66666672)">
</g>
<g
   id="g32"
   transform="matrix(0.04166667,0,0,0.04166667,0,-0.66666672)">
</g>
<g
   id="g34"
   transform="matrix(0.04166667,0,0,0.04166667,0,-0.66666672)">
</g>
<g
   id="g36"
   transform="matrix(0.04166667,0,0,0.04166667,0,-0.66666672)">
</g>
<g
   id="g38"
   transform="matrix(0.04166667,0,0,0.04166667,0,-0.66666672)">
</g>
<g
   id="g40"
   transform="matrix(0.04166667,0,0,0.04166667,0,-0.66666672)">
</g>
<g
   id="g42"
   transform="matrix(0.04166667,0,0,0.04166667,0,-0.66666672)">
</g>
<g
   id="g44"
   transform="matrix(0.04166667,0,0,0.04166667,0,-0.66666672)">
</g>
<g
   id="g46"
   transform="matrix(0.04166667,0,0,0.04166667,0,-0.66666672)">
</g>
<g
   id="g48"
   transform="matrix(0.04166667,0,0,0.04166667,0,-0.66666672)">
</g>
<g
   id="g50"
   transform="matrix(0.04166667,0,0,0.04166667,0,-0.66666672)">
</g>
<g
   id="g52"
   transform="matrix(0.04166667,0,0,0.04166667,0,-0.66666672)">
</g>
<g
   id="g54"
   transform="matrix(0.04166667,0,0,0.04166667,0,-0.66666672)">
</g>
</svg>