<svg height="512" viewBox="0 0 128 128" width="512" xmlns="http://www.w3.org/2000/svg"><g><g><path d="m1.75 29.364v71.653a4.476 4.476 0 0 0 4.476 4.476h37.574v-18.328a4 4 0 0 1 4-4h32.4a4 4 0 0 1 4 4v18.328h37.572a4.476 4.476 0 0 0 4.476-4.476v-71.653z" fill="#f4d844"/><path d="m6.75 10.489h114.5a5 5 0 0 1 5 5v13.875a0 0 0 0 1 0 0h-124.5a0 0 0 0 1 0 0v-13.875a5 5 0 0 1 5-5z" fill="#607880"/><g fill="#94e0da"><path d="m118.25 21.676h-68.563a1.75 1.75 0 0 1 0-3.5h68.563a1.75 1.75 0 0 1 0 3.5z"/><path d="m14.377 21.676h-4.627a1.75 1.75 0 0 1 0-3.5h4.627a1.75 1.75 0 0 1 0 3.5z"/><path d="m27.69 21.676h-4.628a1.75 1.75 0 0 1 0-3.5h4.628a1.75 1.75 0 0 1 0 3.5z"/><path d="m41 21.676h-4.625a1.75 1.75 0 0 1 0-3.5h4.625a1.75 1.75 0 0 1 0 3.5z"/></g><g fill="#607880"><path d="m34.13 37.614h-4.356a3.754 3.754 0 0 0 -3.75 3.75v8.327a3.754 3.754 0 0 0 3.75 3.75h4.356a3.754 3.754 0 0 0 3.75-3.75v-8.327a3.754 3.754 0 0 0 -3.75-3.75zm.25 12.077a.25.25 0 0 1 -.25.25h-4.356a.25.25 0 0 1 -.25-.25v-8.327a.25.25 0 0 1 .25-.25h4.356a.25.25 0 0 1 .25.25z"/><path d="m50.154 37.614h-4.354a3.754 3.754 0 0 0 -3.75 3.75v8.327a3.754 3.754 0 0 0 3.75 3.75h4.356a3.754 3.754 0 0 0 3.75-3.75v-8.327a3.754 3.754 0 0 0 -3.752-3.75zm.25 12.077a.25.25 0 0 1 -.25.25h-4.354a.25.25 0 0 1 -.25-.25v-8.327a.25.25 0 0 1 .25-.25h4.356a.25.25 0 0 1 .25.25z"/><path d="m82.2 37.614h-4.354a3.754 3.754 0 0 0 -3.75 3.75v8.327a3.754 3.754 0 0 0 3.75 3.75h4.354a3.754 3.754 0 0 0 3.75-3.75v-8.327a3.754 3.754 0 0 0 -3.75-3.75zm.25 12.077a.25.25 0 0 1 -.25.25h-4.354a.25.25 0 0 1 -.25-.25v-8.327a.25.25 0 0 1 .25-.25h4.354a.25.25 0 0 1 .25.25z"/><path d="m114.25 37.614h-4.356a3.754 3.754 0 0 0 -3.75 3.75v8.327a3.754 3.754 0 0 0 3.75 3.75h4.356a3.755 3.755 0 0 0 3.75-3.75v-8.327a3.755 3.755 0 0 0 -3.75-3.75zm.25 12.077a.25.25 0 0 1 -.25.25h-4.356a.25.25 0 0 1 -.25-.25v-8.327a.25.25 0 0 1 .25-.25h4.356a.25.25 0 0 1 .25.25z"/><path d="m18.106 59.515h-4.356a3.754 3.754 0 0 0 -3.75 3.75v8.327a3.754 3.754 0 0 0 3.75 3.75h4.356a3.754 3.754 0 0 0 3.75-3.75v-8.327a3.754 3.754 0 0 0 -3.75-3.75zm.25 12.077a.251.251 0 0 1 -.25.25h-4.356a.251.251 0 0 1 -.25-.25v-8.327a.25.25 0 0 1 .25-.25h4.356a.25.25 0 0 1 .25.25z"/><path d="m34.13 59.515h-4.356a3.754 3.754 0 0 0 -3.75 3.75v8.327a3.754 3.754 0 0 0 3.75 3.75h4.356a3.754 3.754 0 0 0 3.75-3.75v-8.327a3.754 3.754 0 0 0 -3.75-3.75zm.25 12.077a.251.251 0 0 1 -.25.25h-4.356a.251.251 0 0 1 -.25-.25v-8.327a.25.25 0 0 1 .25-.25h4.356a.25.25 0 0 1 .25.25z"/><path d="m98.227 59.515h-4.358a3.755 3.755 0 0 0 -3.75 3.75v8.327a3.755 3.755 0 0 0 3.75 3.75h4.358a3.755 3.755 0 0 0 3.75-3.75v-8.327a3.755 3.755 0 0 0 -3.75-3.75zm.25 12.077a.251.251 0 0 1 -.25.25h-4.358a.251.251 0 0 1 -.25-.25v-8.327a.25.25 0 0 1 .25-.25h4.358a.251.251 0 0 1 .25.25z"/><path d="m18.106 81.415h-4.356a3.754 3.754 0 0 0 -3.75 3.75v8.328a3.754 3.754 0 0 0 3.75 3.75h4.356a3.754 3.754 0 0 0 3.75-3.75v-8.328a3.754 3.754 0 0 0 -3.75-3.75zm.25 12.078a.251.251 0 0 1 -.25.25h-4.356a.251.251 0 0 1 -.25-.25v-8.328a.25.25 0 0 1 .25-.25h4.356a.25.25 0 0 1 .25.25z"/><path d="m34.13 81.415h-4.356a3.754 3.754 0 0 0 -3.75 3.75v8.328a3.754 3.754 0 0 0 3.75 3.75h4.356a3.754 3.754 0 0 0 3.75-3.75v-8.328a3.754 3.754 0 0 0 -3.75-3.75zm.25 12.078a.251.251 0 0 1 -.25.25h-4.356a.251.251 0 0 1 -.25-.25v-8.328a.25.25 0 0 1 .25-.25h4.356a.25.25 0 0 1 .25.25z"/><path d="m98.227 81.415h-4.358a3.755 3.755 0 0 0 -3.75 3.75v8.328a3.755 3.755 0 0 0 3.75 3.75h4.358a3.755 3.755 0 0 0 3.75-3.75v-8.328a3.755 3.755 0 0 0 -3.75-3.75zm.25 12.078a.251.251 0 0 1 -.25.25h-4.358a.251.251 0 0 1 -.25-.25v-8.328a.25.25 0 0 1 .25-.25h4.358a.251.251 0 0 1 .25.25z"/><path d="m114.25 81.415h-4.356a3.754 3.754 0 0 0 -3.75 3.75v8.328a3.754 3.754 0 0 0 3.75 3.75h4.356a3.755 3.755 0 0 0 3.75-3.75v-8.328a3.755 3.755 0 0 0 -3.75-3.75zm.25 12.078a.251.251 0 0 1 -.25.25h-4.356a.251.251 0 0 1 -.25-.25v-8.328a.25.25 0 0 1 .25-.25h4.356a.25.25 0 0 1 .25.25z"/><path d="m20.106 49.941h-2.428v-10.577a1.75 1.75 0 0 0 -2.833-1.375l-4.178 3.294a1.75 1.75 0 1 0 2.166 2.749l1.345-1.06v6.969h-2.428a1.75 1.75 0 0 0 0 3.5h8.356a1.75 1.75 0 0 0 0-3.5z"/><path d="m116.25 71.842h-2.429v-10.577a1.75 1.75 0 0 0 -2.833-1.375l-4.177 3.294a1.75 1.75 0 0 0 2.166 2.749l1.344-1.06v6.969h-2.427a1.75 1.75 0 0 0 0 3.5h8.356a1.75 1.75 0 0 0 0-3.5z"/><path d="m68.179 49.941h-2.429v-10.577a1.75 1.75 0 0 0 -2.833-1.375l-4.179 3.294a1.75 1.75 0 0 0 2.167 2.749l1.345-1.06v6.969h-2.428a1.75 1.75 0 0 0 0 3.5h8.357a1.75 1.75 0 0 0 0-3.5z"/><path d="m100.227 49.941h-2.427v-10.577a1.75 1.75 0 0 0 -2.833-1.375l-4.179 3.294a1.75 1.75 0 0 0 2.166 2.749l1.346-1.061v6.97h-2.431a1.75 1.75 0 0 0 0 3.5h8.358a1.75 1.75 0 0 0 0-3.5z"/></g><rect fill="#de6246" height="34.346" rx="4" width="40.404" x="43.798" y="83.165"/><path d="m78.671 83.165h-8v-9.9a4 4 0 0 0 -4-4h-5.342a4 4 0 0 0 -4 4v1.949h-8v-1.946a12.013 12.013 0 0 1 12-12h5.342a12.013 12.013 0 0 1 12 12z" fill="#607880"/><path d="m68.792 96.859a4.792 4.792 0 1 0 -6.542 4.451v7.3a1.75 1.75 0 0 0 3.5 0v-7.3a4.784 4.784 0 0 0 3.042-4.451z" fill="#f4d844"/></g><g><path d="m121.25 8.739h-76.75a1.75 1.75 0 0 0 0 3.5h76.75a3.254 3.254 0 0 1 3.25 3.25v12.125h-121v-12.125a3.254 3.254 0 0 1 3.25-3.25h11.5a1.75 1.75 0 0 0 0-3.5h-11.5a6.758 6.758 0 0 0 -6.75 6.75v85.528a6.233 6.233 0 0 0 6.226 6.226h35.822v6.268a5.756 5.756 0 0 0 5.75 5.75h29.802a1.75 1.75 0 0 0 0-3.5h-29.8a2.252 2.252 0 0 1 -2.25-2.25v-26.345a2.252 2.252 0 0 1 2.25-2.25h32.4a2.253 2.253 0 0 1 2.25 2.25v26.345a1.75 1.75 0 0 0 3.5 0v-6.268h35.822a6.233 6.233 0 0 0 6.228-6.226v-85.528a6.758 6.758 0 0 0 -6.75-6.75zm-54.579 58.779h-5.342a5.756 5.756 0 0 0 -5.75 5.75v.2h-4.5v-.2a10.261 10.261 0 0 1 10.25-10.25h5.342a10.261 10.261 0 0 1 10.25 10.25v8.147h-4.5v-8.147a5.756 5.756 0 0 0 -5.75-5.75zm57.829 33.5a2.729 2.729 0 0 1 -2.726 2.726h-35.822v-16.578a5.752 5.752 0 0 0 -5.531-5.739v-8.159a13.765 13.765 0 0 0 -13.75-13.75h-5.342a13.765 13.765 0 0 0 -13.75 13.75v1.949a1.749 1.749 0 0 0 1.75 1.75h8a1.75 1.75 0 0 0 1.75-1.75v-1.949a2.252 2.252 0 0 1 2.25-2.25h5.342a2.253 2.253 0 0 1 2.25 2.25v8.147h-21.121a5.757 5.757 0 0 0 -5.75 5.75v16.577h-35.824a2.729 2.729 0 0 1 -2.726-2.725v-69.9h121z"/><path d="m28.37 12.239h6.01a1.75 1.75 0 0 0 0-3.5h-6.01a1.75 1.75 0 0 0 0 3.5z"/><path d="m118.25 21.676a1.75 1.75 0 0 0 0-3.5h-68.563a1.75 1.75 0 0 0 0 3.5z"/><path d="m9.75 18.176a1.75 1.75 0 0 0 0 3.5h4.627a1.75 1.75 0 0 0 0-3.5z"/><path d="m23.062 21.676h4.628a1.75 1.75 0 0 0 0-3.5h-4.628a1.75 1.75 0 0 0 0 3.5z"/><path d="m34.625 19.926a1.75 1.75 0 0 0 1.75 1.75h4.625a1.75 1.75 0 0 0 0-3.5h-4.625a1.751 1.751 0 0 0 -1.75 1.75z"/><path d="m29.774 53.441h4.356a3.754 3.754 0 0 0 3.75-3.75v-8.327a3.754 3.754 0 0 0 -3.75-3.75h-4.356a3.754 3.754 0 0 0 -3.75 3.75v8.327a3.754 3.754 0 0 0 3.75 3.75zm-.25-12.077a.25.25 0 0 1 .25-.25h4.356a.25.25 0 0 1 .25.25v8.327a.25.25 0 0 1 -.25.25h-4.356a.25.25 0 0 1 -.25-.25z"/><path d="m45.8 53.441h4.356a3.754 3.754 0 0 0 3.75-3.75v-8.327a3.754 3.754 0 0 0 -3.75-3.75h-4.356a3.754 3.754 0 0 0 -3.75 3.75v8.327a3.754 3.754 0 0 0 3.75 3.75zm-.25-12.077a.25.25 0 0 1 .25-.25h4.356a.25.25 0 0 1 .25.25v8.327a.25.25 0 0 1 -.25.25h-4.356a.25.25 0 0 1 -.25-.25z"/><path d="m77.846 53.441h4.354a3.754 3.754 0 0 0 3.75-3.75v-8.327a3.754 3.754 0 0 0 -3.75-3.75h-4.354a3.754 3.754 0 0 0 -3.75 3.75v8.327a3.754 3.754 0 0 0 3.75 3.75zm-.246-12.077a.25.25 0 0 1 .25-.25h4.35a.25.25 0 0 1 .25.25v8.327a.25.25 0 0 1 -.25.25h-4.354a.25.25 0 0 1 -.25-.25z"/><path d="m109.894 53.441h4.356a3.755 3.755 0 0 0 3.75-3.75v-8.327a3.755 3.755 0 0 0 -3.75-3.75h-4.356a3.754 3.754 0 0 0 -3.75 3.75v8.327a3.754 3.754 0 0 0 3.75 3.75zm-.25-12.077a.25.25 0 0 1 .25-.25h4.356a.25.25 0 0 1 .25.25v8.327a.25.25 0 0 1 -.25.25h-4.356a.25.25 0 0 1 -.25-.25z"/><path d="m13.75 75.342h4.356a3.754 3.754 0 0 0 3.75-3.75v-8.327a3.754 3.754 0 0 0 -3.75-3.75h-4.356a3.754 3.754 0 0 0 -3.75 3.75v8.327a3.754 3.754 0 0 0 3.75 3.75zm-.25-12.077a.25.25 0 0 1 .25-.25h4.356a.25.25 0 0 1 .25.25v8.327a.251.251 0 0 1 -.25.25h-4.356a.251.251 0 0 1 -.25-.25z"/><path d="m29.774 75.342h4.356a3.754 3.754 0 0 0 3.75-3.75v-8.327a3.754 3.754 0 0 0 -3.75-3.75h-4.356a3.754 3.754 0 0 0 -3.75 3.75v8.327a3.754 3.754 0 0 0 3.75 3.75zm-.25-12.077a.25.25 0 0 1 .25-.25h4.356a.25.25 0 0 1 .25.25v8.327a.251.251 0 0 1 -.25.25h-4.356a.251.251 0 0 1 -.25-.25z"/><path d="m93.869 75.342h4.358a3.755 3.755 0 0 0 3.75-3.75v-8.327a3.755 3.755 0 0 0 -3.75-3.75h-4.358a3.755 3.755 0 0 0 -3.75 3.75v8.327a3.755 3.755 0 0 0 3.75 3.75zm-.25-12.077a.25.25 0 0 1 .25-.25h4.358a.251.251 0 0 1 .25.25v8.327a.251.251 0 0 1 -.25.25h-4.358a.251.251 0 0 1 -.25-.25z"/><path d="m13.75 97.243h4.356a3.754 3.754 0 0 0 3.75-3.75v-8.328a3.754 3.754 0 0 0 -3.75-3.75h-4.356a3.754 3.754 0 0 0 -3.75 3.75v8.328a3.754 3.754 0 0 0 3.75 3.75zm-.25-12.078a.25.25 0 0 1 .25-.25h4.356a.25.25 0 0 1 .25.25v8.328a.251.251 0 0 1 -.25.25h-4.356a.251.251 0 0 1 -.25-.25z"/><path d="m29.774 97.243h4.356a3.754 3.754 0 0 0 3.75-3.75v-8.328a3.754 3.754 0 0 0 -3.75-3.75h-4.356a3.754 3.754 0 0 0 -3.75 3.75v8.328a3.754 3.754 0 0 0 3.75 3.75zm-.25-12.078a.25.25 0 0 1 .25-.25h4.356a.25.25 0 0 1 .25.25v8.328a.251.251 0 0 1 -.25.25h-4.356a.251.251 0 0 1 -.25-.25z"/><path d="m93.869 97.243h4.358a3.755 3.755 0 0 0 3.75-3.75v-8.328a3.755 3.755 0 0 0 -3.75-3.75h-4.358a3.755 3.755 0 0 0 -3.75 3.75v8.328a3.755 3.755 0 0 0 3.75 3.75zm-.25-12.078a.25.25 0 0 1 .25-.25h4.358a.251.251 0 0 1 .25.25v8.328a.251.251 0 0 1 -.25.25h-4.358a.251.251 0 0 1 -.25-.25z"/><path d="m109.894 97.243h4.356a3.755 3.755 0 0 0 3.75-3.75v-8.328a3.755 3.755 0 0 0 -3.75-3.75h-4.356a3.754 3.754 0 0 0 -3.75 3.75v8.328a3.754 3.754 0 0 0 3.75 3.75zm-.25-12.078a.25.25 0 0 1 .25-.25h4.356a.25.25 0 0 1 .25.25v8.328a.251.251 0 0 1 -.25.25h-4.356a.251.251 0 0 1 -.25-.25z"/><path d="m11.75 49.941a1.75 1.75 0 0 0 0 3.5h8.356a1.75 1.75 0 0 0 0-3.5h-2.428v-10.577a1.75 1.75 0 0 0 -2.833-1.375l-4.178 3.294a1.75 1.75 0 1 0 2.166 2.749l1.345-1.06v6.969z"/><path d="m107.894 75.342h8.356a1.75 1.75 0 0 0 0-3.5h-2.429v-10.577a1.75 1.75 0 0 0 -2.833-1.375l-4.177 3.294a1.75 1.75 0 0 0 2.166 2.749l1.344-1.06v6.969h-2.427a1.75 1.75 0 0 0 0 3.5z"/><path d="m59.822 49.941a1.75 1.75 0 0 0 0 3.5h8.357a1.75 1.75 0 0 0 0-3.5h-2.429v-10.577a1.75 1.75 0 0 0 -2.833-1.375l-4.179 3.294a1.75 1.75 0 0 0 2.167 2.749l1.345-1.06v6.969z"/><path d="m91.869 49.941a1.75 1.75 0 0 0 0 3.5h8.358a1.75 1.75 0 0 0 0-3.5h-2.427v-10.577a1.75 1.75 0 0 0 -2.833-1.375l-4.179 3.294a1.75 1.75 0 0 0 2.166 2.749l1.346-1.061v6.97z"/><path d="m64 110.359a1.751 1.751 0 0 0 1.75-1.75v-5.453a6.542 6.542 0 1 0 -3.5 0v5.453a1.751 1.751 0 0 0 1.75 1.75zm-3.042-13.5a3.042 3.042 0 1 1 3.042 3.041 3.046 3.046 0 0 1 -3.042-3.041z"/></g></g></svg>