<?xml version="1.0" encoding="UTF-8" standalone="no"?>
<!-- Created with Inkscape (http://www.inkscape.org/) -->

<svg
   xmlns:dc="http://purl.org/dc/elements/1.1/"
   xmlns:cc="http://creativecommons.org/ns#"
   xmlns:rdf="http://www.w3.org/1999/02/22-rdf-syntax-ns#"
   xmlns:svg="http://www.w3.org/2000/svg"
   xmlns="http://www.w3.org/2000/svg"
   xmlns:sodipodi="http://sodipodi.sourceforge.net/DTD/sodipodi-0.dtd"
   xmlns:inkscape="http://www.inkscape.org/namespaces/inkscape"
   width="8mm"
   height="8.5714283mm"
   viewBox="0 0 8 8.5714283"
   version="1.1"
   id="svg8"
   inkscape:version="0.92.4 (5da689c313, 2019-01-14)"
   sodipodi:docname="copybutton.svg">
  <defs
     id="defs2" />
  <sodipodi:namedview
     id="base"
     pagecolor="#ffffff"
     bordercolor="#666666"
     borderopacity="1.0"
     inkscape:pageopacity="0.0"
     inkscape:pageshadow="2"
     inkscape:zoom="7.9195959"
     inkscape:cx="18.620742"
     inkscape:cy="7.5396946"
     inkscape:document-units="mm"
     inkscape:current-layer="svg8"
     showgrid="false"
     inkscape:window-width="3440"
     inkscape:window-height="1377"
     inkscape:window-x="-8"
     inkscape:window-y="32"
     inkscape:window-maximized="1"
     fit-margin-top="0"
     fit-margin-left="0"
     fit-margin-right="0"
     fit-margin-bottom="0" />
  <metadata
     id="metadata5">
    <rdf:RDF>
      <cc:Work
         rdf:about="">
        <dc:format>image/svg+xml</dc:format>
        <dc:type
           rdf:resource="http://purl.org/dc/dcmitype/StillImage" />
        <dc:title></dc:title>
      </cc:Work>
    </rdf:RDF>
  </metadata>
  <g
     inkscape:label="Layer 1"
     inkscape:groupmode="layer"
     id="layer1"
     transform="translate(0,-7.4285713)" />
  <path
     d="M 1.1428571,6.8571423 H 3.4285714 V 7.4285711 H 1.1428571 Z M 4,3.4285711 H 1.1428571 V 3.9999999 H 4 Z M 5.1428571,5.1428575 V 3.9999999 L 3.4285714,5.7142863 5.1428571,7.4285711 V 6.2857151 H 8 V 5.1428575 Z M 2.5714286,4.5714287 H 1.1428571 V 5.1428575 H 2.5714286 Z M 1.1428571,6.2857151 H 2.5714286 V 5.7142863 H 1.1428571 Z m 5.1428571,0.5714272 h 0.5714287 v 1.1428576 c -0.011424,0.16 -0.062858,0.2971424 -0.1714287,0.4 -0.1085712,0.102864 -0.24,0.16 -0.4,0.1714288 H 0.57142858 C 0.25714286,8.5714287 0,8.3142863 0,7.9999999 V 1.7142863 C 0,1.3999999 0.25714286,1.1428575 0.57142858,1.1428575 H 2.2857142 C 2.2857142,0.5085715 2.7942858,0 3.4285714,0 4.0628571,0 4.5714286,0.5085715 4.5714286,1.1428575 h 1.7142856 c 0.3142858,0 0.5714287,0.2571424 0.5714287,0.5714288 V 4.5714287 H 6.2857142 V 2.8571423 H 0.57142858 V 7.9999999 H 6.2857142 Z M 1.1428571,2.2857151 h 4.5714287 c 0,-0.3142864 -0.2571429,-0.5714288 -0.5714287,-0.5714288 H 4.5714286 C 4.2571429,1.7142863 4,1.4571423 4,1.1428575 4,0.8285711 3.7428571,0.5714287 3.4285714,0.5714287 c -0.3142856,0 -0.5714285,0.2571424 -0.5714285,0.5714288 0,0.3142848 -0.2571429,0.5714288 -0.5714287,0.5714288 H 1.7142858 C 1.4,1.7142863 1.1428571,1.9714287 1.1428571,2.2857151 Z"
     id="path6"
     inkscape:connector-curvature="0"
     style="fill:#999999;fill-rule:evenodd;stroke-width:0.5714286" />
</svg>
