<?xml version="1.0" encoding="UTF-8" standalone="no"?>
<svg
   xmlns:dc="http://purl.org/dc/elements/1.1/"
   xmlns:cc="http://creativecommons.org/ns#"
   xmlns:rdf="http://www.w3.org/1999/02/22-rdf-syntax-ns#"
   xmlns:svg="http://www.w3.org/2000/svg"
   xmlns="http://www.w3.org/2000/svg"
   xmlns:sodipodi="http://sodipodi.sourceforge.net/DTD/sodipodi-0.dtd"
   xmlns:inkscape="http://www.inkscape.org/namespaces/inkscape"
   version="1.1"
   id="Layer_1"
   x="0px"
   y="0px"
   viewBox="0 0 16.999998 12.999892"
   xml:space="preserve"
   sodipodi:docname="add.svg"
   width="16.999998"
   height="12.999892"
   inkscape:version="1.0.1 (3bc2e813f5, 2020-09-07)"><metadata
   id="metadata43"><rdf:RDF><cc:Work
       rdf:about=""><dc:format>image/svg+xml</dc:format><dc:type
         rdf:resource="http://purl.org/dc/dcmitype/StillImage" /><dc:title></dc:title></cc:Work></rdf:RDF></metadata><defs
   id="defs41" /><sodipodi:namedview
   pagecolor="#ffffff"
   bordercolor="#666666"
   borderopacity="1"
   objecttolerance="10"
   gridtolerance="10"
   guidetolerance="10"
   inkscape:pageopacity="0"
   inkscape:pageshadow="2"
   inkscape:window-width="1920"
   inkscape:window-height="1017"
   id="namedview39"
   showgrid="false"
   fit-margin-top="0"
   fit-margin-left="2"
   fit-margin-right="2"
   fit-margin-bottom="0"
   inkscape:zoom="10.922788"
   inkscape:cx="6.9590151"
   inkscape:cy="13.355877"
   inkscape:window-x="1912"
   inkscape:window-y="32"
   inkscape:window-maximized="1"
   inkscape:current-layer="Layer_1"
   inkscape:document-rotation="0" />
<g
   id="g6"
   transform="matrix(0.02642276,0,0,0.02642276,2,-5.284552e-5)">
	<g
   id="g4">
		<path
   d="m 465.064,207.566 h 0.028 -180.656 V 27.25 C 284.436,12.41 272.42,0.002 257.58,0.002 H 234.464 C 219.628,0.002 207.56,12.41 207.56,27.25 V 207.566 H 26.908 C 12.076,207.566 0,219.566 0,234.41 v 23.248 c 0,14.832 12.072,26.78 26.908,26.78 h 180.656 v 180.968 c 0,14.832 12.064,26.592 26.904,26.592 h 23.116 c 14.84,0 26.856,-11.764 26.856,-26.592 V 284.438 h 180.624 c 14.84,0 26.936,-11.952 26.936,-26.78 V 234.41 c 0,-14.844 -12.096,-26.844 -26.936,-26.844 z"
   id="path2" />
	</g>
</g>
<g
   id="g8"
   transform="translate(2,-0.002)">
</g>
<g
   id="g10"
   transform="translate(2,-0.002)">
</g>
<g
   id="g12"
   transform="translate(2,-0.002)">
</g>
<g
   id="g14"
   transform="translate(2,-0.002)">
</g>
<g
   id="g16"
   transform="translate(2,-0.002)">
</g>
<g
   id="g18"
   transform="translate(2,-0.002)">
</g>
<g
   id="g20"
   transform="translate(2,-0.002)">
</g>
<g
   id="g22"
   transform="translate(2,-0.002)">
</g>
<g
   id="g24"
   transform="translate(2,-0.002)">
</g>
<g
   id="g26"
   transform="translate(2,-0.002)">
</g>
<g
   id="g28"
   transform="translate(2,-0.002)">
</g>
<g
   id="g30"
   transform="translate(2,-0.002)">
</g>
<g
   id="g32"
   transform="translate(2,-0.002)">
</g>
<g
   id="g34"
   transform="translate(2,-0.002)">
</g>
<g
   id="g36"
   transform="translate(2,-0.002)">
</g>
</svg>
