<?xml version="1.0" encoding="UTF-8" standalone="no"?>
<!-- Generator: Adobe Illustrator 19.0.0, SVG Export Plug-In . SVG Version: 6.00 Build 0)  -->

<svg
   xmlns:dc="http://purl.org/dc/elements/1.1/"
   xmlns:cc="http://creativecommons.org/ns#"
   xmlns:rdf="http://www.w3.org/1999/02/22-rdf-syntax-ns#"
   xmlns:svg="http://www.w3.org/2000/svg"
   xmlns="http://www.w3.org/2000/svg"
   xmlns:sodipodi="http://sodipodi.sourceforge.net/DTD/sodipodi-0.dtd"
   xmlns:inkscape="http://www.inkscape.org/namespaces/inkscape"
   version="1.1"
   id="Layer_1"
   x="0px"
   y="0px"
   viewBox="0 0 16.344299 20"
   xml:space="preserve"
   sodipodi:docname="apple.svg"
   width="16.344299"
   height="20"
   inkscape:version="0.92.4 (5da689c313, 2019-01-14)"><metadata
   id="metadata40"><rdf:RDF><cc:Work
       rdf:about=""><dc:format>image/svg+xml</dc:format><dc:type
         rdf:resource="http://purl.org/dc/dcmitype/StillImage" /><dc:title></dc:title></cc:Work></rdf:RDF></metadata><defs
   id="defs38" /><sodipodi:namedview
   pagecolor="#ffffff"
   bordercolor="#666666"
   borderopacity="1"
   objecttolerance="10"
   gridtolerance="10"
   guidetolerance="10"
   inkscape:pageopacity="0"
   inkscape:pageshadow="2"
   inkscape:window-width="789"
   inkscape:window-height="480"
   id="namedview36"
   showgrid="false"
   fit-margin-top="0"
   fit-margin-left="0"
   fit-margin-right="0"
   fit-margin-bottom="0"
   inkscape:zoom="0.77377049"
   inkscape:cx="124.62489"
   inkscape:cy="152.5"
   inkscape:window-x="1894"
   inkscape:window-y="358"
   inkscape:window-maximized="0"
   inkscape:current-layer="Layer_1" />
<g
   id="XMLID_228_"
   transform="matrix(0.06557379,0,0,0.06557379,-1.8278767,-5.1518081e-6)">
	<path
   id="XMLID_229_"
   d="m 40.738,112.119 c -25.785,44.745 -9.393,112.648 19.121,153.82 14.233,20.584 28.643,39.061 48.38,39.061 0.372,0 0.745,-0.007 1.127,-0.022 9.273,-0.37 15.974,-3.225 22.453,-5.984 7.274,-3.1 14.797,-6.305 26.597,-6.305 11.226,0 18.39,3.101 25.318,6.099 6.828,2.954 13.861,6.01 24.253,5.815 22.232,-0.414 35.882,-20.352 47.925,-37.941 12.567,-18.365 18.871,-36.196 20.998,-43.01 l 0.086,-0.271 c 0.405,-1.211 -0.167,-2.533 -1.328,-3.066 -0.032,-0.015 -0.15,-0.064 -0.183,-0.078 -3.915,-1.601 -38.257,-16.836 -38.618,-58.36 -0.335,-33.736 25.763,-51.601 30.997,-54.839 l 0.244,-0.152 c 0.567,-0.365 0.962,-0.944 1.096,-1.606 0.134,-0.661 -0.006,-1.349 -0.386,-1.905 -18.014,-26.362 -45.624,-30.335 -56.74,-30.813 -1.613,-0.161 -3.278,-0.242 -4.95,-0.242 -13.056,0 -25.563,4.931 -35.611,8.893 -6.936,2.735 -12.927,5.097 -17.059,5.097 -4.643,0 -10.668,-2.391 -17.645,-5.159 -9.33,-3.703 -19.905,-7.899 -31.1,-7.899 -0.267,0 -0.53,0.003 -0.789,0.008 -26.03,0.383 -50.626,15.275 -64.186,38.859 z"
   inkscape:connector-curvature="0" />
	<path
   id="XMLID_230_"
   d="m 212.101,0.002 c -15.763,0.642 -34.672,10.345 -45.974,23.583 -9.605,11.127 -18.988,29.679 -16.516,48.379 0.155,1.17 1.107,2.073 2.284,2.164 1.064,0.083 2.15,0.125 3.232,0.126 15.413,0 32.04,-8.527 43.395,-22.257 11.951,-14.498 17.994,-33.104 16.166,-49.77 -0.144,-1.306 -1.293,-2.276 -2.587,-2.225 z"
   inkscape:connector-curvature="0" />
</g>
<g
   id="g5"
   transform="translate(-27.875112,-285)">
</g>
<g
   id="g7"
   transform="translate(-27.875112,-285)">
</g>
<g
   id="g9"
   transform="translate(-27.875112,-285)">
</g>
<g
   id="g11"
   transform="translate(-27.875112,-285)">
</g>
<g
   id="g13"
   transform="translate(-27.875112,-285)">
</g>
<g
   id="g15"
   transform="translate(-27.875112,-285)">
</g>
<g
   id="g17"
   transform="translate(-27.875112,-285)">
</g>
<g
   id="g19"
   transform="translate(-27.875112,-285)">
</g>
<g
   id="g21"
   transform="translate(-27.875112,-285)">
</g>
<g
   id="g23"
   transform="translate(-27.875112,-285)">
</g>
<g
   id="g25"
   transform="translate(-27.875112,-285)">
</g>
<g
   id="g27"
   transform="translate(-27.875112,-285)">
</g>
<g
   id="g29"
   transform="translate(-27.875112,-285)">
</g>
<g
   id="g31"
   transform="translate(-27.875112,-285)">
</g>
<g
   id="g33"
   transform="translate(-27.875112,-285)">
</g>
</svg>