<?xml version="1.0" encoding="UTF-8" standalone="no"?>
<svg
   xmlns:dc="http://purl.org/dc/elements/1.1/"
   xmlns:cc="http://creativecommons.org/ns#"
   xmlns:rdf="http://www.w3.org/1999/02/22-rdf-syntax-ns#"
   xmlns:svg="http://www.w3.org/2000/svg"
   xmlns="http://www.w3.org/2000/svg"
   xmlns:sodipodi="http://sodipodi.sourceforge.net/DTD/sodipodi-0.dtd"
   xmlns:inkscape="http://www.inkscape.org/namespaces/inkscape"
   version="1.1"
   id="Layer_1"
   x="0px"
   y="0px"
   viewBox="0 0 17.626351 12.999999"
   xml:space="preserve"
   sodipodi:docname="arrow-right.svg"
   inkscape:version="1.0.1 (3bc2e813f5, 2020-09-07)"
   width="17.62635"
   height="12.999999"><metadata
   id="metadata43"><rdf:RDF><cc:Work
       rdf:about=""><dc:format>image/svg+xml</dc:format><dc:type
         rdf:resource="http://purl.org/dc/dcmitype/StillImage" /><dc:title></dc:title></cc:Work></rdf:RDF></metadata><defs
   id="defs41" /><sodipodi:namedview
   pagecolor="#ffffff"
   bordercolor="#666666"
   borderopacity="1"
   objecttolerance="10"
   gridtolerance="10"
   guidetolerance="10"
   inkscape:pageopacity="0"
   inkscape:pageshadow="2"
   inkscape:window-width="1920"
   inkscape:window-height="1121"
   id="namedview39"
   showgrid="false"
   inkscape:zoom="5.4613495"
   inkscape:cx="-44.57437"
   inkscape:cy="-3.3305172"
   inkscape:window-x="-9"
   inkscape:window-y="41"
   inkscape:window-maximized="1"
   inkscape:current-layer="Layer_1"
   inkscape:document-rotation="0"
   fit-margin-left="2" />
<g
   id="g6"
   transform="matrix(0.03176061,0,0,0.03176061,2,-1.3131742)">
	<g
   id="g4">
		<path
   d="M 484.14,226.886 306.46,49.202 c -5.072,-5.072 -11.832,-7.856 -19.04,-7.856 -7.216,0 -13.972,2.788 -19.044,7.856 l -16.132,16.136 c -5.068,5.064 -7.86,11.828 -7.86,19.04 0,7.208 2.792,14.2 7.86,19.264 L 355.9,207.526 H 26.58 C 11.732,207.526 0,219.15 0,234.002 v 22.812 c 0,14.852 11.732,27.648 26.58,27.648 H 357.076 L 252.248,388.926 c -5.068,5.072 -7.86,11.652 -7.86,18.864 0,7.204 2.792,13.88 7.86,18.948 l 16.132,16.084 c 5.072,5.072 11.828,7.836 19.044,7.836 7.208,0 13.968,-2.8 19.04,-7.872 l 177.68,-177.68 c 5.084,-5.088 7.88,-11.88 7.86,-19.1 0.016,-7.244 -2.776,-14.04 -7.864,-19.12 z"
   id="path2" />
	</g>
</g>
<g
   id="g8"
   transform="translate(2,-41.346)">
</g>
<g
   id="g10"
   transform="translate(2,-41.346)">
</g>
<g
   id="g12"
   transform="translate(2,-41.346)">
</g>
<g
   id="g14"
   transform="translate(2,-41.346)">
</g>
<g
   id="g16"
   transform="translate(2,-41.346)">
</g>
<g
   id="g18"
   transform="translate(2,-41.346)">
</g>
<g
   id="g20"
   transform="translate(2,-41.346)">
</g>
<g
   id="g22"
   transform="translate(2,-41.346)">
</g>
<g
   id="g24"
   transform="translate(2,-41.346)">
</g>
<g
   id="g26"
   transform="translate(2,-41.346)">
</g>
<g
   id="g28"
   transform="translate(2,-41.346)">
</g>
<g
   id="g30"
   transform="translate(2,-41.346)">
</g>
<g
   id="g32"
   transform="translate(2,-41.346)">
</g>
<g
   id="g34"
   transform="translate(2,-41.346)">
</g>
<g
   id="g36"
   transform="translate(2,-41.346)">
</g>
</svg>
