<?xml version="1.0" encoding="UTF-8" standalone="no"?>
<svg
   xmlns:dc="http://purl.org/dc/elements/1.1/"
   xmlns:cc="http://creativecommons.org/ns#"
   xmlns:rdf="http://www.w3.org/1999/02/22-rdf-syntax-ns#"
   xmlns:svg="http://www.w3.org/2000/svg"
   xmlns="http://www.w3.org/2000/svg"
   xmlns:sodipodi="http://sodipodi.sourceforge.net/DTD/sodipodi-0.dtd"
   xmlns:inkscape="http://www.inkscape.org/namespaces/inkscape"
   version="1.1"
   id="Layer_1"
   x="0px"
   y="0px"
   viewBox="0 0 16.999998 15.635081"
   xml:space="preserve"
   sodipodi:docname="arrow-down.svg"
   width="16.999998"
   height="15.635081"
   inkscape:version="1.0.1 (3bc2e813f5, 2020-09-07)"><metadata
   id="metadata43"><rdf:RDF><cc:Work
       rdf:about=""><dc:format>image/svg+xml</dc:format><dc:type
         rdf:resource="http://purl.org/dc/dcmitype/StillImage" /><dc:title></dc:title></cc:Work></rdf:RDF></metadata><defs
   id="defs41" /><sodipodi:namedview
   pagecolor="#ffffff"
   bordercolor="#666666"
   borderopacity="1"
   objecttolerance="10"
   gridtolerance="10"
   guidetolerance="10"
   inkscape:pageopacity="0"
   inkscape:pageshadow="2"
   inkscape:window-width="1920"
   inkscape:window-height="1121"
   id="namedview39"
   showgrid="false"
   inkscape:zoom="22.627417"
   inkscape:cx="18.563629"
   inkscape:cy="0.4359988"
   inkscape:window-x="-9"
   inkscape:window-y="41"
   inkscape:window-maximized="1"
   inkscape:current-layer="Layer_1"
   inkscape:document-rotation="0"
   fit-margin-left="2"
   fit-margin-right="2" />
<g
   id="g6"
   transform="matrix(0.03177862,0,0,0.03177862,0.68245951,0)">
	<g
   id="g4">
		<path
   d="m 442.668,268.536 -16.116,-16.12 c -5.06,-5.068 -11.824,-7.872 -19.024,-7.872 -7.208,0 -14.584,2.804 -19.644,7.872 L 283.688,355.992 V 26.924 C 283.688,12.084 272.856,0 258.02,0 h -22.804 c -14.832,0 -28.404,12.084 -28.404,26.924 v 330.24 L 102.824,252.416 c -5.068,-5.068 -11.444,-7.872 -18.652,-7.872 -7.2,0 -13.776,2.804 -18.84,7.872 l -16.028,16.12 c -10.488,10.492 -10.444,27.56 0.044,38.052 l 177.576,177.556 c 5.056,5.056 11.84,7.856 19.1,7.856 h 0.076 c 7.204,0 13.972,-2.8 19.028,-7.856 l 177.54,-177.552 c 10.496,-10.488 10.496,-27.564 0,-38.056 z"
   id="path2" />
	</g>
</g>
<g
   id="g8"
   transform="translate(-39.459966)">
</g>
<g
   id="g10"
   transform="translate(-39.459966)">
</g>
<g
   id="g12"
   transform="translate(-39.459966)">
</g>
<g
   id="g14"
   transform="translate(-39.459966)">
</g>
<g
   id="g16"
   transform="translate(-39.459966)">
</g>
<g
   id="g18"
   transform="translate(-39.459966)">
</g>
<g
   id="g20"
   transform="translate(-39.459966)">
</g>
<g
   id="g22"
   transform="translate(-39.459966)">
</g>
<g
   id="g24"
   transform="translate(-39.459966)">
</g>
<g
   id="g26"
   transform="translate(-39.459966)">
</g>
<g
   id="g28"
   transform="translate(-39.459966)">
</g>
<g
   id="g30"
   transform="translate(-39.459966)">
</g>
<g
   id="g32"
   transform="translate(-39.459966)">
</g>
<g
   id="g34"
   transform="translate(-39.459966)">
</g>
<g
   id="g36"
   transform="translate(-39.459966)">
</g>
</svg>
