<?xml version="1.0" encoding="UTF-8" standalone="no"?>
<svg
   xmlns:dc="http://purl.org/dc/elements/1.1/"
   xmlns:cc="http://creativecommons.org/ns#"
   xmlns:rdf="http://www.w3.org/1999/02/22-rdf-syntax-ns#"
   xmlns:svg="http://www.w3.org/2000/svg"
   xmlns="http://www.w3.org/2000/svg"
   xmlns:sodipodi="http://sodipodi.sourceforge.net/DTD/sodipodi-0.dtd"
   xmlns:inkscape="http://www.inkscape.org/namespaces/inkscape"
   version="1.1"
   id="Layer_1"
   x="0px"
   y="0px"
   viewBox="0 0 20.000002 20.000002"
   xml:space="preserve"
   sodipodi:docname="download.svg"
   width="20.000002"
   height="20.000002"
   inkscape:version="1.0.1 (3bc2e813f5, 2020-09-07)"><metadata
   id="metadata49"><rdf:RDF><cc:Work
       rdf:about=""><dc:format>image/svg+xml</dc:format><dc:type
         rdf:resource="http://purl.org/dc/dcmitype/StillImage" /><dc:title></dc:title></cc:Work></rdf:RDF></metadata><defs
   id="defs47" /><sodipodi:namedview
   pagecolor="#ffffff"
   bordercolor="#666666"
   borderopacity="1"
   objecttolerance="10"
   gridtolerance="10"
   guidetolerance="10"
   inkscape:pageopacity="0"
   inkscape:pageshadow="2"
   inkscape:window-width="1920"
   inkscape:window-height="1121"
   id="namedview45"
   showgrid="false"
   inkscape:zoom="10.922788"
   inkscape:cx="-17.83557"
   inkscape:cy="8.9008021"
   inkscape:window-x="-9"
   inkscape:window-y="41"
   inkscape:window-maximized="1"
   inkscape:current-layer="Layer_1" />
<g
   id="g6"
   transform="scale(0.04065041)">
	<g
   id="g4">
		<path
   d="m 359.096,213.36 -16.12,-16.124 c -5.064,-5.064 -11.816,-7.852 -19.024,-7.852 -7.208,0 -14.012,2.788 -19.08,7.852 L 284.44,217.624 V 27.056 C 284.44,12.224 272.468,0 257.632,0 h -0.104 -22.704 C 219.988,0 207.56,12.224 207.56,27.056 v 191.736 l -21.336,-21.52 c -5.068,-5.064 -11.732,-7.852 -18.932,-7.852 -7.208,0 -13.916,2.788 -18.98,7.852 l -16.1,16.12 c -10.488,10.492 -10.476,27.564 0.012,38.052 l 94.324,94.332 c 5.064,5.06 11.828,7.852 19.092,7.852 h 0.068 c 7.212,0 13.968,-2.792 19.032,-7.852 l 94.356,-94.356 c 5.064,-5.072 7.852,-11.828 7.852,-19.036 0,-7.2 -2.788,-13.956 -7.852,-19.024 z"
   id="path2" />
	</g>
</g>
<g
   id="g12"
   transform="scale(0.04065041)">
	<g
   id="g10">
		<path
   d="M 453.348,149.908 H 418.94 c -14.724,0 -26.88,12.424 -26.88,27.148 v 22.796 c 0,13.556 11.532,24.804 23.064,26.644 V 415.124 H 76.872 V 226.528 c 11.532,-1.764 23.064,-13.052 23.064,-26.676 v -22.796 c 0,-14.724 -12.172,-27.148 -26.9,-27.148 H 38.444 C 17.248,149.908 0,167.14 0,188.328 v 265.1 C 0,474.62 17.248,492 38.444,492 H 453.348 C 474.544,492 492,474.62 492,453.428 v -265.1 c 0,-21.192 -17.456,-38.42 -38.652,-38.42 z"
   id="path8" />
	</g>
</g>
<g
   id="g14">
</g>
<g
   id="g16">
</g>
<g
   id="g18">
</g>
<g
   id="g20">
</g>
<g
   id="g22">
</g>
<g
   id="g24">
</g>
<g
   id="g26">
</g>
<g
   id="g28">
</g>
<g
   id="g30">
</g>
<g
   id="g32">
</g>
<g
   id="g34">
</g>
<g
   id="g36">
</g>
<g
   id="g38">
</g>
<g
   id="g40">
</g>
<g
   id="g42">
</g>
</svg>
