<?xml version="1.0" encoding="UTF-8" standalone="no"?>
<svg
   xmlns:dc="http://purl.org/dc/elements/1.1/"
   xmlns:cc="http://creativecommons.org/ns#"
   xmlns:rdf="http://www.w3.org/1999/02/22-rdf-syntax-ns#"
   xmlns:svg="http://www.w3.org/2000/svg"
   xmlns="http://www.w3.org/2000/svg"
   xmlns:sodipodi="http://sodipodi.sourceforge.net/DTD/sodipodi-0.dtd"
   xmlns:inkscape="http://www.inkscape.org/namespaces/inkscape"
   version="1.1"
   id="Capa_1"
   x="0px"
   y="0px"
   viewBox="0 0 21.332375 20"
   xml:space="preserve"
   sodipodi:docname="excel.svg"
   width="21.332375"
   height="20"
   inkscape:version="1.0.1 (3bc2e813f5, 2020-09-07)"><metadata
   id="metadata61"><rdf:RDF><cc:Work
       rdf:about=""><dc:format>image/svg+xml</dc:format><dc:type
         rdf:resource="http://purl.org/dc/dcmitype/StillImage" /><dc:title></dc:title></cc:Work></rdf:RDF></metadata><defs
   id="defs59" /><sodipodi:namedview
   pagecolor="#ffffff"
   bordercolor="#666666"
   borderopacity="1"
   objecttolerance="10"
   gridtolerance="10"
   guidetolerance="10"
   inkscape:pageopacity="0"
   inkscape:pageshadow="2"
   inkscape:window-width="1920"
   inkscape:window-height="1121"
   id="namedview57"
   showgrid="false"
   inkscape:zoom="0.65600727"
   inkscape:cx="-40.74053"
   inkscape:cy="533.96124"
   inkscape:window-x="-9"
   inkscape:window-y="41"
   inkscape:window-maximized="1"
   inkscape:current-layer="Capa_1" />
<path
   style="fill:#eceff1;stroke-width:0.0416647"
   d="m 20.665738,17.333453 h -9.332914 c -0.367983,0 -0.666636,-0.298653 -0.666636,-0.666636 0,-0.367984 0,-12.9647513 0,-13.3327353 0,-0.367983 0.298653,-0.666636 0.666636,-0.666636 h 9.332914 c 0.367984,0 0.666637,0.298653 0.666637,0.666636 V 16.666817 c 0,0.367983 -0.298653,0.666636 -0.666637,0.666636 z"
   id="path2" />
<g
   id="g20"
   transform="matrix(0.04166479,0,0,0.04166479,0,-0.66619632)">
	<path
   style="fill:#388e3c"
   d="m 336,176.011 h -64 c -8.832,0 -16,-7.168 -16,-16 0,-8.832 7.168,-16 16,-16 h 64 c 8.832,0 16,7.168 16,16 0,8.832 -7.168,16 -16,16 z"
   id="path4" />
	<path
   style="fill:#388e3c"
   d="m 336,240.011 h -64 c -8.832,0 -16,-7.168 -16,-16 0,-8.832 7.168,-16 16,-16 h 64 c 8.832,0 16,7.168 16,16 0,8.832 -7.168,16 -16,16 z"
   id="path6" />
	<path
   style="fill:#388e3c"
   d="m 336,304.011 h -64 c -8.832,0 -16,-7.168 -16,-16 0,-8.832 7.168,-16 16,-16 h 64 c 8.832,0 16,7.168 16,16 0,8.832 -7.168,16 -16,16 z"
   id="path8" />
	<path
   style="fill:#388e3c"
   d="m 336,368.011 h -64 c -8.832,0 -16,-7.168 -16,-16 0,-8.832 7.168,-16 16,-16 h 64 c 8.832,0 16,7.168 16,16 0,8.832 -7.168,16 -16,16 z"
   id="path10" />
	<path
   style="fill:#388e3c"
   d="m 432,176.011 h -32 c -8.832,0 -16,-7.168 -16,-16 0,-8.832 7.168,-16 16,-16 h 32 c 8.832,0 16,7.168 16,16 0,8.832 -7.168,16 -16,16 z"
   id="path12" />
	<path
   style="fill:#388e3c"
   d="m 432,240.011 h -32 c -8.832,0 -16,-7.168 -16,-16 0,-8.832 7.168,-16 16,-16 h 32 c 8.832,0 16,7.168 16,16 0,8.832 -7.168,16 -16,16 z"
   id="path14" />
	<path
   style="fill:#388e3c"
   d="m 432,304.011 h -32 c -8.832,0 -16,-7.168 -16,-16 0,-8.832 7.168,-16 16,-16 h 32 c 8.832,0 16,7.168 16,16 0,8.832 -7.168,16 -16,16 z"
   id="path16" />
	<path
   style="fill:#388e3c"
   d="m 432,368.011 h -32 c -8.832,0 -16,-7.168 -16,-16 0,-8.832 7.168,-16 16,-16 h 32 c 8.832,0 16,7.168 16,16 0,8.832 -7.168,16 -16,16 z"
   id="path18" />
</g>
<path
   style="fill:#2e7d32;stroke-width:0.0416647"
   d="m 11.758139,0.15422468 c -0.151994,-0.126661 -0.355985,-0.181325 -0.547976,-0.141327 L 0.54397555,2.0128077 C 0.22798976,2.0714727 0,2.3461267 0,2.6674457 V 17.333453 c 0,0.319986 0.22798976,0.595974 0.54397555,0.654638 l 10.66618745,1.99991 c 0.04,0.008 0.08133,0.012 0.122661,0.012 0.15466,0 0.30532,-0.05333 0.425315,-0.153327 0.153326,-0.126661 0.241322,-0.315986 0.241322,-0.51331 V 0.66753568 c 0,-0.198658 -0.088,-0.38665 -0.241322,-0.513311 z"
   id="path22" />
<path
   style="fill:#fafafa;stroke-width:0.0416647"
   d="M 9.1675881,12.22835 7.0596831,9.8191237 9.191587,7.0779137 C 9.4182436,6.7872607 9.3649127,6.3686127 9.0755923,6.1419567 8.786272,5.9152997 8.3676242,5.9686307 8.1396344,6.2579507 L 6.1650565,8.7965037 4.501131,6.8952557 c -0.2439887,-0.279988 -0.6653033,-0.30532 -0.9399576,-0.06266 -0.2773209,0.242656 -0.3053197,0.66397 -0.062664,0.939958 l 1.833251,2.095906 -1.8585832,2.3892263 c -0.2266565,0.290653 -0.1733255,0.709301 0.1159948,0.935958 0.1226612,0.09466 0.267988,0.139993 0.4106482,0.139993 0.1986576,0 0.394649,-0.088 0.5266428,-0.257321 l 1.6999239,-2.186569 1.9385795,2.214567 c 0.1319943,0.151993 0.3159858,0.229323 0.501311,0.229323 0.1559928,0 0.311986,-0.05466 0.4386468,-0.165326 0.2773209,-0.242655 0.3053196,-0.66397 0.062664,-0.939957 z"
   id="path24" />
<g
   id="g26"
   transform="translate(0,-15.989439)">
</g>
<g
   id="g28"
   transform="translate(0,-15.989439)">
</g>
<g
   id="g30"
   transform="translate(0,-15.989439)">
</g>
<g
   id="g32"
   transform="translate(0,-15.989439)">
</g>
<g
   id="g34"
   transform="translate(0,-15.989439)">
</g>
<g
   id="g36"
   transform="translate(0,-15.989439)">
</g>
<g
   id="g38"
   transform="translate(0,-15.989439)">
</g>
<g
   id="g40"
   transform="translate(0,-15.989439)">
</g>
<g
   id="g42"
   transform="translate(0,-15.989439)">
</g>
<g
   id="g44"
   transform="translate(0,-15.989439)">
</g>
<g
   id="g46"
   transform="translate(0,-15.989439)">
</g>
<g
   id="g48"
   transform="translate(0,-15.989439)">
</g>
<g
   id="g50"
   transform="translate(0,-15.989439)">
</g>
<g
   id="g52"
   transform="translate(0,-15.989439)">
</g>
<g
   id="g54"
   transform="translate(0,-15.989439)">
</g>
</svg>
