<?xml version="1.0" encoding="UTF-8" standalone="no"?>
<!-- Generator: Adobe Illustrator 19.0.0, SVG Export Plug-In . SVG Version: 6.00 Build 0)  -->

<svg
   xmlns:dc="http://purl.org/dc/elements/1.1/"
   xmlns:cc="http://creativecommons.org/ns#"
   xmlns:rdf="http://www.w3.org/1999/02/22-rdf-syntax-ns#"
   xmlns:svg="http://www.w3.org/2000/svg"
   xmlns="http://www.w3.org/2000/svg"
   xmlns:sodipodi="http://sodipodi.sourceforge.net/DTD/sodipodi-0.dtd"
   xmlns:inkscape="http://www.inkscape.org/namespaces/inkscape"
   version="1.1"
   id="Layer_1"
   x="0px"
   y="0px"
   viewBox="0 0 45.788692 29.999987"
   xml:space="preserve"
   sodipodi:docname="france.svg"
   width="45.788692"
   height="29.999987"
   inkscape:version="0.92.4 (5da689c313, 2019-01-14)"><metadata
   id="metadata43"><rdf:RDF><cc:Work
       rdf:about=""><dc:format>image/svg+xml</dc:format><dc:type
         rdf:resource="http://purl.org/dc/dcmitype/StillImage" /><dc:title></dc:title></cc:Work></rdf:RDF></metadata><defs
   id="defs41" /><sodipodi:namedview
   pagecolor="#ffffff"
   bordercolor="#666666"
   borderopacity="1"
   objecttolerance="10"
   gridtolerance="10"
   guidetolerance="10"
   inkscape:pageopacity="0"
   inkscape:pageshadow="2"
   inkscape:window-width="789"
   inkscape:window-height="480"
   id="namedview39"
   showgrid="false"
   fit-margin-top="0"
   fit-margin-left="0"
   fit-margin-right="0"
   fit-margin-bottom="0"
   inkscape:zoom="0.4609375"
   inkscape:cx="256"
   inkscape:cy="167.727"
   inkscape:window-x="0"
   inkscape:window-y="0"
   inkscape:window-maximized="0"
   inkscape:current-layer="Layer_1" />
<path
   style="fill:#41479b;stroke-width:0.08943104"
   d="M 3.4292331,0 C 1.5352626,0 0,1.53527 0,3.42924 v 23.14108 c 0,1.89388 1.5352626,3.42923 3.4292331,3.42923 H 15.262927 V 0 Z"
   id="path2"
   inkscape:connector-curvature="0" />
<rect
   x="15.263195"
   y="0.00034595703"
   style="fill:#f5f5f5;stroke-width:0.08943104"
   width="15.263195"
   height="29.999641"
   id="rect4" />
<path
   style="fill:#ff4b55;stroke-width:0.08943104"
   d="M 42.359458,0 H 30.525764 v 29.99946 h 11.833694 c 1.893881,0 3.429233,-1.53526 3.429233,-3.42923 V 3.42924 C 45.788691,1.53527 44.253428,0 42.359458,0 Z"
   id="path6"
   inkscape:connector-curvature="0" />
<g
   id="g8"
   transform="matrix(0.08943104,0,0,0.08943104,0,-7.89434)">
</g>
<g
   id="g10"
   transform="matrix(0.08943104,0,0,0.08943104,0,-7.89434)">
</g>
<g
   id="g12"
   transform="matrix(0.08943104,0,0,0.08943104,0,-7.89434)">
</g>
<g
   id="g14"
   transform="matrix(0.08943104,0,0,0.08943104,0,-7.89434)">
</g>
<g
   id="g16"
   transform="matrix(0.08943104,0,0,0.08943104,0,-7.89434)">
</g>
<g
   id="g18"
   transform="matrix(0.08943104,0,0,0.08943104,0,-7.89434)">
</g>
<g
   id="g20"
   transform="matrix(0.08943104,0,0,0.08943104,0,-7.89434)">
</g>
<g
   id="g22"
   transform="matrix(0.08943104,0,0,0.08943104,0,-7.89434)">
</g>
<g
   id="g24"
   transform="matrix(0.08943104,0,0,0.08943104,0,-7.89434)">
</g>
<g
   id="g26"
   transform="matrix(0.08943104,0,0,0.08943104,0,-7.89434)">
</g>
<g
   id="g28"
   transform="matrix(0.08943104,0,0,0.08943104,0,-7.89434)">
</g>
<g
   id="g30"
   transform="matrix(0.08943104,0,0,0.08943104,0,-7.89434)">
</g>
<g
   id="g32"
   transform="matrix(0.08943104,0,0,0.08943104,0,-7.89434)">
</g>
<g
   id="g34"
   transform="matrix(0.08943104,0,0,0.08943104,0,-7.89434)">
</g>
<g
   id="g36"
   transform="matrix(0.08943104,0,0,0.08943104,0,-7.89434)">
</g>
</svg>