<?xml version="1.0" encoding="UTF-8" standalone="no"?>
<!-- Generator: Adobe Illustrator 19.0.0, SVG Export Plug-In . SVG Version: 6.00 Build 0)  -->

<svg
   xmlns:dc="http://purl.org/dc/elements/1.1/"
   xmlns:cc="http://creativecommons.org/ns#"
   xmlns:rdf="http://www.w3.org/1999/02/22-rdf-syntax-ns#"
   xmlns:svg="http://www.w3.org/2000/svg"
   xmlns="http://www.w3.org/2000/svg"
   xmlns:sodipodi="http://sodipodi.sourceforge.net/DTD/sodipodi-0.dtd"
   xmlns:inkscape="http://www.inkscape.org/namespaces/inkscape"
   version="1.1"
   id="Layer_1"
   x="0px"
   y="0px"
   viewBox="0 0 30.525806 20"
   xml:space="preserve"
   sodipodi:docname="france.svg"
   width="30.525806"
   height="20"
   inkscape:version="0.92.4 (5da689c313, 2019-01-14)"><metadata
   id="metadata43"><rdf:RDF><cc:Work
       rdf:about=""><dc:format>image/svg+xml</dc:format><dc:type
         rdf:resource="http://purl.org/dc/dcmitype/StillImage" /><dc:title></dc:title></cc:Work></rdf:RDF></metadata><defs
   id="defs41" /><sodipodi:namedview
   pagecolor="#ffffff"
   bordercolor="#666666"
   borderopacity="1"
   objecttolerance="10"
   gridtolerance="10"
   guidetolerance="10"
   inkscape:pageopacity="0"
   inkscape:pageshadow="2"
   inkscape:window-width="789"
   inkscape:window-height="480"
   id="namedview39"
   showgrid="false"
   fit-margin-top="0"
   fit-margin-left="0"
   fit-margin-right="0"
   fit-margin-bottom="0"
   inkscape:zoom="2.6074563"
   inkscape:cx="30.77675"
   inkscape:cy="14.241064"
   inkscape:window-x="0"
   inkscape:window-y="0"
   inkscape:window-maximized="0"
   inkscape:current-layer="Layer_1" />
<path
   style="fill:#41479b;stroke-width:0.05962072"
   d="M 2.2861564,0 C 1.0235088,0 0,1.0235136 0,2.2861606 V 17.713554 c 0,1.262588 1.0235088,2.286155 2.2861564,2.286155 H 10.175289 V 0 Z"
   id="path2"
   inkscape:connector-curvature="0" />
<rect
   x="10.175467"
   y="0.00023099141"
   style="fill:#f5f5f5;stroke-width:0.05962072"
   width="10.175467"
   height="19.999769"
   id="rect4" />
<path
   style="fill:#ff4b55;stroke-width:0.05962072"
   d="m 28.239651,0 h -7.889133 v 19.999649 h 7.889133 c 1.262587,0 2.286156,-1.023507 2.286156,-2.286155 V 2.2861606 C 30.525807,1.0235136 29.502298,0 28.239651,0 Z"
   id="path6"
   inkscape:connector-curvature="0" />
<g
   id="g8"
   transform="matrix(0.08943104,0,0,0.08943104,0,-17.894327)">
</g>
<g
   id="g10"
   transform="matrix(0.08943104,0,0,0.08943104,0,-17.894327)">
</g>
<g
   id="g12"
   transform="matrix(0.08943104,0,0,0.08943104,0,-17.894327)">
</g>
<g
   id="g14"
   transform="matrix(0.08943104,0,0,0.08943104,0,-17.894327)">
</g>
<g
   id="g16"
   transform="matrix(0.08943104,0,0,0.08943104,0,-17.894327)">
</g>
<g
   id="g18"
   transform="matrix(0.08943104,0,0,0.08943104,0,-17.894327)">
</g>
<g
   id="g20"
   transform="matrix(0.08943104,0,0,0.08943104,0,-17.894327)">
</g>
<g
   id="g22"
   transform="matrix(0.08943104,0,0,0.08943104,0,-17.894327)">
</g>
<g
   id="g24"
   transform="matrix(0.08943104,0,0,0.08943104,0,-17.894327)">
</g>
<g
   id="g26"
   transform="matrix(0.08943104,0,0,0.08943104,0,-17.894327)">
</g>
<g
   id="g28"
   transform="matrix(0.08943104,0,0,0.08943104,0,-17.894327)">
</g>
<g
   id="g30"
   transform="matrix(0.08943104,0,0,0.08943104,0,-17.894327)">
</g>
<g
   id="g32"
   transform="matrix(0.08943104,0,0,0.08943104,0,-17.894327)">
</g>
<g
   id="g34"
   transform="matrix(0.08943104,0,0,0.08943104,0,-17.894327)">
</g>
<g
   id="g36"
   transform="matrix(0.08943104,0,0,0.08943104,0,-17.894327)">
</g>
</svg>