<svg height="512pt" viewBox="0 0 512 512" width="512pt" xmlns="http://www.w3.org/2000/svg"><path d="m512 512h-512v-480c0-17.679688 14.320312-32 32-32h448c17.679688 0 32 14.320312 32 32zm0 0" fill="#ecce93"/><path d="m432 208h-352v-128h352zm0 0" fill="#e5bd76"/><g fill="#aa854b"><path d="m416 272h-320c-8.832031 0-16-7.167969-16-16s7.167969-16 16-16h320c8.832031 0 16 7.167969 16 16s-7.167969 16-16 16zm0 0"/><path d="m416 336h-320c-8.832031 0-16-7.167969-16-16s7.167969-16 16-16h320c8.832031 0 16 7.167969 16 16s-7.167969 16-16 16zm0 0"/><path d="m272 400h-176c-8.832031 0-16-7.167969-16-16s7.167969-16 16-16h176c8.832031 0 16 7.167969 16 16s-7.167969 16-16 16zm0 0"/></g></svg>