<svg id="Layer_1" enable-background="new 0 0 128 128" height="512" viewBox="0 0 128 128" width="512" xmlns="http://www.w3.org/2000/svg"><path d="m124.743 94.723-15.683-16.054c-1.407-1.44-3.293-2.247-5.308-2.271-.029-.001-.06-.001-.09-.001-.135 0-.268.012-.401.019l-4.199-4.298c4.057-5.406 6.294-11.934 6.375-18.821.1-8.565-3.142-16.656-9.128-22.783-.81-.83-1.661-1.605-2.542-2.334v-11.024c0-3.383-2.752-6.135-6.135-6.135h-68.982c-3.383 0-6.135 2.752-6.135 6.135v2.673h-2.948c-2.456 0-4.454 1.999-4.454 4.455s1.998 4.454 4.454 4.454h2.948v5.111h-2.948c-2.456 0-4.454 1.999-4.454 4.455s1.998 4.454 4.454 4.454h2.948v5.111h-2.948c-2.456 0-4.454 1.999-4.454 4.455s1.998 4.455 4.454 4.455h2.948v5.11h-2.948c-2.456 0-4.454 1.999-4.454 4.455s1.998 4.455 4.454 4.455h2.948v5.11h-2.948c-2.456 0-4.454 1.999-4.454 4.455s1.998 4.454 4.454 4.454h2.948v5.11h-2.948c-2.456 0-4.454 1.999-4.454 4.455s1.998 4.454 4.454 4.454h2.948v4.426h-2.948c-2.456 0-4.454 1.999-4.454 4.455s1.998 4.454 4.454 4.454h2.948v3.267c0 3.056 2.485 5.541 5.541 5.541h68.283c4.096 0 7.428-3.332 7.428-7.428v-32.63l2.384 2.441c-.012.164-.028.327-.03.492-.023 2.015.739 3.918 2.147 5.359l15.683 16.052c1.408 1.441 3.293 2.249 5.308 2.272h.091c1.981 0 3.85-.76 5.269-2.147 2.974-2.908 3.031-7.693.124-10.668z" fill="#e6e7e8"/><path d="m82.339 115.979h-68.282c-2.508 0-4.542-2.033-4.542-4.542v-98.281c0-2.836 2.299-5.135 5.135-5.135h68.982c2.836 0 5.135 2.299 5.135 5.135v96.394c.001 3.551-2.877 6.429-6.428 6.429z" fill="#6dc9f7"/><path d="m83.632 8.021h-68.982c-2.836 0-5.135 2.299-5.135 5.135v3c0-2.836 2.299-5.135 5.135-5.135h68.982c2.836 0 5.135 2.299 5.135 5.135v-3c.001-2.836-2.299-5.135-5.135-5.135z" fill="#fff"/><g fill="#0089ef"><path d="m13.463 23.738h-7.896c-1.908 0-3.454-1.547-3.454-3.454 0-1.908 1.547-3.454 3.454-3.454h7.896c1.908 0 3.454 1.547 3.454 3.454.001 1.907-1.546 3.454-3.454 3.454z"/><path d="m13.463 37.758h-7.896c-1.908 0-3.454-1.547-3.454-3.454 0-1.908 1.547-3.454 3.454-3.454h7.896c1.908 0 3.454 1.547 3.454 3.454.001 1.907-1.546 3.454-3.454 3.454z"/><path d="m13.463 51.777h-7.896c-1.908 0-3.454-1.547-3.454-3.454 0-1.908 1.547-3.454 3.454-3.454h7.896c1.908 0 3.454 1.547 3.454 3.454.001 1.908-1.546 3.454-3.454 3.454z"/><path d="m13.463 65.797h-7.896c-1.908 0-3.454-1.547-3.454-3.454 0-1.908 1.547-3.454 3.454-3.454h7.896c1.908 0 3.454 1.547 3.454 3.454.001 1.907-1.546 3.454-3.454 3.454z"/><path d="m13.463 79.816h-7.896c-1.908 0-3.454-1.547-3.454-3.454 0-1.908 1.547-3.454 3.454-3.454h7.896c1.908 0 3.454 1.547 3.454 3.454.001 1.908-1.546 3.454-3.454 3.454z"/><path d="m13.463 93.836h-7.896c-1.908 0-3.454-1.547-3.454-3.454 0-1.908 1.547-3.454 3.454-3.454h7.896c1.908 0 3.454 1.547 3.454 3.454.001 1.907-1.546 3.454-3.454 3.454z"/><path d="m13.463 107.171h-7.896c-1.908 0-3.454-1.547-3.454-3.454 0-1.908 1.547-3.454 3.454-3.454h7.896c1.908 0 3.454 1.547 3.454 3.454.001 1.907-1.546 3.454-3.454 3.454z"/></g><path d="m95.092 75.261c1.069-1.044 2.406-1.642 3.783-1.808l-5.141-5.262c-.813 1.026-1.692 2.016-2.652 2.955-.965.942-1.979 1.8-3.028 2.592l5.142 5.264c.199-1.375.827-2.697 1.896-3.741z" fill="#ffd7e5"/><ellipse cx="69.372" cy="48.923" fill="#fa759e" rx="31.067" ry="31.067" transform="matrix(.458 -.889 .889 .458 -5.909 88.15)"/><ellipse cx="69.372" cy="48.923" fill="#d4fbff" rx="23.818" ry="23.818" transform="matrix(.449 -.894 .894 .449 -5.486 88.951)"/><path d="m120.028 91.422-15.683-16.053c-2.525-2.585-6.668-2.633-9.253-.108s-2.633 6.668-.108 9.253l15.683 16.053c2.525 2.585 6.668 2.633 9.253.108 2.585-2.526 2.633-6.668.108-9.253z" fill="#0089ef"/><path d="m56.792 41.391c0-1.518.487-3.055 1.462-4.613.973-1.558 2.396-2.848 4.266-3.87 1.869-1.022 4.049-1.534 6.542-1.534 2.317 0 4.362.427 6.136 1.282 1.773.855 3.143 2.017 4.11 3.487.966 1.47 1.45 3.067 1.45 4.792 0 1.358-.276 2.549-.827 3.571-.551 1.023-1.207 1.905-1.965 2.648-.759.743-2.121 1.993-4.087 3.75-.543.495-.978.931-1.306 1.307-.327.375-.571.719-.73 1.03-.16.312-.284.623-.372.934-.087.312-.22.859-.395 1.641-.304 1.662-1.254 2.492-2.852 2.492-.83 0-1.529-.271-2.097-.815-.568-.543-.851-1.35-.851-2.42 0-1.342.208-2.504.623-3.487s.966-1.846 1.654-2.588c.687-.743 1.614-1.626 2.781-2.648 1.022-.895 1.761-1.57 2.217-2.025.455-.455.838-.962 1.15-1.522.312-.559.468-1.166.468-1.821 0-1.278-.476-2.357-1.426-3.235-.951-.879-2.177-1.318-3.68-1.318-1.757 0-3.052.444-3.882 1.33s-1.534 2.193-2.108 3.918c-.544 1.805-1.575 2.708-3.092 2.708-.894 0-1.649-.315-2.264-.947-.618-.629-.925-1.311-.925-2.047zm11.694 26.266c-.975 0-1.826-.316-2.553-.947s-1.09-1.514-1.09-2.648c0-1.007.351-1.853 1.054-2.54.704-.687 1.565-1.03 2.589-1.03 1.006 0 1.853.344 2.54 1.03.687.687 1.03 1.534 1.03 2.54 0 1.118-.359 1.997-1.078 2.636-.718.639-1.55.959-2.492.959z" fill="#6dc9f7"/><path d="m68.774 114.978h-11.982c-.553 0-1 .447-1 1s.447 1 1 1h11.982c.553 0 1-.447 1-1s-.447-1-1-1z" fill="#3a2c60"/><path d="m29.388 89.411h45.148c.553 0 1-.447 1-1s-.447-1-1-1h-45.148c-.553 0-1 .447-1 1s.448 1 1 1z" fill="#3a2c60"/><path d="m53.963 100.365h-24.575c-.553 0-1 .447-1 1s.447 1 1 1h24.574c.553 0 1-.447 1-1s-.447-1-.999-1z" fill="#3a2c60"/><path d="m87.124 31.58c-9.562-9.788-25.307-9.971-35.096-.409-9.788 9.563-9.972 25.307-.408 35.096 4.632 4.741 10.834 7.396 17.463 7.473.1.001.197.002.297.002 6.519 0 12.665-2.503 17.336-7.066 9.788-9.564 9.971-25.307.408-35.096zm-1.807 33.665c-4.294 4.196-9.944 6.497-15.938 6.497-.092 0-.183-.001-.273-.002-6.095-.071-11.797-2.511-16.057-6.871-8.792-9-8.623-23.475.377-32.268 4.431-4.329 10.188-6.485 15.943-6.485 5.933 0 11.86 2.293 16.324 6.861 8.793 9 8.624 23.475-.376 32.268z" fill="#3a2c60"/><path d="m120.743 90.723-15.683-16.054c-1.575-1.613-3.703-2.36-5.796-2.25l-4.202-4.301c4.057-5.406 6.294-11.934 6.375-18.821.1-8.565-3.142-16.656-9.128-22.783-.813-.833-1.664-1.608-2.542-2.333v-11.024c0-3.383-2.752-6.135-6.135-6.135h-68.982c-3.383 0-6.135 2.752-6.135 6.135v2.672h-2.948c-2.456 0-4.454 1.999-4.454 4.455s1.998 4.455 4.454 4.455h2.948v5.11h-2.948c-2.456 0-4.454 1.999-4.454 4.455s1.998 4.455 4.454 4.455h2.948v5.11h-2.948c-2.456 0-4.454 1.999-4.454 4.455s1.998 4.455 4.454 4.455h2.948v5.111h-2.948c-2.456 0-4.454 1.998-4.454 4.454s1.998 4.455 4.454 4.455h2.948v5.11h-2.948c-2.456 0-4.454 1.999-4.454 4.455s1.998 4.454 4.454 4.454h2.948v5.11h-2.948c-2.456 0-4.454 1.999-4.454 4.455s1.998 4.454 4.454 4.454h2.948v4.426h-2.948c-2.456 0-4.454 1.999-4.454 4.455s1.998 4.454 4.454 4.454h2.948v3.267c0 3.056 2.485 5.541 5.541 5.541h37.564c.553 0 1-.447 1-1s-.447-1-1-1h-37.564c-1.952 0-3.541-1.589-3.541-3.541v-3.267h2.947c2.456 0 4.455-1.998 4.455-4.454s-1.999-4.455-4.455-4.455h-2.947v-4.426h2.947c2.456 0 4.455-1.998 4.455-4.454s-1.999-4.455-4.455-4.455h-2.947v-5.11h2.947c2.456 0 4.455-1.998 4.455-4.454s-1.999-4.455-4.455-4.455h-2.947v-5.11h2.947c2.456 0 4.455-1.999 4.455-4.455s-1.999-4.454-4.455-4.454h-2.947v-5.111h2.947c2.456 0 4.455-1.999 4.455-4.455s-1.999-4.455-4.455-4.455h-2.947v-5.11h2.947c2.456 0 4.455-1.999 4.455-4.455s-1.999-4.455-4.455-4.455h-2.947v-5.11h2.947c2.456 0 4.455-1.999 4.455-4.455s-1.999-4.455-4.455-4.455h-2.947v-2.672c0-2.28 1.854-4.135 4.135-4.135h68.982c2.28 0 4.135 1.855 4.135 4.135v9.507c-10.971-7.692-25.748-7.73-36.766-.02h-21.613c-.553 0-1 .448-1 1s.447 1 1 1h19.044c-.499.431-.992.874-1.47 1.341-2.874 2.808-5.145 6.065-6.767 9.612h-10.807c-.553 0-1 .448-1 1s.447 1 1 1h9.969c-1.302 3.456-2.006 7.149-2.051 10.952v.002h-7.918c-.553 0-1 .448-1 1s.447 1 1 1h7.963c.189 3.817 1.047 7.512 2.516 10.954h-10.479c-.553 0-1 .448-1 1s.447 1 1 1h11.411c1.454 2.841 3.341 5.479 5.635 7.828 1.11 1.137 2.291 2.179 3.531 3.126h-20.577c-.553 0-1 .447-1 1s.447 1 1 1h23.535c4.811 2.885 10.316 4.463 16.074 4.53.128.001.256.002.384.002 6.667 0 13.028-2.033 18.386-5.802v34.363c0 2.993-2.435 5.428-5.428 5.428h-8.803c-.553 0-1 .447-1 1s.447 1 1 1h8.803c4.096 0 7.428-3.332 7.428-7.428v-32.63l2.387 2.443c-.159 2.089.538 4.234 2.115 5.848l15.683 16.053c1.407 1.44 3.293 2.248 5.308 2.271h.091c1.98 0 3.849-.76 5.269-2.147 1.44-1.407 2.248-3.293 2.271-5.308s-.74-3.918-2.148-5.359zm-104.825 12.994c0 1.354-1.102 2.454-2.455 2.454h-7.896c-1.354 0-2.454-1.101-2.454-2.454s1.101-2.455 2.454-2.455h7.896c1.353 0 2.455 1.101 2.455 2.455zm0-13.335c0 1.354-1.102 2.454-2.455 2.454h-7.896c-1.354 0-2.454-1.101-2.454-2.454s1.101-2.455 2.454-2.455h7.896c1.353 0 2.455 1.101 2.455 2.455zm0-14.02c0 1.354-1.102 2.454-2.455 2.454h-7.896c-1.354 0-2.454-1.101-2.454-2.454s1.101-2.455 2.454-2.455h7.896c1.353 0 2.455 1.102 2.455 2.455zm0-14.02c0 1.354-1.102 2.455-2.455 2.455h-7.896c-1.354 0-2.454-1.101-2.454-2.455 0-1.353 1.101-2.454 2.454-2.454h7.896c1.353 0 2.455 1.101 2.455 2.454zm0-14.019c0 1.354-1.102 2.455-2.455 2.455h-7.896c-1.354 0-2.454-1.101-2.454-2.455s1.101-2.455 2.454-2.455h7.896c1.353 0 2.455 1.101 2.455 2.455zm0-14.02c0 1.354-1.102 2.455-2.455 2.455h-7.896c-1.354 0-2.454-1.101-2.454-2.455s1.101-2.455 2.454-2.455h7.896c1.353.001 2.455 1.102 2.455 2.455zm0-14.019c0 1.354-1.102 2.455-2.455 2.455h-7.896c-1.354 0-2.454-1.101-2.454-2.455s1.101-2.455 2.454-2.455h7.896c1.353 0 2.455 1.101 2.455 2.455zm31.946 49.65c-11.585-11.859-11.362-30.933.497-42.518 5.839-5.704 13.425-8.545 21.008-8.545 7.816 0 15.629 3.022 21.511 9.042 5.612 5.745 8.651 13.331 8.558 21.362s-3.31 15.544-9.055 21.157c-11.859 11.582-30.932 11.363-42.519-.498zm41.69 3.908c.767-.623 1.511-1.282 2.227-1.982.712-.696 1.384-1.421 2.022-2.169l3.142 3.217c-.927.357-1.798.902-2.552 1.638-.754.737-1.318 1.594-1.697 2.512zm29.666 26.118c-1.043 1.019-2.415 1.577-3.871 1.577-.022 0-.045 0-.066 0-1.48-.018-2.866-.61-3.901-1.67l-15.683-16.053c-1.034-1.059-1.595-2.457-1.577-3.938s.61-2.866 1.67-3.901c1.076-1.052 2.475-1.575 3.873-1.575 1.441 0 2.881.557 3.966 1.667l15.683 16.054c1.034 1.059 1.595 2.457 1.577 3.938s-.611 2.866-1.671 3.901z" fill="#3a2c60"/><path d="m68.486 59.491c-1.287 0-2.393.442-3.287 1.315-.898.879-1.354 1.974-1.354 3.255 0 1.432.482 2.578 1.434 3.404.912.79 1.991 1.191 3.208 1.191 1.189 0 2.252-.407 3.156-1.212.938-.833 1.414-1.972 1.414-3.383 0-1.277-.445-2.37-1.323-3.248-.88-.877-1.972-1.322-3.248-1.322zm1.828 6.46c-.535.475-1.133.706-1.828.706-.731 0-1.353-.229-1.897-.702-.501-.436-.744-1.054-.744-1.893 0-.733.246-1.33.752-1.825.515-.501 1.133-.746 1.89-.746.736 0 1.336.241 1.833.737.496.496.737 1.096.737 1.833-.001.828-.244 1.446-.743 1.89z" fill="#3a2c60"/><path d="m75.631 31.755c-1.901-.917-4.112-1.381-6.569-1.381-2.649 0-5.012.558-7.021 1.657-2.014 1.1-3.572 2.519-4.634 4.217-1.071 1.711-1.614 3.442-1.614 5.143 0 1.001.405 1.925 1.206 2.747.807.829 1.81 1.249 2.98 1.249 1.377 0 3.197-.593 4.042-3.392.525-1.58 1.161-2.774 1.89-3.55.63-.673 1.689-1.014 3.151-1.014 1.252 0 2.233.344 3 1.053.743.687 1.104 1.505 1.104 2.501 0 .487-.111.923-.341 1.334-.264.474-.595.912-.982 1.3-.446.445-1.176 1.111-2.17 1.981-1.187 1.041-2.147 1.956-2.854 2.721-.763.823-1.382 1.792-1.841 2.878-.467 1.102-.703 2.407-.703 3.877 0 1.349.391 2.406 1.16 3.142.757.725 1.694 1.092 2.788 1.092 2.083 0 3.445-1.176 3.827-3.273.171-.759.299-1.29.383-1.589.068-.245.169-.497.3-.75.121-.236.32-.515.594-.828.304-.349.716-.761 1.218-1.219 1.959-1.751 3.345-3.023 4.121-3.782.828-.812 1.551-1.784 2.145-2.887.629-1.165.947-2.526.947-4.046 0-1.916-.543-3.713-1.614-5.342-1.065-1.617-2.583-2.908-4.513-3.839zm3.418 12.278c-.499.926-1.099 1.737-1.783 2.407-.754.737-2.118 1.989-4.062 3.727-.565.515-1.031.982-1.386 1.388-.386.442-.669.845-.866 1.23-.189.37-.34.747-.445 1.123-.09.321-.228.884-.416 1.73-.218 1.188-.759 1.672-1.868 1.672-.576 0-1.022-.17-1.405-.537-.36-.345-.543-.916-.543-1.697 0-1.201.184-2.243.545-3.098.369-.873.862-1.646 1.467-2.298.66-.714 1.57-1.581 2.704-2.575 1.026-.897 1.788-1.594 2.266-2.071.521-.52.963-1.106 1.316-1.741.395-.707.594-1.483.594-2.308 0-1.562-.588-2.898-1.747-3.97-1.138-1.051-2.604-1.584-4.357-1.584-2.037 0-3.589.554-4.611 1.646-.927.988-1.71 2.43-2.336 4.313-.534 1.77-1.422 1.997-2.136 1.997-.628 0-1.12-.205-1.548-.644-.43-.441-.639-.883-.639-1.352 0-1.32.44-2.693 1.31-4.083.878-1.404 2.189-2.589 3.897-3.523 1.713-.937 3.752-1.412 6.063-1.412 2.154 0 4.072.398 5.701 1.183 1.6.771 2.847 1.826 3.709 3.136.864 1.315 1.285 2.703 1.285 4.243-.001 1.186-.24 2.228-.709 3.098z" fill="#3a2c60"/></svg>