<?xml version="1.0" encoding="UTF-8" standalone="no"?>
<!-- Generator: Adobe Illustrator 19.0.0, SVG Export Plug-In . SVG Version: 6.00 Build 0)  -->

<svg
   xmlns:dc="http://purl.org/dc/elements/1.1/"
   xmlns:cc="http://creativecommons.org/ns#"
   xmlns:rdf="http://www.w3.org/1999/02/22-rdf-syntax-ns#"
   xmlns:svg="http://www.w3.org/2000/svg"
   xmlns="http://www.w3.org/2000/svg"
   xmlns:sodipodi="http://sodipodi.sourceforge.net/DTD/sodipodi-0.dtd"
   xmlns:inkscape="http://www.inkscape.org/namespaces/inkscape"
   version="1.1"
   id="Layer_1"
   x="0px"
   y="0px"
   viewBox="0 0 30.526159 20"
   xml:space="preserve"
   sodipodi:docname="japan.svg"
   width="30.526159"
   height="20"
   inkscape:version="0.92.4 (5da689c313, 2019-01-14)"><metadata
   id="metadata41"><rdf:RDF><cc:Work
       rdf:about=""><dc:format>image/svg+xml</dc:format><dc:type
         rdf:resource="http://purl.org/dc/dcmitype/StillImage" /><dc:title></dc:title></cc:Work></rdf:RDF></metadata><defs
   id="defs39" /><sodipodi:namedview
   pagecolor="#ffffff"
   bordercolor="#666666"
   borderopacity="1"
   objecttolerance="10"
   gridtolerance="10"
   guidetolerance="10"
   inkscape:pageopacity="0"
   inkscape:pageshadow="2"
   inkscape:window-width="789"
   inkscape:window-height="480"
   id="namedview37"
   showgrid="false"
   fit-margin-top="0"
   fit-margin-left="0"
   fit-margin-right="0"
   fit-margin-bottom="0"
   inkscape:zoom="1.3037281"
   inkscape:cx="2.5036551"
   inkscape:cy="51.532501"
   inkscape:window-x="433"
   inkscape:window-y="318"
   inkscape:window-maximized="0"
   inkscape:current-layer="Layer_1" />
<path
   style="fill:#f5f5f5;stroke-width:0.05962141"
   d="M 28.239976,0 H 2.2861827 C 1.0235207,0 0,1.02352 0,2.28618 V 17.71382 C 0,18.97642 1.0235207,20 2.2861827,20 H 28.239976 c 1.262603,0 2.286183,-1.02352 2.286183,-2.28618 V 2.28618 C 30.526159,1.02352 29.502638,0 28.239976,0 Z"
   id="path2"
   inkscape:connector-curvature="0" />
<circle
   style="fill:#ff4b55;stroke-width:0.05962141"
   cx="15.26308"
   cy="9.9999428"
   r="5.789238"
   id="circle4" />
<g
   id="g6"
   transform="matrix(0.08943211,0,0,0.08943211,0,-17.89462)">
</g>
<g
   id="g8"
   transform="matrix(0.08943211,0,0,0.08943211,0,-17.89462)">
</g>
<g
   id="g10"
   transform="matrix(0.08943211,0,0,0.08943211,0,-17.89462)">
</g>
<g
   id="g12"
   transform="matrix(0.08943211,0,0,0.08943211,0,-17.89462)">
</g>
<g
   id="g14"
   transform="matrix(0.08943211,0,0,0.08943211,0,-17.89462)">
</g>
<g
   id="g16"
   transform="matrix(0.08943211,0,0,0.08943211,0,-17.89462)">
</g>
<g
   id="g18"
   transform="matrix(0.08943211,0,0,0.08943211,0,-17.89462)">
</g>
<g
   id="g20"
   transform="matrix(0.08943211,0,0,0.08943211,0,-17.89462)">
</g>
<g
   id="g22"
   transform="matrix(0.08943211,0,0,0.08943211,0,-17.89462)">
</g>
<g
   id="g24"
   transform="matrix(0.08943211,0,0,0.08943211,0,-17.89462)">
</g>
<g
   id="g26"
   transform="matrix(0.08943211,0,0,0.08943211,0,-17.89462)">
</g>
<g
   id="g28"
   transform="matrix(0.08943211,0,0,0.08943211,0,-17.89462)">
</g>
<g
   id="g30"
   transform="matrix(0.08943211,0,0,0.08943211,0,-17.89462)">
</g>
<g
   id="g32"
   transform="matrix(0.08943211,0,0,0.08943211,0,-17.89462)">
</g>
<g
   id="g34"
   transform="matrix(0.08943211,0,0,0.08943211,0,-17.89462)">
</g>
</svg>