<?xml version="1.0" encoding="UTF-8" standalone="no"?>
<!-- Generator: Adobe Illustrator 19.0.0, SVG Export Plug-In . SVG Version: 6.00 Build 0)  -->

<svg
   xmlns:dc="http://purl.org/dc/elements/1.1/"
   xmlns:cc="http://creativecommons.org/ns#"
   xmlns:rdf="http://www.w3.org/1999/02/22-rdf-syntax-ns#"
   xmlns:svg="http://www.w3.org/2000/svg"
   xmlns="http://www.w3.org/2000/svg"
   xmlns:sodipodi="http://sodipodi.sourceforge.net/DTD/sodipodi-0.dtd"
   xmlns:inkscape="http://www.inkscape.org/namespaces/inkscape"
   version="1.1"
   id="Capa_1"
   x="0px"
   y="0px"
   viewBox="0 0 1661.2236 511.99984"
   xml:space="preserve"
   sodipodi:docname="monkey_nohear.svg"
   width="1661.2235"
   height="511.99982"
   inkscape:version="0.92.4 (5da689c313, 2019-01-14)"><metadata
   id="metadata91"><rdf:RDF><cc:Work
       rdf:about=""><dc:format>image/svg+xml</dc:format><dc:type
         rdf:resource="http://purl.org/dc/dcmitype/StillImage" /><dc:title></dc:title></cc:Work></rdf:RDF></metadata><defs
   id="defs89" /><sodipodi:namedview
   pagecolor="#ffffff"
   bordercolor="#666666"
   borderopacity="1"
   objecttolerance="10"
   gridtolerance="10"
   guidetolerance="10"
   inkscape:pageopacity="0"
   inkscape:pageshadow="2"
   inkscape:window-width="3440"
   inkscape:window-height="1377"
   id="namedview87"
   showgrid="false"
   fit-margin-top="0"
   fit-margin-left="0"
   fit-margin-right="0"
   fit-margin-bottom="0"
   inkscape:zoom="0.46093662"
   inkscape:cx="251.82992"
   inkscape:cy="476.90795"
   inkscape:window-x="-8"
   inkscape:window-y="32"
   inkscape:window-maximized="1"
   inkscape:current-layer="Capa_1" />

<g
   id="g1174"
   transform="translate(574.61106,-4.0081691)"><path
     id="path2"
     d="M 436.758,257.861 C 428.654,243.877 424,228.164 424,212.001 v 0 C 424,141.89 381.022,81.869 320,56.693 V 28.001 l -40,16 -8,-32 c -21.101,7.034 -39.1,21.795 -52.658,36.133 -75.131,16.742 -131.341,83.689 -131.341,163.867 0,16.164 -4.653,31.876 -12.757,45.86 -12.322,21.262 -19.243,45.03 -19.243,70.14 0,90.575 89.543,164 200,164 110.457,0 200,-73.425 200,-164 0,-25.11 -6.921,-48.878 -19.243,-70.14 z"
     style="fill:#af6e5a"
     inkscape:connector-curvature="0" /><path
     id="path4"
     d="m 144.001,356.667 c 0,-29.295 6.92,-57.024 19.242,-81.83 8.105,-16.315 12.758,-34.646 12.758,-53.504 0,-81.409 42.595,-151.083 103.165,-180.674 L 272.001,12 c -21.101,7.034 -39.1,21.795 -52.658,36.133 -75.132,16.743 -131.342,83.69 -131.342,163.868 0,16.164 -4.652,31.876 -12.758,45.86 -12.322,21.262 -19.242,45.03 -19.242,70.14 0,73.107 58.35,135.015 138.934,156.185 -31.661,-33.849 -50.934,-78.523 -50.934,-127.519 z"
     style="fill:#965a50"
     inkscape:connector-curvature="0" /><path
     id="path6"
     d="m 256.001,460 c 66.274,0 120,-42.981 120,-96 0,-10.999 -2.339,-21.549 -6.621,-31.374 -6.21,-14.248 -4.096,-30.599 5.88,-42.518 12.724,-15.201 19.286,-35.725 15.823,-57.771 -4.757,-30.282 -29.239,-54.721 -59.527,-59.435 -23.145,-3.602 -44.599,3.844 -59.968,17.863 -4.369,3.985 -9.978,5.977 -15.584,5.977 -5.609,0 -11.219,-1.992 -15.588,-5.977 -15.37,-14.019 -36.823,-21.465 -59.968,-17.863 -30.289,4.714 -54.771,29.153 -59.527,59.435 -3.463,22.046 3.099,42.57 15.823,57.771 9.976,11.918 12.09,28.27 5.88,42.518 -4.282,9.825 -6.621,20.375 -6.621,31.374 -0.002,53.02 53.724,96 119.998,96 z"
     style="fill:#faebc8"
     inkscape:connector-curvature="0" /><path
     id="path8"
     d="m 136.001,364 c 0,17.943 6.266,34.676 16.977,49.043 -5.752,-17.836 -8.977,-36.731 -8.977,-56.376 0,-29.295 6.92,-57.024 19.242,-81.83 8.105,-16.315 12.758,-34.646 12.758,-53.504 0,-16.767 1.898,-32.992 5.297,-48.515 -0.286,0.041 -0.564,0.039 -0.852,0.083 -30.289,4.714 -54.77,29.153 -59.527,59.435 -3.463,22.046 3.1,42.57 15.822,57.771 9.977,11.918 12.091,28.27 5.881,42.518 -4.282,9.826 -6.621,20.376 -6.621,31.375 z"
     style="fill:#f5dcb4"
     inkscape:connector-curvature="0" /><path
     id="path10"
     d="m 176.001,356.001 c 0,39.765 35.817,72 80,72 44.183,0 80,-32.235 80,-72 z"
     style="fill:#4b3f4e"
     inkscape:connector-curvature="0" /><path
     id="path12"
     d="m 209.905,414.787 c 13.036,8.296 28.916,13.213 46.096,13.213 17.18,0 33.06,-4.917 46.096,-13.213 C 296.318,394.766 277.818,380 256.001,380 c -21.817,0 -40.317,14.767 -46.096,34.787 z"
     style="fill:#e6646e"
     inkscape:connector-curvature="0" /><path
     id="path14"
     d="m 184.001,268.001 v 0 c -13.255,0 -24,-10.745 -24,-24 v -8 c 0,-13.255 10.745,-24 24,-24 v 0 c 13.255,0 24,10.745 24,24 v 8 c 0,13.254 -10.745,24 -24,24 z"
     style="fill:#4b3f4e"
     inkscape:connector-curvature="0" /><path
     id="path16"
     d="m 184.001,212.001 v 28 c 0,6.627 5.373,12 12,12 6.627,0 12,-5.373 12,-12 v -4 c 0,-13.255 -10.745,-24 -24,-24 z"
     style="fill:#5d5360"
     inkscape:connector-curvature="0" /><circle
     id="circle18"
     r="8"
     cy="228"
     cx="184"
     style="fill:#ffffff" /><path
     id="path20"
     d="m 328.001,268.001 v 0 c -13.255,0 -24,-10.745 -24,-24 v -8 c 0,-13.255 10.745,-24 24,-24 v 0 c 13.255,0 24,10.745 24,24 v 8 c 0,13.254 -10.746,24 -24,24 z"
     style="fill:#4b3f4e"
     inkscape:connector-curvature="0" /><path
     id="path22"
     d="m 328.001,212.001 v 28 c 0,6.627 5.373,12 12,12 6.627,0 12,-5.373 12,-12 v -4 c 0,-13.255 -10.745,-24 -24,-24 z"
     style="fill:#5d5360"
     inkscape:connector-curvature="0" /><circle
     id="circle24"
     r="8"
     cy="228"
     cx="328"
     style="fill:#ffffff" /><path
     id="path26"
     d="M 84.715,143.619 C 76.413,132.55 58.984,136.07 55.628,149.493 l -18.133,72.533 c -3.649,14.595 -5.494,29.582 -5.494,44.626 v 105.349 h 56 V 153.478 c 0,-3.556 -1.153,-7.015 -3.286,-9.859 z"
     style="fill:#f5dcb4"
     inkscape:connector-curvature="0" /><path
     id="path28"
     d="m 64.001,277.615 c 0,-15.044 1.845,-30.032 5.494,-44.626 l 18.133,-72.533 c 0.083,-0.334 0.272,-0.586 0.373,-0.908 v -6.069 c 0,-3.555 -1.153,-7.015 -3.286,-9.859 -8.302,-11.069 -25.731,-7.549 -29.087,5.874 l -18.133,72.533 c -3.649,14.595 -5.494,29.582 -5.494,44.626 v 105.349 h 32 c 0,0 0,-94.387 0,-94.387 z"
     style="fill:#ebc9a0"
     inkscape:connector-curvature="0" /><path
     id="path30"
     d="M 88.001,356.001 H 45.482 c -12.229,0 -22.503,9.195 -23.853,21.349 L 8.001,500.001 h 88 v -136 c 0,-4.419 -3.582,-8 -8,-8 z"
     style="fill:#af6e5a"
     inkscape:connector-curvature="0" /><path
     id="path32"
     d="M 75.608,356.001 H 45.481 c -12.229,0 -22.502,9.195 -23.853,21.35 L 8.001,500 v 0 h 32 L 51.755,377.35 c 1.349,-12.155 11.623,-21.349 23.853,-21.349 z"
     style="fill:#965a50"
     inkscape:connector-curvature="0" /><path
     id="path34"
     d="m 427.287,143.619 c 8.302,-11.069 25.731,-7.549 29.087,5.874 l 18.133,72.533 c 3.649,14.595 5.494,29.582 5.494,44.626 v 105.349 h -56 V 153.478 c 0,-3.556 1.152,-7.015 3.286,-9.859 z"
     style="fill:#ebc9a0"
     inkscape:connector-curvature="0" /><path
     id="path36"
     d="m 448.001,277.615 c 0,-15.044 -1.845,-30.032 -5.494,-44.626 l -18.133,-72.533 c -0.083,-0.334 -0.272,-0.586 -0.373,-0.908 v -6.069 c 0,-3.555 1.153,-7.015 3.286,-9.859 8.302,-11.069 25.731,-7.549 29.087,5.874 l 18.133,72.533 c 3.649,14.595 5.494,29.582 5.494,44.626 v 105.349 h -32 z"
     style="fill:#f5dcb4"
     inkscape:connector-curvature="0" /><path
     id="path38"
     d="m 424.001,356.001 h 42.519 c 12.229,0 22.503,9.195 23.853,21.349 l 13.628,122.651 h -88 v -136 c 0,-4.419 3.581,-8 8,-8 z"
     style="fill:#965a50"
     inkscape:connector-curvature="0" /><path
     id="path40"
     d="M 504.001,500 490.373,377.35 C 489.022,365.196 478.749,356 466.52,356 h -30.127 c 9.273,0 11.773,6 13.107,13.5 L 463.902,500 Z"
     style="fill:#af6e5a"
     inkscape:connector-curvature="0" /><path
     id="path42"
     d="m 236.614,322.83 c 1.077,0.539 2.221,0.793 3.348,0.793 2.751,0 5.4,-1.52 6.714,-4.147 1.852,-3.705 0.351,-8.21 -3.354,-10.062 l -16.032,-8.016 c -3.705,-1.854 -8.21,-0.351 -10.062,3.354 -1.852,3.705 -0.351,8.21 3.354,10.062 z"
     inkscape:connector-curvature="0" /><path
     id="path44"
     d="m 272.039,323.623 c 1.127,0 2.272,-0.255 3.348,-0.793 l 16.032,-8.016 c 3.705,-1.852 5.207,-6.357 3.354,-10.062 -1.852,-3.705 -6.357,-5.208 -10.062,-3.354 l -16.032,8.016 c -3.705,1.852 -5.207,6.357 -3.354,10.062 1.314,2.628 3.962,4.147 6.714,4.147 z"
     inkscape:connector-curvature="0" /><path
     id="path46"
     d="m 183.855,219.412 c 4.142,0 7.5,-3.358 7.5,-7.5 0,-4.142 -3.358,-7.5 -7.5,-7.5 -17.396,0 -31.548,14.152 -31.548,31.548 v 8.016 c 0,17.396 14.153,31.548 31.549,31.548 17.396,0 31.548,-14.152 31.548,-31.548 v -8.016 c 0,-4.142 -3.358,-7.5 -7.5,-7.5 -4.142,0 -7.5,3.358 -7.5,7.5 v 8.016 c 0,9.125 -7.424,16.548 -16.549,16.548 -9.125,0 -16.548,-7.423 -16.548,-16.548 v -8.016 c 0,-9.125 7.424,-16.548 16.548,-16.548 z"
     inkscape:connector-curvature="0" /><path
     id="path48"
     d="m 359.694,243.976 v -8.016 c 0,-4.142 -3.358,-7.5 -7.5,-7.5 -4.142,0 -7.5,3.358 -7.5,7.5 v 8.016 c 0,9.125 -7.424,16.548 -16.549,16.548 -9.125,0 -16.548,-7.423 -16.548,-16.548 v -8.016 c 0,-9.125 7.424,-16.548 16.548,-16.548 4.142,0 7.5,-3.358 7.5,-7.5 0,-4.142 -3.358,-7.5 -7.5,-7.5 -17.396,0 -31.548,14.152 -31.548,31.548 v 8.016 c 0,17.396 14.153,31.548 31.549,31.548 17.396,10e-4 31.548,-14.152 31.548,-31.548 z"
     inkscape:connector-curvature="0" /><path
     id="path50"
     d="m 256.001,435.847 c 48.337,0 87.661,-35.729 87.661,-79.645 0,-4.142 -3.358,-7.5 -7.5,-7.5 H 175.839 c -4.142,0 -7.5,3.358 -7.5,7.5 0,43.917 39.325,79.645 87.662,79.645 z m 0,-31.032 c -4.142,0 -7.5,3.358 -7.5,7.5 v 8.18 c -10.714,-0.982 -20.739,-4.047 -29.566,-8.726 6.481,-14.503 20.945,-24.019 37.066,-24.019 16.192,0 30.594,9.496 37.067,24.018 -8.828,4.679 -18.853,7.744 -29.567,8.726 v -8.18 c 0,-4.141 -3.358,-7.499 -7.5,-7.499 z m 72.175,-41.113 c -2.03,15.556 -10.304,29.435 -22.512,39.625 -9.326,-18.576 -28.366,-30.576 -49.664,-30.576 -21.206,0 -40.315,12.028 -49.656,30.582 -12.212,-10.19 -20.489,-24.071 -22.519,-39.631 z"
     inkscape:connector-curvature="0" /><path
     id="path52"
     d="m 398.765,231.13 c -2.126,-13.541 -7.895,-26.424 -16.682,-37.258 -2.609,-3.216 -7.332,-3.71 -10.549,-1.1 -3.217,2.609 -3.71,7.332 -1.101,10.549 7.124,8.783 11.797,19.204 13.513,30.136 2.979,18.975 -2.062,37.409 -14.197,51.906 -11.758,14.048 -14.447,33.365 -7.017,50.414 3.988,9.149 6.01,18.718 6.01,28.441 0,48.906 -50.576,88.693 -112.742,88.693 -62.166,0 -112.742,-39.788 -112.742,-88.693 0,-9.723 2.022,-19.292 6.01,-28.441 7.431,-17.049 4.742,-36.366 -7.016,-50.414 -12.136,-14.499 -17.177,-32.934 -14.197,-51.91 4.266,-27.158 26.221,-49.079 53.392,-53.308 19.709,-3.068 39.349,2.775 53.882,16.029 11.592,10.573 29.752,10.573 41.343,0 14.534,-13.256 34.174,-19.099 53.887,-16.029 6.317,0.984 12.458,2.943 18.251,5.823 3.71,1.844 8.211,0.332 10.055,-3.377 1.844,-3.709 0.332,-8.21 -3.378,-10.054 -7.171,-3.565 -14.782,-5.992 -22.62,-7.212 -24.226,-3.773 -48.394,3.432 -66.304,19.768 -5.923,5.402 -15.203,5.402 -21.126,-10e-4 -17.908,-16.333 -42.073,-23.537 -66.297,-19.768 -33.537,5.22 -60.637,32.278 -65.903,65.802 -3.663,23.316 2.557,45.998 17.512,63.866 8.085,9.659 9.912,22.99 4.768,34.792 -4.817,11.052 -7.259,22.637 -7.259,34.435 0,57.177 57.305,103.693 127.742,103.693 70.437,0 127.742,-46.517 127.742,-103.693 0,-11.798 -2.442,-23.383 -7.259,-34.435 -5.144,-11.802 -3.316,-25.134 4.768,-34.792 14.955,-17.867 21.175,-40.547 17.514,-63.862 z"
     inkscape:connector-curvature="0" /><path
     id="path54"
     d="M 511.955,499.664 498.3,376.767 c -0.891,-8.018 -4.722,-15.047 -10.347,-20.066 v -90.028 c 0,-15.673 -1.927,-31.33 -5.729,-46.535 l -18.17,-72.679 c -2.264,-9.057 -9.355,-15.831 -18.505,-17.679 -9.15,-1.848 -18.315,1.643 -23.916,9.112 -1.312,1.749 -2.356,3.682 -3.143,5.714 C 413.912,133.58 408.188,122.991 401.36,112.988 382.858,85.882 357.443,64.654 327.631,51.349 V 27.541 c 0,-2.489 -1.235,-4.815 -3.295,-6.21 -2.062,-1.396 -4.68,-1.678 -6.99,-0.753 L 285.243,33.419 279.309,9.69 c -0.507,-2.027 -1.836,-3.75 -3.667,-4.756 -1.832,-1.005 -3.999,-1.202 -5.981,-0.541 -18.576,6.192 -36.822,18.473 -54.261,36.515 -37.524,8.89 -71.54,30.254 -95.986,60.339 -10.732,13.208 -19.411,27.884 -25.858,43.471 -0.792,-2.073 -1.851,-4.045 -3.186,-5.826 -5.601,-7.468 -14.765,-10.959 -23.916,-9.112 -9.151,1.848 -16.242,8.622 -18.506,17.679 l -18.17,72.679 C 25.977,235.343 24.049,251 24.049,266.673 v 90.028 c -5.625,5.018 -9.456,12.048 -10.347,20.066 L 0.047,499.664 c -0.458,4.117 2.509,7.825 6.626,8.282 0.281,0.031 0.561,0.046 0.837,0.046 3.771,0 7.019,-2.837 7.445,-6.672 L 28.61,378.423 c 0.933,-8.392 8.003,-14.721 16.447,-14.721 h 42.605 c 0.285,0 0.516,0.231 0.516,0.516 v 136.274 c 0,4.142 3.358,7.5 7.5,7.5 4.142,0 7.5,-3.358 7.5,-7.5 v -55.843 c 16.813,15.035 36.868,27.627 58.894,36.853 29.27,12.259 60.872,18.475 93.929,18.475 33.058,0 64.662,-6.216 93.933,-18.477 22.024,-9.225 42.078,-21.816 58.889,-36.851 v 55.843 c 0,4.142 3.358,7.5 7.5,7.5 4.142,0 7.5,-3.358 7.5,-7.5 V 364.218 c 0,-0.285 0.231,-0.516 0.516,-0.516 h 42.605 c 8.444,0 15.515,6.329 16.447,14.721 l 13.655,122.897 c 0.426,3.836 3.674,6.672 7.445,6.672 0.276,0 0.556,-0.015 0.837,-0.046 4.118,-0.457 7.084,-4.165 6.627,-8.282 z M 39.049,349.276 v -82.602 c 0,-14.448 1.777,-28.88 5.281,-42.897 L 62.5,151.098 c 0.86,-3.439 3.448,-5.912 6.922,-6.613 3.476,-0.7 6.82,0.573 8.947,3.409 1.156,1.542 1.793,3.452 1.793,5.379 V 348.704 H 45.057 c -2.051,-0.002 -4.06,0.197 -6.008,0.572 z m 305.09,118.388 c -27.426,11.487 -57.08,17.312 -88.138,17.312 -31.056,0 -60.709,-5.824 -88.134,-17.311 -25.092,-10.509 -47.387,-25.656 -64.688,-43.885 v -59.562 c 0,-5.836 -3.242,-10.925 -8.016,-13.574 V 211.912 c 0,-36.778 12.747,-72.72 35.893,-101.205 22.811,-28.073 54.719,-47.844 89.845,-55.672 1.46,-0.325 2.79,-1.08 3.818,-2.167 13.755,-14.546 27.881,-25.047 42.096,-31.307 l 5.958,23.832 c 0.525,2.102 1.933,3.873 3.862,4.859 1.928,0.987 4.188,1.09 6.2,0.286 L 312.63,38.62 v 17.672 c 0,3.037 1.832,5.775 4.64,6.933 60.486,24.955 99.57,83.318 99.57,148.688 v 138.733 c -4.774,2.649 -8.016,7.738 -8.016,13.574 v 59.562 c -17.301,18.227 -39.595,33.373 -64.685,43.882 z m 87.7,-118.962 V 153.271 c 0,-1.927 0.637,-3.837 1.793,-5.379 2.127,-2.836 5.472,-4.11 8.946,-3.409 3.475,0.702 6.063,3.174 6.923,6.613 l 18.17,72.679 c 3.504,14.017 5.281,28.45 5.281,42.897 v 82.602 c -1.948,-0.375 -3.957,-0.574 -6.008,-0.574 h -35.105 z"
     inkscape:connector-curvature="0" /></g>
<g
   id="g56"
   transform="translate(537.42524,2.1689228)">
</g>
<g
   id="g58"
   transform="translate(537.42524,2.1689228)">
</g>
<g
   id="g60"
   transform="translate(537.42524,2.1689228)">
</g>
<g
   id="g62"
   transform="translate(537.42524,2.1689228)">
</g>
<g
   id="g64"
   transform="translate(537.42524,2.1689228)">
</g>
<g
   id="g66"
   transform="translate(537.42524,2.1689228)">
</g>
<g
   id="g68"
   transform="translate(537.42524,2.1689228)">
</g>
<g
   id="g70"
   transform="translate(537.42524,2.1689228)">
</g>
<g
   id="g72"
   transform="translate(537.42524,2.1689228)">
</g>
<g
   id="g74"
   transform="translate(537.42524,2.1689228)">
</g>
<g
   id="g76"
   transform="translate(537.42524,2.1689228)">
</g>
<g
   id="g78"
   transform="translate(537.42524,2.1689228)">
</g>
<g
   id="g80"
   transform="translate(537.42524,2.1689228)">
</g>
<g
   id="g82"
   transform="translate(537.42524,2.1689228)">
</g>
<g
   id="g84"
   transform="translate(537.42524,2.1689228)">
</g>
<g
   id="g1013"
   transform="translate(-1.001662e-4,-4.0076046)"><circle
     id="circle901"
     r="64.099998"
     cy="219.948"
     cx="71.598999"
     style="fill:#965a50" /><circle
     id="circle903"
     r="40.060001"
     cy="219.948"
     cx="71.598999"
     style="fill:#d4af91" /><circle
     id="circle905"
     r="64.099998"
     cy="219.948"
     cx="440.14899"
     style="fill:#965a50" /><circle
     id="circle907"
     r="40.060001"
     cy="219.948"
     cx="440.14899"
     style="fill:#ebc9a0" /><path
     id="path909"
     d="m 436.905,257.862 c -8.117,-14.005 -12.777,-29.742 -12.777,-45.93 v 0 C 424.128,141.715 381.085,81.604 319.971,56.39 V 27.654 L 279.911,43.678 271.899,11.63 C 250.767,18.674 232.74,33.458 219.162,47.817 143.916,64.586 87.621,131.633 87.621,211.932 c 0,16.188 -4.66,31.924 -12.777,45.93 -12.341,21.294 -19.272,45.098 -19.272,70.246 0,90.711 89.678,164.248 200.302,164.248 110.624,0 200.302,-73.536 200.302,-164.248 0,-25.149 -6.931,-48.952 -19.271,-70.246 z"
     style="fill:#af6e5a"
     inkscape:connector-curvature="0" /><path
     id="path911"
     d="m 143.705,356.817 c 0,-29.339 6.93,-57.11 19.271,-81.953 8.118,-16.34 12.777,-34.698 12.777,-53.585 0,-81.532 42.659,-151.311 103.321,-180.947 L 271.898,11.63 C 250.766,18.674 232.739,33.458 219.16,47.817 143.915,64.585 87.62,131.633 87.62,211.932 c 0,16.188 -4.659,31.924 -12.777,45.93 -12.341,21.294 -19.271,45.098 -19.271,70.246 0,73.217 58.438,135.219 139.143,156.421 -31.707,-33.901 -51.01,-78.642 -51.01,-127.712 z"
     style="fill:#965a50"
     inkscape:connector-curvature="0" /><path
     id="path913"
     d="m 255.874,460.306 c 66.374,0 120.181,-43.046 120.181,-96.145 0,-11.016 -2.342,-21.582 -6.631,-31.422 -6.219,-14.269 -4.102,-30.646 5.889,-42.582 12.743,-15.224 19.315,-35.779 15.846,-57.858 -4.764,-30.328 -29.283,-54.804 -59.617,-59.525 -23.18,-3.608 -44.666,3.85 -60.059,17.89 -4.375,3.991 -9.993,5.986 -15.607,5.986 -5.618,0 -11.236,-1.995 -15.611,-5.986 -15.393,-14.04 -36.879,-21.498 -60.059,-17.89 -30.335,4.721 -54.853,29.197 -59.617,59.525 -3.468,22.079 3.104,42.634 15.846,57.858 9.991,11.936 12.108,28.313 5.889,42.582 -4.289,9.84 -6.631,20.406 -6.631,31.422 0,53.1 53.807,96.145 120.181,96.145 z"
     style="fill:#faebc8"
     inkscape:connector-curvature="0" /><path
     id="path915"
     d="m 135.693,364.161 c 0,17.97 6.275,34.729 17.002,49.117 -5.761,-17.863 -8.99,-36.787 -8.99,-56.461 0,-29.339 6.93,-57.11 19.271,-81.953 8.118,-16.34 12.777,-34.698 12.777,-53.585 0,-16.792 1.901,-33.042 5.305,-48.588 -0.287,0.041 -0.565,0.039 -0.853,0.084 -30.335,4.721 -54.852,29.197 -59.617,59.525 -3.468,22.08 3.104,42.635 15.846,57.859 9.992,11.936 12.109,28.312 5.89,42.582 -4.288,9.838 -6.631,20.404 -6.631,31.42 z"
     style="fill:#f5dcb4"
     inkscape:connector-curvature="0" /><path
     id="path917"
     d="m 175.754,356.15 c 0,39.825 35.871,72.109 80.121,72.109 44.25,0 80.121,-32.284 80.121,-72.109 z"
     style="fill:#4b3f4e"
     inkscape:connector-curvature="0" /><path
     id="path919"
     d="m 209.709,415.025 c 13.056,8.308 28.96,13.233 46.165,13.233 17.205,0 33.109,-4.925 46.165,-13.233 -5.788,-20.051 -24.316,-34.839 -46.165,-34.839 -21.849,0 -40.377,14.788 -46.165,34.839 z"
     style="fill:#e6646e"
     inkscape:connector-curvature="0" /><path
     id="path921"
     d="M 71.597,259.337 C 46.227,316.757 20.968,410.584 7.5,500.367 h 96.145 c 16.024,-112.169 44.733,-190.286 44.733,-190.286 z"
     style="fill:#af6e5a"
     inkscape:connector-curvature="0" /><path
     id="path923"
     d="M 45.182,500.367 C 58.388,425.083 84.973,336.18 106.605,282.472 L 71.597,259.337 C 46.227,316.757 20.968,410.584 7.5,500.367 Z"
     style="fill:#965a50"
     inkscape:connector-curvature="0" /><path
     id="path925"
     d="m 84.367,148.295 c 11.417,2.198 19.273,12.862 19.273,24.488 v 32.035 l 25.746,-25.746 c 22.537,-22.537 58.548,-26.787 84.287,-7.988 32.439,23.692 35.017,69.978 7.734,97.261 l -35.922,35.922 c -23.867,23.867 -62.921,23.867 -86.787,0 L 88.427,293.996 C 67.391,272.96 55.573,244.43 55.573,214.68 V 171.868 C 55.566,157.04 69.007,145.339 84.367,148.295 Z"
     style="fill:#f5dcb4"
     inkscape:connector-curvature="0" /><path
     id="path927"
     d="m 210.276,168.847 c -25.435,-16.105 -59.322,-11.343 -80.891,10.226 l -25.745,25.746 v -32.036 c 0,-11.627 -7.857,-22.29 -19.273,-24.489 -15.36,-2.957 -28.8,8.744 -28.794,23.574 v 42.813 c 0,29.749 11.818,58.28 32.854,79.315 l 10.269,10.271 c -8.818,-32.61 36.898,-134.136 111.58,-135.42 z"
     style="fill:#ebc9a0"
     inkscape:connector-curvature="0" /><path
     id="path929"
     d="m 440.403,259.337 c 25.37,57.42 50.629,151.247 64.097,241.03 H 408.355 C 392.331,388.198 363.622,310.08 363.622,310.08 Z"
     style="fill:#af6e5a"
     inkscape:connector-curvature="0" /><path
     id="path931"
     d="m 427.633,148.295 c -11.417,2.198 -19.273,12.862 -19.273,24.488 v 32.035 l -25.746,-25.746 c -22.537,-22.537 -58.548,-26.787 -84.287,-7.988 -32.439,23.692 -35.017,69.978 -7.734,97.261 l 35.922,35.922 c 23.867,23.867 62.921,23.867 86.787,0 l 10.271,-10.271 c 21.036,-21.036 32.854,-49.566 32.854,-79.316 v -42.812 c 0.007,-14.828 -13.434,-26.529 -28.794,-23.573 z"
     style="fill:#f5dcb4"
     inkscape:connector-curvature="0" /><path
     id="path933"
     d="m 220.581,314.812 16.032,8.016 c 1.077,0.539 2.222,0.793 3.349,0.793 2.751,0 5.4,-1.52 6.714,-4.147 1.853,-3.705 0.351,-8.21 -3.354,-10.062 l -16.032,-8.016 c -3.707,-1.854 -8.211,-0.351 -10.063,3.354 -1.852,3.704 -0.35,8.209 3.354,10.062 z"
     inkscape:connector-curvature="0" /><path
     id="path935"
     d="m 272.038,323.621 c 1.127,0 2.271,-0.255 3.349,-0.793 l 16.032,-8.016 c 3.704,-1.852 5.206,-6.357 3.354,-10.062 -1.852,-3.705 -6.355,-5.208 -10.063,-3.354 l -16.032,8.016 c -3.704,1.852 -5.206,6.357 -3.354,10.062 1.314,2.628 3.963,4.147 6.714,4.147 z"
     inkscape:connector-curvature="0" /><path
     id="path937"
     d="m 168.339,356.2 c 0,43.917 39.324,79.645 87.661,79.645 48.337,0 87.661,-35.729 87.661,-79.645 0,-4.142 -3.357,-7.5 -7.5,-7.5 H 175.839 c -4.143,0 -7.5,3.358 -7.5,7.5 z M 256,404.813 c -4.143,0 -7.5,3.358 -7.5,7.5 v 8.18 c -10.713,-0.982 -20.738,-4.047 -29.565,-8.725 6.48,-14.503 20.944,-24.019 37.065,-24.019 16.192,0 30.594,9.496 37.067,24.018 -8.828,4.679 -18.853,7.744 -29.567,8.726 v -8.18 c 0,-4.142 -3.357,-7.5 -7.5,-7.5 z M 328.175,363.7 c -2.029,15.556 -10.303,29.435 -22.511,39.625 -9.326,-18.576 -28.366,-30.576 -49.664,-30.576 -21.206,0 -40.314,12.028 -49.656,30.582 -12.212,-10.19 -20.489,-24.071 -22.519,-39.631 z"
     inkscape:connector-curvature="0" /><path
     id="path939"
     d="M 454.662,290.108 C 487.668,283.414 512,254.074 512,219.926 c 0,-33.837 -23.998,-63.316 -57.079,-70.146 -0.782,-0.799 -1.607,-1.563 -2.479,-2.284 -7.284,-6.019 -16.855,-8.431 -26.265,-6.62 -2.868,0.552 -5.579,1.511 -8.091,2.806 C 400.799,102.691 368.418,69.564 327.629,51.348 V 27.539 c 0,-2.489 -1.234,-4.815 -3.295,-6.21 -2.061,-1.395 -4.679,-1.678 -6.99,-0.753 L 285.241,33.417 279.309,9.688 c -0.507,-2.026 -1.836,-3.75 -3.667,-4.755 -1.833,-1.005 -4.001,-1.201 -5.981,-0.541 -18.575,6.192 -36.821,18.472 -54.261,36.515 -27.77,6.577 -53.772,19.995 -75.329,38.895 -20.015,17.547 -35.845,39.519 -46.142,63.89 -2.516,-1.299 -5.232,-2.261 -8.105,-2.814 -9.405,-1.811 -18.98,0.601 -26.265,6.62 -0.873,0.721 -1.698,1.485 -2.479,2.284 -33.081,6.83 -57.079,36.309 -57.079,70.146 0,34.148 24.332,63.488 57.338,70.182 -20.775,53.555 -45.116,128.346 -57.255,209.27 -0.614,4.097 2.208,7.916 6.305,8.53 0.377,0.057 0.751,0.084 1.122,0.084 3.649,0 6.85,-2.669 7.407,-6.388 12.448,-82.982 37.983,-159.522 58.99,-212.672 2.866,3.609 5.949,7.08 9.257,10.388 l 10.275,10.276 c 11.046,11.046 25.244,17.844 40.614,19.621 -6.783,20.23 -24.789,79.242 -37.785,170.213 -0.586,4.101 2.264,7.899 6.364,8.485 0.359,0.051 0.717,0.076 1.07,0.076 3.672,0 6.881,-2.7 7.415,-6.44 2.271,-15.902 4.708,-30.804 7.196,-44.624 38.016,27.828 86.435,43.047 137.686,43.047 51.229,0 99.668,-15.222 137.688,-43.048 2.5,13.887 4.93,28.775 7.194,44.624 0.534,3.741 3.743,6.44 7.415,6.44 0.354,0 0.711,-0.025 1.07,-0.076 4.101,-0.586 6.95,-4.385 6.364,-8.485 -12.996,-90.972 -31.001,-149.984 -37.785,-170.213 14.701,-1.704 28.388,-8.02 39.233,-18.278 3.01,-2.846 3.142,-7.593 0.295,-10.603 -2.847,-3.01 -7.595,-3.141 -10.602,-0.295 -20.997,19.859 -54.707,19.387 -75.144,-1.052 l -35.939,-35.94 c -11.669,-11.668 -17.623,-27.881 -16.338,-44.482 1.28,-16.522 9.734,-31.637 23.195,-41.468 22.193,-16.208 54.266,-13.097 74.602,7.239 l 25.759,25.759 c 2.146,2.145 5.369,2.786 8.174,1.626 2.803,-1.161 4.63,-3.896 4.63,-6.929 v -32.052 c 0,-8.32 5.675,-15.687 13.201,-17.136 5.072,-0.977 9.998,0.251 13.875,3.454 3.825,3.16 6.018,7.812 6.016,12.767 v 42.834 c 0,22.749 -7.579,45.251 -21.342,63.361 -2.506,3.298 -1.864,8.003 1.434,10.51 2.707,2.057 6.36,1.989 8.97,0.076 21.031,53.163 46.645,129.846 59.118,212.996 0.558,3.719 3.757,6.388 7.407,6.388 0.37,0 0.745,-0.027 1.122,-0.084 4.097,-0.614 6.919,-4.433 6.305,-8.53 -12.139,-80.925 -36.48,-155.716 -57.255,-209.271 z M 15,219.926 c 0,-22.519 13.441,-42.594 33.289,-51.604 -0.128,1.156 -0.193,2.326 -0.192,3.505 v 42.834 c 0,21.13 5.441,41.423 15.653,59.284 -0.262,0.647 -0.522,1.282 -0.786,1.937 C 35.541,271.672 15,247.829 15,219.926 Z m 78.77,68.787 C 73.99,268.932 63.096,242.633 63.096,214.661 v -42.837 c -0.002,-4.952 2.19,-9.604 6.016,-12.764 3.009,-2.485 6.648,-3.781 10.497,-3.781 1.112,0 2.242,0.108 3.378,0.327 7.526,1.449 13.201,8.815 13.201,17.136 v 32.052 c 0,3.034 1.827,5.768 4.63,6.929 2.802,1.161 6.027,0.519 8.174,-1.626 l 25.759,-25.759 c 20.336,-20.336 52.41,-23.449 74.602,-7.239 13.461,9.831 21.915,24.946 23.195,41.468 1.285,16.601 -4.669,32.813 -16.338,44.482 l -35.939,35.94 c -10.132,10.132 -23.667,15.712 -38.112,15.712 -14.444,0 -27.979,-5.58 -38.112,-15.712 z M 256,484.974 c -50.716,0 -98.359,-15.799 -134.595,-44.543 3.761,-19.322 7.536,-36.129 10.955,-50.113 14.293,44.583 64.306,77.591 123.641,77.591 59.32,0 109.322,-32.993 123.63,-77.559 3.536,14.438 7.286,31.177 10.967,50.076 -36.24,28.743 -83.904,44.548 -134.598,44.548 z m 29.183,-211.319 35.939,35.94 c 10.697,10.697 24.404,17.426 39.254,19.447 0.628,2.29 1.402,4.545 2.356,6.733 3.987,9.149 6.01,18.719 6.01,28.441 0,48.906 -50.576,88.693 -112.742,88.693 -62.166,0 -112.742,-39.788 -112.742,-88.693 0,-9.722 2.022,-19.292 6.01,-28.441 0.952,-2.183 1.729,-4.437 2.357,-6.725 14.847,-2.013 28.533,-8.736 39.253,-19.455 l 35.939,-35.94 c 14.771,-14.771 22.31,-35.271 20.686,-56.247 -0.411,-5.305 -1.412,-10.492 -2.946,-15.486 3.658,1.449 7.549,2.18 11.444,2.18 3.893,0 7.784,-0.732 11.442,-2.18 -1.534,4.994 -2.535,10.181 -2.946,15.486 -1.624,20.976 5.915,41.477 20.686,56.247 z M 400.811,172.742 v 13.945 l -12.955,-12.956 c -25.516,-25.514 -65.95,-29.275 -94.057,-8.746 -3.124,2.282 -6.03,4.793 -8.71,7.496 -0.159,0.066 -0.318,0.13 -0.475,0.208 -6.548,3.275 -12.621,7.448 -18.053,12.402 -5.922,5.403 -15.202,5.401 -21.126,-0.001 -5.575,-5.085 -11.817,-9.326 -18.556,-12.637 -2.672,-2.692 -5.567,-5.194 -8.68,-7.467 -28.107,-20.527 -68.542,-16.768 -94.057,8.746 l -12.955,12.956 v -13.945 c 0,-6.741 -1.987,-13.065 -5.421,-18.307 9.301,-24.249 24.542,-46.128 44.192,-63.355 20.248,-17.752 44.779,-30.217 70.94,-36.047 1.461,-0.325 2.791,-1.08 3.818,-2.167 13.755,-14.545 27.882,-25.047 42.097,-31.307 l 5.958,23.833 c 0.525,2.101 1.934,3.873 3.862,4.858 1.929,0.986 4.189,1.09 6.199,0.286 l 29.795,-11.918 v 17.672 c 0,3.037 1.832,5.775 4.64,6.933 40.95,16.895 73.188,50.006 88.976,91.195 -3.44,5.244 -5.432,11.574 -5.432,18.323 z m 63.092,41.919 V 171.83 c 0,-1.18 -0.064,-2.351 -0.192,-3.508 19.848,9.01 33.289,29.085 33.289,51.604 0,27.903 -20.541,51.746 -47.964,55.956 -0.277,-0.688 -0.55,-1.354 -0.825,-2.033 10.182,-17.959 15.692,-38.48 15.692,-59.188 z"
     inkscape:connector-curvature="0" /><g
     id="g941">
</g><g
     id="g943">
</g><g
     id="g945">
</g><g
     id="g947">
</g><g
     id="g949">
</g><g
     id="g951">
</g><g
     id="g953">
</g><g
     id="g955">
</g><g
     id="g957">
</g><g
     id="g959">
</g><g
     id="g961">
</g><g
     id="g963">
</g><g
     id="g965">
</g><g
     id="g967">
</g><g
     id="g969">
</g></g><g
   id="g1145"
   transform="translate(1149.2236,-1.6905427e-4)"><circle
     id="circle1015"
     r="64.129997"
     cy="215.92"
     cx="71.629997"
     style="fill:#965a50" /><circle
     id="circle1017"
     r="40.080002"
     cy="215.92"
     cx="71.629997"
     style="fill:#ebc9a0" /><circle
     id="circle1019"
     r="64.129997"
     cy="215.92"
     cx="440.37"
     style="fill:#965a50" /><circle
     id="circle1021"
     r="40.080002"
     cy="215.92"
     cx="440.37"
     style="fill:#ebc9a0" /><path
     id="path1023"
     d="m 151.593,464.419 h 208.815 c 57.569,-28.873 95.996,-80.894 95.996,-140.282 0,-25.16 -6.934,-48.976 -19.281,-70.281 -8.121,-14.013 -12.784,-29.757 -12.784,-45.953 v 0 c 0,-70.253 -43.065,-130.394 -104.21,-155.621 V 23.532 L 280.048,39.564 272.032,7.499 c -21.143,7.048 -39.178,21.839 -52.764,36.206 -75.283,16.777 -131.607,83.858 -131.607,164.198 0,16.196 -4.662,31.94 -12.784,45.953 -12.347,21.305 -19.281,45.121 -19.281,70.281 0.001,59.388 38.428,111.409 95.997,140.282 z"
     style="fill:#af6e5a"
     inkscape:connector-curvature="0" /><path
     id="path1025"
     d="m 143.774,352.861 c 0,-29.354 6.934,-57.139 19.281,-81.995 8.122,-16.348 12.784,-34.716 12.784,-53.612 0,-81.573 42.681,-151.387 103.373,-181.038 L 272.033,7.499 C 250.89,14.547 232.855,29.338 219.269,43.705 143.985,60.482 87.661,127.563 87.661,207.903 c 0,16.196 -4.662,31.94 -12.784,45.953 -12.347,21.305 -19.281,45.121 -19.281,70.281 0,73.254 58.467,135.287 139.214,156.5 -31.724,-33.917 -51.036,-78.682 -51.036,-127.776 z"
     style="fill:#965a50"
     inkscape:connector-curvature="0" /><path
     id="path1027"
     d="m 256,456.403 c 66.408,0 120.242,-43.068 120.242,-96.194 0,-11.021 -2.344,-21.593 -6.634,-31.438 -6.222,-14.276 -4.104,-30.661 5.892,-42.603 12.749,-15.232 19.325,-35.797 15.854,-57.888 -4.766,-30.343 -29.298,-54.831 -59.647,-59.555 -23.192,-3.61 -44.689,3.852 -60.089,17.899 -4.378,3.993 -9.999,5.989 -15.615,5.989 -5.621,0 -11.242,-1.996 -15.619,-5.989 -15.401,-14.047 -36.897,-21.509 -60.089,-17.899 -30.35,4.724 -54.881,29.212 -59.647,59.555 -3.47,22.091 3.105,42.656 15.854,57.888 9.996,11.942 12.114,28.327 5.892,42.603 -4.291,9.845 -6.634,20.416 -6.634,31.438 -0.002,53.126 53.832,96.194 120.24,96.194 z"
     style="fill:#faebc8"
     inkscape:connector-curvature="0" /><path
     id="path1029"
     d="m 135.758,360.209 c 0,17.98 6.278,34.746 17.011,49.142 -5.764,-17.872 -8.995,-36.806 -8.995,-56.49 0,-29.354 6.934,-57.139 19.281,-81.995 8.122,-16.348 12.784,-34.716 12.784,-53.612 0,-16.8 1.902,-33.058 5.308,-48.613 -0.287,0.041 -0.566,0.039 -0.853,0.084 -30.35,4.723 -54.88,29.212 -59.647,59.555 -3.47,22.091 3.106,42.656 15.854,57.888 9.997,11.942 12.115,28.327 5.893,42.603 -4.292,9.845 -6.636,20.416 -6.636,31.438 z"
     style="fill:#f5dcb4"
     inkscape:connector-curvature="0" /><path
     id="path1031"
     d="m 183.855,264.016 v 0 c -13.282,0 -24.048,-10.767 -24.048,-24.048 v -8.016 c 0,-13.282 10.767,-24.048 24.048,-24.048 v 0 c 13.282,0 24.048,10.767 24.048,24.048 v 8.016 c 0,13.281 -10.767,24.048 -24.048,24.048 z"
     style="fill:#4b3f4e"
     inkscape:connector-curvature="0" /><path
     id="path1033"
     d="m 183.855,207.903 v 28.056 c 0,6.641 5.383,12.024 12.024,12.024 6.641,0 12.024,-5.383 12.024,-12.024 v -4.008 c 0,-13.282 -10.767,-24.048 -24.048,-24.048 z"
     style="fill:#5d5360"
     inkscape:connector-curvature="0" /><circle
     id="circle1035"
     r="8.0200005"
     cy="223.94"
     cx="183.85001"
     style="fill:#ffffff" /><path
     id="path1037"
     d="m 328.145,264.016 v 0 c -13.282,0 -24.048,-10.767 -24.048,-24.048 v -8.016 c 0,-13.282 10.767,-24.048 24.048,-24.048 v 0 c 13.282,0 24.048,10.767 24.048,24.048 v 8.016 c 0.001,13.281 -10.766,24.048 -24.048,24.048 z"
     style="fill:#4b3f4e"
     inkscape:connector-curvature="0" /><path
     id="path1039"
     d="m 328.145,207.903 v 28.056 c 0,6.641 5.383,12.024 12.024,12.024 6.641,0 12.024,-5.383 12.024,-12.024 v -4.008 c 0.001,-13.282 -10.766,-24.048 -24.048,-24.048 z"
     style="fill:#5d5360"
     inkscape:connector-curvature="0" /><circle
     id="circle1041"
     r="8.0200005"
     cy="223.94"
     cx="328.14001"
     style="fill:#ffffff" /><g
     id="g1047">
	<path
   id="path1043"
   d="m 125.278,440.37 c -7.771,18.973 -16.112,40.517 -24.479,64.124 l 81.163,0.004 c 6.073,0 11.625,-3.431 14.341,-8.862 l 3.585,-7.169 z"
   style="fill:#965a50"
   inkscape:connector-curvature="0" />
	<path
   id="path1045"
   d="m 386.722,440.37 c 7.771,18.973 16.112,40.517 24.479,64.124 l -81.163,0.004 c -6.073,0 -11.625,-3.431 -14.341,-8.862 l -3.585,-7.169 z"
   style="fill:#965a50"
   inkscape:connector-curvature="0" />
</g><g
     id="g1053">
	<path
   id="path1049"
   d="m 379.749,328.605 c -11.423,2.199 -19.283,12.868 -19.283,24.501 v 32.052 l -25.759,-25.759 c -22.549,-22.549 -58.578,-26.8 -84.329,-7.992 -32.455,23.704 -35.034,70.013 -7.738,97.31 l 35.94,35.94 c 23.879,23.879 62.953,23.879 86.831,0 l 10.276,-10.276 c 21.046,-21.046 32.87,-49.591 32.87,-79.356 v -42.834 c 0.007,-14.837 -13.441,-26.544 -28.808,-23.586 z"
   style="fill:#f5dcb4"
   inkscape:connector-curvature="0" />
	<path
   id="path1051"
   d="m 132.251,328.605 c 11.423,2.199 19.283,12.868 19.283,24.501 v 32.052 l 25.759,-25.759 c 22.549,-22.549 58.578,-26.8 84.329,-7.992 32.455,23.704 35.034,70.013 7.738,97.31 l -35.94,35.94 c -23.879,23.879 -62.953,23.879 -86.831,0 l -10.276,-10.276 c -21.046,-21.046 -32.87,-49.591 -32.87,-79.356 v -42.834 c -0.007,-14.837 13.441,-26.544 28.808,-23.586 z"
   style="fill:#f5dcb4"
   inkscape:connector-curvature="0" />
</g><path
     id="path1055"
     d="m 258.224,349.167 c -25.448,-16.113 -59.352,-11.349 -80.932,10.232 l -25.758,25.759 v -32.052 c 0,-11.633 -7.861,-22.302 -19.283,-24.501 -15.368,-2.958 -28.815,8.749 -28.809,23.586 v 42.834 c 0,29.764 11.824,58.309 32.871,79.355 l 10.275,10.276 c -8.823,-32.627 36.917,-134.204 111.636,-135.489 z"
     style="fill:#ebc9a0"
     inkscape:connector-curvature="0" /><path
     id="path1057"
     d="M 243.322,305.406 227.29,297.39 c -3.704,-1.853 -8.21,-0.35 -10.062,3.354 -1.852,3.705 -0.351,8.21 3.354,10.062 l 16.032,8.016 c 1.077,0.539 2.221,0.793 3.348,0.793 2.751,0 5.4,-1.52 6.714,-4.147 1.852,-3.704 0.351,-8.21 -3.354,-10.062 z"
     inkscape:connector-curvature="0" /><path
     id="path1059"
     d="m 284.71,297.39 -16.032,8.016 c -3.705,1.852 -5.207,6.357 -3.354,10.062 1.314,2.628 3.963,4.147 6.714,4.147 1.127,0 2.272,-0.255 3.348,-0.793 l 16.032,-8.016 c 3.705,-1.852 5.207,-6.357 3.354,-10.062 -1.852,-3.705 -6.357,-5.208 -10.062,-3.354 z"
     inkscape:connector-curvature="0" /><path
     id="path1061"
     d="m 512,215.921 c 0,-39.497 -32.133,-71.629 -71.629,-71.629 -6.606,0 -13.103,0.906 -19.386,2.67 C 416.057,133.639 409.49,120.894 401.358,108.981 382.856,81.875 357.441,60.647 327.629,47.342 V 23.534 c 0,-2.489 -1.234,-4.815 -3.295,-6.21 -2.061,-1.395 -4.679,-1.678 -6.99,-0.753 L 285.24,29.411 279.308,5.682 c -0.507,-2.027 -1.836,-3.75 -3.667,-4.756 -1.832,-1.005 -3.999,-1.202 -5.981,-0.541 -18.576,6.192 -36.822,18.473 -54.261,36.515 -37.524,8.89 -71.54,30.254 -95.986,60.339 -12.16,14.965 -21.687,31.815 -28.313,49.74 -6.308,-1.78 -12.833,-2.688 -19.47,-2.688 C 32.133,144.292 0,176.425 0,215.921 c 0,32.795 22.448,61.145 53.465,69.269 -3.562,12.663 -5.368,25.675 -5.368,38.949 0,44.806 20.689,87.152 58.264,119.327 1.641,3.707 3.476,7.33 5.495,10.86 -6.372,15.704 -12.472,31.714 -18.126,47.666 -1.384,3.904 0.659,8.191 4.563,9.575 0.829,0.294 1.674,0.433 2.506,0.433 3.087,0 5.979,-1.921 7.069,-4.997 4.463,-12.591 9.2,-25.225 14.134,-37.707 2.866,3.61 5.951,7.082 9.259,10.391 l 10.276,10.276 c 13.432,13.432 31.075,20.147 48.719,20.147 17.644,0 35.287,-6.716 48.719,-20.147 L 256,472.935 l 17.026,17.026 c 13.432,13.432 31.075,20.148 48.719,20.148 17.644,0 35.287,-6.716 48.719,-20.148 l 10.276,-10.276 c 3.309,-3.308 6.393,-6.781 9.259,-10.391 4.933,12.48 9.67,25.114 14.134,37.707 1.09,3.076 3.982,4.997 7.069,4.997 0.832,0 1.677,-0.139 2.505,-0.433 3.904,-1.384 5.948,-5.67 4.563,-9.575 -5.656,-15.957 -11.755,-31.967 -18.125,-47.666 2.021,-3.533 3.857,-7.16 5.499,-10.871 37.576,-32.175 58.259,-74.484 58.259,-119.316 0,-13.271 -1.805,-26.28 -5.366,-38.94 C 489.555,277.075 512,248.717 512,215.921 Z m -497,0 c 0,-31.226 25.404,-56.629 56.629,-56.629 5.068,0 10.05,0.665 14.87,1.974 -4.167,15.111 -6.338,30.803 -6.338,46.639 0,14.313 -4.071,28.903 -11.772,42.192 -3.949,6.813 -7.31,13.775 -10.112,20.859 C 33.234,264.898 15,242.21 15,215.921 Z m 213.368,263.434 c -21.015,21.015 -55.209,21.015 -76.225,0 L 141.867,469.079 C 122.087,449.299 111.194,423 111.194,395.027 V 352.19 c -0.002,-4.951 2.19,-9.603 6.015,-12.763 3.009,-2.486 6.65,-3.782 10.499,-3.782 1.112,0 2.241,0.108 3.377,0.327 7.526,1.449 13.201,8.816 13.201,17.136 v 32.052 c 0,3.034 1.827,5.768 4.63,6.929 2.802,1.16 6.028,0.519 8.173,-1.626 l 25.759,-25.759 c 20.336,-20.336 52.409,-23.449 74.603,-7.239 13.461,9.831 21.915,24.946 23.195,41.468 1.286,16.601 -4.669,32.813 -16.337,44.482 z m 141.765,-10.276 -10.276,10.276 c -21.015,21.015 -55.209,21.016 -76.225,0 l -17.026,-17.026 8.308,-8.307 c 14.771,-14.771 22.31,-35.271 20.686,-56.247 -1.457,-18.814 -10.279,-36.16 -24.428,-48.497 19.851,-5.839 42.345,-0.21 57.981,15.427 l 25.759,25.759 c 2.145,2.146 5.373,2.787 8.173,1.626 2.803,-1.161 4.63,-3.896 4.63,-6.929 v -32.052 c 0,-8.32 5.675,-15.688 13.2,-17.136 5.072,-0.977 9.999,0.251 13.876,3.455 3.825,3.16 6.018,7.813 6.016,12.767 v 42.834 c 0,27.971 -10.894,54.27 -30.674,74.05 z m 44.234,-55.418 c 0.949,-6.11 1.44,-12.334 1.44,-18.635 v -42.831 c 0.004,-9.443 -4.174,-18.312 -11.461,-24.333 -7.285,-6.019 -16.858,-8.433 -26.266,-6.621 -1.014,0.195 -2.006,0.445 -2.979,0.738 -3.286,-10.79 -1.078,-22.36 6.151,-30.996 14.954,-17.866 21.173,-40.546 17.512,-63.861 -2.125,-13.541 -7.894,-26.424 -16.681,-37.259 -2.609,-3.217 -7.332,-3.708 -10.55,-1.101 -3.217,2.609 -3.709,7.333 -1.1,10.55 7.124,8.783 11.796,19.204 13.513,30.136 2.98,18.975 -2.062,37.409 -14.197,51.906 -11.349,13.56 -14.246,32.029 -7.751,48.628 -5.768,5.925 -9.283,14.154 -9.283,23.123 v 13.945 l -12.956,-12.956 c -22.48,-22.48 -56.427,-28.367 -83.786,-14.939 -27.038,-13.145 -61.201,-7.593 -83.733,14.939 l -12.956,12.956 v -13.945 c 0,-8.969 -3.515,-17.198 -9.282,-23.123 6.495,-16.6 3.599,-35.069 -7.751,-48.629 -12.136,-14.499 -17.177,-32.934 -14.197,-51.91 4.266,-27.159 26.221,-49.08 53.392,-53.309 19.709,-3.069 39.349,2.774 53.882,16.029 11.591,10.573 29.751,10.573 41.343,0 14.533,-13.256 34.174,-19.096 53.887,-16.029 6.317,0.984 12.458,2.943 18.252,5.823 3.709,1.844 8.21,0.332 10.054,-3.377 1.844,-3.709 0.332,-8.21 -3.377,-10.054 -7.172,-3.565 -14.783,-5.992 -22.621,-7.212 -24.227,-3.773 -48.394,3.432 -66.303,19.768 -5.923,5.402 -15.203,5.402 -21.126,-0.001 -17.908,-16.333 -42.073,-23.537 -66.297,-19.768 -33.537,5.22 -60.637,32.278 -65.903,65.802 -3.663,23.316 2.557,45.998 17.512,63.866 7.229,8.636 9.438,20.206 6.151,30.996 -0.973,-0.293 -1.966,-0.543 -2.98,-0.739 v 0 c -9.409,-1.812 -18.981,0.603 -26.266,6.621 -7.288,6.021 -11.465,14.891 -11.461,24.33 v 42.834 c 0,6.298 0.49,12.521 1.439,18.628 -22.423,-26.126 -34.536,-57.161 -34.536,-89.516 0,-23.22 6.147,-45.601 18.271,-66.52 9.024,-15.572 13.794,-32.762 13.794,-49.713 0,-36.779 12.747,-72.721 35.893,-101.206 22.811,-28.073 54.719,-47.844 89.845,-55.672 1.46,-0.325 2.79,-1.08 3.818,-2.167 13.754,-14.545 27.882,-25.047 42.096,-31.307 l 5.958,23.832 c 0.525,2.102 1.933,3.873 3.862,4.859 1.928,0.986 4.189,1.09 6.2,0.286 l 29.795,-11.918 v 17.672 c 0,3.037 1.832,5.775 4.64,6.933 60.487,24.955 99.57,83.319 99.57,148.688 0,16.951 4.77,34.141 13.794,49.713 12.124,20.919 18.271,43.3 18.271,66.52 0,32.382 -12.109,63.404 -34.536,89.526 z m 39.356,-142.706 c -2.802,-7.084 -6.163,-14.045 -10.111,-20.858 -7.702,-13.289 -11.772,-27.879 -11.772,-42.192 0,-15.925 -2.127,-31.588 -6.266,-46.659 4.799,-1.296 9.758,-1.954 14.799,-1.954 31.225,0 56.629,25.404 56.629,56.629 -0.002,26.289 -18.236,48.976 -43.279,55.034 z"
     inkscape:connector-curvature="0" /><path
     id="path1063"
     d="m 207.903,224.453 c -4.142,0 -7.5,3.358 -7.5,7.5 v 8.016 c 0,9.125 -7.424,16.548 -16.549,16.548 -9.125,0 -16.548,-7.423 -16.548,-16.548 v -8.016 c 0,-9.125 7.424,-16.548 16.548,-16.548 4.142,0 7.5,-3.358 7.5,-7.5 0,-4.142 -3.358,-7.5 -7.5,-7.5 -17.396,0 -31.548,14.152 -31.548,31.548 v 8.016 c 0,17.396 14.153,31.548 31.549,31.548 17.396,0 31.548,-14.152 31.548,-31.548 v -8.016 c 0,-4.142 -3.358,-7.5 -7.5,-7.5 z"
     inkscape:connector-curvature="0" /><path
     id="path1065"
     d="m 352.193,224.453 c -4.142,0 -7.5,3.358 -7.5,7.5 v 8.016 c 0,9.125 -7.423,16.548 -16.548,16.548 -9.125,0 -16.548,-7.423 -16.548,-16.548 v -8.016 c 0,-9.125 7.423,-16.548 16.548,-16.548 4.142,0 7.5,-3.358 7.5,-7.5 0,-4.142 -3.358,-7.5 -7.5,-7.5 -17.396,0 -31.548,14.152 -31.548,31.548 v 8.016 c 0,17.396 14.152,31.548 31.548,31.548 17.396,0 31.548,-14.152 31.548,-31.548 v -8.016 c 0,-4.142 -3.358,-7.5 -7.5,-7.5 z"
     inkscape:connector-curvature="0" /><g
     id="g1067">
</g><g
     id="g1069">
</g><g
     id="g1071">
</g><g
     id="g1073">
</g><g
     id="g1075">
</g><g
     id="g1077">
</g><g
     id="g1079">
</g><g
     id="g1081">
</g><g
     id="g1083">
</g><g
     id="g1085">
</g><g
     id="g1087">
</g><g
     id="g1089">
</g><g
     id="g1091">
</g><g
     id="g1093">
</g><g
     id="g1095">
</g></g></svg>