<svg id="Layer_1" enable-background="new 0 0 256 256" height="512" viewBox="0 0 256 256" width="512" xmlns="http://www.w3.org/2000/svg"><path d="m53.314 26.22c-.974 11.564-13.025 13.39-13.025 13.39 10.347.487 12.925 14.059 12.925 14.059.221-9.677 13.321-14.202 13.321-14.202-9.812-.588-13.221-13.247-13.221-13.247z" fill="#d7e057"/><path d="m66.626 37.969c-8.605-.515-11.832-12.024-11.864-12.141-.191-.703-.859-1.168-1.583-1.102-.725.066-1.298.642-1.359 1.367-.86 10.215-11.314 11.964-11.754 12.033-.763.115-1.313.79-1.273 1.56s.657 1.384 1.428 1.421c9.028.425 11.498 12.718 11.522 12.842.137.711.759 1.217 1.472 1.217.042 0 .084-.002.126-.005.764-.064 1.357-.693 1.375-1.459.195-8.508 12.192-12.777 12.313-12.819.675-.235 1.092-.914.994-1.623-.1-.707-.683-1.248-1.397-1.291zm-13.566 10.346c-1.357-3.13-3.708-6.907-7.586-8.877 2.931-1.405 6.409-3.913 8.202-8.273 1.551 3.071 4.2 6.88 8.334 8.723-3.008 1.64-6.924 4.405-8.95 8.427z" fill="#3a312a"/><path d="m31.616 43.2c-.689 8.179-9.213 9.47-9.213 9.47 7.318.344 9.142 9.944 9.142 9.944.156-6.844 9.422-10.045 9.422-10.045-6.941-.414-9.351-9.369-9.351-9.369z" fill="#d7e057"/><path d="m41.057 51.072c-5.766-.345-7.972-8.186-7.994-8.265-.191-.702-.85-1.17-1.582-1.102-.726.065-1.299.642-1.36 1.368-.579 6.871-7.646 8.067-7.942 8.114-.763.115-1.313.79-1.273 1.561.04.77.657 1.384 1.428 1.421 6.035.284 7.723 8.644 7.739 8.726.135.713.759 1.22 1.472 1.22.041 0 .083-.001.125-.005.765-.063 1.358-.694 1.376-1.461.13-5.709 8.331-8.634 8.412-8.662.676-.234 1.094-.913.996-1.622-.098-.708-.682-1.25-1.397-1.293zm-9.584 6.795c-.924-1.885-2.34-3.947-4.447-5.28 1.856-1.041 3.697-2.63 4.871-4.916 1.057 1.873 2.654 3.954 4.941 5.224-1.851 1.101-3.989 2.74-5.365 4.972z" fill="#3a312a"/><path d="m31.616 16.543c-.689 8.179-9.213 9.471-9.213 9.471 7.318.344 9.142 9.944 9.142 9.944.156-6.845 9.422-10.045 9.422-10.045-6.941-.416-9.351-9.37-9.351-9.37z" fill="#d7e057"/><g fill="#3a312a"><path d="m41.057 24.415c-5.766-.345-7.972-8.185-7.994-8.265-.191-.702-.85-1.163-1.582-1.102-.726.065-1.299.642-1.36 1.368-.579 6.871-7.646 8.067-7.942 8.114-.763.115-1.313.79-1.273 1.56s.657 1.384 1.428 1.421c6.035.284 7.723 8.644 7.739 8.726.135.713.759 1.22 1.472 1.22.041 0 .083-.001.125-.005.765-.064 1.358-.694 1.376-1.461.13-5.709 8.331-8.634 8.412-8.662.676-.234 1.094-.913.996-1.622-.098-.707-.682-1.249-1.397-1.292zm-9.584 6.795c-.924-1.885-2.34-3.947-4.447-5.28 1.856-1.041 3.697-2.63 4.871-4.916 1.057 1.873 2.654 3.954 4.941 5.224-1.851 1.1-3.989 2.74-5.365 4.972z"/><path d="m168.372 48.218c-9.222-21.743-21.641-33.718-34.969-33.718s-25.747 11.975-34.968 33.718c-9.048 21.335-14.032 49.669-14.032 79.782s4.983 58.447 14.032 79.782c9.222 21.744 21.64 33.718 34.968 33.718 17.934 0 34.395-22.47 42.972-58.699l2.403-12.314c.097-.159.165-.337.198-.53 2.274-13.354 3.427-27.47 3.427-41.957 0-30.113-4.983-58.447-14.031-79.782zm7.732 120.732c-.082.141-.141.296-.173.463l-2.488 12.754c-8.228 34.747-23.57 56.332-40.04 56.332-25.364 0-46-49.57-46-110.5s20.636-110.5 46-110.5 46 49.57 46 110.5c0 14.138-1.109 27.912-3.299 40.951z"/><path d="m221.591 139.798c-12.585-17.514-32.883-35.39-57.187-50.353l-11.28-6.573c-.011-.006-.021-.012-.032-.018-53.057-29.201-104.882-34.298-117.983-11.604-6.664 11.543-2.503 28.285 11.717 47.143 13.953 18.503 35.998 36.986 62.077 52.042 26.079 15.057 53.108 24.908 76.108 27.739 4.468.55 8.687.822 12.635.822 16.766 0 28.656-4.904 34.05-14.247 6.377-11.043 2.788-27.008-10.105-44.951zm7.508 43.452c-6.024 10.433-21.55 14.675-43.721 11.947-22.61-2.783-49.237-12.5-74.975-27.359-25.738-14.86-47.466-33.061-61.182-51.251-13.448-17.835-17.537-33.404-11.514-43.837 4.82-8.347 15.811-12.746 31.426-12.746 3.263 0 6.729.192 10.382.581 21.489 2.284 47.099 11.122 72.115 24.889l11.232 6.545c49.192 30.287 78.286 70.36 66.237 91.231z"/><path d="m231.697 71.25c-6.664-11.542-23.245-16.31-46.685-13.424-23 2.831-50.03 12.683-76.108 27.739-26.079 15.056-48.125 33.539-62.077 52.042-14.22 18.858-18.381 35.601-11.717 47.143 5.394 9.343 17.282 14.247 34.05 14.247 3.947 0 8.168-.273 12.635-.822 23.001-2.831 50.03-12.683 76.109-27.739s48.124-33.539 62.077-52.042c14.219-18.859 18.38-35.601 11.716-47.144zm-14.112 45.336c-13.716 18.19-35.444 36.391-61.182 51.251s-52.365 24.576-74.976 27.359c-22.168 2.731-37.697-1.513-43.721-11.947-6.023-10.433-1.934-26.001 11.514-43.836 13.716-18.19 35.444-36.391 61.182-51.251 31.942-18.441 64.059-28.253 87.248-28.253 15.118 0 26.443 4.171 31.448 12.84 6.025 10.434 1.936 26.003-11.513 43.837z"/></g><circle cx="203.903" cy="58.5" fill="#8ac6dd" r="12"/><path d="m203.903 45c-7.444 0-13.5 6.056-13.5 13.5s6.056 13.5 13.5 13.5 13.5-6.056 13.5-13.5-6.056-13.5-13.5-13.5zm0 24c-5.79 0-10.5-4.71-10.5-10.5s4.71-10.5 10.5-10.5 10.5 4.71 10.5 10.5-4.71 10.5-10.5 10.5z" fill="#3a312a"/><circle cx="197.903" cy="198.5" fill="#f16c7a" r="12"/><path d="m197.903 185c-7.444 0-13.5 6.056-13.5 13.5s6.056 13.5 13.5 13.5 13.5-6.056 13.5-13.5-6.056-13.5-13.5-13.5zm0 24c-5.79 0-10.5-4.71-10.5-10.5s4.71-10.5 10.5-10.5 10.5 4.71 10.5 10.5-4.71 10.5-10.5 10.5z" fill="#3a312a"/><circle cx="106.903" cy="219.5" fill="#d7e057" r="12"/><path d="m106.903 206c-7.444 0-13.5 6.056-13.5 13.5s6.056 13.5 13.5 13.5 13.5-6.056 13.5-13.5-6.056-13.5-13.5-13.5zm0 24c-5.789 0-10.5-4.71-10.5-10.5s4.711-10.5 10.5-10.5c5.79 0 10.5 4.71 10.5 10.5s-4.71 10.5-10.5 10.5z" fill="#3a312a"/><circle cx="133.845" cy="128" fill="#8ac6dd" r="68.5"/><path d="m133.845 58c-38.598 0-70 31.402-70 70s31.402 70 70 70 70-31.402 70-70-31.402-70-70-70zm0 137c-36.944 0-67-30.056-67-67s30.056-67 67-67 67 30.056 67 67-30.056 67-67 67z" fill="#3a312a"/><path d="m88.045 111.92h91.6v7.47h-91.6z" fill="#87796f"/><path d="m179.645 110.42h-91.6c-.829 0-1.5.671-1.5 1.5v7.47c0 .829.671 1.5 1.5 1.5h91.6c.829 0 1.5-.671 1.5-1.5v-7.47c0-.829-.671-1.5-1.5-1.5zm-1.5 7.47h-88.6v-4.47h88.6z" fill="#3a312a"/><path d="m88.045 136.61h91.6v7.47h-91.6z" fill="#87796f"/><path d="m179.645 135.11h-91.6c-.829 0-1.5.671-1.5 1.5v7.47c0 .829.671 1.5 1.5 1.5h91.6c.829 0 1.5-.671 1.5-1.5v-7.47c0-.829-.671-1.5-1.5-1.5zm-1.5 7.47h-88.6v-4.47h88.6z" fill="#3a312a"/><path d="m181.719 144.08h-95.749c-2.539 0-4.598 2.058-4.598 4.598v8.033c0 2.539 2.058 4.598 4.598 4.598h95.749c2.539 0 4.598-2.058 4.598-4.598v-8.033c0-2.539-2.058-4.598-4.598-4.598z" fill="#fce8cb"/><path d="m181.719 142.58h-95.749c-3.362 0-6.098 2.736-6.098 6.098v8.033c0 3.362 2.735 6.098 6.098 6.098h16.98c.829 0 1.5-.671 1.5-1.5s-.671-1.5-1.5-1.5h-16.98c-1.708 0-3.098-1.39-3.098-3.098v-8.033c0-1.708 1.39-3.098 3.098-3.098h95.749c1.708 0 3.098 1.39 3.098 3.098v8.033c0 1.708-1.39 3.098-3.098 3.098h-65.98c-.829 0-1.5.671-1.5 1.5s.671 1.5 1.5 1.5h65.98c3.362 0 6.098-2.735 6.098-6.098v-8.033c0-3.362-2.736-6.098-6.098-6.098z" fill="#3a312a"/><path d="m175.768 148.962c-2.062 0-3.733 1.671-3.733 3.733s1.671 3.733 3.733 3.733 3.733-1.671 3.733-3.733-1.671-3.733-3.733-3.733z" fill="#8ac6dd"/><path d="m175.769 147.462c-2.885 0-5.233 2.348-5.233 5.233s2.348 5.233 5.233 5.233 5.233-2.348 5.233-5.233-2.348-5.233-5.233-5.233zm0 7.466c-1.232 0-2.233-1.001-2.233-2.233 0-1.231 1.002-2.233 2.233-2.233s2.233 1.002 2.233 2.233-1.002 2.233-2.233 2.233z" fill="#3a312a"/><path d="m162.56 148.962c-2.062 0-3.733 1.671-3.733 3.733s1.671 3.733 3.733 3.733 3.733-1.671 3.733-3.733-1.672-3.733-3.733-3.733z" fill="#d7e057"/><path d="m162.56 147.462c-2.885 0-5.233 2.348-5.233 5.233s2.348 5.233 5.233 5.233 5.233-2.348 5.233-5.233c-.001-2.885-2.348-5.233-5.233-5.233zm0 7.466c-1.231 0-2.233-1.001-2.233-2.233 0-1.231 1.001-2.233 2.233-2.233s2.233 1.002 2.233 2.233c-.001 1.231-1.002 2.233-2.233 2.233z" fill="#3a312a"/><path d="m149.351 148.962c-2.062 0-3.733 1.671-3.733 3.733s1.671 3.733 3.733 3.733 3.733-1.671 3.733-3.733-1.672-3.733-3.733-3.733z" fill="#ef6d7a"/><path d="m149.351 147.462c-2.886 0-5.233 2.348-5.233 5.233s2.348 5.233 5.233 5.233 5.233-2.348 5.233-5.233-2.348-5.233-5.233-5.233zm0 7.466c-1.231 0-2.233-1.001-2.233-2.233 0-1.231 1.002-2.233 2.233-2.233s2.233 1.002 2.233 2.233-1.001 2.233-2.233 2.233z" fill="#3a312a"/><path d="m138.727 151.195h-50.538c-.829 0-1.5.671-1.5 1.5s.671 1.5 1.5 1.5h50.538c.829 0 1.5-.671 1.5-1.5s-.672-1.5-1.5-1.5z" fill="#3a312a"/><path d="m181.719 119.386h-95.749c-2.539 0-4.598 2.058-4.598 4.598v8.034c0 2.539 2.058 4.598 4.598 4.598h95.749c2.539 0 4.598-2.058 4.598-4.598v-8.033c0-2.541-2.058-4.599-4.598-4.599z" fill="#fce8cb"/><path d="m181.719 117.886h-95.749c-3.362 0-6.098 2.735-6.098 6.098v8.033c0 3.362 2.735 6.098 6.098 6.098h95.749c3.362 0 6.098-2.736 6.098-6.098v-8.033c0-3.363-2.736-6.098-6.098-6.098zm3.098 14.131c0 1.708-1.39 3.098-3.098 3.098h-95.749c-1.708 0-3.098-1.39-3.098-3.098v-8.033c0-1.708 1.39-3.098 3.098-3.098h95.749c1.708 0 3.098 1.39 3.098 3.098z" fill="#3a312a"/><path d="m175.768 124.267c-2.062 0-3.733 1.671-3.733 3.733s1.671 3.733 3.733 3.733 3.733-1.671 3.733-3.733-1.671-3.733-3.733-3.733z" fill="#8ac6dd"/><path d="m175.769 122.767c-2.885 0-5.233 2.348-5.233 5.233s2.348 5.233 5.233 5.233 5.233-2.348 5.233-5.233-2.348-5.233-5.233-5.233zm0 7.466c-1.232 0-2.233-1.001-2.233-2.233 0-1.231 1.002-2.233 2.233-2.233s2.233 1.002 2.233 2.233-1.002 2.233-2.233 2.233z" fill="#3a312a"/><path d="m162.56 124.267c-2.062 0-3.733 1.671-3.733 3.733s1.671 3.733 3.733 3.733 3.733-1.671 3.733-3.733-1.672-3.733-3.733-3.733z" fill="#d7e057"/><path d="m162.56 122.767c-2.885 0-5.233 2.348-5.233 5.233s2.348 5.233 5.233 5.233 5.233-2.348 5.233-5.233-2.348-5.233-5.233-5.233zm0 7.466c-1.231 0-2.233-1.001-2.233-2.233 0-1.231 1.001-2.233 2.233-2.233s2.233 1.002 2.233 2.233c-.001 1.231-1.002 2.233-2.233 2.233z" fill="#3a312a"/><path d="m149.351 124.267c-2.062 0-3.733 1.671-3.733 3.733s1.671 3.733 3.733 3.733 3.733-1.671 3.733-3.733-1.672-3.733-3.733-3.733z" fill="#ef6d7a"/><path d="m149.351 122.767c-2.886 0-5.233 2.348-5.233 5.233s2.348 5.233 5.233 5.233 5.233-2.348 5.233-5.233-2.348-5.233-5.233-5.233zm0 7.466c-1.231 0-2.233-1.001-2.233-2.233 0-1.231 1.002-2.233 2.233-2.233s2.233 1.002 2.233 2.233-1.001 2.233-2.233 2.233z" fill="#3a312a"/><path d="m138.727 126.5h-50.538c-.829 0-1.5.671-1.5 1.5s.671 1.5 1.5 1.5h50.538c.829 0 1.5-.671 1.5-1.5s-.672-1.5-1.5-1.5z" fill="#3a312a"/><path d="m181.719 94.691h-95.749c-2.539 0-4.598 2.058-4.598 4.598v8.034c0 2.539 2.058 4.598 4.598 4.598h95.749c2.539 0 4.598-2.058 4.598-4.598v-8.034c0-2.54-2.058-4.598-4.598-4.598z" fill="#fce8cb"/><path d="m181.719 93.191h-51.479c-.829 0-1.5.671-1.5 1.5s.671 1.5 1.5 1.5h51.479c1.708 0 3.098 1.39 3.098 3.098v8.034c0 1.708-1.39 3.098-3.098 3.098h-95.749c-1.708 0-3.098-1.39-3.098-3.098v-8.034c0-1.708 1.39-3.098 3.098-3.098h31.48c.829 0 1.5-.671 1.5-1.5s-.671-1.5-1.5-1.5h-31.48c-3.362 0-6.098 2.735-6.098 6.098v8.034c0 3.362 2.735 6.098 6.098 6.098h95.749c3.362 0 6.098-2.735 6.098-6.098v-8.034c0-3.363-2.736-6.098-6.098-6.098z" fill="#3a312a"/><path d="m175.768 99.572c-2.062 0-3.733 1.671-3.733 3.733s1.671 3.733 3.733 3.733 3.733-1.671 3.733-3.733c0-2.061-1.671-3.733-3.733-3.733z" fill="#8ac6dd"/><path d="m175.769 98.072c-2.885 0-5.233 2.348-5.233 5.233s2.348 5.233 5.233 5.233 5.233-2.348 5.233-5.233-2.348-5.233-5.233-5.233zm0 7.466c-1.232 0-2.233-1.001-2.233-2.233s1.002-2.233 2.233-2.233 2.233 1.001 2.233 2.233-1.002 2.233-2.233 2.233z" fill="#3a312a"/><path d="m162.56 99.572c-2.062 0-3.733 1.671-3.733 3.733s1.671 3.733 3.733 3.733 3.733-1.671 3.733-3.733c0-2.061-1.672-3.733-3.733-3.733z" fill="#d7e057"/><path d="m162.56 98.072c-2.885 0-5.233 2.348-5.233 5.233s2.348 5.233 5.233 5.233 5.233-2.348 5.233-5.233c-.001-2.885-2.348-5.233-5.233-5.233zm0 7.466c-1.231 0-2.233-1.001-2.233-2.233s1.001-2.233 2.233-2.233 2.233 1.001 2.233 2.233c-.001 1.232-1.002 2.233-2.233 2.233z" fill="#3a312a"/><path d="m149.351 99.572c-2.062 0-3.733 1.671-3.733 3.733s1.671 3.733 3.733 3.733 3.733-1.671 3.733-3.733c0-2.061-1.672-3.733-3.733-3.733z" fill="#ef6d7a"/><path d="m149.351 98.072c-2.886 0-5.233 2.348-5.233 5.233s2.348 5.233 5.233 5.233 5.233-2.348 5.233-5.233-2.348-5.233-5.233-5.233zm0 7.466c-1.231 0-2.233-1.001-2.233-2.233s1.002-2.233 2.233-2.233 2.233 1.001 2.233 2.233-1.001 2.233-2.233 2.233z" fill="#3a312a"/><path d="m138.727 101.805h-50.538c-.829 0-1.5.671-1.5 1.5s.671 1.5 1.5 1.5h50.538c.829 0 1.5-.671 1.5-1.5 0-.828-.672-1.5-1.5-1.5z" fill="#3a312a"/><path d="m133.845 61c-.22 0-.43 0-.65.01 18.99 4.04 35.07 15.96 44.65 32.18h3.87c3.37 0 6.1 2.74 6.1 6.1v8.03c0 1.93-.91 3.66-2.32 4.79.68 2.87 1.18 5.81 1.49 8.82.53.89.83 1.94.83 3.05v8.04c0 1.11-.3 2.16-.83 3.05-.31 3.01-.81 5.95-1.49 8.82 1.41 1.13 2.32 2.86 2.32 4.79v8.03c0 3.36-2.73 6.1-6.1 6.1h-3.87c-9.58 16.22-25.66 28.14-44.65 32.18.22.01.43.01.65.01 36.94 0 67-30.06 67-67s-30.06-67-67-67z" fill="#6ca8bf"/></svg>