<svg height="511pt" viewBox="-1 0 511 511.99928" width="511pt" xmlns="http://www.w3.org/2000/svg"><path d="m241.796875 36.914062c-129.117187 0-233.789063 104.671876-233.789063 233.789063s104.671876 233.789063 233.789063 233.789063 233.789063-104.671876 233.789063-233.789063-104.671876-233.789063-233.789063-233.789063zm0 279.222657c-25.089844 0-45.433594-20.339844-45.433594-45.433594 0-25.089844 20.34375-45.433594 45.433594-45.433594 25.09375 0 45.433594 20.34375 45.433594 45.433594 0 25.09375-20.339844 45.433594-45.433594 45.433594zm0 0" fill="#56555b"/><path d="m241.796875 36.914062c-4.539063 0-9.042969.144532-13.515625.398438 122.824219 7.003906 220.273438 108.8125 220.273438 233.390625 0 124.582031-97.449219 226.386719-220.273438 233.390625 4.472656.257812 8.976562.398438 13.515625.398438 129.117187 0 233.789063-104.667969 233.789063-233.785157 0-129.117187-104.671876-233.792969-233.789063-233.792969zm0 0" fill="#434347"/><path d="m241.796875 189.195312c-45.015625 0-81.507813 36.492188-81.507813 81.507813s36.492188 81.507813 81.507813 81.507813 81.507813-36.492188 81.507813-81.507813-36.492188-81.507813-81.507813-81.507813zm0 126.941407c-25.089844 0-45.433594-20.339844-45.433594-45.433594s20.34375-45.433594 45.433594-45.433594c25.09375 0 45.433594 20.34375 45.433594 45.433594 0 25.09375-20.339844 45.433594-45.433594 45.433594zm0 0" fill="#e0e0e2"/><path d="m241.796875 189.195312c-4.605469 0-9.117187.402344-13.515625 1.136719 38.582031 6.441407 67.992188 39.960938 67.992188 80.371094s-29.414063 73.929687-67.992188 80.375c4.398438.734375 8.910156 1.132813 13.515625 1.132813 45.015625 0 81.507813-36.488282 81.507813-81.507813 0-45.015625-36.492188-81.507813-81.507813-81.507813zm0 0" fill="#c7c6cc"/><path d="m356.703125 397.109375c-32.019531 29.34375-73.59375 45.5-117.058594 45.5-4.148437 0-7.507812 3.363281-7.507812 7.511719 0 4.144531 3.359375 7.507812 7.507812 7.507812 47.230469 0 92.410157-17.5625 127.207031-49.449218 34.578126-31.683594 56-74.75 60.320313-121.265626.382813-4.128906-2.652344-7.785156-6.785156-8.167968-4.113281-.40625-7.785157 2.652344-8.167969 6.78125-3.976562 42.792968-23.691406 82.421875-55.515625 111.582031zm0 0"/><path d="m419.988281 263.507812c.183594 0 .367188-.003906.550781-.019531 4.136719-.300781 7.246094-3.894531 6.945313-8.03125-1.214844-16.710937-4.644531-33.152343-10.191406-48.871093-1.378907-3.910157-5.667969-5.960938-9.578125-4.582032-3.914063 1.382813-5.964844 5.671875-4.582032 9.582032 5.101563 14.457031 8.257813 29.585937 9.371094 44.960937.289063 3.949219 3.585938 6.960937 7.484375 6.960937zm0 0"/><path d="m239.066406 400.597656c-4.148437 0-7.507812 3.359375-7.507812 7.507813 0 4.148437 3.359375 7.507812 7.507812 7.507812 81.132813 0 147.140625-66.007812 147.140625-147.140625 0-16.410156-2.683593-32.527344-7.976562-47.902344-1.351563-3.921874-5.617188-6.007812-9.546875-4.65625-3.917969 1.347657-6.003906 5.621094-4.652344 9.542969 4.75 13.800781 7.15625 28.273438 7.15625 43.015625 0 72.855469-59.269531 132.125-132.121094 132.125zm0 0"/><path d="m299.148438 107.601562c3.90625 1.382813 8.199218-.671874 9.578124-4.582031 1.378907-3.910156-.671874-8.199219-4.582031-9.578125-20.097656-7.097656-41.195312-10.695312-62.699219-10.695312-103.851562 0-188.339843 84.492187-188.339843 188.339844 0 4.148437 3.359375 7.511718 7.507812 7.511718 4.148438 0 7.507813-3.363281 7.507813-7.511718 0-95.570313 77.753906-173.320313 173.324218-173.320313 19.796876 0 39.210938 3.308594 57.703126 9.835937zm0 0"/><path d="m102.628906 279.175781c4.144532 0 7.507813-3.363281 7.507813-7.511719 0-72.851562 59.269531-132.121093 132.121093-132.121093 14.742188 0 29.214844 2.410156 43.019532 7.160156 3.921875 1.347656 8.191406-.738281 9.542968-4.660156 1.347657-3.917969-.738281-8.191407-4.65625-9.542969-15.378906-5.289062-31.496093-7.972656-47.90625-7.972656-81.132812 0-147.140624 66.003906-147.140624 147.136718 0 4.148438 3.363281 7.511719 7.511718 7.511719zm0 0"/><path d="m414.304688 112.730469c-3.144532 2.703125-3.503907 7.445312-.800782 10.589843 35.191406 40.960938 54.574219 93.300782 54.574219 147.382813 0 60.441406-23.539063 117.265625-66.277344 160.003906s-99.5625 66.273438-160.003906 66.273438c-50.828125 0-98.84375-16.457031-138.855469-47.597657-3.273437-2.546874-7.988281-1.957031-10.535156 1.3125-2.546875 3.273438-1.960938 7.992188 1.3125 10.539063 42.671875 33.210937 93.878906 50.765625 148.078125 50.765625 64.453125 0 125.050781-25.097656 170.625-70.675781 45.574219-45.574219 70.671875-106.167969 70.671875-170.621094 0-57.671875-20.667969-113.488281-58.199219-157.167969-2.703125-3.144531-7.445312-3.507812-10.589843-.804687zm0 0"/><path d="m241.796875 323.644531c29.191406 0 52.941406-23.75 52.941406-52.941406s-23.75-52.941406-52.941406-52.941406-52.941406 23.75-52.941406 52.941406 23.75 52.941406 52.941406 52.941406zm0-90.863281c20.910156 0 37.925781 17.011719 37.925781 37.921875 0 20.914063-17.015625 37.925781-37.925781 37.925781s-37.925781-17.011718-37.925781-37.925781c0-20.910156 17.015625-37.921875 37.925781-37.921875zm0 0"/><path d="m54.53125 418.1875c1.566406 0 3.144531-.488281 4.496094-1.5 3.316406-2.484375 3.992187-7.191406 1.507812-10.511719-29.449218-39.339843-45.019531-86.1875-45.019531-135.472656 0-60.441406 23.539063-117.265625 66.277344-160.003906s99.5625-66.273438 160.003906-66.273438c46.703125 0 91.535156 14.109375 129.648437 40.800781 3.398438 2.382813 8.082032 1.554688 10.460938-1.84375 2.378906-3.398437 1.550781-8.078124-1.84375-10.457031-40.652344-28.46875-88.464844-43.519531-138.265625-43.519531-64.453125 0-125.050781 25.101562-170.625 70.675781s-70.671875 106.167969-70.671875 170.621094c0 52.558594 16.601562 102.515625 48.015625 144.476563 1.472656 1.96875 3.730469 3.007812 6.015625 3.007812zm0 0"/><path d="m241.796875 359.722656c49.085937 0 89.015625-39.933594 89.015625-89.019531 0-49.082031-39.929688-89.015625-89.015625-89.015625-18.273437 0-35.832031 5.496094-50.78125 15.894531-14.601563 10.160157-25.722656 24.253907-32.167969 40.761719-1.511718 3.863281.398438 8.21875 4.261719 9.726562 3.867187 1.507813 8.21875-.402343 9.726563-4.265624 11.171874-28.613282 38.238281-47.101563 68.960937-47.101563 40.804687 0 74 33.199219 74 74 0 40.804687-33.195313 74-74 74-40.800781 0-74-33.195313-74-74 0-4.148437-3.359375-7.507813-7.507813-7.507813-4.148437 0-7.507812 3.359376-7.507812 7.507813 0 49.085937 39.933594 89.019531 89.015625 89.019531zm0 0"/><path d="m105.417969 388.902344c2.832031.761718 5.757812 1.546875 9.109375 2.972656 12.152344 5.152344 12.03125 26.820312 12.027344 27.160156-.109376 4.136719 3.152343 7.582032 7.292968 7.699219.074219 0 .144532.003906.214844.003906 4.050781 0 7.386719-3.226562 7.503906-7.300781.035156-1.304688.648438-32.132812-21.171875-41.390625-4.3125-1.828125-7.90625-2.792969-11.074219-3.648437-8.640624-2.324219-13.863281-3.730469-26.957031-27.28125-1.734375-2.933594-5.046875-4.535157-8.421875-3.703126-3.3125.816407-5.757812 3.945313-5.691406 7.375v102.316407c-4.308594-2.449219-9.285156-3.859375-14.585938-3.859375-16.324218 0-29.601562 13.28125-29.601562 29.605468 0 16.320313 13.28125 29.601563 29.601562 29.601563 16.324219 0 29.605469-13.28125 29.605469-29.601563v-103.273437c7.707031 8.925781 14.078125 11.15625 22.148438 13.324219zm-51.753907 104.535156c-8.042968 0-14.585937-6.542969-14.585937-14.585938 0-8.042968 6.542969-14.585937 14.585937-14.585937 8.042969 0 14.585938 6.542969 14.585938 14.585937 0 8.042969-6.542969 14.585938-14.585938 14.585938zm0 0"/><path d="m510.363281 129.3125-.109375-117.664062c-.003906-3.414063-1.496094-6.644532-4.097656-8.859376-2.597656-2.21875-6.027344-3.179687-9.394531-2.644531l-95.257813 15.164063c-5.695312.910156-9.828125 5.753906-9.824218 11.527344l.082031 89.128906c-4.003907-2.101563-8.480469-3.21875-13.128907-3.21875-.011718 0-.019531 0-.027343 0-15.621094.015625-28.3125 12.730468-28.300781 28.351562.015624 15.609375 12.71875 28.296875 28.324218 28.296875h.027344c7.566406-.007812 14.675781-2.960937 20.019531-8.316406 5.347657-5.355469 8.285157-12.46875 8.28125-20.035156-.003906-.984375-.257812-111.355469-.257812-111.355469l88.539062-14.09375.085938 88.738281c-3.964844-2.113281-8.488281-3.320312-13.285157-3.320312-.007812 0-.015624 0-.023437 0-7.566406.007812-14.675781 2.960937-20.023437 8.316406-5.34375 5.355469-8.28125 12.472656-8.277344 20.035156.007812 7.566407 2.960937 14.675781 8.316406 20.023438 5.347656 5.335937 12.453125 8.277343 20.007812 8.277343h.027344c7.566406-.007812 14.675782-2.960937 20.019532-8.316406 5.34375-5.351562 8.285156-12.46875 8.277343-20.035156zm-122.316406 21.15625c-4.078125 4.089844-10.53125 5.074219-15.640625 2.367188-5.101562-2.699219-7.921875-8.558594-6.851562-14.230469.910156-4.835938 4.558593-8.878907 9.273437-10.289063 5.339844-1.59375 11.269531.402344 14.554687 4.914063 3.796876 5.214843 3.226563 12.671875-1.335937 17.238281zm94.003906-7.824219c-.003906 0-.007812 0-.011719 0-7.332031 0-13.300781-5.960937-13.308593-13.292969-.003907-7.335937 5.957031-13.3125 13.296875-13.320312h.011718c7.332032 0 13.296876 5.964844 13.304688 13.296875.007812 7.335937-5.957031 13.3125-13.292969 13.316406zm0 0"/></svg>