<svg id="Capa_1" enable-background="new 0 0 511.987 511.987" height="512" viewBox="0 0 511.987 511.987" width="512" xmlns="http://www.w3.org/2000/svg"><path d="m477.988 370.564-14.01 50.009-12.489 44.559-41.029-22.9-5.18-13.26-22.84-58.408 28.02-71.678 41.029-22.89z" fill="#efe7e4"/><path d="m354.422 298.889h56.035v143.344h-56.035z" fill="#5e6b75"/><path d="m354.422 395.112h56.035v47.121h-56.035z" fill="#4d5961"/><path d="m463.978 420.573-12.489 44.559-41.029-22.9-5.18-13.26 5.18-33.859 41.029 11.73z" fill="#dad0cb"/><path d="m324.039 499.78c-89.135 5.516-178.271 5.516-267.406 0-23.445-1.451-42.31-19.658-44.713-43.024-5.91-57.463-5.91-114.926 0-172.388 2.403-23.366 21.269-41.573 44.713-43.024 89.135-5.516 178.271-5.516 267.406 0 23.445 1.451 42.31 19.658 44.713 43.024 5.91 57.463 5.91 114.926 0 172.388-2.402 23.365-21.268 41.573-44.713 43.024z" fill="#5e6b75"/><path d="m65.288 500.301c-2.89-.17-5.77-.34-8.66-.52-23.439-1.45-42.309-19.659-44.709-43.019-5.91-57.469-5.91-114.927 0-172.396 2.4-23.359 21.269-41.569 44.709-43.019 2.88-.18 5.76-.35 8.64-.52-13.01 8.12-22.09 21.969-23.749 38.139-6.28 61.068-6.28 122.127 0 183.195 1.66 16.171 10.75 30.021 23.769 38.14z" fill="#4d5961"/><path d="m253.042 448.673c-53.882 3.335-107.763 3.335-161.645 0-14.172-.877-25.576-11.883-27.029-26.008-3.572-34.736-3.572-69.471 0-104.207 1.453-14.125 12.857-25.131 27.029-26.008 53.882-3.335 107.763-3.335 161.645 0 14.172.877 25.576 11.883 27.029 26.008 3.572 34.736 3.572 69.471 0 104.207-1.453 14.124-12.857 25.13-27.029 26.008z" fill="#efe7e4"/><path d="m105.627 449.474c-4.74-.24-9.49-.51-14.23-.8-14.17-.88-25.579-11.88-27.029-26.009-3.57-34.729-3.57-69.468 0-104.207 1.45-14.12 12.86-25.129 27.029-26.009 4.74-.29 9.49-.56 14.23-.8-8.92 4.61-15.28 13.5-16.359 24.049-3.76 36.579-3.76 73.158 0 109.737 1.08 10.539 7.439 19.429 16.359 24.039z" fill="#dad0cb"/><path d="m451.492 275.993h52.995v189.135h-52.995z" fill="#5e6b75"/><path d="m451.492 406.843h52.995v58.286h-52.995z" fill="#4d5961"/><circle cx="88.294" cy="157.942" fill="#b9a0d3" r="80.794"/><path d="m98.208 238.13c-3.25.41-6.55.61-9.91.61-44.619 0-80.798-36.169-80.798-80.798 0-44.619 36.179-80.788 80.798-80.788 3.36 0 6.66.2 9.91.61-39.959 4.87-70.898 38.909-70.898 80.178-.001 41.279 30.939 75.318 70.898 80.188z" fill="#9373b9"/><circle cx="88.294" cy="157.942" fill="#5e6b75" r="45.034"/><circle cx="284.415" cy="123.41" fill="#b9a0d3" r="115.327"/><path d="m297.475 237.997c-4.28.49-8.64.74-13.06.74-63.688 0-115.327-51.639-115.327-115.327 0-63.698 51.639-115.327 115.327-115.327 4.42 0 8.78.25 13.06.74-57.539 6.48-102.267 55.309-102.267 114.587 0 59.268 44.728 108.107 102.267 114.587z" fill="#9373b9"/><circle cx="284.415" cy="123.41" fill="#5e6b75" r="57.011"/><path d="m172.22 458.662c27.158 0 54.317-.834 81.286-2.503 17.879-1.106 32.19-14.87 34.026-32.726 3.608-35.083 3.608-70.66 0-105.742-1.836-17.856-16.146-31.62-34.026-32.727-53.938-3.337-108.634-3.337-162.572 0-17.879 1.106-32.189 14.87-34.026 32.727-3.608 35.083-3.608 70.659 0 105.741 1.836 17.856 16.146 31.62 34.026 32.727 26.968 1.668 54.127 2.503 81.286 2.503zm-100.391-36.765c-3.503-34.064-3.503-68.608 0-102.673 1.083-10.525 9.507-18.638 20.032-19.289 26.661-1.65 53.51-2.476 80.359-2.476s53.698.825 80.359 2.476c10.525.651 18.949 8.763 20.031 19.29 3.505 34.064 3.505 68.608 0 102.672-1.082 10.526-9.506 18.638-20.031 19.289-53.321 3.301-107.395 3.301-160.718 0-10.525-.65-18.95-8.763-20.032-19.289z"/><path d="m504.487 268.494s-53.044.007-53.07.009c-1.234.012-2.466.32-3.58.942l-39.326 21.941h-31.55c-.243-2.596-.483-5.193-.75-7.786-2.428-23.636-19.237-42.547-41.484-48.148 42.709-19.255 72.512-62.233 72.512-112.042 0-6.692-.545-13.409-1.619-19.963-.67-4.087-4.525-6.859-8.614-6.188-4.088.67-6.858 4.527-6.188 8.615.943 5.754 1.422 11.655 1.422 17.536 0 59.456-48.371 107.827-107.827 107.827s-107.827-48.371-107.827-107.827 48.371-107.827 107.827-107.827c42.297 0 80.882 24.908 98.302 63.457 1.706 3.775 6.147 5.451 9.924 3.746 3.774-1.706 5.451-6.148 3.746-9.923-19.842-43.908-63.794-72.28-111.972-72.28-63.158 0-115.328 47.92-122.08 109.309-15.763-24.206-43.062-40.245-74.039-40.245-48.686.001-88.294 39.609-88.294 88.295 0 33.377 18.617 62.485 46.01 77.492-22.282 5.58-39.122 24.506-41.551 48.165-5.935 57.707-5.935 116.222 0 173.918 2.514 24.491 20.377 44.107 44.451 48.814 4.06.791 8.005-1.856 8.8-5.922.794-4.065-1.856-8.005-5.922-8.8-17.549-3.431-30.572-17.747-32.407-35.626-5.83-56.679-5.83-114.162 0-170.852 2.034-19.808 17.894-35.074 37.711-36.299 88.414-5.476 178.073-5.476 266.487 0 19.816 1.226 35.677 16.492 37.711 36.3 5.829 56.689 5.829 114.171 0 170.852-2.035 19.813-17.895 35.083-37.711 36.31-80.657 4.993-162.387 5.438-242.929 1.325-4.133-.211-7.662 2.971-7.873 7.108s2.971 7.661 7.108 7.873c36.61 1.87 73.459 2.804 110.348 2.804 44.83 0 89.717-1.38 134.271-4.138 27.173-1.681 48.919-22.604 51.707-49.748.267-2.593.507-5.19.75-7.787h31.542l39.334 21.946c1.137.634 2.396.951 3.654.951h52.995c4.143 0 7.5-3.358 7.5-7.5v-189.134c.001-4.142-3.356-7.5-7.499-7.5zm-489.487-110.552c0-40.414 32.879-73.294 73.294-73.294s73.294 32.88 73.294 73.294c0 40.415-32.88 73.294-73.294 73.294s-73.294-32.88-73.294-73.294zm123.776 72.397c17.621-12.324 30.559-30.906 35.552-52.498 10.844 21.844 27.995 40.026 49.064 52.138-28.202-.427-56.433-.306-84.616.36zm239.461 76.047h24.72v128.346h-24.72c3.225-42.672 3.225-85.67 0-128.346zm65.755 145.969-26.032-14.524v-134.54l26.032-14.524zm52.995 5.273h-37.995v-174.134h37.995z"/><path d="m140.829 157.942c0-28.968-23.567-52.534-52.535-52.534-28.967 0-52.534 23.567-52.534 52.534 0 28.968 23.567 52.535 52.534 52.535 28.968 0 52.535-23.567 52.535-52.535zm-90.069 0c0-20.697 16.838-37.534 37.534-37.534 20.697 0 37.535 16.838 37.535 37.534 0 20.697-16.838 37.535-37.535 37.535-20.696 0-37.534-16.838-37.534-37.535z"/><path d="m219.903 123.41c0 35.572 28.94 64.511 64.512 64.511 35.571 0 64.511-28.939 64.511-64.511s-28.939-64.511-64.511-64.511c-35.572-.001-64.512 28.939-64.512 64.511zm114.023 0c0 27.301-22.21 49.511-49.511 49.511s-49.512-22.211-49.512-49.511c0-27.301 22.211-49.511 49.512-49.511s49.511 22.21 49.511 49.511z"/><path d="m134.193 333.546h110.767c4.142 0 7.5-3.358 7.5-7.5s-3.358-7.5-7.5-7.5h-110.767c-4.142 0-7.5 3.358-7.5 7.5s3.358 7.5 7.5 7.5z"/><path d="m244.959 352.745h-72.74c-4.142 0-7.5 3.358-7.5 7.5s3.358 7.5 7.5 7.5h72.74c4.142 0 7.5-3.358 7.5-7.5s-3.357-7.5-7.5-7.5z"/></svg>