<?xml version="1.0" encoding="UTF-8" standalone="no"?>
<!-- Generator: Adobe Illustrator 19.0.0, SVG Export Plug-In . SVG Version: 6.00 Build 0)  -->

<svg
   xmlns:dc="http://purl.org/dc/elements/1.1/"
   xmlns:cc="http://creativecommons.org/ns#"
   xmlns:rdf="http://www.w3.org/1999/02/22-rdf-syntax-ns#"
   xmlns:svg="http://www.w3.org/2000/svg"
   xmlns="http://www.w3.org/2000/svg"
   xmlns:sodipodi="http://sodipodi.sourceforge.net/DTD/sodipodi-0.dtd"
   xmlns:inkscape="http://www.inkscape.org/namespaces/inkscape"
   version="1.1"
   id="Capa_1"
   x="0px"
   y="0px"
   viewBox="0 0 128 128"
   xml:space="preserve"
   sodipodi:docname="logo.svg"
   inkscape:export-filename="C:\work\repo\my\zawiki\source\img\favicon.png"
   inkscape:export-xdpi="93.75"
   inkscape:export-ydpi="93.75"
   inkscape:version="0.92.4 (5da689c313, 2019-01-14)"
   width="128"
   height="128"><metadata
   id="metadata87"><rdf:RDF><cc:Work
       rdf:about=""><dc:format>image/svg+xml</dc:format><dc:type
         rdf:resource="http://purl.org/dc/dcmitype/StillImage" /><dc:title></dc:title></cc:Work></rdf:RDF></metadata><defs
   id="defs85" /><sodipodi:namedview
   pagecolor="#ffffff"
   bordercolor="#666666"
   borderopacity="1"
   objecttolerance="10"
   gridtolerance="10"
   guidetolerance="10"
   inkscape:pageopacity="0"
   inkscape:pageshadow="2"
   inkscape:window-width="3440"
   inkscape:window-height="1377"
   id="namedview83"
   showgrid="false"
   inkscape:zoom="0.921875"
   inkscape:cx="109.83481"
   inkscape:cy="297.39229"
   inkscape:window-x="-8"
   inkscape:window-y="32"
   inkscape:window-maximized="1"
   inkscape:current-layer="Capa_1"
   fit-margin-top="0"
   fit-margin-left="0"
   fit-margin-right="0"
   fit-margin-bottom="0" />

















<g
   id="g876"
   transform="scale(0.25)"><g
     id="g6">
	<polygon
   id="polygon2"
   points="42,399.333 42,502 10,502 10,352.5 "
   style="fill:#d8d8e4" />
	<polygon
   id="polygon4"
   points="470,399.333 470,502 502,502 502,352.5 "
   style="fill:#d8d8e4" />
</g><g
     id="g12">
	<path
   id="path8"
   d="M 59.5,402 H 76 V 303 H 59.5 C 32.162,303 10,325.162 10,352.5 v 0 c 0,27.338 22.162,49.5 49.5,49.5 z"
   style="fill:#4dbaf6"
   inkscape:connector-curvature="0" />
	<path
   id="path10"
   d="M 452.5,402 H 436 v -99 h 16.5 c 27.338,0 49.5,22.162 49.5,49.5 v 0 c 0,27.338 -22.162,49.5 -49.5,49.5 z"
   style="fill:#4dbaf6"
   inkscape:connector-curvature="0" />
</g><path
     id="path14"
     d="m 144.977,10 h 222.046 c 59.647,0 108,48.353 108,108 v 0 c 0,59.647 -48.353,108 -108,108 H 144.977 c -59.647,0 -108,-48.353 -108,-108 v 0 c 0,-59.647 48.354,-108 108,-108 z"
     style="fill:#72d8ff"
     inkscape:connector-curvature="0" /><polyline
     id="polyline16"
     points="216,303 76,303 76,502 436,502 436,303 296,303 "
     style="fill:#d8d8e4" /><circle
     id="circle18"
     r="72"
     cy="118.61"
     cx="150.33"
     style="fill:#ffffff" /><circle
     id="circle20"
     r="28"
     cy="118.61"
     cx="150.33"
     style="fill:#4dbaf6" /><circle
     id="circle22"
     r="72"
     cy="117.39"
     cx="361.67001"
     style="fill:#ffffff" /><circle
     id="circle24"
     r="28"
     cy="117.39"
     cx="361.67001"
     style="fill:#4dbaf6" /><path
     id="path26"
     d="m 256,326 v 0 c -22.091,0 -40,-17.909 -40,-40 v -60 h 80 v 60 c 0,22.091 -17.909,40 -40,40 z"
     style="fill:#b3b6c3"
     inkscape:connector-curvature="0" /><path
     id="path28"
     d="m 389.5,502 h -267 v -97.417 c 0,-20.02 16.23,-36.25 36.25,-36.25 h 194.5 c 20.02,0 36.25,16.23 36.25,36.25 z"
     style="fill:#4dbaf6"
     inkscape:connector-curvature="0" /><g
     id="g36">
	<circle
   id="circle30"
   r="20"
   cy="428"
   cx="256"
   style="fill:#ffffff" />
	<circle
   id="circle32"
   r="20"
   cy="443.57999"
   cx="335.70001"
   style="fill:#ffffff" />
	<circle
   id="circle34"
   r="20"
   cy="443.57999"
   cx="176.3"
   style="fill:#ffffff" />
</g><path
     id="path38"
     d="m 357.26,218.93 c -1.86,1.86 -2.93,4.44 -2.93,7.07 0,2.63 1.07,5.21 2.93,7.07 1.86,1.86 4.44,2.93 7.07,2.93 2.64,0 5.21,-1.07 7.07,-2.93 1.87,-1.86 2.93,-4.44 2.93,-7.07 0,-2.63 -1.06,-5.21 -2.93,-7.07 -1.86,-1.86 -4.43,-2.93 -7.07,-2.93 -2.63,0 -5.21,1.07 -7.07,2.93 z"
     inkscape:connector-curvature="0" /><path
     id="path40"
     d="m 68.326,118.611 c 0,45.215 36.785,82 82,82 45.215,0 82,-36.785 82,-82 0,-45.215 -36.785,-82 -82,-82 -45.215,0 -82,36.785 -82,82 z m 144,0 c 0,34.187 -27.813,62 -62,62 -34.187,0 -62,-27.813 -62,-62 0,-34.187 27.813,-62 62,-62 34.187,0 62,27.813 62,62 z"
     inkscape:connector-curvature="0" /><path
     id="path42"
     d="m 112.326,118.611 c 0,20.953 17.047,38 38,38 20.953,0 38,-17.047 38,-38 0,-5.523 -4.477,-10 -10,-10 -5.523,0 -10,4.477 -10,10 0,9.925 -8.075,18 -18,18 -9.925,0 -18,-8.075 -18,-18 0,-9.925 8.075,-18 18,-18 5.523,0 10,-4.477 10,-10 0,-5.523 -4.477,-10 -10,-10 -20.953,0 -38,17.047 -38,38 z"
     inkscape:connector-curvature="0" /><path
     id="path44"
     d="m 443.674,117.389 c 0,-45.215 -36.785,-82 -82,-82 -45.215,0 -82,36.785 -82,82 0,45.215 36.785,82 82,82 45.215,0 82,-36.785 82,-82 z m -82,62 c -34.187,0 -62,-27.813 -62,-62 0,-34.187 27.813,-62 62,-62 34.187,0 62,27.813 62,62 0,34.187 -27.813,62 -62,62 z"
     inkscape:connector-curvature="0" /><path
     id="path46"
     d="m 361.674,79.389 c -20.953,0 -38,17.047 -38,38 0,5.523 4.477,10 10,10 5.523,0 10,-4.477 10,-10 0,-9.925 8.075,-18 18,-18 9.925,0 18,8.075 18,18 0,9.925 -8.075,18 -18,18 -5.523,0 -10,4.477 -10,10 0,5.523 4.477,10 10,10 20.953,0 38,-17.047 38,-38 0,-20.953 -17.047,-38 -38,-38 z"
     inkscape:connector-curvature="0" /><path
     id="path48"
     d="m 179.57,310.069 c 1.86,-1.859 2.93,-4.439 2.93,-7.069 0,-2.63 -1.07,-5.21 -2.93,-7.07 -1.86,-1.86 -4.44,-2.93 -7.07,-2.93 -2.63,0 -5.21,1.069 -7.07,2.93 -1.86,1.86 -2.93,4.44 -2.93,7.07 0,2.63 1.07,5.21 2.93,7.069 1.86,1.86 4.44,2.931 7.07,2.931 2.63,0 5.21,-1.07 7.07,-2.931 z"
     inkscape:connector-curvature="0" /><path
     id="path50"
     d="m 452.5,293 h -147 c 0.322,-2.289 0.5,-4.624 0.5,-7 v -50 h 15.667 c 5.523,0 10,-4.477 10,-10 0,-5.523 -4.477,-10 -10,-10 h -176.69 c -54.037,0 -98,-43.962 -98,-98 0,-54.038 43.962,-98 98,-98 h 222.046 c 54.037,0 98,43.962 98,98 0,43.236 -27.722,80.865 -68.982,93.636 -5.276,1.633 -8.229,7.233 -6.596,12.509 1.633,5.275 7.232,8.228 12.509,6.596 23.561,-7.292 44.718,-22.233 59.574,-42.071 15.371,-20.524 23.495,-44.961 23.495,-70.67 0,-65.065 -52.935,-118 -118,-118 H 144.977 c -65.065,0 -118,52.935 -118,118 0,65.065 52.935,118 118,118 H 206 v 50 c 0,27.57 22.43,50 50,50 17.629,0 33.144,-9.179 42.05,-23 H 426 v 179 h -26.5 v -87.417 c 0,-25.502 -20.748,-46.25 -46.25,-46.25 h -194.5 c -25.502,0 -46.25,20.748 -46.25,46.25 V 492 H 86 V 313 h 46 c 5.523,0 10,-4.478 10,-10 0,-5.522 -4.477,-10 -10,-10 H 59.5 C 26.691,293 0,319.691 0,352.5 V 502 c 0,5.522 4.477,10 10,10 h 32 c 5.523,0 10,-4.478 10,-10 v -90.489 c 2.459,0.311 4.958,0.489 7.5,0.489 H 66 v 90 c 0,5.522 4.477,10 10,10 h 360 c 5.523,0 10,-4.478 10,-10 v -90 h 6.5 c 2.542,0 5.041,-0.178 7.5,-0.489 V 502 c 0,5.522 4.477,10 10,10 h 32 c 5.523,0 10,-4.478 10,-10 V 352.5 C 512,319.691 485.309,293 452.5,293 Z M 256,316 c -16.542,0 -30,-13.458 -30,-30 v -50 h 60 v 50 c 0,16.542 -13.458,30 -30,30 z M 32,492 H 20 v -95.054 c 3.631,3.23 7.659,6.019 12,8.292 z M 59.5,392 C 37.72,392 20,374.28 20,352.5 20,330.72 37.72,313 59.5,313 H 66 v 79 z m 116.804,61.58 c -5.514,0 -10,-4.486 -10,-10 0,-5.514 4.486,-10 10,-10 5.514,0 10,4.486 10,10 0,5.514 -4.486,10 -10,10 z M 256,438 c -5.514,0 -10,-4.486 -10,-10 0,-5.514 4.486,-10 10,-10 5.514,0 10,4.486 10,10 0,5.514 -4.486,10 -10,10 z m 69.696,5.58 c 0,-5.514 4.486,-10 10,-10 5.514,0 10,4.486 10,10 0,5.514 -4.486,10 -10,10 -5.514,0 -10,-4.486 -10,-10 z M 315.166,492 v -13.735 l 7.613,-7.613 c 3.914,1.875 8.295,2.928 12.918,2.928 16.542,0 30,-13.458 30,-30 0,-16.542 -13.458,-30 -30,-30 -16.542,0 -30,13.458 -30,30 0,4.629 1.055,9.016 2.936,12.934 l -10.537,10.536 c -1.875,1.875 -2.929,4.419 -2.929,7.071 V 492 H 266 v -35.72 c 11.639,-4.128 20,-15.243 20,-28.28 0,-16.542 -13.458,-30 -30,-30 -16.542,0 -30,13.458 -30,30 0,13.036 8.361,24.152 20,28.28 V 492 h -29.166 v -17.878 c 0,-2.652 -1.054,-5.196 -2.929,-7.071 l -10.537,-10.536 c 1.88,-3.919 2.936,-8.306 2.936,-12.934 0,-16.542 -13.458,-30 -30,-30 -16.542,0 -30,13.458 -30,30 0,16.542 13.458,30 30,30 4.622,0 9.003,-1.052 12.918,-2.928 l 7.613,7.613 V 492 H 132.5 v -87.417 c 0,-14.475 11.776,-26.25 26.25,-26.25 h 194.5 c 14.474,0 26.25,11.775 26.25,26.25 V 492 Z M 446,392 v -79 h 6.5 c 21.78,0 39.5,17.72 39.5,39.5 0,21.78 -17.72,39.5 -39.5,39.5 z m 34,100 v -86.762 c 4.341,-2.273 8.369,-5.062 12,-8.292 V 492 Z"
     inkscape:connector-curvature="0" /></g>
<g
   id="g52"
   transform="translate(0,-384)">
</g>
<g
   id="g54"
   transform="translate(0,-384)">
</g>
<g
   id="g56"
   transform="translate(0,-384)">
</g>
<g
   id="g58"
   transform="translate(0,-384)">
</g>
<g
   id="g60"
   transform="translate(0,-384)">
</g>
<g
   id="g62"
   transform="translate(0,-384)">
</g>
<g
   id="g64"
   transform="translate(0,-384)">
</g>
<g
   id="g66"
   transform="translate(0,-384)">
</g>
<g
   id="g68"
   transform="translate(0,-384)">
</g>
<g
   id="g70"
   transform="translate(0,-384)">
</g>
<g
   id="g72"
   transform="translate(0,-384)">
</g>
<g
   id="g74"
   transform="translate(0,-384)">
</g>
<g
   id="g76"
   transform="translate(0,-384)">
</g>
<g
   id="g78"
   transform="translate(0,-384)">
</g>
<g
   id="g80"
   transform="translate(0,-384)">
</g>
</svg>