<?xml version="1.0" encoding="UTF-8" standalone="no"?>
<svg
   xmlns:dc="http://purl.org/dc/elements/1.1/"
   xmlns:cc="http://creativecommons.org/ns#"
   xmlns:rdf="http://www.w3.org/1999/02/22-rdf-syntax-ns#"
   xmlns:svg="http://www.w3.org/2000/svg"
   xmlns="http://www.w3.org/2000/svg"
   xmlns:sodipodi="http://sodipodi.sourceforge.net/DTD/sodipodi-0.dtd"
   xmlns:inkscape="http://www.inkscape.org/namespaces/inkscape"
   aria-hidden="true"
   focusable="false"
   data-prefix="fas"
   data-icon="paragraph"
   class="svg-inline--fa fa-paragraph fa-w-14"
   role="img"
   viewBox="0 0 775 548"
   version="1.1"
   id="svg4"
   sodipodi:docname="Pd2.svg"
   width="775"
   height="548"
   inkscape:version="0.92.4 (5da689c313, 2019-01-14)">
  <metadata
     id="metadata10">
    <rdf:RDF>
      <cc:Work
         rdf:about="">
        <dc:format>image/svg+xml</dc:format>
        <dc:type
           rdf:resource="http://purl.org/dc/dcmitype/StillImage" />
        <dc:title></dc:title>
      </cc:Work>
    </rdf:RDF>
  </metadata>
  <defs
     id="defs8" />
  <sodipodi:namedview
     pagecolor="#ffffff"
     bordercolor="#666666"
     borderopacity="1"
     objecttolerance="10"
     gridtolerance="10"
     guidetolerance="10"
     inkscape:pageopacity="0"
     inkscape:pageshadow="2"
     inkscape:window-width="1876"
     inkscape:window-height="1053"
     id="namedview6"
     showgrid="false"
     fit-margin-left="50"
     fit-margin-right="50"
     fit-margin-bottom="50"
     fit-margin-top="50"
     inkscape:zoom="1.0250825"
     inkscape:cx="605.94276"
     inkscape:cy="310.41786"
     inkscape:window-x="44"
     inkscape:window-y="0"
     inkscape:window-maximized="1"
     inkscape:current-layer="svg4" />
  <path
     d="m 50,66 v 32 a 16,16 0 0 0 16,16 h 48 v 368 a 16,16 0 0 0 16,16 h 32 a 16,16 0 0 0 16,-16 V 114 h 32 v 368 a 16,16 0 0 0 16,16 h 32 a 16,16 0 0 0 16,-16 V 370 h 32 A 160,160 0 0 0 306,50 H 66 A 16,16 0 0 0 50,66 Z"
     id="path2"
     inkscape:connector-curvature="0"
     style="fill:currentColor" />
  <path
     style="fill:currentColor"
     inkscape:connector-curvature="0"
     id="path1402"
     d="M 725,482 V 66 c 0,-8.836556 -7.16344,-16 -16,-16 h -32 c -8.83656,0 -16,7.163444 -16,16 v 112 h -32 c -88.36562,0 -159.99993,71.63444 -159.99993,160 0,88.36556 71.63431,160 159.99993,160 h 80 c 8.83656,0 16,-7.16344 16,-16 z"
     sodipodi:nodetypes="ssssscsssss" />
</svg>
