<?xml version="1.0" encoding="UTF-8" standalone="no"?>
<svg
   xmlns:dc="http://purl.org/dc/elements/1.1/"
   xmlns:cc="http://creativecommons.org/ns#"
   xmlns:rdf="http://www.w3.org/1999/02/22-rdf-syntax-ns#"
   xmlns:svg="http://www.w3.org/2000/svg"
   xmlns="http://www.w3.org/2000/svg"
   xmlns:sodipodi="http://sodipodi.sourceforge.net/DTD/sodipodi-0.dtd"
   xmlns:inkscape="http://www.inkscape.org/namespaces/inkscape"
   version="1.1"
   id="Layer_1"
   x="0px"
   y="0px"
   viewBox="0 0 19.996846 20.000001"
   xml:space="preserve"
   sodipodi:docname="minimize.svg"
   width="19.996845"
   height="20"
   inkscape:version="1.0.1 (3bc2e813f5, 2020-09-07)"><metadata
   id="metadata67"><rdf:RDF><cc:Work
       rdf:about=""><dc:format>image/svg+xml</dc:format><dc:type
         rdf:resource="http://purl.org/dc/dcmitype/StillImage" /><dc:title></dc:title></cc:Work></rdf:RDF></metadata><defs
   id="defs65" /><sodipodi:namedview
   pagecolor="#ffffff"
   bordercolor="#666666"
   borderopacity="1"
   objecttolerance="10"
   gridtolerance="10"
   guidetolerance="10"
   inkscape:pageopacity="0"
   inkscape:pageshadow="2"
   inkscape:window-width="1920"
   inkscape:window-height="1121"
   id="namedview63"
   showgrid="false"
   inkscape:zoom="0.46203162"
   inkscape:cx="148.15259"
   inkscape:cy="467.67834"
   inkscape:window-x="-9"
   inkscape:window-y="41"
   inkscape:window-maximized="1"
   inkscape:current-layer="Layer_1" />
<g
   id="g6"
   transform="matrix(0.05502405,0,0,0.05502405,-0.00155182,-2.5693348e-5)">
	<g
   id="g4">
		<path
   d="m 111.786,15.199 -10.524,-0.008 c -7.64,0 -13.852,6.212 -13.852,13.852 L 87.426,60.363 37.558,10.487 C 37.526,10.463 37.506,10.439 37.486,10.415 L 31.058,3.995 C 25.654,-1.413 16.95,-1.289 11.542,4.119 l -7.436,7.436 c -5.124,5.132 -5.436,13.26 -0.84,18.704 0.128,0.196 0.112,0.408 0.284,0.58 L 61.094,88.395 29.83,88.347 c -7.396,0 -13.82,6.42 -13.82,13.812 v 10.524 c 0,7.648 6.22,13.868 13.864,13.868 h 81.64 c 3.78,0 7.344,-1.592 9.968,-4.272 2.612,-2.596 4.168,-6.088 4.164,-9.86 l 0.004,-83.36 c 0.004,-7.64 -6.216,-13.86 -13.864,-13.86 z"
   id="path2" />
	</g>
</g>
<g
   id="g12"
   transform="matrix(0.05502405,0,0,0.05502405,-0.00155182,-2.5693348e-5)">
	<g
   id="g10">
		<path
   d="m 359.342,332.279 -6.42,-6.42 c -0.024,-0.024 -0.048,-0.048 -0.072,-0.072 l -49.656,-49.656 31.312,0.016 c 7.384,0 13.852,-6.46 13.852,-13.852 l -0.024,-10.544 c 0.008,-7.64 -6.228,-13.876 -13.868,-13.868 l -83.38,-0.032 c -3.688,0.008 -7.196,1.4 -9.824,4.032 l -0.376,0.376 c -2.532,2.54 -3.936,6.048 -3.936,9.728 l 0.048,81.696 c 0,7.648 6.212,13.876 13.856,13.876 l 10.52,0.008 c 7.384,0.008 13.836,-6.444 13.836,-13.836 l -0.048,-31.272 57.328,57.328 c 0.18,0.18 0.5,0.268 0.696,0.4 5.444,4.6 13.688,4.396 18.812,-0.728 l 7.444,-7.444 c 5.4,-5.4 5.316,-14.32 -0.1,-19.736 z"
   id="path8" />
	</g>
</g>
<g
   id="g18"
   transform="matrix(0.05502405,0,0,0.05502405,-0.00155182,-2.5693348e-5)">
	<g
   id="g16">
		<path
   d="m 122.074,242.234 c -2.54,-2.648 -6.08,-4.164 -9.86,-4.164 h -83.36 c -7.64,-0.008 -13.864,6.212 -13.86,13.852 v 10.532 c -0.004,3.688 1.432,7.156 4.06,9.78 2.62,2.628 6.084,4.056 9.776,4.056 l 31.292,-0.024 -49.412,49.408 c -0.024,0.024 -0.04,0.04 -0.064,0.064 l -5.588,5.584 -0.836,0.84 c -5.408,5.408 -5.58,14.476 -0.18,19.876 l 7.444,7.452 c 5.124,5.116 13.412,5.24 18.852,0.648 0.196,-0.132 0.564,-0.296 0.736,-0.468 l 57.084,-57.084 -0.032,31.288 c -0.008,3.684 1.416,7.14 4.036,9.764 2.624,2.62 6.104,4.072 9.792,4.064 l 10.524,0.008 c 3.828,0 7.288,-1.556 9.804,-4.072 2.512,-2.508 4.064,-5.976 4.064,-9.796 v -81.64 c 0,-3.78 -1.516,-7.319 -4.272,-9.968 z"
   id="path14" />
	</g>
</g>
<g
   id="g24"
   transform="matrix(0.05502405,0,0,0.05502405,-0.00155182,-2.5693348e-5)">
	<g
   id="g22">
		<path
   d="M 359.382,11.599 351.93,4.147 c -5.4,-5.4 -14.412,-5.276 -19.82,0.132 l -6.42,6.42 c -0.032,0.024 -0.048,0.048 -0.072,0.072 l -49.728,49.724 0.032,-31.296 c 0,-3.692 -1.416,-7.14 -4.04,-9.756 -2.624,-2.636 -6.108,-4.08 -9.788,-4.072 l -10.532,-0.008 c -7.648,0 -13.864,6.22 -13.864,13.868 l 0.004,83.352 c 0,3.772 1.516,7.312 4.264,9.964 2.556,2.648 6.096,4.172 9.868,4.172 h 81.64 c 3.82,0 7.288,-1.556 9.796,-4.064 2.516,-2.516 4.072,-5.976 4.072,-9.796 v -10.524 c 0,-3.696 -1.44,-7.164 -4.064,-9.788 -2.616,-2.62 -6.084,-4.056 -9.772,-4.056 l -31.288,0.04 57.4,-57.4 c 0.172,-0.18 0.312,-0.516 0.444,-0.712 4.592,-5.444 4.436,-13.704 -0.68,-18.82 z"
   id="path20" />
	</g>
</g>
<g
   id="g30"
   transform="matrix(0.05502405,0,0,0.05502405,-0.00155182,-2.5693348e-5)">
	<g
   id="g28">
		<path
   d="m 208.846,154.495 c -15.004,-14.992 -39.396,-14.992 -54.392,0 -14.996,14.992 -14.996,39.392 0.004,54.392 14.992,14.992 39.392,14.992 54.388,0 14.992,-14.992 14.992,-39.4 0,-54.392 z"
   id="path26" />
	</g>
</g>
<g
   id="g32"
   transform="translate(-0.0282025,-4.6694759e-4)">
</g>
<g
   id="g34"
   transform="translate(-0.0282025,-4.6694759e-4)">
</g>
<g
   id="g36"
   transform="translate(-0.0282025,-4.6694759e-4)">
</g>
<g
   id="g38"
   transform="translate(-0.0282025,-4.6694759e-4)">
</g>
<g
   id="g40"
   transform="translate(-0.0282025,-4.6694759e-4)">
</g>
<g
   id="g42"
   transform="translate(-0.0282025,-4.6694759e-4)">
</g>
<g
   id="g44"
   transform="translate(-0.0282025,-4.6694759e-4)">
</g>
<g
   id="g46"
   transform="translate(-0.0282025,-4.6694759e-4)">
</g>
<g
   id="g48"
   transform="translate(-0.0282025,-4.6694759e-4)">
</g>
<g
   id="g50"
   transform="translate(-0.0282025,-4.6694759e-4)">
</g>
<g
   id="g52"
   transform="translate(-0.0282025,-4.6694759e-4)">
</g>
<g
   id="g54"
   transform="translate(-0.0282025,-4.6694759e-4)">
</g>
<g
   id="g56"
   transform="translate(-0.0282025,-4.6694759e-4)">
</g>
<g
   id="g58"
   transform="translate(-0.0282025,-4.6694759e-4)">
</g>
<g
   id="g60"
   transform="translate(-0.0282025,-4.6694759e-4)">
</g>
</svg>
