<?xml version="1.0" encoding="UTF-8" standalone="no"?>
<svg
   xmlns:dc="http://purl.org/dc/elements/1.1/"
   xmlns:cc="http://creativecommons.org/ns#"
   xmlns:rdf="http://www.w3.org/1999/02/22-rdf-syntax-ns#"
   xmlns:svg="http://www.w3.org/2000/svg"
   xmlns="http://www.w3.org/2000/svg"
   xmlns:sodipodi="http://sodipodi.sourceforge.net/DTD/sodipodi-0.dtd"
   xmlns:inkscape="http://www.inkscape.org/namespaces/inkscape"
   version="1.1"
   id="Capa_1"
   x="0px"
   y="0px"
   viewBox="0 0 22.077745 20.000001"
   xml:space="preserve"
   sodipodi:docname="onenote.svg"
   width="22.077744"
   height="20"
   inkscape:version="1.0.1 (3bc2e813f5, 2020-09-07)"><metadata
   id="metadata67"><rdf:RDF><cc:Work
       rdf:about=""><dc:format>image/svg+xml</dc:format><dc:type
         rdf:resource="http://purl.org/dc/dcmitype/StillImage" /><dc:title></dc:title></cc:Work></rdf:RDF></metadata><defs
   id="defs65" /><sodipodi:namedview
   pagecolor="#ffffff"
   bordercolor="#666666"
   borderopacity="1"
   objecttolerance="10"
   gridtolerance="10"
   guidetolerance="10"
   inkscape:pageopacity="0"
   inkscape:pageshadow="2"
   inkscape:window-width="1920"
   inkscape:window-height="1121"
   id="namedview63"
   showgrid="false"
   fit-margin-top="0"
   fit-margin-left="0"
   fit-margin-right="0"
   fit-margin-bottom="0"
   inkscape:zoom="0.46093662"
   inkscape:cx="170.28773"
   inkscape:cy="144.91151"
   inkscape:window-x="-9"
   inkscape:window-y="41"
   inkscape:window-maximized="1"
   inkscape:current-layer="Capa_1"
   inkscape:document-rotation="0" />


<g
   id="g14"
   transform="matrix(0.0690074,0,0,0.0690074,-6.6271257,-7.6658941)">
	<polygon
   style="fill:#823264"
   points="276.777,400.912 276.777,111.088 96.035,142.798 96.035,369.202 "
   id="polygon6" />
	<polygon
   style="fill:#823264"
   points="399.086,214.395 415.965,214.395 415.965,151.681 399.086,151.681 399.086,142.799 285.57,142.799 285.57,369.202 399.086,369.202 "
   id="polygon8" />
	<rect
   x="405.07999"
   y="223.59"
   style="fill:#823264"
   width="10.888"
   height="62.714001"
   id="rect10" />
	<rect
   x="405.07999"
   y="297.60999"
   style="fill:#823264"
   width="10.888"
   height="62.714001"
   id="rect12" />
</g>
<g
   id="g30"
   transform="matrix(0.0690074,0,0,0.0690074,-6.6271257,-7.6658941)">
	<rect
   x="285.57001"
   y="167.48"
   style="fill:#ffffff"
   width="79.660004"
   height="13.06"
   id="rect16" />
	<rect
   x="285.57001"
   y="200.28"
   style="fill:#ffffff"
   width="79.660004"
   height="13.06"
   id="rect18" />
	<rect
   x="285.57001"
   y="233.07001"
   style="fill:#ffffff"
   width="79.660004"
   height="13.06"
   id="rect20" />
	<rect
   x="285.57001"
   y="265.85999"
   style="fill:#ffffff"
   width="79.660004"
   height="13.06"
   id="rect22" />
	<rect
   x="285.57001"
   y="298.66"
   style="fill:#ffffff"
   width="79.660004"
   height="13.06"
   id="rect24" />
	<rect
   x="285.57001"
   y="331.45001"
   style="fill:#ffffff"
   width="79.660004"
   height="13.06"
   id="rect26" />
	<polygon
   style="fill:#ffffff"
   points="164.237,239.689 205.175,298.659 223.467,298.659 223.467,213.341 205.175,213.341 205.175,272.311 164.237,213.341 145.945,213.341 145.945,298.659 164.237,298.659 "
   id="polygon28" />
</g>
<g
   id="g32"
   transform="translate(-96.035,-111.088)">
</g>
<g
   id="g34"
   transform="translate(-96.035,-111.088)">
</g>
<g
   id="g36"
   transform="translate(-96.035,-111.088)">
</g>
<g
   id="g38"
   transform="translate(-96.035,-111.088)">
</g>
<g
   id="g40"
   transform="translate(-96.035,-111.088)">
</g>
<g
   id="g42"
   transform="translate(-96.035,-111.088)">
</g>
<g
   id="g44"
   transform="translate(-96.035,-111.088)">
</g>
<g
   id="g46"
   transform="translate(-96.035,-111.088)">
</g>
<g
   id="g48"
   transform="translate(-96.035,-111.088)">
</g>
<g
   id="g50"
   transform="translate(-96.035,-111.088)">
</g>
<g
   id="g52"
   transform="translate(-96.035,-111.088)">
</g>
<g
   id="g54"
   transform="translate(-96.035,-111.088)">
</g>
<g
   id="g56"
   transform="translate(-96.035,-111.088)">
</g>
<g
   id="g58"
   transform="translate(-96.035,-111.088)">
</g>
<g
   id="g60"
   transform="translate(-96.035,-111.088)">
</g>
</svg>
