<?xml version="1.0" encoding="UTF-8" standalone="no"?>
<svg
   xmlns:dc="http://purl.org/dc/elements/1.1/"
   xmlns:cc="http://creativecommons.org/ns#"
   xmlns:rdf="http://www.w3.org/1999/02/22-rdf-syntax-ns#"
   xmlns:svg="http://www.w3.org/2000/svg"
   xmlns="http://www.w3.org/2000/svg"
   xmlns:sodipodi="http://sodipodi.sourceforge.net/DTD/sodipodi-0.dtd"
   xmlns:inkscape="http://www.inkscape.org/namespaces/inkscape"
   version="1.1"
   id="Capa_1"
   x="0px"
   y="0px"
   viewBox="0 0 21.332375 20"
   xml:space="preserve"
   sodipodi:docname="outlook.svg"
   width="21.332375"
   height="20"
   inkscape:version="1.0.1 (3bc2e813f5, 2020-09-07)"><metadata
   id="metadata43"><rdf:RDF><cc:Work
       rdf:about=""><dc:format>image/svg+xml</dc:format><dc:type
         rdf:resource="http://purl.org/dc/dcmitype/StillImage" /><dc:title></dc:title></cc:Work></rdf:RDF></metadata><defs
   id="defs41" /><sodipodi:namedview
   pagecolor="#ffffff"
   bordercolor="#666666"
   borderopacity="1"
   objecttolerance="10"
   gridtolerance="10"
   guidetolerance="10"
   inkscape:pageopacity="0"
   inkscape:pageshadow="2"
   inkscape:window-width="1920"
   inkscape:window-height="1121"
   id="namedview39"
   showgrid="false"
   inkscape:zoom="1.8554688"
   inkscape:cx="256"
   inkscape:cy="240.01056"
   inkscape:window-x="-9"
   inkscape:window-y="41"
   inkscape:window-maximized="1"
   inkscape:current-layer="Capa_1" />
<path
   style="fill:#1976d2;stroke-width:0.0416648"
   d="m 20.665738,4.0007181 h -9.332914 c -0.367983,0 -0.666636,0.298654 -0.666636,0.666637 0,0.367984 0.298653,0.666637 0.666636,0.666637 h 7.390335 l -4.095816,3.18519 -2.937201,-1.867916 -0.714635,1.125283 3.333184,2.119905 c 0.107995,0.06933 0.233322,0.1039949 0.357317,0.1039949 0.143993,0 0.28932,-0.04667 0.409315,-0.1399939 l 4.923779,-3.830494 v 8.6369449 h -8.666278 c -0.367983,0 -0.666636,0.298653 -0.666636,0.666637 0,0.367983 0.298653,0.666636 0.666636,0.666636 h 9.332914 c 0.367984,0 0.666637,-0.298653 0.666637,-0.666636 V 4.6673551 c 0,-0.367983 -0.298653,-0.666637 -0.666637,-0.666637 z"
   id="path2" />
<path
   style="fill:#2196f3;stroke-width:0.0416648"
   d="m 11.758139,0.15422508 c -0.151994,-0.126661 -0.355984,-0.181326 -0.547976,-0.141327 L 0.54397557,2.0128081 C 0.22798976,2.0714721 0,2.3461261 0,2.6674451 V 17.333453 c 0,0.319986 0.22798976,0.595973 0.54397557,0.654637 L 11.210163,19.988 c 0.04,0.008 0.08133,0.012 0.122661,0.012 0.15466,0 0.30532,-0.05333 0.425315,-0.153327 0.153326,-0.126661 0.241322,-0.315985 0.241322,-0.51331 V 0.66753508 c 0,-0.198658 -0.088,-0.386649 -0.241322,-0.51331 z"
   id="path4" />
<path
   style="fill:#fafafa;stroke-width:0.0416648"
   d="m 5.9997305,14.666906 c -1.8372508,0 -3.3331836,-1.794586 -3.3331836,-3.99982 0,-2.2052349 1.4959328,-3.9998209 3.3331836,-3.9998209 1.8372508,0 3.3331836,1.794586 3.3331836,3.9998209 0,2.205234 -1.4959328,3.99982 -3.3331836,3.99982 z m 0,-6.6663669 c -1.1026171,0 -1.9999102,1.195946 -1.9999102,2.6665469 0,1.4706 0.8972931,2.666547 1.9999102,2.666547 1.1026171,0 1.9999102,-1.195947 1.9999102,-2.666547 0,-1.4706009 -0.8972931,-2.6665469 -1.9999102,-2.6665469 z"
   id="path6" />
<g
   id="g8"
   transform="matrix(0.0416648,0,0,0.0416648,0,-0.66619692)">
</g>
<g
   id="g10"
   transform="matrix(0.0416648,0,0,0.0416648,0,-0.66619692)">
</g>
<g
   id="g12"
   transform="matrix(0.0416648,0,0,0.0416648,0,-0.66619692)">
</g>
<g
   id="g14"
   transform="matrix(0.0416648,0,0,0.0416648,0,-0.66619692)">
</g>
<g
   id="g16"
   transform="matrix(0.0416648,0,0,0.0416648,0,-0.66619692)">
</g>
<g
   id="g18"
   transform="matrix(0.0416648,0,0,0.0416648,0,-0.66619692)">
</g>
<g
   id="g20"
   transform="matrix(0.0416648,0,0,0.0416648,0,-0.66619692)">
</g>
<g
   id="g22"
   transform="matrix(0.0416648,0,0,0.0416648,0,-0.66619692)">
</g>
<g
   id="g24"
   transform="matrix(0.0416648,0,0,0.0416648,0,-0.66619692)">
</g>
<g
   id="g26"
   transform="matrix(0.0416648,0,0,0.0416648,0,-0.66619692)">
</g>
<g
   id="g28"
   transform="matrix(0.0416648,0,0,0.0416648,0,-0.66619692)">
</g>
<g
   id="g30"
   transform="matrix(0.0416648,0,0,0.0416648,0,-0.66619692)">
</g>
<g
   id="g32"
   transform="matrix(0.0416648,0,0,0.0416648,0,-0.66619692)">
</g>
<g
   id="g34"
   transform="matrix(0.0416648,0,0,0.0416648,0,-0.66619692)">
</g>
<g
   id="g36"
   transform="matrix(0.0416648,0,0,0.0416648,0,-0.66619692)">
</g>
</svg>
