<?xml version="1.0" encoding="UTF-8" standalone="no"?>
<!-- Generator: Adobe Illustrator 19.0.0, SVG Export Plug-In . SVG Version: 6.00 Build 0)  -->

<svg
   xmlns:dc="http://purl.org/dc/elements/1.1/"
   xmlns:cc="http://creativecommons.org/ns#"
   xmlns:rdf="http://www.w3.org/1999/02/22-rdf-syntax-ns#"
   xmlns:svg="http://www.w3.org/2000/svg"
   xmlns="http://www.w3.org/2000/svg"
   xmlns:sodipodi="http://sodipodi.sourceforge.net/DTD/sodipodi-0.dtd"
   xmlns:inkscape="http://www.inkscape.org/namespaces/inkscape"
   version="1.1"
   id="Capa_1"
   x="0px"
   y="0px"
   viewBox="0 0 42.725001 20.000001"
   xml:space="preserve"
   sodipodi:docname="star-2.svg"
   width="42.724998"
   height="20"
   inkscape:version="0.92.4 (5da689c313, 2019-01-14)"><metadata
   id="metadata39"><rdf:RDF><cc:Work
       rdf:about=""><dc:format>image/svg+xml</dc:format><dc:type
         rdf:resource="http://purl.org/dc/dcmitype/StillImage" /><dc:title></dc:title></cc:Work></rdf:RDF></metadata><defs
   id="defs37" /><sodipodi:namedview
   pagecolor="#ffffff"
   bordercolor="#666666"
   borderopacity="1"
   objecttolerance="10"
   gridtolerance="10"
   guidetolerance="10"
   inkscape:pageopacity="0"
   inkscape:pageshadow="2"
   inkscape:window-width="1718"
   inkscape:window-height="1368"
   id="namedview35"
   showgrid="false"
   fit-margin-top="0"
   fit-margin-left="0"
   fit-margin-right="0"
   fit-margin-bottom="0"
   inkscape:zoom="2.4614102"
   inkscape:cx="-166.07505"
   inkscape:cy="0.7133843"
   inkscape:window-x="-7"
   inkscape:window-y="40"
   inkscape:window-maximized="0"
   inkscape:current-layer="Capa_1" />
<path
   style="fill:#ed8a19;stroke-width:0.43623745"
   d="m 11.466235,0.62785515 2.358736,4.77941705 c 0.164026,0.332413 0.48117,0.562746 0.848046,0.615968 l 5.274546,0.766468 c 0.923952,0.134361 1.292572,1.269451 0.624256,1.920753 l -3.816641,3.7202338 c -0.265232,0.258688 -0.386507,0.631672 -0.323688,0.996802 l 0.90083,5.253172 c 0.157918,0.920024 -0.807911,1.621494 -1.634145,1.187438 l -4.717472,-2.48001 c -0.32805,-0.172314 -0.720228,-0.172314 -1.0482783,0 l -4.7174718,2.48001 C 4.3887192,20.302599 3.4228894,19.600693 3.5808074,18.680669 L 4.4816378,13.427497 C 4.544456,13.062367 4.423182,12.689383 4.1579495,12.430695 L 0.34130811,8.7104622 C -0.32700764,8.0587232 0.04161299,6.9236342 0.96556387,6.7897082 L 6.2401109,6.0232402 c 0.3668757,-0.05322 0.6840205,-0.283555 0.8480458,-0.615968 L 9.446892,0.62785515 c 0.4126807,-0.8371402 1.606227,-0.8371402 2.019343,0 z"
   id="path2"
   inkscape:connector-curvature="0" />
<g
   id="g4"
   transform="matrix(0.66666667,0,0,0.66666667,3.9995872,-11.262229)">
</g>
<g
   id="g6"
   transform="matrix(0.66666667,0,0,0.66666667,3.9995872,-11.262229)">
</g>
<g
   id="g8"
   transform="matrix(0.66666667,0,0,0.66666667,3.9995872,-11.262229)">
</g>
<g
   id="g10"
   transform="matrix(0.66666667,0,0,0.66666667,3.9995872,-11.262229)">
</g>
<g
   id="g12"
   transform="matrix(0.66666667,0,0,0.66666667,3.9995872,-11.262229)">
</g>
<g
   id="g14"
   transform="matrix(0.66666667,0,0,0.66666667,3.9995872,-11.262229)">
</g>
<g
   id="g16"
   transform="matrix(0.66666667,0,0,0.66666667,3.9995872,-11.262229)">
</g>
<g
   id="g18"
   transform="matrix(0.66666667,0,0,0.66666667,3.9995872,-11.262229)">
</g>
<g
   id="g20"
   transform="matrix(0.66666667,0,0,0.66666667,3.9995872,-11.262229)">
</g>
<g
   id="g22"
   transform="matrix(0.66666667,0,0,0.66666667,3.9995872,-11.262229)">
</g>
<g
   id="g24"
   transform="matrix(0.66666667,0,0,0.66666667,3.9995872,-11.262229)">
</g>
<g
   id="g26"
   transform="matrix(0.66666667,0,0,0.66666667,3.9995872,-11.262229)">
</g>
<g
   id="g28"
   transform="matrix(0.66666667,0,0,0.66666667,3.9995872,-11.262229)">
</g>
<g
   id="g30"
   transform="matrix(0.66666667,0,0,0.66666667,3.9995872,-11.262229)">
</g>
<g
   id="g32"
   transform="matrix(0.66666667,0,0,0.66666667,3.9995872,-11.262229)">
</g>
<path
   inkscape:connector-curvature="0"
   style="fill:#ed8a19;stroke-width:0.43623745"
   d="m 33.278108,0.62785515 2.358735,4.77941705 c 0.164025,0.332413 0.48117,0.562746 0.848046,0.615968 l 5.274547,0.766468 c 0.92395,0.134361 1.292571,1.269451 0.624256,1.920753 L 38.56705,12.430695 c -0.265232,0.258688 -0.386506,0.631672 -0.323688,0.996802 l 0.90083,5.253172 c 0.157918,0.920024 -0.807912,1.621494 -1.634145,1.187438 l -4.717472,-2.48001 c -0.32805,-0.172314 -0.720228,-0.172314 -1.048278,0 l -4.717472,2.48001 c -0.826234,0.434492 -1.792064,-0.267414 -1.634146,-1.187438 l 0.90083,-5.253172 c 0.06282,-0.36513 -0.05845,-0.738114 -0.323688,-0.996802 L 22.15318,8.7104622 c -0.668316,-0.651739 -0.299695,-1.786828 0.624256,-1.920753 l 5.274547,-0.766469 c 0.366876,-0.05322 0.68402,-0.283555 0.848045,-0.615968 l 2.358736,-4.77941705 c 0.412681,-0.8371402 1.606226,-0.8371402 2.019344,0 z"
   id="path4551" /></svg>