<?xml version="1.0" encoding="UTF-8" standalone="no"?>
<!-- Generator: Adobe Illustrator 19.0.0, SVG Export Plug-In . SVG Version: 6.00 Build 0)  -->

<svg
   xmlns:dc="http://purl.org/dc/elements/1.1/"
   xmlns:cc="http://creativecommons.org/ns#"
   xmlns:rdf="http://www.w3.org/1999/02/22-rdf-syntax-ns#"
   xmlns:svg="http://www.w3.org/2000/svg"
   xmlns="http://www.w3.org/2000/svg"
   xmlns:sodipodi="http://sodipodi.sourceforge.net/DTD/sodipodi-0.dtd"
   xmlns:inkscape="http://www.inkscape.org/namespaces/inkscape"
   version="1.1"
   id="Capa_1"
   x="0px"
   y="0px"
   viewBox="0 0 108.16062 20.000001"
   xml:space="preserve"
   sodipodi:docname="star-5.svg"
   width="108.16062"
   height="20"
   inkscape:version="0.92.4 (5da689c313, 2019-01-14)"><metadata
   id="metadata39"><rdf:RDF><cc:Work
       rdf:about=""><dc:format>image/svg+xml</dc:format><dc:type
         rdf:resource="http://purl.org/dc/dcmitype/StillImage" /><dc:title></dc:title></cc:Work></rdf:RDF></metadata><defs
   id="defs37" /><sodipodi:namedview
   pagecolor="#ffffff"
   bordercolor="#666666"
   borderopacity="1"
   objecttolerance="10"
   gridtolerance="10"
   guidetolerance="10"
   inkscape:pageopacity="0"
   inkscape:pageshadow="2"
   inkscape:window-width="1612"
   inkscape:window-height="658"
   id="namedview35"
   showgrid="false"
   fit-margin-top="0"
   fit-margin-left="0"
   fit-margin-right="0"
   fit-margin-bottom="0"
   inkscape:zoom="1.7404798"
   inkscape:cx="-32.827633"
   inkscape:cy="-14.304879"
   inkscape:window-x="517"
   inkscape:window-y="403"
   inkscape:window-maximized="0"
   inkscape:current-layer="Capa_1" />
<path
   style="fill:#ed8a19;stroke-width:0.43623745"
   d="m 76.901854,0.62785515 2.35874,4.77941705 c 0.16402,0.332413 0.481166,0.562746 0.84804,0.615968 l 5.274546,0.766468 c 0.923954,0.134361 1.292574,1.269451 0.62426,1.920753 L 82.1908,12.430695 c -0.265233,0.258688 -0.386506,0.631672 -0.323693,0.996802 l 0.900833,5.253172 c 0.15792,0.920024 -0.807913,1.621494 -1.634146,1.187438 l -4.717474,-2.48001 c -0.328046,-0.172314 -0.720226,-0.172314 -1.048273,0 l -4.717473,2.48001 c -0.826234,0.434492 -1.792067,-0.267414 -1.634147,-1.187438 l 0.900833,-5.253172 c 0.0628,-0.36513 -0.05847,-0.738114 -0.323693,-0.996802 L 65.776928,8.7104622 c -0.668316,-0.651739 -0.299695,-1.786828 0.624256,-1.920753 l 5.27455,-0.766469 c 0.366873,-0.05322 0.68402,-0.283555 0.84804,-0.615968 l 2.35874,-4.77941705 c 0.41268,-0.8371402 1.606226,-0.8371402 2.01934,0 z"
   id="path2"
   inkscape:connector-curvature="0" />
<g
   id="g4"
   transform="translate(155.99939,-26.893343)">
</g>
<g
   id="g6"
   transform="translate(155.99939,-26.893343)">
</g>
<g
   id="g8"
   transform="translate(155.99939,-26.893343)">
</g>
<g
   id="g10"
   transform="translate(155.99939,-26.893343)">
</g>
<g
   id="g12"
   transform="translate(155.99939,-26.893343)">
</g>
<g
   id="g14"
   transform="translate(155.99939,-26.893343)">
</g>
<g
   id="g16"
   transform="translate(155.99939,-26.893343)">
</g>
<g
   id="g18"
   transform="translate(155.99939,-26.893343)">
</g>
<g
   id="g20"
   transform="translate(155.99939,-26.893343)">
</g>
<g
   id="g22"
   transform="translate(155.99939,-26.893343)">
</g>
<g
   id="g24"
   transform="translate(155.99939,-26.893343)">
</g>
<g
   id="g26"
   transform="translate(155.99939,-26.893343)">
</g>
<g
   id="g28"
   transform="translate(155.99939,-26.893343)">
</g>
<g
   id="g30"
   transform="translate(155.99939,-26.893343)">
</g>
<g
   id="g32"
   transform="translate(155.99939,-26.893343)">
</g>
<path
   id="path4549"
   d="m 55.089983,0.62785515 2.358736,4.77941705 c 0.164025,0.332413 0.48117,0.562746 0.848045,0.615968 l 5.274548,0.766468 c 0.92395,0.134361 1.292571,1.269451 0.624255,1.920753 l -3.816641,3.7202338 c -0.265232,0.258688 -0.386506,0.631672 -0.323688,0.996802 l 0.90083,5.253172 c 0.157918,0.920024 -0.807912,1.621494 -1.634146,1.187438 l -4.717471,-2.48001 c -0.328051,-0.172314 -0.720228,-0.172314 -1.048279,0 l -4.717471,2.48001 c -0.826234,0.434492 -1.792063,-0.267414 -1.634145,-1.187438 l 0.90083,-5.253172 c 0.06282,-0.36513 -0.05845,-0.738114 -0.323688,-0.996802 L 43.965056,8.7104622 c -0.668317,-0.651739 -0.299695,-1.786828 0.624256,-1.920753 l 5.274547,-0.766469 c 0.366875,-0.05322 0.68402,-0.283555 0.848045,-0.615968 L 53.07064,0.62785515 c 0.412681,-0.8371402 1.606226,-0.8371402 2.019343,0 z"
   style="fill:#ed8a19;stroke-width:0.43623745"
   inkscape:connector-curvature="0" /><path
   inkscape:connector-curvature="0"
   style="fill:#ed8a19;stroke-width:0.43623745"
   d="m 98.713727,0.62785515 2.358733,4.77941705 c 0.16403,0.332413 0.48117,0.562746 0.84805,0.615968 l 5.27454,0.766468 c 0.92396,0.134361 1.29258,1.269451 0.62426,1.920753 l -3.81664,3.7202338 c -0.26523,0.258688 -0.38651,0.631672 -0.32369,0.996802 l 0.90083,5.253172 c 0.15792,0.920024 -0.80791,1.621494 -1.63414,1.187438 l -4.717476,-2.48001 c -0.328047,-0.172314 -0.720227,-0.172314 -1.04828,0 l -4.717467,2.48001 C 91.636214,20.302599 90.67038,19.600693 90.8283,18.680669 l 0.900827,-5.253172 c 0.0628,-0.36513 -0.05847,-0.738114 -0.323687,-0.996802 L 87.5888,8.7104622 c -0.668313,-0.651739 -0.299693,-1.786828 0.624254,-1.920753 l 5.274547,-0.766469 c 0.36688,-0.05322 0.68402,-0.283555 0.848046,-0.615968 l 2.35874,-4.77941705 c 0.41268,-0.8371402 1.60622,-0.8371402 2.01934,0 z"
   id="path4551" /><path
   id="path4553"
   d="m 33.278109,0.62785515 2.358736,4.77941705 c 0.164025,0.332413 0.48117,0.562746 0.848045,0.615968 l 5.274548,0.766468 c 0.92395,0.134361 1.292571,1.269451 0.624255,1.920753 l -3.816641,3.7202338 c -0.265232,0.258688 -0.386506,0.631672 -0.323688,0.996802 l 0.90083,5.253172 c 0.157918,0.920024 -0.807912,1.621494 -1.634146,1.187438 l -4.717471,-2.48001 c -0.328051,-0.172314 -0.720228,-0.172314 -1.048279,0 l -4.717471,2.48001 c -0.826234,0.434492 -1.792064,-0.267414 -1.634146,-1.187438 l 0.90083,-5.253172 c 0.06282,-0.36513 -0.05845,-0.738114 -0.323688,-0.996802 L 22.153185,8.7104622 c -0.668316,-0.651739 -0.299696,-1.786828 0.624251,-1.920753 l 5.274549,-0.766469 c 0.366875,-0.05322 0.68402,-0.283555 0.848045,-0.615968 l 2.358736,-4.77941705 c 0.412681,-0.8371402 1.606226,-0.8371402 2.019343,0 z"
   style="fill:#ed8a19;stroke-width:0.43623745"
   inkscape:connector-curvature="0" /><path
   inkscape:connector-curvature="0"
   style="fill:#ed8a19;stroke-width:0.43623745"
   d="m 11.466235,0.62785515 2.358736,4.77941705 c 0.164026,0.332413 0.48117,0.562746 0.848046,0.615968 l 5.274546,0.766468 c 0.923952,0.134361 1.292572,1.269451 0.624256,1.920753 l -3.816641,3.7202338 c -0.265232,0.258688 -0.386507,0.631672 -0.323688,0.996802 l 0.90083,5.253172 c 0.157918,0.920024 -0.807911,1.621494 -1.634145,1.187438 l -4.717472,-2.48001 c -0.32805,-0.172314 -0.720228,-0.172314 -1.0482783,0 l -4.7174718,2.48001 C 4.3887192,20.302599 3.4228894,19.600693 3.5808074,18.680669 L 4.4816378,13.427497 C 4.544456,13.062367 4.423182,12.689383 4.1579495,12.430695 L 0.34130811,8.7104622 C -0.32700764,8.0587232 0.04161299,6.9236342 0.96556387,6.7897082 L 6.2401109,6.0232402 c 0.3668757,-0.05322 0.6840205,-0.283555 0.8480458,-0.615968 L 9.446892,0.62785515 c 0.4126807,-0.8371402 1.606227,-0.8371402 2.019343,0 z"
   id="path4555" /></svg>