<?xml version="1.0" encoding="UTF-8" standalone="no"?>
<!-- Generator: Adobe Illustrator 19.0.0, SVG Export Plug-In . SVG Version: 6.00 Build 0)  -->

<svg
   xmlns:dc="http://purl.org/dc/elements/1.1/"
   xmlns:cc="http://creativecommons.org/ns#"
   xmlns:rdf="http://www.w3.org/1999/02/22-rdf-syntax-ns#"
   xmlns:svg="http://www.w3.org/2000/svg"
   xmlns="http://www.w3.org/2000/svg"
   xmlns:sodipodi="http://sodipodi.sourceforge.net/DTD/sodipodi-0.dtd"
   xmlns:inkscape="http://www.inkscape.org/namespaces/inkscape"
   version="1.1"
   id="Capa_1"
   x="0px"
   y="0px"
   viewBox="0 0 20.913129 20.000001"
   xml:space="preserve"
   sodipodi:docname="star-1.svg"
   inkscape:version="0.92.4 (5da689c313, 2019-01-14)"
   width="20.913128"
   height="20"><metadata
   id="metadata39"><rdf:RDF><cc:Work
       rdf:about=""><dc:format>image/svg+xml</dc:format><dc:type
         rdf:resource="http://purl.org/dc/dcmitype/StillImage" /><dc:title></dc:title></cc:Work></rdf:RDF></metadata><defs
   id="defs37" /><sodipodi:namedview
   pagecolor="#ffffff"
   bordercolor="#666666"
   borderopacity="1"
   objecttolerance="10"
   gridtolerance="10"
   guidetolerance="10"
   inkscape:pageopacity="0"
   inkscape:pageshadow="2"
   inkscape:window-width="1718"
   inkscape:window-height="1368"
   id="namedview35"
   showgrid="false"
   inkscape:zoom="4.9228203"
   inkscape:cx="-16.454592"
   inkscape:cy="22.923345"
   inkscape:window-x="-7"
   inkscape:window-y="40"
   inkscape:window-maximized="0"
   inkscape:current-layer="Capa_1"
   fit-margin-top="0"
   fit-margin-left="0"
   fit-margin-right="0"
   fit-margin-bottom="0" />
<path
   style="fill:#ed8a19;stroke-width:0.43623745"
   d="m 11.466235,0.62785515 2.358736,4.77941705 c 0.164025,0.332413 0.48117,0.562746 0.848045,0.615967 l 5.274547,0.766469 c 0.923951,0.134362 1.292572,1.269452 0.624256,1.920754 l -3.816641,3.7202328 c -0.265232,0.258688 -0.386506,0.631671 -0.323688,0.996802 l 0.90083,5.253171 c 0.157918,0.920025 -0.807912,1.621495 -1.634146,1.187439 l -4.717471,-2.48001 c -0.328051,-0.172314 -0.720228,-0.172314 -1.0482786,0 l -4.7174718,2.48001 C 4.3887189,20.302599 3.4228892,19.600693 3.5808072,18.680668 L 4.4816375,13.427497 C 4.5444557,13.062366 4.4231817,12.689383 4.1579494,12.430695 L 0.3413081,8.7104622 C -0.32700763,8.0587232 0.04161299,6.9236342 0.96556384,6.7897081 L 6.2401106,6.0232392 c 0.3668756,-0.05322 0.6840205,-0.283554 0.8480459,-0.615967 L 9.4468917,0.62785515 c 0.4126807,-0.8371402 1.6062263,-0.8371402 2.0193433,0 z"
   id="path2"
   inkscape:connector-curvature="0" />
<g
   id="g4"
   transform="matrix(0.66666665,0,0,0.66666665,-4.0619441e-4,-11.262228)">
</g>
<g
   id="g6"
   transform="matrix(0.66666665,0,0,0.66666665,-4.0619441e-4,-11.262228)">
</g>
<g
   id="g8"
   transform="matrix(0.66666665,0,0,0.66666665,-4.0619441e-4,-11.262228)">
</g>
<g
   id="g10"
   transform="matrix(0.66666665,0,0,0.66666665,-4.0619441e-4,-11.262228)">
</g>
<g
   id="g12"
   transform="matrix(0.66666665,0,0,0.66666665,-4.0619441e-4,-11.262228)">
</g>
<g
   id="g14"
   transform="matrix(0.66666665,0,0,0.66666665,-4.0619441e-4,-11.262228)">
</g>
<g
   id="g16"
   transform="matrix(0.66666665,0,0,0.66666665,-4.0619441e-4,-11.262228)">
</g>
<g
   id="g18"
   transform="matrix(0.66666665,0,0,0.66666665,-4.0619441e-4,-11.262228)">
</g>
<g
   id="g20"
   transform="matrix(0.66666665,0,0,0.66666665,-4.0619441e-4,-11.262228)">
</g>
<g
   id="g22"
   transform="matrix(0.66666665,0,0,0.66666665,-4.0619441e-4,-11.262228)">
</g>
<g
   id="g24"
   transform="matrix(0.66666665,0,0,0.66666665,-4.0619441e-4,-11.262228)">
</g>
<g
   id="g26"
   transform="matrix(0.66666665,0,0,0.66666665,-4.0619441e-4,-11.262228)">
</g>
<g
   id="g28"
   transform="matrix(0.66666665,0,0,0.66666665,-4.0619441e-4,-11.262228)">
</g>
<g
   id="g30"
   transform="matrix(0.66666665,0,0,0.66666665,-4.0619441e-4,-11.262228)">
</g>
<g
   id="g32"
   transform="matrix(0.66666665,0,0,0.66666665,-4.0619441e-4,-11.262228)">
</g>
</svg>