<?xml version="1.0" encoding="UTF-8" standalone="no"?>
<!-- Generator: Adobe Illustrator 19.0.0, SVG Export Plug-In . SVG Version: 6.00 Build 0)  -->

<svg
   xmlns:dc="http://purl.org/dc/elements/1.1/"
   xmlns:cc="http://creativecommons.org/ns#"
   xmlns:rdf="http://www.w3.org/1999/02/22-rdf-syntax-ns#"
   xmlns:svg="http://www.w3.org/2000/svg"
   xmlns="http://www.w3.org/2000/svg"
   xmlns:sodipodi="http://sodipodi.sourceforge.net/DTD/sodipodi-0.dtd"
   xmlns:inkscape="http://www.inkscape.org/namespaces/inkscape"
   version="1.1"
   id="Capa_1"
   x="0px"
   y="0px"
   viewBox="0 0 86.348749 20.000001"
   xml:space="preserve"
   sodipodi:docname="star-4.svg"
   width="86.348747"
   height="20"
   inkscape:version="0.92.4 (5da689c313, 2019-01-14)"><metadata
   id="metadata39"><rdf:RDF><cc:Work
       rdf:about=""><dc:format>image/svg+xml</dc:format><dc:type
         rdf:resource="http://purl.org/dc/dcmitype/StillImage" /><dc:title></dc:title></cc:Work></rdf:RDF></metadata><defs
   id="defs37" /><sodipodi:namedview
   pagecolor="#ffffff"
   bordercolor="#666666"
   borderopacity="1"
   objecttolerance="10"
   gridtolerance="10"
   guidetolerance="10"
   inkscape:pageopacity="0"
   inkscape:pageshadow="2"
   inkscape:window-width="1612"
   inkscape:window-height="658"
   id="namedview35"
   showgrid="false"
   fit-margin-top="0"
   fit-margin-left="0"
   fit-margin-right="0"
   fit-margin-bottom="0"
   inkscape:zoom="2.4614102"
   inkscape:cx="-25.898667"
   inkscape:cy="0.7133843"
   inkscape:window-x="517"
   inkscape:window-y="403"
   inkscape:window-maximized="0"
   inkscape:current-layer="Capa_1" />
<path
   style="fill:#ed8a19;stroke-width:0.43623745"
   d="m 55.089979,0.62785515 2.358736,4.77941705 c 0.164025,0.332413 0.481169,0.562746 0.848045,0.615968 l 5.274547,0.766468 c 0.923951,0.134361 1.292572,1.269451 0.624256,1.920753 l -3.816641,3.7202338 c -0.265233,0.258688 -0.386507,0.631672 -0.323688,0.996802 l 0.90083,5.253172 c 0.157918,0.920024 -0.807912,1.621494 -1.634146,1.187438 l -4.717472,-2.48001 c -0.32805,-0.172314 -0.720228,-0.172314 -1.048278,0 l -4.717472,2.48001 c -0.826233,0.434492 -1.792063,-0.267414 -1.634145,-1.187438 l 0.90083,-5.253172 c 0.06282,-0.36513 -0.05845,-0.738114 -0.323688,-0.996802 L 43.965052,8.7104622 c -0.668316,-0.651739 -0.299695,-1.786828 0.624256,-1.920753 l 5.274546,-0.766469 c 0.366876,-0.05322 0.684021,-0.283555 0.848046,-0.615968 l 2.358736,-4.77941705 c 0.41268,-0.8371402 1.606226,-0.8371402 2.019343,0 z"
   id="path2"
   inkscape:connector-curvature="0" />
<g
   id="g4"
   transform="matrix(0.66666667,0,0,0.66666667,70.666254,-11.262229)">
</g>
<g
   id="g6"
   transform="matrix(0.66666667,0,0,0.66666667,70.666254,-11.262229)">
</g>
<g
   id="g8"
   transform="matrix(0.66666667,0,0,0.66666667,70.666254,-11.262229)">
</g>
<g
   id="g10"
   transform="matrix(0.66666667,0,0,0.66666667,70.666254,-11.262229)">
</g>
<g
   id="g12"
   transform="matrix(0.66666667,0,0,0.66666667,70.666254,-11.262229)">
</g>
<g
   id="g14"
   transform="matrix(0.66666667,0,0,0.66666667,70.666254,-11.262229)">
</g>
<g
   id="g16"
   transform="matrix(0.66666667,0,0,0.66666667,70.666254,-11.262229)">
</g>
<g
   id="g18"
   transform="matrix(0.66666667,0,0,0.66666667,70.666254,-11.262229)">
</g>
<g
   id="g20"
   transform="matrix(0.66666667,0,0,0.66666667,70.666254,-11.262229)">
</g>
<g
   id="g22"
   transform="matrix(0.66666667,0,0,0.66666667,70.666254,-11.262229)">
</g>
<g
   id="g24"
   transform="matrix(0.66666667,0,0,0.66666667,70.666254,-11.262229)">
</g>
<g
   id="g26"
   transform="matrix(0.66666667,0,0,0.66666667,70.666254,-11.262229)">
</g>
<g
   id="g28"
   transform="matrix(0.66666667,0,0,0.66666667,70.666254,-11.262229)">
</g>
<g
   id="g30"
   transform="matrix(0.66666667,0,0,0.66666667,70.666254,-11.262229)">
</g>
<g
   id="g32"
   transform="matrix(0.66666667,0,0,0.66666667,70.666254,-11.262229)">
</g>
<path
   id="path4549"
   d="m 33.278107,0.62785515 2.358736,4.77941705 c 0.164025,0.332413 0.48117,0.562746 0.848045,0.615968 l 5.274547,0.766468 c 0.923951,0.134361 1.292572,1.269451 0.624256,1.920753 L 38.56705,12.430695 c -0.265232,0.258688 -0.386506,0.631672 -0.323688,0.996802 l 0.90083,5.253172 c 0.157918,0.920024 -0.807912,1.621494 -1.634146,1.187438 l -4.717471,-2.48001 c -0.328051,-0.172314 -0.720228,-0.172314 -1.048279,0 l -4.717472,2.48001 c -0.826233,0.434492 -1.792063,-0.267414 -1.634145,-1.187438 l 0.90083,-5.253172 c 0.06282,-0.36513 -0.05845,-0.738114 -0.323688,-0.996802 L 22.153179,8.7104622 c -0.668316,-0.651739 -0.299694,-1.786828 0.624256,-1.920753 l 5.274547,-0.766469 c 0.366876,-0.05322 0.684021,-0.283555 0.848046,-0.615968 l 2.358736,-4.77941705 c 0.41268,-0.8371402 1.606226,-0.8371402 2.019343,0 z"
   style="fill:#ed8a19;stroke-width:0.43623745"
   inkscape:connector-curvature="0" /><path
   inkscape:connector-curvature="0"
   style="fill:#ed8a19;stroke-width:0.43623745"
   d="m 76.901854,0.62785515 2.358733,4.77941705 c 0.164027,0.332413 0.481167,0.562746 0.848047,0.615968 l 5.274546,0.766468 c 0.923947,0.134361 1.292574,1.269451 0.624254,1.920753 l -3.81664,3.7202338 c -0.265234,0.258688 -0.386507,0.631672 -0.323687,0.996802 l 0.900827,5.253172 c 0.15792,0.920024 -0.807907,1.621494 -1.634147,1.187438 l -4.717467,-2.48001 c -0.328053,-0.172314 -0.720226,-0.172314 -1.04828,0 l -4.717473,2.48001 c -0.826233,0.434492 -1.79206,-0.267414 -1.634147,-1.187438 l 0.900834,-5.253172 c 0.0628,-0.36513 -0.05847,-0.738114 -0.323687,-0.996802 L 65.776924,8.7104622 c -0.668316,-0.651739 -0.299696,-1.786828 0.624256,-1.920753 l 5.274547,-0.766469 c 0.366873,-0.05322 0.68402,-0.283555 0.848047,-0.615968 l 2.358733,-4.77941705 c 0.41268,-0.8371402 1.606227,-0.8371402 2.019347,0 z"
   id="path4551" /><path
   id="path4553"
   d="m 11.466233,0.62785515 2.358736,4.77941705 c 0.164025,0.332413 0.48117,0.562746 0.848045,0.615968 l 5.274547,0.766468 c 0.923951,0.134361 1.292572,1.269451 0.624256,1.920753 l -3.816642,3.7202338 c -0.265232,0.258688 -0.386506,0.631672 -0.323688,0.996802 l 0.90083,5.253172 c 0.157918,0.920024 -0.807911,1.621494 -1.634145,1.187438 l -4.717471,-2.48001 c -0.328051,-0.172314 -0.720228,-0.172314 -1.0482789,0 l -4.7174718,2.48001 C 4.3887166,20.302599 3.422887,19.600693 3.5808049,18.680669 L 4.4816352,13.427497 C 4.5444534,13.062367 4.4231794,12.689383 4.157947,12.430695 L 0.34130831,8.7104622 C -0.32700745,8.0587232 0.04161319,6.9236342 0.96555967,6.7897082 L 6.2401083,6.0232402 C 6.606984,5.9700182 6.9241287,5.7396852 7.088154,5.4072722 L 9.4468894,0.62785515 c 0.4126807,-0.8371402 1.6062266,-0.8371402 2.0193436,0 z"
   style="fill:#ed8a19;stroke-width:0.43623745"
   inkscape:connector-curvature="0" /></svg>