<?xml version="1.0" encoding="UTF-8" standalone="no"?>
<!-- Generator: Adobe Illustrator 19.0.0, SVG Export Plug-In . SVG Version: 6.00 Build 0)  -->

<svg
   xmlns:dc="http://purl.org/dc/elements/1.1/"
   xmlns:cc="http://creativecommons.org/ns#"
   xmlns:rdf="http://www.w3.org/1999/02/22-rdf-syntax-ns#"
   xmlns:svg="http://www.w3.org/2000/svg"
   xmlns="http://www.w3.org/2000/svg"
   xmlns:sodipodi="http://sodipodi.sourceforge.net/DTD/sodipodi-0.dtd"
   xmlns:inkscape="http://www.inkscape.org/namespaces/inkscape"
   version="1.1"
   id="Capa_1"
   x="0px"
   y="0px"
   viewBox="0 0 64.536878 20"
   xml:space="preserve"
   sodipodi:docname="star-3.svg"
   width="64.536873"
   height="20"
   inkscape:version="0.92.4 (5da689c313, 2019-01-14)"><metadata
   id="metadata39"><rdf:RDF><cc:Work
       rdf:about=""><dc:format>image/svg+xml</dc:format><dc:type
         rdf:resource="http://purl.org/dc/dcmitype/StillImage" /><dc:title></dc:title></cc:Work></rdf:RDF></metadata><defs
   id="defs37" /><sodipodi:namedview
   pagecolor="#ffffff"
   bordercolor="#666666"
   borderopacity="1"
   objecttolerance="10"
   gridtolerance="10"
   guidetolerance="10"
   inkscape:pageopacity="0"
   inkscape:pageshadow="2"
   inkscape:window-width="1612"
   inkscape:window-height="590"
   id="namedview35"
   showgrid="false"
   fit-margin-top="0"
   fit-margin-left="0"
   fit-margin-right="0"
   fit-margin-bottom="0"
   inkscape:zoom="0.61535255"
   inkscape:cx="-226.98381"
   inkscape:cy="-75.206575"
   inkscape:window-x="1169"
   inkscape:window-y="402"
   inkscape:window-maximized="0"
   inkscape:current-layer="Capa_1" />
<path
   style="fill:#ed8a19;stroke-width:0.43623745"
   d="m 33.278108,0.62785493 2.358735,4.77941697 c 0.164025,0.332413 0.48117,0.562746 0.848046,0.615967 l 5.274547,0.766469 c 0.923951,0.134361 1.292571,1.269451 0.624255,1.920753 L 38.56705,12.430694 c -0.265232,0.258689 -0.386506,0.631672 -0.323688,0.996803 l 0.900831,5.253171 c 0.157918,0.920025 -0.807913,1.621495 -1.634147,1.187439 l -4.717471,-2.480011 c -0.32805,-0.172313 -0.720228,-0.172313 -1.048279,0 l -4.717471,2.480011 c -0.826234,0.434492 -1.792063,-0.267414 -1.634145,-1.187439 l 0.90083,-5.253171 c 0.06282,-0.365131 -0.05845,-0.738114 -0.323688,-0.996803 L 22.153181,8.7104609 c -0.668317,-0.651738 -0.299696,-1.786828 0.624255,-1.920753 l 5.274547,-0.766469 c 0.366875,-0.05322 0.68402,-0.283554 0.848046,-0.615967 l 2.358736,-4.77941697 c 0.41268,-0.8371399 1.606226,-0.8371399 2.019343,0 z"
   id="path2"
   inkscape:connector-curvature="0" />
<g
   id="g4"
   transform="translate(55.999382,-26.893343)">
</g>
<g
   id="g6"
   transform="translate(55.999382,-26.893343)">
</g>
<g
   id="g8"
   transform="translate(55.999382,-26.893343)">
</g>
<g
   id="g10"
   transform="translate(55.999382,-26.893343)">
</g>
<g
   id="g12"
   transform="translate(55.999382,-26.893343)">
</g>
<g
   id="g14"
   transform="translate(55.999382,-26.893343)">
</g>
<g
   id="g16"
   transform="translate(55.999382,-26.893343)">
</g>
<g
   id="g18"
   transform="translate(55.999382,-26.893343)">
</g>
<g
   id="g20"
   transform="translate(55.999382,-26.893343)">
</g>
<g
   id="g22"
   transform="translate(55.999382,-26.893343)">
</g>
<g
   id="g24"
   transform="translate(55.999382,-26.893343)">
</g>
<g
   id="g26"
   transform="translate(55.999382,-26.893343)">
</g>
<g
   id="g28"
   transform="translate(55.999382,-26.893343)">
</g>
<g
   id="g30"
   transform="translate(55.999382,-26.893343)">
</g>
<g
   id="g32"
   transform="translate(55.999382,-26.893343)">
</g>
<path
   id="path4549"
   d="m 11.466236,0.62785493 2.358735,4.77941697 c 0.164026,0.332413 0.481171,0.562746 0.848046,0.615967 l 5.274547,0.766469 c 0.923951,0.134361 1.292572,1.269451 0.624256,1.920753 l -3.816641,3.7202331 c -0.265233,0.258689 -0.386507,0.631672 -0.323689,0.996803 l 0.900831,5.253171 c 0.157918,0.920025 -0.807912,1.621495 -1.634146,1.187439 l -4.717471,-2.480011 c -0.328052,-0.172313 -0.720229,-0.172313 -1.0482794,0 L 5.2149534,19.868107 C 4.3887196,20.302599 3.4228899,19.600693 3.5808078,18.680668 L 4.4816382,13.427497 C 4.5444564,13.062366 4.4231824,12.689383 4.15795,12.430694 L 0.3413087,8.7104609 C -0.32700836,8.0587229 0.04161358,6.9236329 0.96556446,6.7897079 L 6.2401113,6.0232389 C 6.606987,5.9700189 6.9241316,5.7396849 7.0881568,5.4072719 L 9.4468924,0.62785493 c 0.412681,-0.8371399 1.6062266,-0.8371399 2.0193436,0 z"
   style="fill:#ed8a19;stroke-width:0.43623745"
   inkscape:connector-curvature="0" /><path
   inkscape:connector-curvature="0"
   style="fill:#ed8a19;stroke-width:0.43623745"
   d="m 55.089979,0.62785493 2.358736,4.77941697 c 0.164025,0.332413 0.481169,0.562746 0.848045,0.615967 l 5.274547,0.766469 c 0.923951,0.134361 1.292571,1.269451 0.624256,1.920753 l -3.816641,3.7202331 c -0.265234,0.258689 -0.386507,0.631672 -0.323689,0.996803 l 0.90083,5.253171 c 0.157918,0.920025 -0.807912,1.621495 -1.634145,1.187439 l -4.717472,-2.480011 c -0.32805,-0.172313 -0.720228,-0.172313 -1.048278,0 l -4.717472,2.480011 c -0.826234,0.434492 -1.792063,-0.267414 -1.634145,-1.187439 l 0.90083,-5.253171 c 0.06282,-0.365131 -0.05845,-0.738114 -0.323689,-0.996803 L 43.965051,8.7104609 c -0.668314,-0.651738 -0.299694,-1.786828 0.624257,-1.920753 l 5.274546,-0.766469 c 0.366876,-0.05322 0.68402,-0.283554 0.848045,-0.615967 l 2.358736,-4.77941697 c 0.412681,-0.8371399 1.606227,-0.8371399 2.019344,0 z"
   id="path4551" /></svg>