<?xml version="1.0" encoding="UTF-8" standalone="no"?>
<!-- Generator: Adobe Illustrator 19.0.0, SVG Export Plug-In . SVG Version: 6.00 Build 0)  -->

<svg
   xmlns:dc="http://purl.org/dc/elements/1.1/"
   xmlns:cc="http://creativecommons.org/ns#"
   xmlns:rdf="http://www.w3.org/1999/02/22-rdf-syntax-ns#"
   xmlns:svg="http://www.w3.org/2000/svg"
   xmlns="http://www.w3.org/2000/svg"
   xmlns:sodipodi="http://sodipodi.sourceforge.net/DTD/sodipodi-0.dtd"
   xmlns:inkscape="http://www.inkscape.org/namespaces/inkscape"
   version="1.1"
   id="Capa_1"
   x="0px"
   y="0px"
   viewBox="0 0 20.913128 20.000001"
   xml:space="preserve"
   sodipodi:docname="star.svg"
   width="20.913128"
   height="20"
   inkscape:version="0.92.4 (5da689c313, 2019-01-14)"><metadata
   id="metadata39"><rdf:RDF><cc:Work
       rdf:about=""><dc:format>image/svg+xml</dc:format><dc:type
         rdf:resource="http://purl.org/dc/dcmitype/StillImage" /><dc:title></dc:title></cc:Work></rdf:RDF></metadata><defs
   id="defs37" /><sodipodi:namedview
   pagecolor="#ffffff"
   bordercolor="#666666"
   borderopacity="1"
   objecttolerance="10"
   gridtolerance="10"
   guidetolerance="10"
   inkscape:pageopacity="0"
   inkscape:pageshadow="2"
   inkscape:window-width="789"
   inkscape:window-height="480"
   id="namedview35"
   showgrid="false"
   fit-margin-top="0"
   fit-margin-left="0"
   fit-margin-right="0"
   fit-margin-bottom="0"
   inkscape:zoom="4.9228203"
   inkscape:cx="23.96939"
   inkscape:cy="22.923343"
   inkscape:window-x="129"
   inkscape:window-y="227"
   inkscape:window-maximized="0"
   inkscape:current-layer="Capa_1" />
<path
   style="fill:#ed8a19;stroke-width:0.43623742"
   d="m 11.466236,0.62785425 2.358735,4.77941795 c 0.164026,0.3324131 0.48117,0.562746 0.848046,0.615967 l 5.274547,0.766469 c 0.923951,0.134361 1.292571,1.269451 0.624256,1.920753 l -3.816642,3.7202328 c -0.265232,0.258689 -0.386506,0.631672 -0.323688,0.996803 l 0.90083,5.253171 c 0.157918,0.920025 -0.807911,1.621495 -1.634145,1.187438 l -4.717472,-2.480009 c -0.32805,-0.172314 -0.720228,-0.172314 -1.0482786,0 L 5.2149528,19.868106 C 4.388719,20.302599 3.4228894,19.600693 3.5808073,18.680668 L 4.4816376,13.427497 C 4.5444558,13.062366 4.4231818,12.689383 4.1579494,12.430694 L 0.34130811,8.7104612 C -0.32700764,8.0587233 0.04161299,6.9236332 0.96556388,6.7897082 L 6.2401107,6.0232392 C 6.6069864,5.9700192 6.924131,5.7396852 7.0881563,5.4072722 L 9.4468921,0.62785425 c 0.4126806,-0.837139 1.6062269,-0.837139 2.0193439,0 z"
   id="path2"
   inkscape:connector-curvature="0" />
<g
   id="g4"
   transform="translate(-6.0929592e-4,-26.893343)">
</g>
<g
   id="g6"
   transform="translate(-6.0929592e-4,-26.893343)">
</g>
<g
   id="g8"
   transform="translate(-6.0929592e-4,-26.893343)">
</g>
<g
   id="g10"
   transform="translate(-6.0929592e-4,-26.893343)">
</g>
<g
   id="g12"
   transform="translate(-6.0929592e-4,-26.893343)">
</g>
<g
   id="g14"
   transform="translate(-6.0929592e-4,-26.893343)">
</g>
<g
   id="g16"
   transform="translate(-6.0929592e-4,-26.893343)">
</g>
<g
   id="g18"
   transform="translate(-6.0929592e-4,-26.893343)">
</g>
<g
   id="g20"
   transform="translate(-6.0929592e-4,-26.893343)">
</g>
<g
   id="g22"
   transform="translate(-6.0929592e-4,-26.893343)">
</g>
<g
   id="g24"
   transform="translate(-6.0929592e-4,-26.893343)">
</g>
<g
   id="g26"
   transform="translate(-6.0929592e-4,-26.893343)">
</g>
<g
   id="g28"
   transform="translate(-6.0929592e-4,-26.893343)">
</g>
<g
   id="g30"
   transform="translate(-6.0929592e-4,-26.893343)">
</g>
<g
   id="g32"
   transform="translate(-6.0929592e-4,-26.893343)">
</g>
</svg>