<?xml version="1.0" encoding="UTF-8" standalone="no"?>
<!-- Generator: Adobe Illustrator 19.0.0, SVG Export Plug-In . SVG Version: 6.00 Build 0)  -->

<svg
   xmlns:dc="http://purl.org/dc/elements/1.1/"
   xmlns:cc="http://creativecommons.org/ns#"
   xmlns:rdf="http://www.w3.org/1999/02/22-rdf-syntax-ns#"
   xmlns:svg="http://www.w3.org/2000/svg"
   xmlns="http://www.w3.org/2000/svg"
   xmlns:sodipodi="http://sodipodi.sourceforge.net/DTD/sodipodi-0.dtd"
   xmlns:inkscape="http://www.inkscape.org/namespaces/inkscape"
   version="1.1"
   id="Layer_1"
   x="0px"
   y="0px"
   viewBox="0 0 30.526161 20"
   xml:space="preserve"
   sodipodi:docname="usa.svg"
   width="30.526161"
   height="20"
   inkscape:version="0.92.4 (5da689c313, 2019-01-14)"><metadata
   id="metadata141"><rdf:RDF><cc:Work
       rdf:about=""><dc:format>image/svg+xml</dc:format><dc:type
         rdf:resource="http://purl.org/dc/dcmitype/StillImage" /><dc:title></dc:title></cc:Work></rdf:RDF></metadata><defs
   id="defs139" /><sodipodi:namedview
   pagecolor="#ffffff"
   bordercolor="#666666"
   borderopacity="1"
   objecttolerance="10"
   gridtolerance="10"
   guidetolerance="10"
   inkscape:pageopacity="0"
   inkscape:pageshadow="2"
   inkscape:window-width="789"
   inkscape:window-height="480"
   id="namedview137"
   showgrid="false"
   fit-margin-top="0"
   fit-margin-left="0"
   fit-margin-right="0"
   fit-margin-bottom="0"
   inkscape:zoom="1.3037281"
   inkscape:cx="29.880791"
   inkscape:cy="6.7071466"
   inkscape:window-x="665"
   inkscape:window-y="355"
   inkscape:window-maximized="0"
   inkscape:current-layer="Layer_1" />
<path
   style="fill:#f5f5f5;stroke-width:0.05962141"
   d="M 28.239976,6e-5 H 2.2861827 C 1.0235207,6e-5 0,1.02358 0,2.28624 V 17.71382 C 0,18.97642 1.0235207,20 2.2861827,20 H 28.239976 c 1.262603,0 2.286183,-1.02352 2.286183,-2.28618 V 2.28624 C 30.526159,1.02358 29.502638,6e-5 28.239976,6e-5 Z"
   id="path2"
   inkscape:connector-curvature="0" />
<g
   id="g18"
   transform="matrix(0.05962141,0,0,0.05962141,0,-5.26308)">
	<path
   style="fill:#ff4b55"
   d="M 2.109,114.08 H 509.89 C 504.694,99.063 490.438,88.276 473.655,88.276 H 38.345 c -16.784,0 -31.039,10.787 -36.236,25.804 z"
   id="path4"
   inkscape:connector-curvature="0" />
	<rect
   y="191.49001"
   style="fill:#ff4b55"
   width="512"
   height="25.802999"
   id="rect6"
   x="0" />
	<rect
   y="139.88"
   style="fill:#ff4b55"
   width="512"
   height="25.802999"
   id="rect8"
   x="0" />
	<path
   style="fill:#ff4b55"
   d="m 0,260.074 c 0,4.875 3.953,8.828 8.828,8.828 H 512 V 243.098 H 0 Z"
   id="path10"
   inkscape:connector-curvature="0" />
	<rect
   y="346.32001"
   style="fill:#ff4b55"
   width="512"
   height="25.804001"
   id="rect12"
   x="0" />
	<path
   style="fill:#ff4b55"
   d="M 509.891,397.92 H 2.109 c 5.197,15.017 19.453,25.804 36.236,25.804 h 435.31 c 16.784,0 31.039,-10.787 36.236,-25.804 z"
   id="path14"
   inkscape:connector-curvature="0" />
	<rect
   y="294.70999"
   style="fill:#ff4b55"
   width="512"
   height="25.802999"
   id="rect16"
   x="0" />
</g>
<path
   style="fill:#41479b;stroke-width:0.05962141"
   d="M 0.52633775,10.769233 H 13.684185 c 0.290655,0 0.526338,-0.23568 0.526338,-0.526333 V 0.52634 C 14.210523,0.235627 13.97484,0 13.684185,0 H 2.2861827 C 1.0235207,6e-5 0,1.02358 0,2.28624 v 7.95666 c 0,0.290713 0.23568341,0.526333 0.52633775,0.526333 z"
   id="path20"
   inkscape:connector-curvature="0" />
<g
   id="g104"
   transform="matrix(0.05962141,0,0,0.05962141,0,-5.26308)">
	<path
   style="fill:#f5f5f5"
   d="m 24.789,108.537 1.954,5.86 6.177,0.047 c 0.8,0.007 1.131,1.027 0.488,1.502 l -4.969,3.669 1.864,5.889 c 0.242,0.762 -0.627,1.394 -1.278,0.928 L 24,122.841 l -5.025,3.592 c -0.651,0.466 -1.518,-0.166 -1.278,-0.928 l 1.864,-5.889 -4.969,-3.669 c -0.643,-0.476 -0.312,-1.496 0.488,-1.502 l 6.177,-0.047 1.954,-5.86 c 0.252,-0.76 1.324,-0.76 1.578,-10e-4 z"
   id="path22"
   inkscape:connector-curvature="0" />
	<path
   style="fill:#f5f5f5"
   d="m 24.789,139.191 1.954,5.86 6.177,0.047 c 0.8,0.007 1.131,1.026 0.488,1.502 l -4.969,3.67 1.864,5.889 c 0.242,0.762 -0.627,1.394 -1.278,0.928 L 24,153.496 l -5.025,3.592 c -0.651,0.465 -1.518,-0.166 -1.278,-0.928 l 1.864,-5.889 -4.969,-3.67 c -0.643,-0.476 -0.312,-1.495 0.488,-1.502 l 6.177,-0.047 1.954,-5.86 c 0.252,-0.759 1.324,-0.759 1.578,-0.001 z"
   id="path24"
   inkscape:connector-curvature="0" />
	<path
   style="fill:#f5f5f5"
   d="m 24.789,169.846 1.954,5.86 6.177,0.047 c 0.8,0.007 1.131,1.026 0.488,1.502 l -4.969,3.67 1.864,5.889 c 0.242,0.762 -0.627,1.394 -1.278,0.928 L 24,184.151 l -5.025,3.592 c -0.651,0.465 -1.518,-0.165 -1.278,-0.928 l 1.864,-5.889 -4.969,-3.67 c -0.643,-0.476 -0.312,-1.495 0.488,-1.502 l 6.177,-0.047 1.954,-5.86 c 0.252,-0.76 1.324,-0.76 1.578,-0.001 z"
   id="path26"
   inkscape:connector-curvature="0" />
	<path
   style="fill:#f5f5f5"
   d="m 24.789,200.5 1.954,5.86 6.177,0.047 c 0.8,0.007 1.131,1.027 0.488,1.502 l -4.969,3.67 1.864,5.889 c 0.242,0.762 -0.627,1.394 -1.278,0.928 L 24,214.805 l -5.025,3.592 c -0.651,0.465 -1.518,-0.166 -1.278,-0.928 l 1.864,-5.889 -4.969,-3.67 c -0.643,-0.474 -0.312,-1.495 0.488,-1.502 l 6.177,-0.047 1.954,-5.86 c 0.252,-0.76 1.324,-0.76 1.578,-0.001 z"
   id="path28"
   inkscape:connector-curvature="0" />
	<path
   style="fill:#f5f5f5"
   d="m 24.789,231.154 1.954,5.86 6.177,0.047 c 0.8,0.007 1.131,1.026 0.488,1.502 l -4.969,3.67 1.864,5.889 c 0.242,0.762 -0.627,1.394 -1.278,0.928 L 24,245.459 l -5.025,3.592 c -0.651,0.465 -1.518,-0.166 -1.278,-0.928 l 1.864,-5.889 -4.969,-3.67 c -0.643,-0.476 -0.312,-1.495 0.488,-1.502 l 6.177,-0.047 1.954,-5.86 c 0.252,-0.759 1.324,-0.759 1.578,-0.001 z"
   id="path30"
   inkscape:connector-curvature="0" />
	<path
   style="fill:#f5f5f5"
   d="m 48.582,123.566 1.954,5.86 6.177,0.047 c 0.8,0.007 1.131,1.027 0.488,1.502 l -4.969,3.67 1.864,5.889 c 0.242,0.762 -0.627,1.394 -1.278,0.928 l -5.025,-3.592 -5.025,3.592 c -0.651,0.465 -1.518,-0.166 -1.278,-0.928 l 1.864,-5.889 -4.969,-3.67 c -0.643,-0.476 -0.312,-1.495 0.488,-1.502 l 6.177,-0.047 1.954,-5.86 c 0.252,-0.758 1.325,-0.758 1.578,0 z"
   id="path32"
   inkscape:connector-curvature="0" />
	<path
   style="fill:#f5f5f5"
   d="m 48.582,154.221 1.954,5.86 6.177,0.047 c 0.8,0.007 1.131,1.027 0.488,1.502 l -4.969,3.67 1.864,5.889 c 0.242,0.762 -0.627,1.394 -1.278,0.928 l -5.025,-3.592 -5.025,3.592 c -0.651,0.465 -1.518,-0.165 -1.278,-0.928 l 1.864,-5.889 -4.969,-3.67 c -0.643,-0.474 -0.312,-1.495 0.488,-1.502 l 6.177,-0.047 1.954,-5.86 c 0.252,-0.759 1.325,-0.759 1.578,0 z"
   id="path34"
   inkscape:connector-curvature="0" />
	<path
   style="fill:#f5f5f5"
   d="m 48.582,184.875 1.954,5.86 6.177,0.047 c 0.8,0.007 1.131,1.026 0.488,1.502 l -4.969,3.67 1.864,5.889 c 0.242,0.762 -0.627,1.394 -1.278,0.928 l -5.025,-3.592 -5.025,3.592 c -0.651,0.465 -1.518,-0.166 -1.278,-0.928 l 1.864,-5.889 -4.969,-3.67 c -0.643,-0.476 -0.312,-1.495 0.488,-1.502 l 6.177,-0.047 1.954,-5.86 c 0.252,-0.759 1.325,-0.759 1.578,0 z"
   id="path36"
   inkscape:connector-curvature="0" />
	<path
   style="fill:#f5f5f5"
   d="m 48.582,215.529 1.954,5.86 6.177,0.047 c 0.8,0.007 1.131,1.026 0.488,1.502 l -4.969,3.67 1.864,5.889 c 0.242,0.762 -0.627,1.394 -1.278,0.928 l -5.025,-3.592 -5.025,3.592 c -0.651,0.466 -1.518,-0.166 -1.278,-0.928 l 1.864,-5.889 -4.969,-3.67 c -0.643,-0.476 -0.312,-1.495 0.488,-1.502 l 6.177,-0.047 1.954,-5.86 c 0.252,-0.758 1.325,-0.758 1.578,0 z"
   id="path38"
   inkscape:connector-curvature="0" />
	<path
   style="fill:#f5f5f5"
   d="m 72.375,108.537 1.954,5.86 6.177,0.047 c 0.8,0.007 1.131,1.027 0.488,1.502 l -4.969,3.669 1.864,5.889 c 0.242,0.762 -0.627,1.394 -1.278,0.928 l -5.025,-3.592 -5.025,3.592 c -0.651,0.466 -1.518,-0.166 -1.278,-0.928 l 1.864,-5.889 -4.969,-3.669 c -0.643,-0.476 -0.312,-1.496 0.488,-1.502 l 6.177,-0.047 1.954,-5.86 c 0.252,-0.759 1.325,-0.759 1.578,0 z"
   id="path40"
   inkscape:connector-curvature="0" />
	<path
   style="fill:#f5f5f5"
   d="m 72.375,139.191 1.954,5.86 6.177,0.047 c 0.8,0.007 1.131,1.026 0.488,1.502 l -4.969,3.67 1.864,5.889 c 0.242,0.762 -0.627,1.394 -1.278,0.928 l -5.025,-3.592 -5.025,3.592 c -0.651,0.465 -1.518,-0.166 -1.278,-0.928 l 1.864,-5.889 -4.969,-3.67 c -0.643,-0.476 -0.312,-1.495 0.488,-1.502 l 6.177,-0.047 1.954,-5.86 c 0.252,-0.758 1.325,-0.758 1.578,0 z"
   id="path42"
   inkscape:connector-curvature="0" />
	<path
   style="fill:#f5f5f5"
   d="m 72.375,169.846 1.954,5.86 6.177,0.047 c 0.8,0.007 1.131,1.026 0.488,1.502 l -4.969,3.67 1.864,5.889 c 0.242,0.762 -0.627,1.394 -1.278,0.928 l -5.025,-3.592 -5.025,3.592 c -0.651,0.465 -1.518,-0.165 -1.278,-0.928 l 1.864,-5.889 -4.969,-3.67 c -0.643,-0.476 -0.312,-1.495 0.488,-1.502 l 6.177,-0.047 1.954,-5.86 c 0.252,-0.759 1.325,-0.759 1.578,0 z"
   id="path44"
   inkscape:connector-curvature="0" />
	<path
   style="fill:#f5f5f5"
   d="m 72.375,200.5 1.954,5.86 6.177,0.047 c 0.8,0.007 1.131,1.027 0.488,1.502 l -4.969,3.67 1.864,5.889 c 0.242,0.762 -0.627,1.394 -1.278,0.928 l -5.025,-3.592 -5.025,3.592 c -0.651,0.465 -1.518,-0.166 -1.278,-0.928 l 1.864,-5.889 -4.969,-3.67 c -0.643,-0.474 -0.312,-1.495 0.488,-1.502 l 6.177,-0.047 1.954,-5.86 c 0.252,-0.759 1.325,-0.759 1.578,0 z"
   id="path46"
   inkscape:connector-curvature="0" />
	<path
   style="fill:#f5f5f5"
   d="m 72.375,231.154 1.954,5.86 6.177,0.047 c 0.8,0.007 1.131,1.026 0.488,1.502 l -4.969,3.67 1.864,5.889 c 0.242,0.762 -0.627,1.394 -1.278,0.928 l -5.025,-3.592 -5.025,3.592 c -0.651,0.465 -1.518,-0.166 -1.278,-0.928 l 1.864,-5.889 -4.969,-3.67 c -0.643,-0.476 -0.312,-1.495 0.488,-1.502 l 6.177,-0.047 1.954,-5.86 c 0.252,-0.758 1.325,-0.758 1.578,0 z"
   id="path48"
   inkscape:connector-curvature="0" />
	<path
   style="fill:#f5f5f5"
   d="m 96.169,123.566 1.954,5.86 6.177,0.047 c 0.8,0.007 1.131,1.027 0.488,1.502 l -4.969,3.67 1.864,5.889 c 0.242,0.762 -0.627,1.394 -1.278,0.928 l -5.025,-3.592 -5.025,3.592 c -0.651,0.465 -1.518,-0.166 -1.278,-0.928 l 1.864,-5.889 -4.969,-3.67 c -0.643,-0.476 -0.312,-1.495 0.488,-1.502 l 6.177,-0.047 1.954,-5.86 c 0.251,-0.758 1.325,-0.758 1.578,0 z"
   id="path50"
   inkscape:connector-curvature="0" />
	<path
   style="fill:#f5f5f5"
   d="m 96.169,154.221 1.954,5.86 6.177,0.047 c 0.8,0.007 1.131,1.027 0.488,1.502 l -4.969,3.67 1.864,5.889 c 0.242,0.762 -0.627,1.394 -1.278,0.928 l -5.025,-3.592 -5.025,3.592 c -0.651,0.465 -1.518,-0.165 -1.278,-0.928 l 1.864,-5.889 -4.969,-3.67 c -0.643,-0.474 -0.312,-1.495 0.488,-1.502 l 6.177,-0.047 1.954,-5.86 c 0.251,-0.759 1.325,-0.759 1.578,0 z"
   id="path52"
   inkscape:connector-curvature="0" />
	<path
   style="fill:#f5f5f5"
   d="m 96.169,184.875 1.954,5.86 6.177,0.047 c 0.8,0.007 1.131,1.026 0.488,1.502 l -4.969,3.67 1.864,5.889 c 0.242,0.762 -0.627,1.394 -1.278,0.928 l -5.025,-3.592 -5.025,3.592 c -0.651,0.465 -1.518,-0.166 -1.278,-0.928 l 1.864,-5.889 -4.969,-3.67 c -0.643,-0.476 -0.312,-1.495 0.488,-1.502 l 6.177,-0.047 1.954,-5.86 c 0.251,-0.759 1.325,-0.759 1.578,0 z"
   id="path54"
   inkscape:connector-curvature="0" />
	<path
   style="fill:#f5f5f5"
   d="m 96.169,215.529 1.954,5.86 6.177,0.047 c 0.8,0.007 1.131,1.026 0.488,1.502 l -4.969,3.67 1.864,5.889 c 0.242,0.762 -0.627,1.394 -1.278,0.928 l -5.025,-3.592 -5.025,3.592 c -0.651,0.466 -1.518,-0.166 -1.278,-0.928 l 1.864,-5.889 -4.969,-3.67 c -0.643,-0.476 -0.312,-1.495 0.488,-1.502 l 6.177,-0.047 1.954,-5.86 c 0.251,-0.758 1.325,-0.758 1.578,0 z"
   id="path56"
   inkscape:connector-curvature="0" />
	<path
   style="fill:#f5f5f5"
   d="m 119.962,108.537 1.954,5.86 6.177,0.047 c 0.8,0.007 1.131,1.027 0.488,1.502 l -4.969,3.669 1.864,5.889 c 0.242,0.762 -0.627,1.394 -1.278,0.928 l -5.026,-3.591 -5.025,3.592 c -0.651,0.466 -1.518,-0.166 -1.278,-0.928 l 1.864,-5.889 -4.969,-3.669 c -0.643,-0.476 -0.312,-1.496 0.488,-1.502 l 6.177,-0.047 1.954,-5.86 c 0.253,-0.76 1.326,-0.76 1.579,-10e-4 z"
   id="path58"
   inkscape:connector-curvature="0" />
	<path
   style="fill:#f5f5f5"
   d="m 119.962,139.191 1.954,5.86 6.177,0.047 c 0.8,0.007 1.131,1.026 0.488,1.502 l -4.969,3.67 1.864,5.889 c 0.242,0.762 -0.627,1.394 -1.278,0.928 l -5.026,-3.592 -5.025,3.592 c -0.651,0.465 -1.518,-0.166 -1.278,-0.928 l 1.864,-5.889 -4.969,-3.67 c -0.643,-0.476 -0.312,-1.495 0.488,-1.502 l 6.177,-0.047 1.954,-5.86 c 0.253,-0.758 1.326,-0.758 1.579,0 z"
   id="path60"
   inkscape:connector-curvature="0" />
	<path
   style="fill:#f5f5f5"
   d="m 119.962,169.846 1.954,5.86 6.177,0.047 c 0.8,0.007 1.131,1.026 0.488,1.502 l -4.969,3.67 1.864,5.889 c 0.242,0.762 -0.627,1.394 -1.278,0.928 l -5.026,-3.593 -5.025,3.592 c -0.651,0.465 -1.518,-0.166 -1.278,-0.928 l 1.864,-5.889 -4.969,-3.67 c -0.643,-0.476 -0.312,-1.495 0.488,-1.502 l 6.177,-0.047 1.954,-5.86 c 0.253,-0.758 1.326,-0.758 1.579,0.001 z"
   id="path62"
   inkscape:connector-curvature="0" />
	<path
   style="fill:#f5f5f5"
   d="m 119.962,200.5 1.954,5.86 6.177,0.047 c 0.8,0.007 1.131,1.027 0.488,1.502 l -4.969,3.67 1.864,5.889 c 0.242,0.762 -0.627,1.394 -1.278,0.928 l -5.026,-3.592 -5.025,3.592 c -0.651,0.465 -1.518,-0.166 -1.278,-0.928 l 1.864,-5.889 -4.969,-3.67 c -0.643,-0.474 -0.312,-1.495 0.488,-1.502 l 6.177,-0.047 1.954,-5.86 c 0.253,-0.759 1.326,-0.759 1.579,0 z"
   id="path64"
   inkscape:connector-curvature="0" />
	<path
   style="fill:#f5f5f5"
   d="m 119.962,231.154 1.954,5.86 6.177,0.047 c 0.8,0.007 1.131,1.026 0.488,1.502 l -4.969,3.67 1.864,5.889 c 0.242,0.762 -0.627,1.394 -1.278,0.928 l -5.026,-3.592 -5.025,3.592 c -0.651,0.465 -1.518,-0.166 -1.278,-0.928 l 1.864,-5.889 -4.969,-3.67 c -0.643,-0.476 -0.312,-1.495 0.488,-1.502 l 6.177,-0.047 1.954,-5.86 c 0.253,-0.758 1.326,-0.758 1.579,0 z"
   id="path66"
   inkscape:connector-curvature="0" />
	<path
   style="fill:#f5f5f5"
   d="m 143.755,123.566 1.954,5.86 6.177,0.047 c 0.8,0.007 1.131,1.027 0.488,1.502 l -4.969,3.67 1.864,5.889 c 0.242,0.762 -0.627,1.394 -1.278,0.928 l -5.025,-3.592 -5.025,3.592 c -0.651,0.465 -1.518,-0.166 -1.278,-0.928 l 1.864,-5.889 -4.969,-3.67 c -0.643,-0.476 -0.312,-1.495 0.488,-1.502 l 6.177,-0.047 1.954,-5.86 c 0.253,-0.758 1.325,-0.758 1.578,0 z"
   id="path68"
   inkscape:connector-curvature="0" />
	<path
   style="fill:#f5f5f5"
   d="m 143.755,154.221 1.954,5.86 6.177,0.047 c 0.8,0.007 1.131,1.027 0.488,1.502 l -4.969,3.67 1.864,5.889 c 0.242,0.762 -0.627,1.394 -1.278,0.928 l -5.025,-3.592 -5.025,3.592 c -0.651,0.465 -1.518,-0.165 -1.278,-0.928 l 1.864,-5.889 -4.969,-3.67 c -0.643,-0.474 -0.312,-1.495 0.488,-1.502 l 6.177,-0.047 1.954,-5.86 c 0.253,-0.759 1.325,-0.759 1.578,0 z"
   id="path70"
   inkscape:connector-curvature="0" />
	<path
   style="fill:#f5f5f5"
   d="m 143.755,184.875 1.954,5.86 6.177,0.047 c 0.8,0.007 1.131,1.026 0.488,1.502 l -4.969,3.67 1.864,5.889 c 0.242,0.762 -0.627,1.394 -1.278,0.928 l -5.025,-3.592 -5.025,3.592 c -0.651,0.465 -1.518,-0.166 -1.278,-0.928 l 1.864,-5.889 -4.969,-3.67 c -0.643,-0.476 -0.312,-1.495 0.488,-1.502 l 6.177,-0.047 1.954,-5.86 c 0.253,-0.759 1.325,-0.759 1.578,0 z"
   id="path72"
   inkscape:connector-curvature="0" />
	<path
   style="fill:#f5f5f5"
   d="m 143.755,215.529 1.954,5.86 6.177,0.047 c 0.8,0.007 1.131,1.026 0.488,1.502 l -4.969,3.67 1.864,5.889 c 0.242,0.762 -0.627,1.394 -1.278,0.928 l -5.025,-3.592 -5.025,3.592 c -0.651,0.466 -1.518,-0.166 -1.278,-0.928 l 1.864,-5.889 -4.969,-3.67 c -0.643,-0.476 -0.312,-1.495 0.488,-1.502 l 6.177,-0.047 1.954,-5.86 c 0.253,-0.758 1.325,-0.758 1.578,0 z"
   id="path74"
   inkscape:connector-curvature="0" />
	<path
   style="fill:#f5f5f5"
   d="m 167.549,108.537 1.954,5.86 6.177,0.047 c 0.8,0.007 1.131,1.027 0.488,1.502 l -4.969,3.669 1.864,5.889 c 0.242,0.762 -0.627,1.394 -1.278,0.928 l -5.025,-3.592 -5.025,3.592 c -0.651,0.466 -1.518,-0.166 -1.278,-0.928 l 1.864,-5.889 -4.969,-3.669 c -0.643,-0.476 -0.312,-1.496 0.488,-1.502 l 6.177,-0.047 1.954,-5.86 c 0.251,-0.759 1.325,-0.759 1.578,0 z"
   id="path76"
   inkscape:connector-curvature="0" />
	<path
   style="fill:#f5f5f5"
   d="m 167.549,139.191 1.954,5.86 6.177,0.047 c 0.8,0.007 1.131,1.026 0.488,1.502 l -4.969,3.67 1.864,5.889 c 0.242,0.762 -0.627,1.394 -1.278,0.928 l -5.025,-3.592 -5.025,3.592 c -0.651,0.465 -1.518,-0.166 -1.278,-0.928 l 1.864,-5.889 -4.969,-3.67 c -0.643,-0.476 -0.312,-1.495 0.488,-1.502 l 6.177,-0.047 1.954,-5.86 c 0.251,-0.758 1.325,-0.758 1.578,0 z"
   id="path78"
   inkscape:connector-curvature="0" />
	<path
   style="fill:#f5f5f5"
   d="m 167.549,169.846 1.954,5.86 6.177,0.047 c 0.8,0.007 1.131,1.026 0.488,1.502 l -4.969,3.67 1.864,5.889 c 0.242,0.762 -0.627,1.394 -1.278,0.928 l -5.025,-3.592 -5.025,3.592 c -0.651,0.465 -1.518,-0.165 -1.278,-0.928 l 1.864,-5.889 -4.969,-3.67 c -0.643,-0.476 -0.312,-1.495 0.488,-1.502 l 6.177,-0.047 1.954,-5.86 c 0.251,-0.759 1.325,-0.759 1.578,0 z"
   id="path80"
   inkscape:connector-curvature="0" />
	<path
   style="fill:#f5f5f5"
   d="m 167.549,200.5 1.954,5.86 6.177,0.047 c 0.8,0.007 1.131,1.027 0.488,1.502 l -4.969,3.67 1.864,5.889 c 0.242,0.762 -0.627,1.394 -1.278,0.928 l -5.025,-3.592 -5.025,3.592 c -0.651,0.465 -1.518,-0.166 -1.278,-0.928 l 1.864,-5.889 -4.969,-3.67 c -0.643,-0.474 -0.312,-1.495 0.488,-1.502 l 6.177,-0.047 1.954,-5.86 c 0.251,-0.759 1.325,-0.759 1.578,0 z"
   id="path82"
   inkscape:connector-curvature="0" />
	<path
   style="fill:#f5f5f5"
   d="m 167.549,231.154 1.954,5.86 6.177,0.047 c 0.8,0.007 1.131,1.026 0.488,1.502 l -4.969,3.67 1.864,5.889 c 0.242,0.762 -0.627,1.394 -1.278,0.928 l -5.025,-3.592 -5.025,3.592 c -0.651,0.465 -1.518,-0.166 -1.278,-0.928 l 1.864,-5.889 -4.969,-3.67 c -0.643,-0.476 -0.312,-1.495 0.488,-1.502 l 6.177,-0.047 1.954,-5.86 c 0.251,-0.758 1.325,-0.758 1.578,0 z"
   id="path84"
   inkscape:connector-curvature="0" />
	<path
   style="fill:#f5f5f5"
   d="m 191.342,123.566 1.954,5.86 6.177,0.047 c 0.8,0.007 1.131,1.027 0.488,1.502 l -4.969,3.67 1.864,5.889 c 0.242,0.762 -0.627,1.394 -1.278,0.928 l -5.025,-3.592 -5.025,3.592 c -0.651,0.465 -1.518,-0.166 -1.278,-0.928 l 1.864,-5.889 -4.969,-3.67 c -0.643,-0.476 -0.312,-1.495 0.488,-1.502 l 6.177,-0.047 1.954,-5.86 c 0.252,-0.758 1.325,-0.758 1.578,0 z"
   id="path86"
   inkscape:connector-curvature="0" />
	<path
   style="fill:#f5f5f5"
   d="m 191.342,154.221 1.954,5.86 6.177,0.047 c 0.8,0.007 1.131,1.027 0.488,1.502 l -4.969,3.67 1.864,5.889 c 0.242,0.762 -0.627,1.394 -1.278,0.928 l -5.025,-3.592 -5.025,3.592 c -0.651,0.465 -1.518,-0.165 -1.278,-0.928 l 1.864,-5.889 -4.969,-3.67 c -0.643,-0.474 -0.312,-1.495 0.488,-1.502 l 6.177,-0.047 1.954,-5.86 c 0.252,-0.759 1.325,-0.759 1.578,0 z"
   id="path88"
   inkscape:connector-curvature="0" />
	<path
   style="fill:#f5f5f5"
   d="m 191.342,184.875 1.954,5.86 6.177,0.047 c 0.8,0.007 1.131,1.026 0.488,1.502 l -4.969,3.67 1.864,5.889 c 0.242,0.762 -0.627,1.394 -1.278,0.928 l -5.025,-3.592 -5.025,3.592 c -0.651,0.465 -1.518,-0.166 -1.278,-0.928 l 1.864,-5.889 -4.969,-3.67 c -0.643,-0.476 -0.312,-1.495 0.488,-1.502 l 6.177,-0.047 1.954,-5.86 c 0.252,-0.759 1.325,-0.759 1.578,0 z"
   id="path90"
   inkscape:connector-curvature="0" />
	<path
   style="fill:#f5f5f5"
   d="m 191.342,215.529 1.954,5.86 6.177,0.047 c 0.8,0.007 1.131,1.026 0.488,1.502 l -4.969,3.67 1.864,5.889 c 0.242,0.762 -0.627,1.394 -1.278,0.928 l -5.025,-3.592 -5.025,3.592 c -0.651,0.466 -1.518,-0.166 -1.278,-0.928 l 1.864,-5.889 -4.969,-3.67 c -0.643,-0.476 -0.312,-1.495 0.488,-1.502 l 6.177,-0.047 1.954,-5.86 c 0.252,-0.758 1.325,-0.758 1.578,0 z"
   id="path92"
   inkscape:connector-curvature="0" />
	<path
   style="fill:#f5f5f5"
   d="m 215.136,108.537 1.954,5.86 6.177,0.047 c 0.8,0.007 1.131,1.027 0.488,1.502 l -4.969,3.669 1.864,5.889 c 0.242,0.762 -0.627,1.394 -1.278,0.928 l -5.025,-3.592 -5.025,3.592 c -0.651,0.466 -1.518,-0.166 -1.278,-0.928 l 1.864,-5.889 -4.969,-3.669 c -0.643,-0.476 -0.312,-1.496 0.488,-1.502 l 6.177,-0.047 1.954,-5.86 c 0.252,-0.759 1.324,-0.759 1.578,0 z"
   id="path94"
   inkscape:connector-curvature="0" />
	<path
   style="fill:#f5f5f5"
   d="m 215.136,139.191 1.954,5.86 6.177,0.047 c 0.8,0.007 1.131,1.026 0.488,1.502 l -4.969,3.67 1.864,5.889 c 0.242,0.762 -0.627,1.394 -1.278,0.928 l -5.025,-3.592 -5.025,3.592 c -0.651,0.465 -1.518,-0.166 -1.278,-0.928 l 1.864,-5.889 -4.969,-3.67 c -0.643,-0.476 -0.312,-1.495 0.488,-1.502 l 6.177,-0.047 1.954,-5.86 c 0.252,-0.758 1.324,-0.758 1.578,0 z"
   id="path96"
   inkscape:connector-curvature="0" />
	<path
   style="fill:#f5f5f5"
   d="m 215.136,169.846 1.954,5.86 6.177,0.047 c 0.8,0.007 1.131,1.026 0.488,1.502 l -4.969,3.67 1.864,5.889 c 0.242,0.762 -0.627,1.394 -1.278,0.928 l -5.025,-3.592 -5.025,3.592 c -0.651,0.465 -1.518,-0.165 -1.278,-0.928 l 1.864,-5.889 -4.969,-3.67 c -0.643,-0.476 -0.312,-1.495 0.488,-1.502 l 6.177,-0.047 1.954,-5.86 c 0.252,-0.759 1.324,-0.759 1.578,0 z"
   id="path98"
   inkscape:connector-curvature="0" />
	<path
   style="fill:#f5f5f5"
   d="m 215.136,200.5 1.954,5.86 6.177,0.047 c 0.8,0.007 1.131,1.027 0.488,1.502 l -4.969,3.67 1.864,5.889 c 0.242,0.762 -0.627,1.394 -1.278,0.928 l -5.025,-3.592 -5.025,3.592 c -0.651,0.465 -1.518,-0.166 -1.278,-0.928 l 1.864,-5.889 -4.969,-3.67 c -0.643,-0.474 -0.312,-1.495 0.488,-1.502 l 6.177,-0.047 1.954,-5.86 c 0.252,-0.759 1.324,-0.759 1.578,0 z"
   id="path100"
   inkscape:connector-curvature="0" />
	<path
   style="fill:#f5f5f5"
   d="m 215.136,231.154 1.954,5.86 6.177,0.047 c 0.8,0.007 1.131,1.026 0.488,1.502 l -4.969,3.67 1.864,5.889 c 0.242,0.762 -0.627,1.394 -1.278,0.928 l -5.025,-3.592 -5.025,3.592 c -0.651,0.465 -1.518,-0.166 -1.278,-0.928 l 1.864,-5.889 -4.969,-3.67 c -0.643,-0.476 -0.312,-1.495 0.488,-1.502 l 6.177,-0.047 1.954,-5.86 c 0.252,-0.758 1.324,-0.758 1.578,0 z"
   id="path102"
   inkscape:connector-curvature="0" />
</g>
<g
   id="g106"
   transform="translate(0,-403.725)">
</g>
<g
   id="g108"
   transform="translate(0,-403.725)">
</g>
<g
   id="g110"
   transform="translate(0,-403.725)">
</g>
<g
   id="g112"
   transform="translate(0,-403.725)">
</g>
<g
   id="g114"
   transform="translate(0,-403.725)">
</g>
<g
   id="g116"
   transform="translate(0,-403.725)">
</g>
<g
   id="g118"
   transform="translate(0,-403.725)">
</g>
<g
   id="g120"
   transform="translate(0,-403.725)">
</g>
<g
   id="g122"
   transform="translate(0,-403.725)">
</g>
<g
   id="g124"
   transform="translate(0,-403.725)">
</g>
<g
   id="g126"
   transform="translate(0,-403.725)">
</g>
<g
   id="g128"
   transform="translate(0,-403.725)">
</g>
<g
   id="g130"
   transform="translate(0,-403.725)">
</g>
<g
   id="g132"
   transform="translate(0,-403.725)">
</g>
<g
   id="g134"
   transform="translate(0,-403.725)">
</g>
</svg>