<?xml version="1.0" encoding="UTF-8" standalone="no"?>
<svg
   xmlns:dc="http://purl.org/dc/elements/1.1/"
   xmlns:cc="http://creativecommons.org/ns#"
   xmlns:rdf="http://www.w3.org/1999/02/22-rdf-syntax-ns#"
   xmlns:svg="http://www.w3.org/2000/svg"
   xmlns="http://www.w3.org/2000/svg"
   xmlns:sodipodi="http://sodipodi.sourceforge.net/DTD/sodipodi-0.dtd"
   xmlns:inkscape="http://www.inkscape.org/namespaces/inkscape"
   version="1.1"
   id="Capa_1"
   x="0px"
   y="0px"
   viewBox="0 0 21.332954 20.000002"
   xml:space="preserve"
   sodipodi:docname="word.svg"
   width="21.332954"
   height="20.000002"
   inkscape:version="1.0.1 (3bc2e813f5, 2020-09-07)"><metadata
   id="metadata53"><rdf:RDF><cc:Work
       rdf:about=""><dc:format>image/svg+xml</dc:format><dc:type
         rdf:resource="http://purl.org/dc/dcmitype/StillImage" /><dc:title></dc:title></cc:Work></rdf:RDF></metadata><defs
   id="defs51" /><sodipodi:namedview
   pagecolor="#ffffff"
   bordercolor="#666666"
   borderopacity="1"
   objecttolerance="10"
   gridtolerance="10"
   guidetolerance="10"
   inkscape:pageopacity="0"
   inkscape:pageshadow="2"
   inkscape:window-width="1920"
   inkscape:window-height="1121"
   id="namedview49"
   showgrid="false"
   inkscape:zoom="0.65600727"
   inkscape:cx="78.469261"
   inkscape:cy="367.41866"
   inkscape:window-x="-9"
   inkscape:window-y="41"
   inkscape:window-maximized="1"
   inkscape:current-layer="Capa_1" />
<path
   style="fill:#eceff1;stroke-width:0.0416659"
   d="m 20.666301,17.333381 h -9.333168 c -0.367994,0 -0.666655,-0.297328 -0.666655,-0.666655 0,-0.369327 0,-12.965104 0,-13.333097 0,-0.367994 0.298661,-0.666655 0.666655,-0.666655 h 9.333168 c 0.367993,0 0.666654,0.298661 0.666654,0.666655 v 13.333097 c 0,0.369327 -0.298661,0.666655 -0.666654,0.666655 z"
   id="path2" />
<g
   id="g12"
   transform="matrix(0.04166593,0,0,0.04166593,0,-0.66646704)">
	<path
   style="fill:#1976d2"
   d="M 432,176.004 H 272 c -8.832,0 -16,-7.136 -16,-16 0,-8.864 7.168,-16 16,-16 h 160 c 8.832,0 16,7.168 16,16 0,8.832 -7.168,16 -16,16 z"
   id="path4" />
	<path
   style="fill:#1976d2"
   d="M 432,240.004 H 272 c -8.832,0 -16,-7.136 -16,-16 0,-8.864 7.168,-16 16,-16 h 160 c 8.832,0 16,7.168 16,16 0,8.832 -7.168,16 -16,16 z"
   id="path6" />
	<path
   style="fill:#1976d2"
   d="M 432,304.004 H 272 c -8.832,0 -16,-7.136 -16,-16 0,-8.864 7.168,-16 16,-16 h 160 c 8.832,0 16,7.168 16,16 0,8.832 -7.168,16 -16,16 z"
   id="path8" />
	<path
   style="fill:#1976d2"
   d="M 432,368.004 H 272 c -8.832,0 -16,-7.136 -16,-16 0,-8.864 7.168,-16 16,-16 h 160 c 8.832,0 16,7.168 16,16 0,8.832 -7.168,16 -16,16 z"
   id="path10" />
</g>
<path
   style="fill:#1565c0;stroke-width:0.0416659"
   d="m 11.758458,0.15501796 c -0.151997,-0.127997 -0.355993,-0.18133 -0.54799,-0.142664 L 0.54399036,2.012319 C 0.22932927,2.070985 0,2.34698 0,2.666974 v 14.666407 c 0,0.319994 0.22799596,0.595989 0.54399036,0.654655 L 11.210468,19.988001 c 0.04133,0.008 0.08133,0.012 0.122665,0.012 0.154664,0 0.305328,-0.05333 0.425325,-0.15333 0.153331,-0.126665 0.241329,-0.314661 0.241329,-0.513325 V 0.66700896 c 0,-0.198663 -0.088,-0.385326 -0.241329,-0.511991 z"
   id="path14" />
<path
   style="fill:#fafafa;stroke-width:0.0416659"
   d="m 8.6625132,13.408117 c -0.034666,0.305328 -0.2746618,0.549324 -0.5799897,0.586656 -0.027999,0.004 -0.054666,0.0053 -0.082665,0.0053 -0.2746618,0 -0.525324,-0.170664 -0.6239889,-0.431993 L 5.9998937,9.898846 4.6239181,13.568114 C 4.5172533,13.853443 4.2372583,14.028106 3.9279304,13.996107 3.6252691,13.964107 3.3826068,13.729445 3.3399408,13.426783 L 2.673286,8.760199 C 2.621287,8.397539 2.8746158,8.058878 3.2386093,8.006879 3.6039362,7.953549 3.9412635,8.208209 3.9932626,8.572203 L 4.2905907,10.657499 5.3745715,7.76555 c 0.1946632,-0.51999 1.0533147,-0.51999 1.2493112,0 L 7.6451979,10.488169 8.0038582,7.258893 C 8.0451912,6.893566 8.3838515,6.630904 8.7398452,6.66957 9.1065054,6.71224 9.3691674,7.041563 9.3291681,7.40689 Z"
   id="path16" />
<g
   id="g18"
   transform="translate(0,-15.995498)">
</g>
<g
   id="g20"
   transform="translate(0,-15.995498)">
</g>
<g
   id="g22"
   transform="translate(0,-15.995498)">
</g>
<g
   id="g24"
   transform="translate(0,-15.995498)">
</g>
<g
   id="g26"
   transform="translate(0,-15.995498)">
</g>
<g
   id="g28"
   transform="translate(0,-15.995498)">
</g>
<g
   id="g30"
   transform="translate(0,-15.995498)">
</g>
<g
   id="g32"
   transform="translate(0,-15.995498)">
</g>
<g
   id="g34"
   transform="translate(0,-15.995498)">
</g>
<g
   id="g36"
   transform="translate(0,-15.995498)">
</g>
<g
   id="g38"
   transform="translate(0,-15.995498)">
</g>
<g
   id="g40"
   transform="translate(0,-15.995498)">
</g>
<g
   id="g42"
   transform="translate(0,-15.995498)">
</g>
<g
   id="g44"
   transform="translate(0,-15.995498)">
</g>
<g
   id="g46"
   transform="translate(0,-15.995498)">
</g>
</svg>
