<svg xmlns="http://www.w3.org/2000/svg" height="347.735" viewBox="0 0 330.067 326.003" width="352.071"><g stroke="#610850" transform="translate(-757.56 -1146.1) scale(1.4262)"><rect stroke-linejoin="round" rx="10" ry="10" height="31.996" width="32.113" stroke-linecap="round" y="970.75" x="572.18" stroke-width="8" fill="#d45500"/><rect stroke-linejoin="round" rx="10" ry="10" height="26.283" width="26.378" stroke-linecap="round" y="910.78" x="631.64" stroke-width="8" fill="#d45500"/><path stroke-width="10" d="M587.99 969.49c-.573-29.424 19.001-43.291 41.097-43.291M700.84 972.01c.573-29.424-19.001-43.291-41.097-43.291" fill="none"/></g><path style="text-decoration-color:#000;isolation:auto;mix-blend-mode:normal;block-progression:tb;text-decoration-line:none;text-indent:0;text-transform:none;text-decoration-style:solid" d="M60.123 167.06v8.691h81.784v-8.692zM184.089 169.227v8.692h79.058v-8.692z" fill-rule="evenodd" fill="#610850" color="#000" white-space="normal"/><g stroke-linejoin="round" stroke="#610850" stroke-linecap="round" stroke-width="8" fill="#d45500" transform="translate(-757.56 -1146.1) scale(1.4262)"><ellipse cy="924.67" cx="560.73" rx="13.763" ry="13.713"/><ellipse cy="924.67" cx="728.55" rx="13.763" ry="13.713"/><rect rx="10" ry="10" height="31.996" width="32.113" y="972" x="685.61"/></g><path fill="#610850" d="M180.67 34.331c-3.1-.081-6.547.373-9.08 1.407l-.647 8.85c.845 1.61 2.077 2.99 3.57 3.91v56.09c-1.558 1.035-2.92 2.415-3.57 3.909l.647 8.85h14.943l.646-8.85c-.714-1.494-2.076-2.874-3.57-3.909V75.05c1.299-1.724 3.378-3.68 6.17-3.68 3.184 0 4.874 1.724 4.874 10.46v22.76c-1.559 1.034-2.926 2.414-3.575 3.908l.651 8.851h14.938l.652-8.85c-.715-1.495-2.082-2.875-3.576-3.91V81.256c0-13.908-2.273-22.296-11.368-22.296-2.663 0-6.688 1.953-8.767 4.367V34.59c-.909-.144-1.905-.23-2.938-.258zm75.162.257c-3.313 0-5.39 2.187-5.39 8.738 0 6.552 2.077 8.617 5.39 8.617s5.46-2.065 5.46-8.617c0-6.551-2.147-8.738-5.46-8.738zm-169.72 23.89c-2.862-.081-5.836.373-8.37 1.407l-.65 8.85c.844 1.61 2.08 2.99 3.575 3.91v31.951c-1.559 1.035-2.926 2.415-3.576 3.91l.652 8.85H96.32l.646-8.85c-1.299-2.07-4.352-3.911-7.21-4.83V77.356c1.299-2.298 4.16-3.333 6.822-3.333 1.04 0 2.015.112 2.86.341l.194-14.943c-.585-.46-1.364-.57-2.208-.57-3.248 0-6.56 3.102-8.508 7.125v-7.242c-.91-.144-1.851-.23-2.805-.257zm57.768 0c-2.862-.081-5.836.373-8.37 1.407l-.646 8.85c.845 1.61 2.077 2.99 3.57 3.91v54.94c-1.558 1.035-2.92 2.3-3.57 3.91l.647 8.85h16.306l.651-8.85c-.78-1.725-2.794-3.221-4.938-4.256v-9.883c1.494.574 3.119.92 5.068.92 7.6 0 15.718-8.164 15.718-30.922 0-20.575-3.833-28.39-12.342-28.39-3.183 0-6.691 2.187-9.29 5.405v-5.633c-.909-.144-1.85-.23-2.804-.257zm113.71 0c-3.1-.081-6.547.373-9.08 1.407l-.647 8.85c.845 1.61 2.077 2.99 3.57 3.91v31.951c-1.558 1.035-2.92 2.415-3.57 3.91l.647 8.85h14.943l.646-8.85c-.714-1.495-2.076-2.875-3.57-3.91v-45.86c-.91-.143-1.906-.23-2.939-.257zm-199.99.486c-7.6 0-15.202 5.403-15.202 29.31 0 20.575 5 27.356 12.665 27.356 3.118 0 5.978-1.262 7.991-3.446v5.055c0 7.01-1.561 12.3-5.783 12.3-2.274 0-4.09-.69-5.585-1.725-.194-2.528-.584-4.943-1.039-6.438H44.93c-1.04 3.678-1.816 9.773-1.621 14.255 2.923 3.334 9.29 5.63 14.356 5.63 9.873 0 14.486-7.93 14.486-24.826V59.887h-5.331c-.78 0-1.62 1.032-1.945 2.066-1.948-1.724-4.417-2.987-7.275-2.987zm59.876 0c-5.326 0-10.522 2.643-13.769 5.746-.26 5.747.195 11.038 1.04 14.026h6.364c.39-1.609.711-5.172.776-7.47 1.104-.575 2.083-.693 3.317-.693 3.637 0 5.39 2.99 5.39 8.968v5.517h-7.08c-7.925 0-11.498 6.781-11.498 16.322 0 11.149 5.066 16.896 10.522 16.896 6.3 0 9.03-4.369 10.134-7.242.455 4.252 1.104 7.242 1.104 7.242 6.17 0 9.483-2.763 9.483-2.763v-9.996c-1.04-.92-2.271-1.495-3.57-1.955V79.077c0-14.827-4.289-20.113-12.213-20.113zm91.608.921l-.646 8.85c.779 1.84 2.532 3.45 4.35 4.485l10.652 44.823h7.145l10.716-44.823c1.82-1.035 3.507-2.645 4.287-4.484l-.647-8.85H230.65l-.651 8.85c.65 1.494 1.888 2.874 3.381 3.908l-3.446 17.01c-1.299 6.321-1.815 12.066-1.815 12.066h-.91s-.52-5.974-1.82-12.296l-3.505-17.354c1.169-.919 2.205-2.069 2.79-3.333l-.647-8.85h-14.943zm58.066 0c-.195 5.517.062 11.724.646 16.322l5.003 1.15c.844-1.379 1.494-3.337 2.079-5.75h2.536c3.377 0 5.26-1.034 5.26-1.034l.324 1.267s-1.755 2.298-3.834 7.125l-12.73 28.964.651 9.426h27.475c.195-5.517-.067-12.182-.651-16.78l-4.998-1.15c-.844 1.379-1.558 3.563-2.143 6.092h-3.575c-3.378 0-5.261 1.033-5.261 1.033l-.323-1.262s1.75-2.303 3.829-7.13l12.67-28.62-.652-9.654h-26.305zM57.71 70.69c1.559 0 3.507.575 5.326 1.955v27.238c-1.56 1.954-3.963 3.216-6.236 3.216-3.507 0-5.455-3.444-5.455-15.513 0-10.919 1.688-16.896 6.365-16.896zm96.426.917c3.508 0 4.809 3.105 4.809 16.439 0 10.919-2.6 18.505-7.017 18.505-1.494 0-2.922-.233-4.416-.922V75.055c1.56-2.183 3.961-3.45 6.624-3.45zm-38.11 22.072h4.55v9.42c-.78 1.38-2.533 3.451-5.261 3.451-2.663 0-3.963-2.872-3.963-6.55 0-3.908 1.426-6.321 4.674-6.321z"/></svg>