<?xml version="1.0" encoding="UTF-8" standalone="no"?>
<svg
   xmlns:dc="http://purl.org/dc/elements/1.1/"
   xmlns:cc="http://creativecommons.org/ns#"
   xmlns:rdf="http://www.w3.org/1999/02/22-rdf-syntax-ns#"
   xmlns:svg="http://www.w3.org/2000/svg"
   xmlns="http://www.w3.org/2000/svg"
   xmlns:sodipodi="http://sodipodi.sourceforge.net/DTD/sodipodi-0.dtd"
   xmlns:inkscape="http://www.inkscape.org/namespaces/inkscape"
   version="1.1"
   id="Layer_1"
   x="0px"
   y="0px"
   viewBox="0 0 17.000001 7.6369944"
   xml:space="preserve"
   sodipodi:docname="arrow-up-1.svg"
   width="17.000002"
   height="7.6369944"
   inkscape:version="1.0.1 (3bc2e813f5, 2020-09-07)"><metadata
   id="metadata43"><rdf:RDF><cc:Work
       rdf:about=""><dc:format>image/svg+xml</dc:format><dc:type
         rdf:resource="http://purl.org/dc/dcmitype/StillImage" /><dc:title></dc:title></cc:Work></rdf:RDF></metadata><defs
   id="defs41" /><sodipodi:namedview
   pagecolor="#ffffff"
   bordercolor="#666666"
   borderopacity="1"
   objecttolerance="10"
   gridtolerance="10"
   guidetolerance="10"
   inkscape:pageopacity="0"
   inkscape:pageshadow="2"
   inkscape:window-width="1920"
   inkscape:window-height="1121"
   id="namedview39"
   showgrid="false"
   inkscape:zoom="21.845486"
   inkscape:cx="16.191448"
   inkscape:cy="6.8225471"
   inkscape:window-x="-9"
   inkscape:window-y="41"
   inkscape:window-maximized="1"
   inkscape:current-layer="Layer_1"
   inkscape:document-rotation="0"
   fit-margin-left="2"
   fit-margin-right="2"
   fit-margin-top="0"
   fit-margin-bottom="0" />
<g
   id="g6"
   transform="matrix(0.02642266,0,0,0.02642266,2,-2.6815037)">
	<g
   id="g4">
		<path
   d="M 484.136,328.473 264.988,109.329 c -5.064,-5.064 -11.816,-7.844 -19.172,-7.844 -7.208,0 -13.964,2.78 -19.02,7.844 L 7.852,328.265 C 2.788,333.333 0,340.089 0,347.297 c 0,7.208 2.784,13.968 7.852,19.032 l 16.124,16.124 c 5.064,5.064 11.824,7.86 19.032,7.86 7.208,0 13.964,-2.796 19.032,-7.86 L 245.892,198.601 429.948,382.665 c 5.064,5.06 11.82,7.852 19.032,7.852 7.208,0 13.96,-2.792 19.028,-7.852 l 16.128,-16.132 c 10.488,-10.492 10.488,-27.568 0,-38.06 z"
   id="path2" />
	</g>
</g>
<g
   id="g8"
   transform="translate(2,-101.485)">
</g>
<g
   id="g10"
   transform="translate(2,-101.485)">
</g>
<g
   id="g12"
   transform="translate(2,-101.485)">
</g>
<g
   id="g14"
   transform="translate(2,-101.485)">
</g>
<g
   id="g16"
   transform="translate(2,-101.485)">
</g>
<g
   id="g18"
   transform="translate(2,-101.485)">
</g>
<g
   id="g20"
   transform="translate(2,-101.485)">
</g>
<g
   id="g22"
   transform="translate(2,-101.485)">
</g>
<g
   id="g24"
   transform="translate(2,-101.485)">
</g>
<g
   id="g26"
   transform="translate(2,-101.485)">
</g>
<g
   id="g28"
   transform="translate(2,-101.485)">
</g>
<g
   id="g30"
   transform="translate(2,-101.485)">
</g>
<g
   id="g32"
   transform="translate(2,-101.485)">
</g>
<g
   id="g34"
   transform="translate(2,-101.485)">
</g>
<g
   id="g36"
   transform="translate(2,-101.485)">
</g>
</svg>
