<?xml version="1.0" encoding="UTF-8" standalone="no"?>
<svg
   xmlns:dc="http://purl.org/dc/elements/1.1/"
   xmlns:cc="http://creativecommons.org/ns#"
   xmlns:rdf="http://www.w3.org/1999/02/22-rdf-syntax-ns#"
   xmlns:svg="http://www.w3.org/2000/svg"
   xmlns="http://www.w3.org/2000/svg"
   xmlns:sodipodi="http://sodipodi.sourceforge.net/DTD/sodipodi-0.dtd"
   xmlns:inkscape="http://www.inkscape.org/namespaces/inkscape"
   version="1.1"
   id="Layer_1"
   x="0px"
   y="0px"
   viewBox="0 0 11.637387 13"
   xml:space="preserve"
   sodipodi:docname="arrow-right-1.svg"
   width="11.637387"
   height="13"
   inkscape:version="1.0.1 (3bc2e813f5, 2020-09-07)"><metadata
   id="metadata43"><rdf:RDF><cc:Work
       rdf:about=""><dc:format>image/svg+xml</dc:format><dc:type
         rdf:resource="http://purl.org/dc/dcmitype/StillImage" /><dc:title></dc:title></cc:Work></rdf:RDF></metadata><defs
   id="defs41" /><sodipodi:namedview
   pagecolor="#ffffff"
   bordercolor="#666666"
   borderopacity="1"
   objecttolerance="10"
   gridtolerance="10"
   guidetolerance="10"
   inkscape:pageopacity="0"
   inkscape:pageshadow="2"
   inkscape:window-width="1920"
   inkscape:window-height="1121"
   id="namedview39"
   showgrid="false"
   inkscape:zoom="16"
   inkscape:cx="-4.473123"
   inkscape:cy="-5.9718859"
   inkscape:window-x="-9"
   inkscape:window-y="41"
   inkscape:window-maximized="1"
   inkscape:current-layer="Layer_1"
   inkscape:document-rotation="0"
   fit-margin-left="2"
   fit-margin-right="2"
   fit-margin-top="0"
   fit-margin-bottom="0" />
<g
   id="g6"
   transform="matrix(0.02642255,0,0,0.02642255,-0.68130753,0)">
	<g
   id="g4">
		<path
   d="M 382.678,226.804 163.73,7.86 C 158.666,2.792 151.906,0 144.698,0 137.49,0 130.73,2.792 125.666,7.86 l -16.124,16.12 c -10.492,10.504 -10.492,27.576 0,38.064 L 293.398,245.9 109.338,429.96 c -5.064,5.068 -7.86,11.824 -7.86,19.028 0,7.212 2.796,13.968 7.86,19.04 l 16.124,16.116 c 5.068,5.068 11.824,7.86 19.032,7.86 7.208,0 13.968,-2.792 19.032,-7.86 L 382.678,265 c 5.076,-5.084 7.864,-11.872 7.848,-19.088 0.016,-7.244 -2.772,-14.028 -7.848,-19.108 z"
   id="path2" />
	</g>
</g>
<g
   id="g8"
   transform="translate(-99.478)">
</g>
<g
   id="g10"
   transform="translate(-99.478)">
</g>
<g
   id="g12"
   transform="translate(-99.478)">
</g>
<g
   id="g14"
   transform="translate(-99.478)">
</g>
<g
   id="g16"
   transform="translate(-99.478)">
</g>
<g
   id="g18"
   transform="translate(-99.478)">
</g>
<g
   id="g20"
   transform="translate(-99.478)">
</g>
<g
   id="g22"
   transform="translate(-99.478)">
</g>
<g
   id="g24"
   transform="translate(-99.478)">
</g>
<g
   id="g26"
   transform="translate(-99.478)">
</g>
<g
   id="g28"
   transform="translate(-99.478)">
</g>
<g
   id="g30"
   transform="translate(-99.478)">
</g>
<g
   id="g32"
   transform="translate(-99.478)">
</g>
<g
   id="g34"
   transform="translate(-99.478)">
</g>
<g
   id="g36"
   transform="translate(-99.478)">
</g>
</svg>
