<svg height="480pt" viewBox="-64 0 480 480" width="480pt" xmlns="http://www.w3.org/2000/svg"><path d="m343.945312 472h-336v-384h80v-80h256zm0 0" fill="#ebebeb"/><g fill="#dbdbdb"><path d="m87.945312 88h-80l80-80zm0 0"/><path d="m55.945312 136h48v48h-48zm0 0"/><path d="m55.945312 216h48v48h-48zm0 0"/><path d="m55.945312 296h48v48h-48zm0 0"/><path d="m55.945312 376h48v48h-48zm0 0"/><path d="m159.945312 152h128v16h-128zm0 0"/><path d="m159.945312 232h128v16h-128zm0 0"/><path d="m159.945312 312h128v16h-128zm0 0"/><path d="m159.945312 392h128v16h-128zm0 0"/></g><path d="m79.945312 176c-.269531 0-.535156-.015625-.800781-.046875-2.226562-.222656-4.257812-1.367187-5.601562-3.152344l-24-32 12.800781-9.601562 18.824219 25.097656 57.503906-50.320313 10.542969 12.046876-64 56c-1.457032 1.277343-3.332032 1.976562-5.269532 1.976562zm0 0" fill="#8dc79d"/><path d="m79.945312 256c-.269531 0-.535156-.015625-.800781-.046875-2.226562-.222656-4.257812-1.367187-5.601562-3.152344l-24-32 12.800781-9.601562 18.824219 25.097656 57.503906-50.320313 10.542969 12.046876-64 56c-1.457032 1.277343-3.332032 1.976562-5.269532 1.976562zm0 0" fill="#8dc79d"/><path d="m343.945312 0h-256c-.160156 0-.289062.078125-.441406.0898438-.75.0429682-1.492187.1914062-2.199218.4453122-.242188.070313-.480469.152344-.710938.25-.84375.375-1.609375.894532-2.273438 1.535156l-80 80c-.636718.664063-1.152343 1.433594-1.527343 2.273438-.101563.242188-.191407.496094-.265625.75-.238282.679688-.382813 1.390625-.4296878 2.113281 0 .175781-.0976562.320313-.0976562.496094v384.046875c0 4.417969 3.582031 8 8 8h335.945312c4.417969 0 8-3.582031 8-8v-464c0-4.417969-3.582031-8-8-8zm-264 27.3125v52.6875h-52.6875zm256 436.6875h-320v-368h72c4.417969 0 8-3.582031 8-8v-72h240zm0 0"/><path d="m47.945312 136v48c0 4.417969 3.582032 8 8 8h48c4.417969 0 8-3.582031 8-8v-33.367188l37.269532-32.609374-10.542969-12.046876-28.617187 25.039063c-1.46875-1.882813-3.71875-2.992187-6.109376-3.015625h-48c-4.417968 0-8 3.582031-8 8zm47.269532 8-14.046875 12.296875-9.222657-12.296875zm-31.269532 16 9.597657 12.800781c1.34375 1.785157 3.375 2.929688 5.601562 3.152344.265625.03125.53125.046875.800781.046875 1.9375 0 3.8125-.699219 5.269532-1.976562l10.730468-9.390626v11.367188h-32zm0 0"/><path d="m103.945312 288h-48c-4.417968 0-8 3.582031-8 8v48c0 4.417969 3.582032 8 8 8h48c4.417969 0 8-3.582031 8-8v-48c0-4.417969-3.582031-8-8-8zm-8 48h-32v-32h32zm0 0"/><path d="m103.945312 368h-48c-4.417968 0-8 3.582031-8 8v48c0 4.417969 3.582032 8 8 8h48c4.417969 0 8-3.582031 8-8v-48c0-4.417969-3.582031-8-8-8zm-8 48h-32v-32h32zm0 0"/><path d="m159.945312 152h128v16h-128zm0 0"/><path d="m159.945312 232h128v16h-128zm0 0"/><path d="m159.945312 312h128v16h-128zm0 0"/><path d="m159.945312 392h128v16h-128zm0 0"/><path d="m110.054688 211.015625c-1.46875-1.882813-3.71875-2.992187-6.109376-3.015625h-48c-4.417968 0-8 3.582031-8 8v48c0 4.417969 3.582032 8 8 8h48c4.417969 0 8-3.582031 8-8v-33.367188l37.269532-32.609374-10.542969-12.046876zm-14.839844 12.984375-14.046875 12.296875-9.222657-12.296875zm.730468 32h-32v-16l9.597657 12.800781c1.34375 1.785157 3.375 2.929688 5.601562 3.152344.265625.03125.53125.046875.800781.046875 1.9375 0 3.8125-.699219 5.269532-1.976562l10.730468-9.390626zm0 0"/></svg>