<?xml version="1.0" encoding="iso-8859-1"?>
<!-- Generator: Adobe Illustrator 19.0.0, SVG Export Plug-In . SVG Version: 6.00 Build 0)  -->
<svg version="1.1" id="Capa_1" xmlns="http://www.w3.org/2000/svg" xmlns:xlink="http://www.w3.org/1999/xlink" x="0px" y="0px"
	 viewBox="0 0 512.001 512.001" style="enable-background:new 0 0 512.001 512.001;" xml:space="preserve">
<path style="fill:#AF6E5A;" d="M436.758,257.861C428.654,243.877,424,228.164,424,212.001l0,0c0-70.111-42.978-130.132-104-155.308
	V28.001l-40,16l-8-32c-21.101,7.034-39.1,21.795-52.658,36.133C144.211,64.876,88.001,131.823,88.001,212.001
	c0,16.164-4.653,31.876-12.757,45.86c-12.322,21.262-19.243,45.03-19.243,70.14c0,90.575,89.543,164,200,164s200-73.425,200-164
	C456.001,302.891,449.08,279.123,436.758,257.861z"/>
<path style="fill:#965A50;" d="M144.001,356.667c0-29.295,6.92-57.024,19.242-81.83c8.105-16.315,12.758-34.646,12.758-53.504
	c0-81.409,42.595-151.083,103.165-180.674L272.001,12c-21.101,7.034-39.1,21.795-52.658,36.133
	c-75.132,16.743-131.342,83.69-131.342,163.868c0,16.164-4.652,31.876-12.758,45.86c-12.322,21.262-19.242,45.03-19.242,70.14
	c0,73.107,58.35,135.015,138.934,156.185C163.274,450.337,144.001,405.663,144.001,356.667z"/>
<path style="fill:#FAEBC8;" d="M256.001,460c66.274,0,120-42.981,120-96c0-10.999-2.339-21.549-6.621-31.374
	c-6.21-14.248-4.096-30.599,5.88-42.518c12.724-15.201,19.286-35.725,15.823-57.771c-4.757-30.282-29.239-54.721-59.527-59.435
	c-23.145-3.602-44.599,3.844-59.968,17.863c-4.369,3.985-9.978,5.977-15.584,5.977c-5.609,0-11.219-1.992-15.588-5.977
	c-15.37-14.019-36.823-21.465-59.968-17.863c-30.289,4.714-54.771,29.153-59.527,59.435c-3.463,22.046,3.099,42.57,15.823,57.771
	c9.976,11.918,12.09,28.27,5.88,42.518c-4.282,9.825-6.621,20.375-6.621,31.374C136.001,417.02,189.727,460,256.001,460z"/>
<path style="fill:#F5DCB4;" d="M136.001,364c0,17.943,6.266,34.676,16.977,49.043c-5.752-17.836-8.977-36.731-8.977-56.376
	c0-29.295,6.92-57.024,19.242-81.83c8.105-16.315,12.758-34.646,12.758-53.504c0-16.767,1.898-32.992,5.297-48.515
	c-0.286,0.041-0.564,0.039-0.852,0.083c-30.289,4.714-54.77,29.153-59.527,59.435c-3.463,22.046,3.1,42.57,15.822,57.771
	c9.977,11.918,12.091,28.27,5.881,42.518C138.34,342.451,136.001,353.001,136.001,364z"/>
<path style="fill:#4B3F4E;" d="M176.001,356.001c0,39.765,35.817,72,80,72s80-32.235,80-72H176.001z"/>
<path style="fill:#E6646E;" d="M209.905,414.787C222.941,423.083,238.821,428,256.001,428s33.06-4.917,46.096-13.213
	C296.318,394.766,277.818,380,256.001,380S215.684,394.767,209.905,414.787z"/>
<path style="fill:#4B3F4E;" d="M184.001,268.001L184.001,268.001c-13.255,0-24-10.745-24-24v-8c0-13.255,10.745-24,24-24l0,0
	c13.255,0,24,10.745,24,24v8C208.001,257.255,197.256,268.001,184.001,268.001z"/>
<path style="fill:#5D5360;" d="M184.001,212.001v28c0,6.627,5.373,12,12,12s12-5.373,12-12v-4
	C208.001,222.746,197.256,212.001,184.001,212.001z"/>
<circle style="fill:#FFFFFF;" cx="184" cy="228" r="8"/>
<path style="fill:#4B3F4E;" d="M328.001,268.001L328.001,268.001c-13.255,0-24-10.745-24-24v-8c0-13.255,10.745-24,24-24l0,0
	c13.255,0,24,10.745,24,24v8C352.001,257.255,341.255,268.001,328.001,268.001z"/>
<path style="fill:#5D5360;" d="M328.001,212.001v28c0,6.627,5.373,12,12,12s12-5.373,12-12v-4
	C352.001,222.746,341.256,212.001,328.001,212.001z"/>
<circle style="fill:#FFFFFF;" cx="328" cy="228" r="8"/>
<path style="fill:#F5DCB4;" d="M84.715,143.619c-8.302-11.069-25.731-7.549-29.087,5.874l-18.133,72.533
	c-3.649,14.595-5.494,29.582-5.494,44.626v105.349h56V153.478C88.001,149.922,86.848,146.463,84.715,143.619z"/>
<path style="fill:#EBC9A0;" d="M64.001,277.615c0-15.044,1.845-30.032,5.494-44.626l18.133-72.533
	c0.083-0.334,0.272-0.586,0.373-0.908v-6.069c0-3.555-1.153-7.015-3.286-9.859c-8.302-11.069-25.731-7.549-29.087,5.874
	l-18.133,72.533c-3.649,14.595-5.494,29.582-5.494,44.626v105.349h32C64.001,372.002,64.001,277.615,64.001,277.615z"/>
<path style="fill:#AF6E5A;" d="M88.001,356.001H45.482c-12.229,0-22.503,9.195-23.853,21.349L8.001,500.001h88v-136
	C96.001,359.582,92.419,356.001,88.001,356.001z"/>
<path style="fill:#965A50;" d="M75.608,356.001H45.481c-12.229,0-22.502,9.195-23.853,21.35L8.001,500l0,0h32l11.754-122.65
	C53.104,365.195,63.378,356.001,75.608,356.001z"/>
<path style="fill:#EBC9A0;" d="M427.287,143.619c8.302-11.069,25.731-7.549,29.087,5.874l18.133,72.533
	c3.649,14.595,5.494,29.582,5.494,44.626v105.349h-56V153.478C424.001,149.922,425.153,146.463,427.287,143.619z"/>
<path style="fill:#F5DCB4;" d="M448.001,277.615c0-15.044-1.845-30.032-5.494-44.626l-18.133-72.533
	c-0.083-0.334-0.272-0.586-0.373-0.908v-6.069c0-3.555,1.153-7.015,3.286-9.859c8.302-11.069,25.731-7.549,29.087,5.874
	l18.133,72.533c3.649,14.595,5.494,29.582,5.494,44.626v105.349h-32L448.001,277.615L448.001,277.615z"/>
<path style="fill:#965A50;" d="M424.001,356.001h42.519c12.229,0,22.503,9.195,23.853,21.349l13.628,122.651h-88v-136
	C416.001,359.582,419.582,356.001,424.001,356.001z"/>
<path style="fill:#AF6E5A;" d="M504.001,500l-13.628-122.65C489.022,365.196,478.749,356,466.52,356h-30.127
	c9.273,0,11.773,6,13.107,13.5L463.902,500H504.001L504.001,500z"/>
<path d="M236.614,322.83c1.077,0.539,2.221,0.793,3.348,0.793c2.751,0,5.4-1.52,6.714-4.147c1.852-3.705,0.351-8.21-3.354-10.062
	l-16.032-8.016c-3.705-1.854-8.21-0.351-10.062,3.354c-1.852,3.705-0.351,8.21,3.354,10.062L236.614,322.83z"/>
<path d="M272.039,323.623c1.127,0,2.272-0.255,3.348-0.793l16.032-8.016c3.705-1.852,5.207-6.357,3.354-10.062
	c-1.852-3.705-6.357-5.208-10.062-3.354l-16.032,8.016c-3.705,1.852-5.207,6.357-3.354,10.062
	C266.639,322.104,269.287,323.623,272.039,323.623z"/>
<path d="M183.855,219.412c4.142,0,7.5-3.358,7.5-7.5s-3.358-7.5-7.5-7.5c-17.396,0-31.548,14.152-31.548,31.548v8.016
	c0,17.396,14.153,31.548,31.549,31.548s31.548-14.152,31.548-31.548v-8.016c0-4.142-3.358-7.5-7.5-7.5s-7.5,3.358-7.5,7.5v8.016
	c0,9.125-7.424,16.548-16.549,16.548s-16.548-7.423-16.548-16.548v-8.016C167.307,226.835,174.731,219.412,183.855,219.412z"/>
<path d="M359.694,243.976v-8.016c0-4.142-3.358-7.5-7.5-7.5s-7.5,3.358-7.5,7.5v8.016c0,9.125-7.424,16.548-16.549,16.548
	s-16.548-7.423-16.548-16.548v-8.016c0-9.125,7.424-16.548,16.548-16.548c4.142,0,7.5-3.358,7.5-7.5s-3.358-7.5-7.5-7.5
	c-17.396,0-31.548,14.152-31.548,31.548v8.016c0,17.396,14.153,31.548,31.549,31.548
	C345.542,275.525,359.694,261.372,359.694,243.976z"/>
<path d="M256.001,435.847c48.337,0,87.661-35.729,87.661-79.645c0-4.142-3.358-7.5-7.5-7.5H175.839c-4.142,0-7.5,3.358-7.5,7.5
	C168.339,400.119,207.664,435.847,256.001,435.847z M256.001,404.815c-4.142,0-7.5,3.358-7.5,7.5v8.18
	c-10.714-0.982-20.739-4.047-29.566-8.726c6.481-14.503,20.945-24.019,37.066-24.019c16.192,0,30.594,9.496,37.067,24.018
	c-8.828,4.679-18.853,7.744-29.567,8.726v-8.18C263.501,408.173,260.143,404.815,256.001,404.815z M328.176,363.702
	c-2.03,15.556-10.304,29.435-22.512,39.625c-9.326-18.576-28.366-30.576-49.664-30.576c-21.206,0-40.315,12.028-49.656,30.582
	c-12.212-10.19-20.489-24.071-22.519-39.631H328.176z"/>
<path d="M398.765,231.13c-2.126-13.541-7.895-26.424-16.682-37.258c-2.609-3.216-7.332-3.71-10.549-1.1
	c-3.217,2.609-3.71,7.332-1.101,10.549c7.124,8.783,11.797,19.204,13.513,30.136c2.979,18.975-2.062,37.409-14.197,51.906
	c-11.758,14.048-14.447,33.365-7.017,50.414c3.988,9.149,6.01,18.718,6.01,28.441c0,48.906-50.576,88.693-112.742,88.693
	s-112.742-39.788-112.742-88.693c0-9.723,2.022-19.292,6.01-28.441c7.431-17.049,4.742-36.366-7.016-50.414
	c-12.136-14.499-17.177-32.934-14.197-51.91c4.266-27.158,26.221-49.079,53.392-53.308c19.709-3.068,39.349,2.775,53.882,16.029
	c11.592,10.573,29.752,10.573,41.343,0c14.534-13.256,34.174-19.099,53.887-16.029c6.317,0.984,12.458,2.943,18.251,5.823
	c3.71,1.844,8.211,0.332,10.055-3.377s0.332-8.21-3.378-10.054c-7.171-3.565-14.782-5.992-22.62-7.212
	c-24.226-3.773-48.394,3.432-66.304,19.768c-5.923,5.402-15.203,5.402-21.126-0.001c-17.908-16.333-42.073-23.537-66.297-19.768
	c-33.537,5.22-60.637,32.278-65.903,65.802c-3.663,23.316,2.557,45.998,17.512,63.866c8.085,9.659,9.912,22.99,4.768,34.792
	c-4.817,11.052-7.259,22.637-7.259,34.435c0,57.177,57.305,103.693,127.742,103.693s127.742-46.517,127.742-103.693
	c0-11.798-2.442-23.383-7.259-34.435c-5.144-11.802-3.316-25.134,4.768-34.792C396.206,277.125,402.426,254.445,398.765,231.13z"/>
<path d="M511.955,499.664L498.3,376.767c-0.891-8.018-4.722-15.047-10.347-20.066v-90.028c0-15.673-1.927-31.33-5.729-46.535
	l-18.17-72.679c-2.264-9.057-9.355-15.831-18.505-17.679c-9.15-1.848-18.315,1.643-23.916,9.112
	c-1.312,1.749-2.356,3.682-3.143,5.714c-4.578-11.026-10.302-21.615-17.13-31.618c-18.502-27.106-43.917-48.334-73.729-61.639
	V27.541c0-2.489-1.235-4.815-3.295-6.21c-2.062-1.396-4.68-1.678-6.99-0.753l-32.103,12.841L279.309,9.69
	c-0.507-2.027-1.836-3.75-3.667-4.756c-1.832-1.005-3.999-1.202-5.981-0.541c-18.576,6.192-36.822,18.473-54.261,36.515
	c-37.524,8.89-71.54,30.254-95.986,60.339c-10.732,13.208-19.411,27.884-25.858,43.471c-0.792-2.073-1.851-4.045-3.186-5.826
	c-5.601-7.468-14.765-10.959-23.916-9.112c-9.151,1.848-16.242,8.622-18.506,17.679l-18.17,72.679
	c-3.801,15.205-5.729,30.862-5.729,46.535v90.028c-5.625,5.018-9.456,12.048-10.347,20.066L0.047,499.664
	c-0.458,4.117,2.509,7.825,6.626,8.282c0.281,0.031,0.561,0.046,0.837,0.046c3.771,0,7.019-2.837,7.445-6.672L28.61,378.423
	c0.933-8.392,8.003-14.721,16.447-14.721h42.605c0.285,0,0.516,0.231,0.516,0.516v136.274c0,4.142,3.358,7.5,7.5,7.5
	s7.5-3.358,7.5-7.5v-55.843c16.813,15.035,36.868,27.627,58.894,36.853c29.27,12.259,60.872,18.475,93.929,18.475
	c33.058,0,64.662-6.216,93.933-18.477c22.024-9.225,42.078-21.816,58.889-36.851v55.843c0,4.142,3.358,7.5,7.5,7.5
	s7.5-3.358,7.5-7.5V364.218c0-0.285,0.231-0.516,0.516-0.516h42.605c8.444,0,15.515,6.329,16.447,14.721l13.655,122.897
	c0.426,3.836,3.674,6.672,7.445,6.672c0.276,0,0.556-0.015,0.837-0.046C509.446,507.489,512.412,503.781,511.955,499.664z
	 M39.049,349.276v-82.602c0-14.448,1.777-28.88,5.281-42.897l18.17-72.679c0.86-3.439,3.448-5.912,6.922-6.613
	c3.476-0.7,6.82,0.573,8.947,3.409c1.156,1.542,1.793,3.452,1.793,5.379v195.431H45.057
	C43.006,348.702,40.997,348.901,39.049,349.276z M344.139,467.664c-27.426,11.487-57.08,17.312-88.138,17.312
	c-31.056,0-60.709-5.824-88.134-17.311c-25.092-10.509-47.387-25.656-64.688-43.885v-59.562c0-5.836-3.242-10.925-8.016-13.574
	V211.912c0-36.778,12.747-72.72,35.893-101.205c22.811-28.073,54.719-47.844,89.845-55.672c1.46-0.325,2.79-1.08,3.818-2.167
	c13.755-14.546,27.881-25.047,42.096-31.307l5.958,23.832c0.525,2.102,1.933,3.873,3.862,4.859c1.928,0.987,4.188,1.09,6.2,0.286
	L312.63,38.62v17.672c0,3.037,1.832,5.775,4.64,6.933c60.486,24.955,99.57,83.318,99.57,148.688v138.733
	c-4.774,2.649-8.016,7.738-8.016,13.574v59.562C391.523,442.009,369.229,457.155,344.139,467.664z M431.839,348.702V153.271
	c0-1.927,0.637-3.837,1.793-5.379c2.127-2.836,5.472-4.11,8.946-3.409c3.475,0.702,6.063,3.174,6.923,6.613l18.17,72.679
	c3.504,14.017,5.281,28.45,5.281,42.897v82.602c-1.948-0.375-3.957-0.574-6.008-0.574h-35.105V348.702z"/>
<g>
</g>
<g>
</g>
<g>
</g>
<g>
</g>
<g>
</g>
<g>
</g>
<g>
</g>
<g>
</g>
<g>
</g>
<g>
</g>
<g>
</g>
<g>
</g>
<g>
</g>
<g>
</g>
<g>
</g>
</svg>
