<?xml version="1.0" encoding="iso-8859-1"?>
<!-- Generator: Adobe Illustrator 19.0.0, SVG Export Plug-In . SVG Version: 6.00 Build 0)  -->
<svg version="1.1" id="Capa_1" xmlns="http://www.w3.org/2000/svg" xmlns:xlink="http://www.w3.org/1999/xlink" x="0px" y="0px"
	 viewBox="0 0 512 512" style="enable-background:new 0 0 512 512;" xml:space="preserve">
<circle style="fill:#965A50;" cx="71.63" cy="215.92" r="64.13"/>
<circle style="fill:#EBC9A0;" cx="71.63" cy="215.92" r="40.08"/>
<circle style="fill:#965A50;" cx="440.37" cy="215.92" r="64.13"/>
<circle style="fill:#EBC9A0;" cx="440.37" cy="215.92" r="40.08"/>
<path style="fill:#AF6E5A;" d="M151.593,464.419h208.815c57.569-28.873,95.996-80.894,95.996-140.282
	c0-25.16-6.934-48.976-19.281-70.281c-8.121-14.013-12.784-29.757-12.784-45.953l0,0c0-70.253-43.065-130.394-104.21-155.621v-28.75
	l-40.081,16.032l-8.016-32.065c-21.143,7.048-39.178,21.839-52.764,36.206C143.985,60.482,87.661,127.563,87.661,207.903
	c0,16.196-4.662,31.94-12.784,45.953c-12.347,21.305-19.281,45.121-19.281,70.281C55.597,383.525,94.024,435.546,151.593,464.419z"
	/>
<path style="fill:#965A50;" d="M143.774,352.861c0-29.354,6.934-57.139,19.281-81.995c8.122-16.348,12.784-34.716,12.784-53.612
	c0-81.573,42.681-151.387,103.373-181.038l-7.179-28.717c-21.143,7.048-39.178,21.839-52.764,36.206
	C143.985,60.482,87.661,127.563,87.661,207.903c0,16.196-4.662,31.94-12.784,45.953c-12.347,21.305-19.281,45.121-19.281,70.281
	c0,73.254,58.467,135.287,139.214,156.5C163.086,446.72,143.774,401.955,143.774,352.861z"/>
<path style="fill:#FAEBC8;" d="M256,456.403c66.408,0,120.242-43.068,120.242-96.194c0-11.021-2.344-21.593-6.634-31.438
	c-6.222-14.276-4.104-30.661,5.892-42.603c12.749-15.232,19.325-35.797,15.854-57.888c-4.766-30.343-29.298-54.831-59.647-59.555
	c-23.192-3.61-44.689,3.852-60.089,17.899c-4.378,3.993-9.999,5.989-15.615,5.989c-5.621,0-11.242-1.996-15.619-5.989
	c-15.401-14.047-36.897-21.509-60.089-17.899c-30.35,4.724-54.881,29.212-59.647,59.555c-3.47,22.091,3.105,42.656,15.854,57.888
	c9.996,11.942,12.114,28.327,5.892,42.603c-4.291,9.845-6.634,20.416-6.634,31.438C135.758,413.335,189.592,456.403,256,456.403z"/>
<path style="fill:#F5DCB4;" d="M135.758,360.209c0,17.98,6.278,34.746,17.011,49.142c-5.764-17.872-8.995-36.806-8.995-56.49
	c0-29.354,6.934-57.139,19.281-81.995c8.122-16.348,12.784-34.716,12.784-53.612c0-16.8,1.902-33.058,5.308-48.613
	c-0.287,0.041-0.566,0.039-0.853,0.084c-30.35,4.723-54.88,29.212-59.647,59.555c-3.47,22.091,3.106,42.656,15.854,57.888
	c9.997,11.942,12.115,28.327,5.893,42.603C138.102,338.616,135.758,349.187,135.758,360.209z"/>
<path style="fill:#4B3F4E;" d="M183.855,264.016L183.855,264.016c-13.282,0-24.048-10.767-24.048-24.048v-8.016
	c0-13.282,10.767-24.048,24.048-24.048l0,0c13.282,0,24.048,10.767,24.048,24.048v8.016
	C207.903,253.249,197.136,264.016,183.855,264.016z"/>
<path style="fill:#5D5360;" d="M183.855,207.903v28.056c0,6.641,5.383,12.024,12.024,12.024s12.024-5.383,12.024-12.024v-4.008
	C207.903,218.669,197.136,207.903,183.855,207.903z"/>
<circle style="fill:#FFFFFF;" cx="183.85" cy="223.94" r="8.02"/>
<path style="fill:#4B3F4E;" d="M328.145,264.016L328.145,264.016c-13.282,0-24.048-10.767-24.048-24.048v-8.016
	c0-13.282,10.767-24.048,24.048-24.048l0,0c13.282,0,24.048,10.767,24.048,24.048v8.016
	C352.194,253.249,341.427,264.016,328.145,264.016z"/>
<path style="fill:#5D5360;" d="M328.145,207.903v28.056c0,6.641,5.383,12.024,12.024,12.024s12.024-5.383,12.024-12.024v-4.008
	C352.194,218.669,341.427,207.903,328.145,207.903z"/>
<circle style="fill:#FFFFFF;" cx="328.14" cy="223.94" r="8.02"/>
<g>
	<path style="fill:#965A50;" d="M125.278,440.37c-7.771,18.973-16.112,40.517-24.479,64.124l81.163,0.004
		c6.073,0,11.625-3.431,14.341-8.862l3.585-7.169L125.278,440.37z"/>
	<path style="fill:#965A50;" d="M386.722,440.37c7.771,18.973,16.112,40.517,24.479,64.124l-81.163,0.004
		c-6.073,0-11.625-3.431-14.341-8.862l-3.585-7.169L386.722,440.37z"/>
</g>
<g>
	<path style="fill:#F5DCB4;" d="M379.749,328.605c-11.423,2.199-19.283,12.868-19.283,24.501v32.052l-25.759-25.759
		c-22.549-22.549-58.578-26.8-84.329-7.992c-32.455,23.704-35.034,70.013-7.738,97.31l35.94,35.94
		c23.879,23.879,62.953,23.879,86.831,0l10.276-10.276c21.046-21.046,32.87-49.591,32.87-79.356v-42.834
		C408.564,337.354,395.116,325.647,379.749,328.605z"/>
	<path style="fill:#F5DCB4;" d="M132.251,328.605c11.423,2.199,19.283,12.868,19.283,24.501v32.052l25.759-25.759
		c22.549-22.549,58.578-26.8,84.329-7.992c32.455,23.704,35.034,70.013,7.738,97.31l-35.94,35.94
		c-23.879,23.879-62.953,23.879-86.831,0l-10.276-10.276c-21.046-21.046-32.87-49.591-32.87-79.356v-42.834
		C103.436,337.354,116.884,325.647,132.251,328.605z"/>
</g>
<path style="fill:#EBC9A0;" d="M258.224,349.167c-25.448-16.113-59.352-11.349-80.932,10.232l-25.758,25.759v-32.052
	c0-11.633-7.861-22.302-19.283-24.501c-15.368-2.958-28.815,8.749-28.809,23.586v42.834c0,29.764,11.824,58.309,32.871,79.355
	l10.275,10.276C137.765,452.029,183.505,350.452,258.224,349.167z"/>
<path d="M243.322,305.406l-16.032-8.016c-3.704-1.853-8.21-0.35-10.062,3.354c-1.852,3.705-0.351,8.21,3.354,10.062l16.032,8.016
	c1.077,0.539,2.221,0.793,3.348,0.793c2.751,0,5.4-1.52,6.714-4.147C248.528,311.764,247.027,307.258,243.322,305.406z"/>
<path d="M284.71,297.39l-16.032,8.016c-3.705,1.852-5.207,6.357-3.354,10.062c1.314,2.628,3.963,4.147,6.714,4.147
	c1.127,0,2.272-0.255,3.348-0.793l16.032-8.016c3.705-1.852,5.207-6.357,3.354-10.062C292.92,297.039,288.415,295.536,284.71,297.39
	z"/>
<path d="M512,215.921c0-39.497-32.133-71.629-71.629-71.629c-6.606,0-13.103,0.906-19.386,2.67
	c-4.928-13.323-11.495-26.068-19.627-37.981c-18.502-27.106-43.917-48.334-73.729-61.639V23.534c0-2.489-1.234-4.815-3.295-6.21
	c-2.061-1.395-4.679-1.678-6.99-0.753l-32.104,12.84l-5.932-23.729c-0.507-2.027-1.836-3.75-3.667-4.756
	c-1.832-1.005-3.999-1.202-5.981-0.541c-18.576,6.192-36.822,18.473-54.261,36.515c-37.524,8.89-71.54,30.254-95.986,60.339
	c-12.16,14.965-21.687,31.815-28.313,49.74c-6.308-1.78-12.833-2.688-19.47-2.688C32.133,144.292,0,176.425,0,215.921
	c0,32.795,22.448,61.145,53.465,69.269c-3.562,12.663-5.368,25.675-5.368,38.949c0,44.806,20.689,87.152,58.264,119.327
	c1.641,3.707,3.476,7.33,5.495,10.86c-6.372,15.704-12.472,31.714-18.126,47.666c-1.384,3.904,0.659,8.191,4.563,9.575
	c0.829,0.294,1.674,0.433,2.506,0.433c3.087,0,5.979-1.921,7.069-4.997c4.463-12.591,9.2-25.225,14.134-37.707
	c2.866,3.61,5.951,7.082,9.259,10.391l10.276,10.276c13.432,13.432,31.075,20.147,48.719,20.147s35.287-6.716,48.719-20.147
	L256,472.935l17.026,17.026c13.432,13.432,31.075,20.148,48.719,20.148c17.644,0,35.287-6.716,48.719-20.148l10.276-10.276
	c3.309-3.308,6.393-6.781,9.259-10.391c4.933,12.48,9.67,25.114,14.134,37.707c1.09,3.076,3.982,4.997,7.069,4.997
	c0.832,0,1.677-0.139,2.505-0.433c3.904-1.384,5.948-5.67,4.563-9.575c-5.656-15.957-11.755-31.967-18.125-47.666
	c2.021-3.533,3.857-7.16,5.499-10.871c37.576-32.175,58.259-74.484,58.259-119.316c0-13.271-1.805-26.28-5.366-38.94
	C489.555,277.075,512,248.717,512,215.921z M15,215.921c0-31.226,25.404-56.629,56.629-56.629c5.068,0,10.05,0.665,14.87,1.974
	c-4.167,15.111-6.338,30.803-6.338,46.639c0,14.313-4.071,28.903-11.772,42.192c-3.949,6.813-7.31,13.775-10.112,20.859
	C33.234,264.898,15,242.21,15,215.921z M228.368,479.355c-21.015,21.015-55.209,21.015-76.225,0l-10.276-10.276
	c-19.78-19.78-30.673-46.079-30.673-74.052V352.19c-0.002-4.951,2.19-9.603,6.015-12.763c3.009-2.486,6.65-3.782,10.499-3.782
	c1.112,0,2.241,0.108,3.377,0.327c7.526,1.449,13.201,8.816,13.201,17.136v32.052c0,3.034,1.827,5.768,4.63,6.929
	c2.802,1.16,6.028,0.519,8.173-1.626l25.759-25.759c20.336-20.336,52.409-23.449,74.603-7.239
	c13.461,9.831,21.915,24.946,23.195,41.468c1.286,16.601-4.669,32.813-16.337,44.482L228.368,479.355z M370.133,469.079
	l-10.276,10.276c-21.015,21.015-55.209,21.016-76.225,0l-17.026-17.026l8.308-8.307c14.771-14.771,22.31-35.271,20.686-56.247
	c-1.457-18.814-10.279-36.16-24.428-48.497c19.851-5.839,42.345-0.21,57.981,15.427l25.759,25.759
	c2.145,2.146,5.373,2.787,8.173,1.626c2.803-1.161,4.63-3.896,4.63-6.929v-32.052c0-8.32,5.675-15.688,13.2-17.136
	c5.072-0.977,9.999,0.251,13.876,3.455c3.825,3.16,6.018,7.813,6.016,12.767v42.834C400.807,423,389.913,449.299,370.133,469.079z
	 M414.367,413.661c0.949-6.11,1.44-12.334,1.44-18.635v-42.831c0.004-9.443-4.174-18.312-11.461-24.333
	c-7.285-6.019-16.858-8.433-26.266-6.621c-1.014,0.195-2.006,0.445-2.979,0.738c-3.286-10.79-1.078-22.36,6.151-30.996
	c14.954-17.866,21.173-40.546,17.512-63.861c-2.125-13.541-7.894-26.424-16.681-37.259c-2.609-3.217-7.332-3.708-10.55-1.101
	c-3.217,2.609-3.709,7.333-1.1,10.55c7.124,8.783,11.796,19.204,13.513,30.136c2.98,18.975-2.062,37.409-14.197,51.906
	c-11.349,13.56-14.246,32.029-7.751,48.628c-5.768,5.925-9.283,14.154-9.283,23.123v13.945l-12.956-12.956
	c-22.48-22.48-56.427-28.367-83.786-14.939c-27.038-13.145-61.201-7.593-83.733,14.939l-12.956,12.956v-13.945
	c0-8.969-3.515-17.198-9.282-23.123c6.495-16.6,3.599-35.069-7.751-48.629c-12.136-14.499-17.177-32.934-14.197-51.91
	c4.266-27.159,26.221-49.08,53.392-53.309c19.709-3.069,39.349,2.774,53.882,16.029c11.591,10.573,29.751,10.573,41.343,0
	c14.533-13.256,34.174-19.096,53.887-16.029c6.317,0.984,12.458,2.943,18.252,5.823c3.709,1.844,8.21,0.332,10.054-3.377
	s0.332-8.21-3.377-10.054c-7.172-3.565-14.783-5.992-22.621-7.212c-24.227-3.773-48.394,3.432-66.303,19.768
	c-5.923,5.402-15.203,5.402-21.126-0.001c-17.908-16.333-42.073-23.537-66.297-19.768c-33.537,5.22-60.637,32.278-65.903,65.802
	c-3.663,23.316,2.557,45.998,17.512,63.866c7.229,8.636,9.438,20.206,6.151,30.996c-0.973-0.293-1.966-0.543-2.98-0.739l0,0
	c-9.409-1.812-18.981,0.603-26.266,6.621c-7.288,6.021-11.465,14.891-11.461,24.33v42.834c0,6.298,0.49,12.521,1.439,18.628
	c-22.423-26.126-34.536-57.161-34.536-89.516c0-23.22,6.147-45.601,18.271-66.52c9.024-15.572,13.794-32.762,13.794-49.713
	c0-36.779,12.747-72.721,35.893-101.206c22.811-28.073,54.719-47.844,89.845-55.672c1.46-0.325,2.79-1.08,3.818-2.167
	c13.754-14.545,27.882-25.047,42.096-31.307l5.958,23.832c0.525,2.102,1.933,3.873,3.862,4.859c1.928,0.986,4.189,1.09,6.2,0.286
	l29.795-11.918v17.672c0,3.037,1.832,5.775,4.64,6.933c60.487,24.955,99.57,83.319,99.57,148.688
	c0,16.951,4.77,34.141,13.794,49.713c12.124,20.919,18.271,43.3,18.271,66.52C448.903,356.517,436.794,387.539,414.367,413.661z
	 M453.723,270.955c-2.802-7.084-6.163-14.045-10.111-20.858c-7.702-13.289-11.772-27.879-11.772-42.192
	c0-15.925-2.127-31.588-6.266-46.659c4.799-1.296,9.758-1.954,14.799-1.954c31.225,0,56.629,25.404,56.629,56.629
	C497,242.21,478.766,264.897,453.723,270.955z"/>
<path d="M207.903,224.453c-4.142,0-7.5,3.358-7.5,7.5v8.016c0,9.125-7.424,16.548-16.549,16.548s-16.548-7.423-16.548-16.548v-8.016
	c0-9.125,7.424-16.548,16.548-16.548c4.142,0,7.5-3.358,7.5-7.5s-3.358-7.5-7.5-7.5c-17.396,0-31.548,14.152-31.548,31.548v8.016
	c0,17.396,14.153,31.548,31.549,31.548s31.548-14.152,31.548-31.548v-8.016C215.403,227.811,212.045,224.453,207.903,224.453z"/>
<path d="M352.193,224.453c-4.142,0-7.5,3.358-7.5,7.5v8.016c0,9.125-7.423,16.548-16.548,16.548s-16.548-7.423-16.548-16.548v-8.016
	c0-9.125,7.423-16.548,16.548-16.548c4.142,0,7.5-3.358,7.5-7.5s-3.358-7.5-7.5-7.5c-17.396,0-31.548,14.152-31.548,31.548v8.016
	c0,17.396,14.152,31.548,31.548,31.548s31.548-14.152,31.548-31.548v-8.016C359.693,227.811,356.335,224.453,352.193,224.453z"/>
<g>
</g>
<g>
</g>
<g>
</g>
<g>
</g>
<g>
</g>
<g>
</g>
<g>
</g>
<g>
</g>
<g>
</g>
<g>
</g>
<g>
</g>
<g>
</g>
<g>
</g>
<g>
</g>
<g>
</g>
</svg>
