<?xml version="1.0" encoding="UTF-8" standalone="no"?>
<!-- Generator: Adobe Illustrator 19.0.0, SVG Export Plug-In . SVG Version: 6.00 Build 0)  -->

<svg
   xmlns:dc="http://purl.org/dc/elements/1.1/"
   xmlns:cc="http://creativecommons.org/ns#"
   xmlns:rdf="http://www.w3.org/1999/02/22-rdf-syntax-ns#"
   xmlns:svg="http://www.w3.org/2000/svg"
   xmlns="http://www.w3.org/2000/svg"
   xmlns:sodipodi="http://sodipodi.sourceforge.net/DTD/sodipodi-0.dtd"
   xmlns:inkscape="http://www.inkscape.org/namespaces/inkscape"
   version="1.1"
   id="Layer_1"
   x="0px"
   y="0px"
   viewBox="0 0 30.52634 20"
   xml:space="preserve"
   sodipodi:docname="switzerland.svg"
   width="30.52634"
   height="20"
   inkscape:version="0.92.4 (5da689c313, 2019-01-14)"><metadata
   id="metadata41"><rdf:RDF><cc:Work
       rdf:about=""><dc:format>image/svg+xml</dc:format><dc:type
         rdf:resource="http://purl.org/dc/dcmitype/StillImage" /><dc:title></dc:title></cc:Work></rdf:RDF></metadata><defs
   id="defs39" /><sodipodi:namedview
   pagecolor="#ffffff"
   bordercolor="#666666"
   borderopacity="1"
   objecttolerance="10"
   gridtolerance="10"
   guidetolerance="10"
   inkscape:pageopacity="0"
   inkscape:pageshadow="2"
   inkscape:window-width="789"
   inkscape:window-height="480"
   id="namedview37"
   showgrid="false"
   fit-margin-top="0"
   fit-margin-left="0"
   fit-margin-right="0"
   fit-margin-bottom="0"
   inkscape:zoom="1.3037281"
   inkscape:cx="64.327977"
   inkscape:cy="-2.2396784"
   inkscape:window-x="0"
   inkscape:window-y="0"
   inkscape:window-maximized="0"
   inkscape:current-layer="Layer_1" />
<path
   style="fill:#ff4b55;stroke-width:0.05962176"
   d="M 28.240145,20 H 2.2861964 C 1.0235267,20 0,18.976473 0,17.713807 V 2.286193 C 0,1.023587 1.0235267,0 2.2861964,0 H 28.240145 c 1.26261,0 2.286196,1.023527 2.286196,2.286193 V 17.71386 C 30.526341,18.976473 29.502814,20 28.240145,20 Z"
   id="path2"
   inkscape:connector-curvature="0" />
<path
   style="fill:#f5f5f5;stroke-width:0.05962176"
   d="M 21.052622,7.894753 H 17.368415 V 4.210547 c 0,-0.290654 -0.235685,-0.52634 -0.526341,-0.52634 h -3.157926 c -0.290656,0 -0.526341,0.235686 -0.526341,0.52634 V 7.894753 H 9.4735993 c -0.290656,0 -0.5263406,0.235687 -0.5263406,0.52634 v 3.157927 c 0,0.29066 0.2356846,0.526347 0.5263406,0.526347 h 3.6842077 v 3.684206 c 0,0.290654 0.235685,0.52634 0.526341,0.52634 h 3.157926 c 0.290656,0 0.526341,-0.235686 0.526341,-0.52634 v -3.684326 h 3.684207 c 0.290656,0 0.526341,-0.235687 0.526341,-0.52634 V 8.42098 c 0,-0.2906 -0.235685,-0.526227 -0.526341,-0.526227 z"
   id="path4"
   inkscape:connector-curvature="0" />
<g
   id="g6"
   transform="translate(0,-403.724)">
</g>
<g
   id="g8"
   transform="translate(0,-403.724)">
</g>
<g
   id="g10"
   transform="translate(0,-403.724)">
</g>
<g
   id="g12"
   transform="translate(0,-403.724)">
</g>
<g
   id="g14"
   transform="translate(0,-403.724)">
</g>
<g
   id="g16"
   transform="translate(0,-403.724)">
</g>
<g
   id="g18"
   transform="translate(0,-403.724)">
</g>
<g
   id="g20"
   transform="translate(0,-403.724)">
</g>
<g
   id="g22"
   transform="translate(0,-403.724)">
</g>
<g
   id="g24"
   transform="translate(0,-403.724)">
</g>
<g
   id="g26"
   transform="translate(0,-403.724)">
</g>
<g
   id="g28"
   transform="translate(0,-403.724)">
</g>
<g
   id="g30"
   transform="translate(0,-403.724)">
</g>
<g
   id="g32"
   transform="translate(0,-403.724)">
</g>
<g
   id="g34"
   transform="translate(0,-403.724)">
</g>
</svg>