<svg height="480pt" viewBox="-64 0 480 480" width="480pt" xmlns="http://www.w3.org/2000/svg"><path d="m343.945312 472h-336v-384h80v-80h256zm0 0" fill="#fbedbf"/><path d="m87.945312 88h-80l80-80zm0 0" fill="#fbd699"/><path d="m199.945312 264c.050782-26.347656-12.898437-51.027344-34.609374-65.953125-21.714844-14.929687-49.394532-18.179687-73.976563-8.695313l43.199219 43.199219c8.238281 8.054688 11.511718 19.910157 8.570312 31.046875-2.9375 11.136719-11.632812 19.835938-22.769531 22.773438-11.136719 2.941406-22.992187-.328125-31.046875-8.5625l-43.59375-43.59375c-14.78125 36.917968-.199219 79.089844 34.226562 98.992187v138.792969h80v-138.792969c24.742188-14.261719 39.992188-40.648437 40-69.207031zm0 0" fill="#dbdbdb"/><path d="m247.945312 184h32v168h-32zm0 0" fill="#cbcbcb"/><path d="m215.945312 408h96v64h-96zm0 0" fill="#fbb540"/><path d="m311.945312 408h-96v-16c0-26.507812 21.488282-48 48-48 26.507813 0 48 21.492188 48 48zm0 0" fill="#e06661"/><path d="m215.945312 432h56v16h-56zm0 0" fill="#ea9d2d"/><path d="m79.945312 368h40v16h-40zm0 0" fill="#cbcbcb"/><g fill="#dbdbdb"><path d="m87.945312 128h16v16h-16zm0 0"/><path d="m119.945312 128h16v16h-16zm0 0"/><path d="m151.945312 128h16v16h-16zm0 0"/><path d="m223.945312 48h16v16h-16zm0 0"/><path d="m255.945312 48h16v16h-16zm0 0"/><path d="m287.945312 48h16v16h-16zm0 0"/></g><path d="m279.945312 192h-32l-16-24v-64h64v64zm0 0" fill="#dedede"/><path d="m231.945312 104h64v32h-64zm0 0" fill="#eaeaea"/><path d="m343.945312 0h-256c-.152343 0-.28125.078125-.433593.0898438-.761719.0390622-1.511719.1914062-2.230469.4453122-.226562.082032-.457031.144532-.671875.242188-.851563.375-1.625.894531-2.289063 1.542968l-80 80c-.636718.664063-1.152343 1.433594-1.527343 2.273438-.101563.242188-.191407.496094-.265625.75-.238282.679688-.382813 1.390625-.4296878 2.113281 0 .175781-.0976562.320313-.0976562.496094v384.046875c0 4.417969 3.582031 8 8 8h335.945312c4.417969 0 8-3.582031 8-8v-464c0-4.417969-3.582031-8-8-8zm-264 27.3125v52.6875h-52.6875zm76 298.976562c-2.472656 1.425782-4 4.0625-4 6.917969v130.792969h-64v-80h32v-16h-32v-34.792969c-.003906-2.855469-1.527343-5.492187-4-6.917969-2.492187-1.457031-4.898437-3.0625-7.203124-4.800781-22.367188-16.714843-33.011719-44.886719-27.277344-72.214843l34.183594 34.183593c15.621093 15.621094 40.949218 15.625 56.570312.003907 15.625-15.621094 15.625-40.949219.003906-56.574219l-33.597656-33.640625c4.390625-.832032 8.851562-1.25 13.320312-1.246094 32.585938-.03125 61.125 21.84375 69.5625 53.320312 8.4375 31.476563-5.332031 64.691407-33.5625 80.96875zm148 137.710938h-80v-16h48v-16h-48v-16h80zm0-64h-80v-8c0-22.089844 17.90625-40 40-40 22.089844 0 40 17.910156 40 40zm-16-256v21.601562l-12.28125 18.398438h-23.441406l-12.277344-18.398438v-21.601562zm-48-16v-16h48v16zm32 72v136.640625c-5.300781-.855469-10.703124-.855469-16 0v-136.640625zm64 264h-16v-72c-.03125-21.601562-12.484374-41.261719-32-50.519531v-147.082031l14.65625-21.984376c.867188-1.308593 1.335938-2.84375 1.34375-4.414062v-64c0-4.417969-3.582031-8-8-8h-64c-4.417968 0-8 3.582031-8 8v64c0 1.578125.46875 3.125 1.34375 4.441406l14.65625 21.957032v147.082031c-19.519531 9.257812-31.972656 28.917969-32 50.519531v72h-40v-126.320312c37.761719-24.507813 50.910157-73.582032 30.457032-113.6875-20.449219-40.105469-67.890625-58.285157-109.90625-42.113282-2.53125.972656-4.398438 3.15625-4.960938 5.808594-.5625 2.648438.253906 5.40625 2.167969 7.320312l43.199219 43.199219c9.375 9.375 9.375 24.570313 0 33.945313-9.503906 9.058594-24.445313 9.058594-33.949219 0l-43.570313-43.578125c-1.898437-1.898438-4.625-2.71875-7.257812-2.179688-2.632812.539063-4.820312 2.359375-5.820312 4.851563-14.886719 36.914062-3.066407 79.21875 28.800781 103.066406 1.597656 1.175781 3.199219 2.296875 4.796875 3.367188v126.320312h-55.957032v-368h72c4.417969 0 8-3.582031 8-8v-72h240zm0 0"/><path d="m87.945312 128h16v16h-16zm0 0"/><path d="m119.945312 128h16v16h-16zm0 0"/><path d="m151.945312 128h16v16h-16zm0 0"/><path d="m223.945312 48h16v16h-16zm0 0"/><path d="m255.945312 48h16v16h-16zm0 0"/><path d="m287.945312 48h16v16h-16zm0 0"/></svg>