<?xml version="1.0" encoding="UTF-8" standalone="no"?>
<!-- Generator: Adobe Illustrator 19.0.0, SVG Export Plug-In . SVG Version: 6.00 Build 0)  -->

<svg
   xmlns:dc="http://purl.org/dc/elements/1.1/"
   xmlns:cc="http://creativecommons.org/ns#"
   xmlns:rdf="http://www.w3.org/1999/02/22-rdf-syntax-ns#"
   xmlns:svg="http://www.w3.org/2000/svg"
   xmlns="http://www.w3.org/2000/svg"
   xmlns:sodipodi="http://sodipodi.sourceforge.net/DTD/sodipodi-0.dtd"
   xmlns:inkscape="http://www.inkscape.org/namespaces/inkscape"
   version="1.1"
   id="Layer_1"
   x="0px"
   y="0px"
   viewBox="0 0 30.526161 20"
   xml:space="preserve"
   sodipodi:docname="uk.svg"
   width="30.526161"
   height="20"
   inkscape:version="0.92.4 (5da689c313, 2019-01-14)"><metadata
   id="metadata53"><rdf:RDF><cc:Work
       rdf:about=""><dc:format>image/svg+xml</dc:format><dc:type
         rdf:resource="http://purl.org/dc/dcmitype/StillImage" /><dc:title></dc:title></cc:Work></rdf:RDF></metadata><defs
   id="defs51" /><sodipodi:namedview
   pagecolor="#ffffff"
   bordercolor="#666666"
   borderopacity="1"
   objecttolerance="10"
   gridtolerance="10"
   guidetolerance="10"
   inkscape:pageopacity="0"
   inkscape:pageshadow="2"
   inkscape:window-width="789"
   inkscape:window-height="480"
   id="namedview49"
   showgrid="false"
   fit-margin-top="0"
   fit-margin-left="0"
   fit-margin-right="0"
   fit-margin-bottom="0"
   inkscape:zoom="0.4609375"
   inkscape:cx="-175.72881"
   inkscape:cy="167.725"
   inkscape:window-x="0"
   inkscape:window-y="40"
   inkscape:window-maximized="0"
   inkscape:current-layer="Layer_1" />
<path
   style="fill:#41479b;stroke-width:0.05962141"
   d="M 28.239976,6e-5 H 2.2861827 C 1.0235207,6e-5 0,1.02358 0,2.28624 V 17.71382 C 0,18.97642 1.0235207,20 2.2861827,20 H 28.239976 c 1.262603,0 2.286183,-1.02352 2.286183,-2.28618 V 2.28624 C 30.526159,1.02358 29.502638,6e-5 28.239976,6e-5 Z"
   id="path2"
   inkscape:connector-curvature="0" />
<path
   style="fill:#f5f5f5;stroke-width:0.05962141"
   d="M 30.4945,1.9083 C 30.314324,0.82564 29.373797,0 28.239976,0 H 27.645133 L 17.894649,6.388253 V 6e-5 H 12.63151 V 6.388313 L 2.8810255,6e-5 H 2.2861827 c -1.1338202,0 -2.07434785,0.82558 -2.25452373,1.9083 L 8.3654193,7.368493 H 0 v 5.263134 H 8.3654193 L 0.03165897,18.09164 c 0.18017588,1.08266 1.12070353,1.9083 2.25452373,1.9083 H 2.8810255 L 12.63151,13.611687 v 6.388253 h 5.263139 v -6.388253 l 9.750484,6.388253 h 0.594843 c 1.133821,0 2.074348,-0.82558 2.254524,-1.9083 l -8.333761,-5.460133 h 8.36542 V 7.368373 h -8.36542 z"
   id="path4"
   inkscape:connector-curvature="0" />
<g
   id="g16"
   transform="matrix(0.05962141,0,0,0.05962141,0,-5.26308)">
	<polygon
   style="fill:#ff4b55"
   points="229.517,423.724 282.483,423.724 282.483,282.483 512,282.483 512,229.517 282.483,229.517 282.483,88.276 229.517,88.276 229.517,229.517 0,229.517 0,282.483 229.517,282.483 "
   id="polygon6" />
	<path
   style="fill:#ff4b55"
   d="M 24.793,421.252 211.376,300.138 H 178.948 L 9.224,410.31 c 4.153,4.847 9.49,8.645 15.569,10.942 z"
   id="path8"
   inkscape:connector-curvature="0" />
	<path
   style="fill:#ff4b55"
   d="M 346.388,300.138 H 313.96 l 180.716,117.305 c 5.057,-3.321 9.277,-7.807 12.287,-13.075 z"
   id="path10"
   inkscape:connector-curvature="0" />
	<path
   style="fill:#ff4b55"
   d="m 4.049,109.475 157.73,102.387 h 32.428 L 15.475,95.842 c -4.799,3.572 -8.726,8.242 -11.426,13.633 z"
   id="path12"
   inkscape:connector-curvature="0" />
	<path
   style="fill:#ff4b55"
   d="M 332.566,211.862 502.601,101.487 c -4.199,-4.831 -9.578,-8.607 -15.699,-10.86 L 300.138,211.862 Z"
   id="path14"
   inkscape:connector-curvature="0" />
</g>
<g
   id="g18"
   transform="matrix(0.08943211,0,0,0.08943211,0,-17.89462)">
</g>
<g
   id="g20"
   transform="matrix(0.08943211,0,0,0.08943211,0,-17.89462)">
</g>
<g
   id="g22"
   transform="matrix(0.08943211,0,0,0.08943211,0,-17.89462)">
</g>
<g
   id="g24"
   transform="matrix(0.08943211,0,0,0.08943211,0,-17.89462)">
</g>
<g
   id="g26"
   transform="matrix(0.08943211,0,0,0.08943211,0,-17.89462)">
</g>
<g
   id="g28"
   transform="matrix(0.08943211,0,0,0.08943211,0,-17.89462)">
</g>
<g
   id="g30"
   transform="matrix(0.08943211,0,0,0.08943211,0,-17.89462)">
</g>
<g
   id="g32"
   transform="matrix(0.08943211,0,0,0.08943211,0,-17.89462)">
</g>
<g
   id="g34"
   transform="matrix(0.08943211,0,0,0.08943211,0,-17.89462)">
</g>
<g
   id="g36"
   transform="matrix(0.08943211,0,0,0.08943211,0,-17.89462)">
</g>
<g
   id="g38"
   transform="matrix(0.08943211,0,0,0.08943211,0,-17.89462)">
</g>
<g
   id="g40"
   transform="matrix(0.08943211,0,0,0.08943211,0,-17.89462)">
</g>
<g
   id="g42"
   transform="matrix(0.08943211,0,0,0.08943211,0,-17.89462)">
</g>
<g
   id="g44"
   transform="matrix(0.08943211,0,0,0.08943211,0,-17.89462)">
</g>
<g
   id="g46"
   transform="matrix(0.08943211,0,0,0.08943211,0,-17.89462)">
</g>
</svg>